<svg width="16" height="16" viewBox="4 4 16 16" fill="none" xmlns="http://www.w3.org/2000/svg">
	<path id="c" d="M1.51 13.3169C0.69 13.3169 0.02 12.6669 0 11.8569L0 11.7469L0 6.75685C0 5.92685 0.64 5.24685 1.45 5.18685L1.56 5.18685L3.13 5.18685L4.13 4.26685C4.56 3.87685 4.85 3.36685 4.99 2.80685L5.02 2.65685L5.3 1.07685C5.45 0.236853 6.35 -0.233147 7.13 0.116853C8.11 0.556853 8.69 1.58685 8.59 2.65685L8.57 2.79685L8.37 4.10685C8.37 4.10685 7.97 5.78685 7.81 5.86685C7.6 5.96685 7.53 6.18685 7.28 6.14685C7.03 6.10685 6.71 5.86685 6.88 5.46685L7.23 4.50685C7.23 4.50685 7.38 3.94685 7.38 3.90685L7.57 2.64685C7.67 1.95685 7.3 1.28685 6.68 1.01685C6.53 0.946854 6.35 1.02685 6.29 1.18685L5.97 2.91685C5.84 3.66685 5.47 4.35685 4.92 4.87685L4.79 5.00685L3.81 5.90685L3.81 12.3169L10.46 12.3169C10.94 12.3169 11.37 11.9969 11.5 11.5269L11.52 11.4269L12.29 7.50685C12.42 6.84685 11.95 6.23685 11.31 6.18685L7.28 6.14685C7 6.14685 6.81 5.96685 6.81 5.68685C6.81 5.43685 7 5.22685 7.24 5.18685L11.26 5.18685C12.53 5.18685 13.5 6.32685 13.29 7.58685L13.27 7.70685L12.5 11.6269C12.31 12.5669 11.52 13.2569 10.58 13.3169L10.46 13.3169L1.51 13.3169ZM2.81 6.18685L1.55 6.18685C1.27 6.18685 1.03 6.40685 1 6.68685L1 11.7469C1 12.0369 1.21 12.2769 1.49 12.3169L2.82 12.3169L2.81 6.18685Z" fill="rgb(25,25,25)" fill-rule="nonzero" transform="matrix(1,0,0,-1,5.33984,18.6465)" />
</svg>
