<svg viewBox="0 0 24 24" xmlns="http://www.w3.org/2000/svg" xmlns:xlink="http://www.w3.org/1999/xlink" width="24.000000" height="24.000000" fill="none">
	<rect id="选择文件夹" width="24.000000" height="24.000000" x="0.000000" y="0.000000" />
	<g id="ic_public_tv-电视/base/ic_public_tv">
		<path id="path1" d="M4.50182 11.9939C4.50182 10.8222 4.49772 9.6505 4.50182 8.47881C4.49947 7.91183 4.56915 7.34684 4.70921 6.79743C5.0162 5.63452 5.7737 4.94439 6.93543 4.67666C7.51794 4.5508 8.11291 4.49184 8.70879 4.50091C10.9557 4.50091 13.2028 4.50091 15.4501 4.50091C16.0177 4.49738 16.5836 4.5623 17.1356 4.69424C18.3325 4.98716 19.0507 5.74525 19.3243 6.93803C19.4473 7.50176 19.5061 8.07761 19.4995 8.65456C19.4995 10.9257 19.4995 13.197 19.4995 15.4686C19.5026 16.0306 19.4379 16.591 19.3068 17.1376C19.0138 18.3351 18.2522 19.0498 17.0594 19.3234C16.4769 19.4488 15.882 19.5078 15.2861 19.4992C13.0485 19.4992 10.8112 19.4992 8.57404 19.4992C8.00215 19.5038 7.43176 19.4399 6.87509 19.3088C5.67293 19.0159 4.95117 18.2543 4.67816 17.0556C4.53873 16.4463 4.50182 15.8353 4.50182 15.219C4.50182 14.1441 4.50182 13.0691 4.50182 11.9939Z" fill="rgb(255,255,255)" fill-opacity="0" fill-rule="nonzero" />
		<path id="path1" d="M4.50182 8.47881C4.49947 7.91183 4.56915 7.34684 4.70921 6.79743C5.0162 5.63452 5.7737 4.94439 6.93543 4.67666C7.51794 4.5508 8.11291 4.49184 8.70879 4.50091C10.9557 4.50091 13.2028 4.50091 15.4501 4.50091C16.0177 4.49738 16.5836 4.5623 17.1356 4.69424C18.3325 4.98716 19.0507 5.74525 19.3243 6.93803C19.4473 7.50176 19.5061 8.07761 19.4995 8.65456C19.4995 10.9257 19.4995 13.197 19.4995 15.4686C19.5026 16.0306 19.4379 16.591 19.3068 17.1376C19.0138 18.3351 18.2522 19.0498 17.0594 19.3234C16.4769 19.4488 15.882 19.5078 15.2861 19.4992C13.0485 19.4992 10.8112 19.4992 8.57404 19.4992C8.00215 19.5038 7.43176 19.4399 6.87509 19.3088C5.67293 19.0159 4.95117 18.2543 4.67816 17.0556C4.53873 16.4463 4.50182 15.8353 4.50182 15.219C4.50182 14.1441 4.50182 13.0691 4.50182 11.9939C4.50182 10.8222 4.49772 9.6505 4.50182 8.47881Z" fill-rule="nonzero" stroke="rgb(255,255,255)" stroke-opacity="0" stroke-width="1" />
		<path id="path2" d="M4.50182 8.47881C4.49947 7.91183 4.56915 7.34684 4.70921 6.79743C5.0162 5.63452 5.7737 4.94439 6.93543 4.67666C7.51794 4.5508 8.11291 4.49184 8.70879 4.50091C10.9557 4.50091 13.2028 4.50091 15.4501 4.50091C16.0177 4.49738 16.5836 4.5623 17.1356 4.69424C18.3325 4.98716 19.0507 5.74525 19.3243 6.93803C19.4473 7.50176 19.5061 8.07761 19.4995 8.65456C19.4995 10.9257 19.4995 13.197 19.4995 15.4686C19.5026 16.0306 19.4379 16.591 19.3068 17.1376C19.0138 18.3351 18.2522 19.0498 17.0594 19.3234C16.4769 19.4488 15.882 19.5078 15.2861 19.4992C13.0485 19.4992 10.8112 19.4992 8.57404 19.4992C8.00215 19.5038 7.43176 19.4399 6.87509 19.3088C5.67293 19.0159 4.95117 18.2543 4.67816 17.0556C4.53873 16.4463 4.50182 15.8353 4.50182 15.219C4.50182 14.1441 4.50182 13.0691 4.50182 11.9939C4.50182 10.8222 4.49772 9.6505 4.50182 8.47881Z" opacity="0.200000003" fill-rule="nonzero" stroke="rgb(255,255,255)" stroke-opacity="0" stroke-width="1" />
		<circle id="path3" cx="12" cy="12" r="8" fill="rgb(255,255,255)" fill-opacity="0" />
		<path id="path4" d="M6.5 18L17.5 18M12 18L12 16" stroke="rgb(25,25,25)" stroke-linecap="round" stroke-linejoin="round" stroke-width="1" />
		<path id="path5" d="M12.1998 17.9998L17.4998 17.9998C17.6103 17.9998 17.6998 18.0893 17.6998 18.1998C17.6998 18.3103 17.6103 18.3998 17.4998 18.3998L6.4998 18.3998C6.38935 18.3998 6.2998 18.3103 6.2998 18.1998C6.2998 18.0893 6.38935 17.9998 6.4998 17.9998L11.7998 18.0001L11.7998 15.9998C11.7998 15.8893 11.8893 15.7998 11.9998 15.7998C12.1103 15.7998 12.1998 15.8893 12.1998 15.9998L12.1998 17.9998Z" fill="rgb(255,255,255)" fill-opacity="0" fill-rule="nonzero" />
		<path id="path5" d="M17.4998 17.9998C17.6103 17.9998 17.6998 18.0893 17.6998 18.1998C17.6998 18.3103 17.6103 18.3998 17.4998 18.3998L6.4998 18.3998C6.38935 18.3998 6.2998 18.3103 6.2998 18.1998C6.2998 18.0893 6.38935 17.9998 6.4998 17.9998L11.7998 18.0001L11.7998 15.9998C11.7998 15.8893 11.8893 15.7998 11.9998 15.7998C12.1103 15.7998 12.1998 15.8893 12.1998 15.9998L12.1998 17.9998L17.4998 17.9998Z" fill-rule="nonzero" stroke="rgb(255,255,255)" stroke-opacity="0" stroke-linejoin="round" stroke-width="1" />
		<path id="path6" d="M11.9996 16.0002L6.59961 16.0002C5.49504 16.0002 4.59961 15.1047 4.59961 14.0002L4.59961 7.3335C4.59961 6.22893 5.49504 5.3335 6.59961 5.3335L17.3996 5.3335C18.5042 5.3335 19.3996 6.22893 19.3996 7.3335L19.3996 14.0002C19.3996 15.1047 18.5042 16.0002 17.3996 16.0002L13.9996 16.0002" fill-rule="evenodd" stroke="rgb(25,25,25)" stroke-linecap="round" stroke-linejoin="round" stroke-width="1" />
		<path id="path7" d="M4.59961 14.0002L4.59961 7.3335C4.59961 6.22893 5.49504 5.3335 6.59961 5.3335L17.3996 5.3335C18.5042 5.3335 19.3996 6.22893 19.3996 7.3335L19.3996 14.0002C19.3996 15.1047 18.5042 16.0002 17.3996 16.0002L6.59961 16.0002C5.49504 16.0002 4.59961 15.1047 4.59961 14.0002Z" fill="rgb(255,255,255)" fill-opacity="0" fill-rule="evenodd" />
		<path id="path7" d="M4.59961 7.3335C4.59961 6.22893 5.49504 5.3335 6.59961 5.3335L17.3996 5.3335C18.5042 5.3335 19.3996 6.22893 19.3996 7.3335L19.3996 14.0002C19.3996 15.1047 18.5042 16.0002 17.3996 16.0002L6.59961 16.0002C5.49504 16.0002 4.59961 15.1047 4.59961 14.0002L4.59961 7.3335Z" fill-rule="evenodd" stroke="rgb(255,255,255)" stroke-opacity="0" stroke-linejoin="round" stroke-width="1" />
	</g>
</svg>
