<svg width="16" height="16" viewBox="4 4 16 16" fill="none" xmlns="http://www.w3.org/2000/svg">
	<path id="c" d="M6.84984 18.6704C6.02984 18.6704 5.35984 18.0204 5.33984 17.2104L5.33984 17.1004L5.33984 12.1104C5.33984 11.2804 5.97984 10.6004 6.78984 10.5404L6.89984 10.5404L8.46984 10.5404L9.46984 9.62037C9.89984 9.23037 10.1898 8.72037 10.3298 8.16037L10.3598 8.01037L10.6398 6.43037C10.7898 5.59037 11.6898 5.12037 12.4698 5.47037C13.4498 5.91037 14.0298 6.94037 13.9298 8.01037L13.9098 8.15037L13.7098 9.46037C13.7098 9.46037 13.3098 11.1404 13.1498 11.2204C12.9398 11.3204 12.8698 11.5404 12.6198 11.5004C12.3698 11.4604 12.0498 11.2204 12.2198 10.8204L12.5698 9.86037C12.5698 9.86037 12.7198 9.30037 12.7198 9.26037L12.9098 8.00037C13.0098 7.31037 12.6398 6.64037 12.0198 6.37037C11.8698 6.30037 11.6898 6.38037 11.6298 6.54037L11.3098 8.27037C11.1798 9.02037 10.8098 9.71037 10.2598 10.2304L10.1298 10.3604L9.14984 11.2604L9.14984 17.6704L15.7998 17.6704C16.2798 17.6704 16.7098 17.3504 16.8398 16.8804L16.8598 16.7804L17.6298 12.8604C17.7598 12.2004 17.2898 11.5904 16.6498 11.5404L12.6198 11.5004C12.3398 11.5004 12.1498 11.3204 12.1498 11.0404C12.1498 10.7904 12.3398 10.5804 12.5798 10.5404L16.5998 10.5404C17.8698 10.5404 18.8398 11.6804 18.6298 12.9404L18.6098 13.0604L17.8398 16.9804C17.6498 17.9204 16.8598 18.6104 15.9198 18.6704L15.7998 18.6704L6.84984 18.6704ZM8.14984 11.5404L6.88984 11.5404C6.60984 11.5404 6.36984 11.7604 6.33984 12.0404L6.33984 17.1004C6.33984 17.3904 6.54984 17.6304 6.82984 17.6704L8.15984 17.6704L8.14984 11.5404Z" fill="rgb(25,25,25)" fill-rule="nonzero" />
</svg>
