<svg viewBox="0 0 20 20" xmlns="http://www.w3.org/2000/svg" xmlns:xlink="http://www.w3.org/1999/xlink" width="20.000000" height="20.000000" fill="none">
	<rect id="渠道" width="20.000000" height="20.000000" x="0.000000" y="0.000000" />
	<path id="矢量_158" d="M7.1 4.14932L10 2.42432L12.7 3.98682C12.9375 4.12432 13.5125 4.07432 13.725 3.88682C13.975 3.67432 13.925 3.22432 13.65 3.06182L10.6 1.26182C10.4125 1.21182 10.2125 1.17432 10 1.17432C9.7875 1.17432 9.5875 1.19932 9.4125 1.26182L6.3 3.13682C6.025 3.29932 5.975 3.87432 6.225 4.07432C6.45 4.27432 6.8375 4.31182 7.1 4.14932ZM15.8875 4.07432C16.05 4.07432 16.2125 4.08682 16.3625 4.12432C16.5125 4.16182 16.6625 4.19932 16.8 4.26182C16.925 4.31182 17.0375 4.37432 17.1375 4.44932C17.2875 4.54932 17.425 4.64932 17.55 4.78682C17.6625 4.89932 17.7625 5.02432 17.85 5.14932C17.9375 5.27432 18 5.41182 18.0625 5.54932C18.125 5.68682 18.1625 5.82432 18.2 5.97432C18.2375 6.13682 18.25 6.31182 18.25 6.48682C18.25 6.66182 18.2375 6.83682 18.2 6.99932C18.175 7.13682 18.125 7.28682 18.0625 7.42432C18 7.56182 17.9375 7.69932 17.85 7.82432C17.7625 7.94932 17.6625 8.07432 17.55 8.18682C17.425 8.31182 17.2875 8.42432 17.1375 8.52432C17.025 8.59932 16.9125 8.64932 16.8 8.69932C16.6625 8.76182 16.5125 8.81182 16.3625 8.83682C16.2125 8.87432 16.05 8.88682 15.8875 8.88682C15.8125 8.88682 15.725 8.88682 15.65 8.87432C15.4 8.84932 15.1625 8.77432 14.925 8.66182C14.7625 8.58682 14.6125 8.48682 14.475 8.38682C14.4 8.32432 14.325 8.26182 14.2625 8.19932L10.625 10.1368L10.625 14.1743C10.7625 14.2118 10.8875 14.2493 11.0125 14.3118C11.1125 14.3618 11.2125 14.4118 11.3 14.4743C11.3875 14.5243 11.4625 14.5868 11.5375 14.6493C11.65 14.7493 11.7625 14.8618 11.8625 14.9868C11.925 15.0618 11.975 15.1493 12.025 15.2368C12.1 15.3743 12.1625 15.5118 12.2125 15.6618C12.25 15.7618 12.275 15.8743 12.3 15.9743C12.325 16.1243 12.35 16.2743 12.35 16.4368C12.35 16.6118 12.3375 16.7743 12.3 16.9493C12.275 17.0868 12.225 17.2368 12.1625 17.3743C12.1 17.5118 12.0375 17.6493 11.95 17.7743C11.8625 17.8993 11.7625 18.0243 11.65 18.1368C11.525 18.2618 11.3875 18.3743 11.2375 18.4743C11.125 18.5493 11.0125 18.5993 10.9 18.6618C10.775 18.6993 10.625 18.7493 10.475 18.7743C10.325 18.8118 10.1625 18.8243 10 18.8243C9.8375 18.8243 9.675 18.8118 9.525 18.7743C9.375 18.7493 9.225 18.6993 9.0875 18.6368C8.9625 18.5868 8.85 18.5243 8.75 18.4493C8.6 18.3493 8.4625 18.2493 8.3375 18.1118C8.225 17.9993 8.125 17.8743 8.0375 17.7493C7.95 17.6243 7.8875 17.4993 7.825 17.3493C7.7625 17.2118 7.725 17.0743 7.6875 16.9243C7.65 16.7618 7.6375 16.5868 7.6375 16.4118C7.6375 16.2493 7.65 16.0993 7.6875 15.9493C7.7125 15.8493 7.7375 15.7368 7.775 15.6368C7.825 15.4868 7.8875 15.3493 7.975 15.2118C8.025 15.1243 8.075 15.0493 8.1375 14.9618C8.2375 14.8368 8.3375 14.7243 8.4625 14.6243C8.5375 14.5618 8.6125 14.4993 8.7 14.4493C8.8 14.3868 8.8875 14.3368 8.9875 14.2868C9.1125 14.2243 9.25 14.1868 9.375 14.1493L9.375 10.1368L5.85 8.06182C5.4 8.51182 4.9125 8.77432 4.4 8.83682C4.3 8.86182 4.2125 8.86182 4.1125 8.86182C3.95 8.86182 3.7875 8.84932 3.6375 8.81182C3.475 8.78682 3.3375 8.73682 3.1875 8.67432C3.075 8.62432 2.9625 8.56182 2.85 8.49932C2.7 8.39932 2.5625 8.28682 2.4375 8.16182C2.325 8.04932 2.225 7.92432 2.15 7.79932C2.0625 7.67432 2 7.53682 1.9375 7.39932C1.875 7.26182 1.8375 7.12432 1.8 6.97432C1.7625 6.81182 1.75 6.64932 1.75 6.47432C1.75 6.29932 1.7625 6.13682 1.8 5.96182C1.8375 5.81182 1.875 5.67432 1.9375 5.53682C2 5.39932 2.0625 5.26182 2.15 5.13682C2.2375 5.01182 2.3375 4.88682 2.45 4.77432C2.575 4.64932 2.7125 4.53682 2.8625 4.43682C2.975 4.36182 3.0875 4.31182 3.2 4.26182C3.3375 4.19932 3.475 4.16182 3.625 4.12432C3.775 4.08682 3.9375 4.07432 4.1 4.07432C4.2625 4.07432 4.425 4.08682 4.575 4.12432C4.7375 4.16182 4.875 4.19932 5.025 4.26182C5.15 4.31182 5.2625 4.37432 5.3625 4.43682C5.5125 4.53682 5.65 4.63682 5.775 4.77432C5.8875 4.88682 5.9875 5.01182 6.075 5.13682C6.1625 5.26182 6.225 5.38682 6.2875 5.53682C6.35 5.67432 6.3875 5.81182 6.425 5.96182C6.45 6.12432 6.4625 6.29932 6.4625 6.47432C6.4625 6.61182 6.4625 6.71182 6.45 6.77432C6.4375 6.84932 6.4125 6.93682 6.3625 7.03682L10 9.11182L13.6375 7.03682C13.6 6.93682 13.5625 6.84932 13.55 6.77432C13.5375 6.71182 13.5375 6.61182 13.5375 6.47432C13.5375 6.29932 13.55 6.13682 13.5875 5.96182C13.6125 5.82432 13.6625 5.67432 13.725 5.53682C13.7875 5.39932 13.85 5.26182 13.9375 5.13682C14.025 5.01182 14.125 4.88682 14.2375 4.77432C14.3625 4.64932 14.5 4.53682 14.65 4.43682C14.7625 4.36182 14.875 4.31182 14.9875 4.26182C15.1375 4.19932 15.275 4.14932 15.425 4.12432C15.575 4.08682 15.725 4.07432 15.8875 4.07432ZM4.1125 7.58682C4.3625 7.58682 4.5625 7.53682 4.7375 7.42432C4.8 7.38682 4.8625 7.33682 4.9125 7.28682C4.9625 7.23682 5 7.18682 5.0375 7.12432C5.15 6.94932 5.2125 6.72432 5.2125 6.46182C5.2125 6.19932 5.15 5.98682 5.0375 5.79932C5 5.74932 4.9625 5.69932 4.9125 5.64932C4.85 5.59932 4.8 5.54932 4.7375 5.51182C4.5625 5.39932 4.35 5.34932 4.1125 5.34932C3.8625 5.34932 3.6625 5.39932 3.4875 5.51182C3.425 5.54932 3.3625 5.59932 3.3125 5.64932C3.2625 5.69932 3.2125 5.74932 3.175 5.81182C3.0625 5.98682 3 6.21182 3 6.47432C3 6.73682 3.0625 6.94932 3.175 7.13682C3.2125 7.18682 3.25 7.23682 3.3 7.28682C3.35 7.33682 3.4125 7.38682 3.475 7.42432C3.65 7.53682 3.8625 7.58682 4.1125 7.58682ZM15.8875 7.58682C15.9875 7.57432 16.2 7.54932 16.3 7.51182C16.3625 7.48682 16.4375 7.44932 16.4875 7.41182C16.55 7.37432 16.6 7.33682 16.65 7.28682C16.7625 7.18682 16.8375 7.07432 16.9 6.94932C16.9625 6.81182 17 6.64932 17 6.47432C17 6.21182 16.9375 5.99932 16.825 5.81182C16.7875 5.76182 16.75 5.71182 16.7 5.66182C16.65 5.61182 16.5875 5.56182 16.525 5.52432C16.35 5.41182 16.1375 5.36182 15.9 5.36182C15.65 5.36182 15.45 5.41182 15.275 5.52432C15.2125 5.56182 15.15 5.61182 15.1 5.66182C15.0375 5.69932 15 5.74932 14.9625 5.81182C14.85 5.98682 14.7875 6.21182 14.7875 6.47432C14.7875 6.73682 14.85 6.94932 14.9625 7.13682C15 7.18682 15.0375 7.23682 15.0875 7.28682C15.1375 7.33682 15.2 7.38682 15.2625 7.42432C15.4375 7.53682 15.65 7.58682 15.8875 7.58682ZM3.7 10.5118L3.7 13.4618L6.3875 15.0743C6.6625 15.2368 6.8 15.5493 6.7375 15.8618C6.675 16.1993 6.225 16.3993 5.925 16.2243L3.05 14.4743C2.8625 14.3493 2.725 14.1993 2.6125 14.0368C2.5 13.8743 2.45 13.7118 2.4375 13.5493L2.4375 10.2743C2.4375 9.96182 2.8375 9.67432 3.1375 9.76182C3.45 9.86182 3.7 10.1993 3.7 10.5118ZM17.5625 10.2743L17.5625 13.4993C17.55 13.6618 17.5 13.8743 17.4 14.0368C17.2875 14.2118 17.15 14.3493 16.9625 14.4743L14.0375 16.2493C13.7375 16.4368 13.35 16.2618 13.2875 15.9118C13.225 15.6118 13.3625 15.2243 13.625 15.0618L16.3 13.4493L16.3 10.5118C16.3 10.1868 16.55 9.84932 16.85 9.74932C17.1625 9.66182 17.5625 9.96182 17.5625 10.2743ZM11.1 16.4368C11.1 16.1743 11.0375 15.9618 10.925 15.7743C10.8875 15.7243 10.85 15.6743 10.8 15.6243C10.75 15.5743 10.6875 15.5243 10.625 15.4868C10.45 15.3618 10.25 15.3118 10 15.3118C9.75 15.3118 9.55 15.3618 9.375 15.4743C9.3125 15.5118 9.25 15.5618 9.2 15.6118C9.15 15.6618 9.1125 15.7118 9.075 15.7618C8.95 15.9368 8.9 16.1618 8.9 16.4243C8.9 16.6868 8.9625 16.8993 9.075 17.0868C9.1125 17.1368 9.15 17.1868 9.2 17.2368C9.25 17.2868 9.3125 17.3368 9.375 17.3743C9.55 17.4993 9.75 17.5493 10 17.5493C10.1 17.5368 10.3125 17.5118 10.4125 17.4743C10.475 17.4493 10.55 17.4118 10.6 17.3743C10.6625 17.3368 10.7125 17.2993 10.7625 17.2493C10.875 17.1493 10.95 17.0368 11.0125 16.9118C11.075 16.7618 11.1 16.5993 11.1 16.4368Z" fill="rgb(25,25,25)" fill-rule="evenodd" />
</svg>
