<svg viewBox="0 0 20 20" xmlns="http://www.w3.org/2000/svg" xmlns:xlink="http://www.w3.org/1999/xlink" width="20.000000" height="20.000000" fill="none">
	<rect id="模型" width="20.000000" height="20.000000" x="0.000000" y="0.000000" />
	<path id="矢量_8286" d="M1.875 5L1.875 7.5C1.875 7.85 2.15 8.125 2.5 8.125C2.85 8.125 3.125 7.85 3.125 7.5L3.125 5C3.125 4.85 3.1375 4.7125 3.1625 4.5625C3.1875 4.4625 3.225 4.3625 3.2625 4.2625C3.3125 4.1625 3.3625 4.0625 3.425 3.975C3.4875 3.8625 3.575 3.7625 3.6625 3.6625C3.7625 3.575 3.8625 3.4875 3.975 3.425C4.0625 3.3625 4.1625 3.3125 4.2625 3.2625C4.3625 3.225 4.4625 3.1875 4.5625 3.1625C4.7125 3.125 4.85 3.125 5 3.125L7.5 3.125C7.85 3.125 8.125 2.8625 8.125 2.5C8.125 2.1375 7.85 1.875 7.5 1.875L5 1.875C4.7625 1.875 4.5375 1.8875 4.325 1.9375C4.1375 1.9875 3.95 2.0375 3.775 2.1125C3.6 2.1875 3.4375 2.275 3.275 2.3875C3.1 2.5 2.9375 2.6375 2.7875 2.7875C2.6375 2.9375 2.5 3.1 2.3875 3.275C2.275 3.4375 2.1875 3.6 2.1125 3.775C2.0375 3.95 1.9875 4.1375 1.9375 4.325C1.875 4.5375 1.875 4.7625 1.875 5ZM15 1.875L12.5 1.875C12.15 1.875 11.875 2.15 11.875 2.5C11.875 2.85 12.15 3.125 12.5 3.125L15 3.125C15.1375 3.125 15.275 3.1375 15.425 3.1625C15.525 3.1875 15.625 3.225 15.725 3.2625C15.825 3.3125 15.925 3.3625 16.0125 3.425C16.125 3.4875 16.225 3.575 16.325 3.6625C16.4125 3.7625 16.5 3.8625 16.5625 3.975C16.625 4.0625 16.675 4.1625 16.725 4.2625C16.7625 4.3625 16.8 4.4625 16.825 4.5625C16.85 4.7125 16.875 4.85 16.875 5L16.875 7.5C16.875 7.85 17.15 8.125 17.5 8.125C17.85 8.125 18.125 7.85 18.125 7.5L18.125 5C18.125 4.7625 18.1 4.5375 18.05 4.325C18 4.1375 17.95 3.95 17.875 3.775C17.8 3.6 17.7125 3.4375 17.6 3.275C17.4875 3.1 17.35 2.9375 17.2 2.7875C17.05 2.6375 16.8875 2.5 16.7125 2.3875C16.55 2.275 16.3875 2.1875 16.2125 2.1125C16.0375 2.0375 15.85 1.9875 15.6625 1.9375C15.45 1.875 15.225 1.875 15 1.875ZM14.425 6.9C14.3125 6.7875 14.1875 6.6875 14.05 6.6125L10.925 4.8125C10.775 4.725 10.625 4.6625 10.475 4.625C10.325 4.575 10.1625 4.5625 10 4.5625C9.8375 4.5625 9.675 4.5875 9.525 4.625C9.375 4.6625 9.225 4.725 9.0875 4.8L5.9625 6.6C5.825 6.6875 5.7 6.775 5.5875 6.8875C5.4625 7.0125 5.375 7.1375 5.2875 7.275C5.2125 7.425 5.15 7.5625 5.1 7.725C5.0625 7.875 5.05 8.0375 5.05 8.2L5.05 11.8125C5.05 11.975 5.075 12.1375 5.1125 12.2875C5.15 12.4375 5.2125 12.5875 5.3 12.725C5.3875 12.8625 5.475 12.9875 5.5875 13.1C5.7 13.2125 5.825 13.3125 5.9625 13.3875L9.0875 15.1875C9.225 15.2625 9.375 15.325 9.525 15.375C9.675 15.4125 9.8375 15.4375 10 15.4375C10.1625 15.4375 10.325 15.4125 10.475 15.375C10.625 15.3375 10.775 15.275 10.9125 15.1875L14.0375 13.3875C14.175 13.3 14.3 13.2125 14.4125 13.1C14.525 12.9875 14.625 12.8625 14.7 12.725C14.7875 12.5875 14.8375 12.4375 14.8875 12.2875C14.925 12.1375 14.95 11.975 14.95 11.8125L14.95 8.2C14.95 8.0375 14.925 7.875 14.8875 7.725C14.85 7.575 14.7875 7.425 14.7 7.2875C14.625 7.1375 14.5375 7.0125 14.425 6.9ZM10.2875 5.8875L13.3 7.625L10.2875 9.3625C10.25 9.3875 10.2 9.4125 10.15 9.425C10.1 9.4375 10.05 9.4375 10 9.4375C9.95 9.4375 9.9 9.4375 9.85 9.4125C9.8 9.4125 9.75 9.3875 9.7125 9.3625L6.7 7.625L9.7125 5.8875C9.75 5.8625 9.8 5.8375 9.85 5.825C9.9 5.8125 9.95 5.8125 10 5.8125C10.05 5.8125 10.1 5.825 10.15 5.8375C10.2 5.8375 10.25 5.8625 10.2875 5.8875ZM9.375 10.625L9.375 13.9125L6.5875 12.3C6.5375 12.275 6.5 12.25 6.4625 12.2125C6.425 12.175 6.4 12.1375 6.375 12.0875C6.35 12.05 6.325 12 6.3125 11.95C6.3 11.9 6.3 11.85 6.3 11.8L6.3 8.8375L9.0875 10.45C9.175 10.5 9.275 10.55 9.375 10.575C9.375 10.6 9.375 10.6125 9.375 10.625ZM10.9125 10.45L13.7 8.8375L13.7 11.8125C13.7 11.8625 13.6875 11.9125 13.675 11.9625C13.6625 12.0125 13.6375 12.0625 13.6125 12.1C13.5875 12.15 13.55 12.1875 13.525 12.225C13.4875 12.2625 13.45 12.2875 13.4 12.3125L10.625 13.9125L10.625 10.625C10.625 10.6125 10.625 10.6 10.625 10.575C10.725 10.55 10.825 10.5 10.9125 10.45ZM3.125 12.5C3.125 12.1375 2.85 11.875 2.5 11.875C2.15 11.875 1.875 12.1375 1.875 12.5L1.875 15C1.875 15.225 1.8875 15.45 1.9375 15.6625C1.9875 15.85 2.0375 16.0375 2.1125 16.2125C2.1875 16.3875 2.275 16.55 2.3875 16.7125C2.5 16.8875 2.6375 17.05 2.7875 17.2C2.9375 17.35 3.1 17.4875 3.275 17.6C3.4375 17.7125 3.6 17.8 3.775 17.875C3.95 17.95 4.1375 18 4.325 18.05C4.5375 18.1 4.7625 18.125 5 18.125L7.5 18.125C7.85 18.125 8.125 17.85 8.125 17.5C8.125 17.15 7.85 16.875 7.5 16.875L5 16.875C4.85 16.875 4.7125 16.85 4.5625 16.825C4.4625 16.8 4.3625 16.7625 4.2625 16.725C4.1625 16.675 4.0625 16.625 3.975 16.5625C3.8625 16.5 3.7625 16.4125 3.6625 16.325C3.575 16.225 3.4875 16.125 3.425 16.0125C3.3625 15.925 3.3125 15.825 3.2625 15.725C3.225 15.625 3.1875 15.525 3.1625 15.425C3.125 15.275 3.125 15.1375 3.125 15L3.125 12.5ZM18.125 12.5C18.125 12.1375 17.85 11.875 17.5 11.875C17.15 11.875 16.875 12.1375 16.875 12.5L16.875 15C16.875 15.1375 16.85 15.275 16.825 15.425C16.8 15.525 16.7625 15.625 16.725 15.725C16.675 15.825 16.625 15.925 16.5625 16.0125C16.5 16.125 16.4125 16.225 16.325 16.325C16.225 16.4125 16.125 16.5 16.0125 16.5625C15.925 16.625 15.825 16.675 15.725 16.725C15.625 16.7625 15.525 16.8 15.425 16.825C15.275 16.85 15.1375 16.875 15 16.875L12.5 16.875C12.15 16.875 11.875 17.15 11.875 17.5C11.875 17.85 12.15 18.125 12.5 18.125L15 18.125C15.225 18.125 15.45 18.1 15.6625 18.05C15.85 18 16.0375 17.95 16.2125 17.875C16.3875 17.8 16.55 17.7125 16.7125 17.6C16.8875 17.4875 17.05 17.35 17.2 17.2C17.35 17.05 17.4875 16.8875 17.6 16.7125C17.7125 16.55 17.8 16.3875 17.875 16.2125C17.95 16.0375 18 15.85 18.05 15.6625C18.1 15.45 18.125 15.225 18.125 15L18.125 12.5L18.125 12.5Z" fill="rgb(25,25,25)" fill-rule="evenodd" />
</svg>
