<svg viewBox="0 0 20 20" xmlns="http://www.w3.org/2000/svg" xmlns:xlink="http://www.w3.org/1999/xlink" width="20.000000" height="20.000000" fill="none">
	<mask id="mask_6" width="19.999998" height="19.999998" x="0.000000" y="0.000000" maskUnits="userSpaceOnUse">
		<g filter="url(#pixso_custom_mask_type_alpha)">
			<g id="clip595_12271">
				<rect id="矩形 77653" width="19.999998" height="19.999998" x="0.000000" y="0.000000" fill="rgb(0,0,0)" />
			</g>
		</g>
	</mask>
	<mask id="mask_5" width="19.999998" height="19.999998" x="0.000000" y="0.000000" maskUnits="userSpaceOnUse">
		<g filter="url(#pixso_custom_mask_type_alpha)">
			<g id="clip595_12268">
				<rect id="矩形 77652" width="19.999998" height="19.999998" x="0.000000" y="0.000000" fill="rgb(0,0,0)" />
			</g>
		</g>
	</mask>
	<mask id="mask_4" width="19.999998" height="19.999998" x="0.000000" y="0.000000" maskUnits="userSpaceOnUse">
		<g filter="url(#pixso_custom_mask_type_alpha)">
			<g id="clip595_12263">
				<rect id="矩形 77651" width="19.999998" height="19.999998" x="0.000000" y="0.000000" fill="rgb(0,0,0)" />
			</g>
		</g>
	</mask>
	<defs>
		<filter id="pixso_custom_mask_type_alpha">
			<feColorMatrix type="matrix" values="0 0 0 0 1 0 0 0 0 1 0 0 0 0 1 0 0 0 1 0 " />
		</filter>
	</defs>
	<mask id="mask_3" width="19.999998" height="19.999998" x="0.000000" y="0.000000" maskUnits="userSpaceOnUse">
		<g filter="url(#pixso_custom_mask_type_alpha)">
			<g id="clip595_12262">
				<rect id="矩形 77654" width="19.999998" height="19.999998" x="0.000000" y="0.000000" fill="rgb(0,0,0)" />
			</g>
		</g>
	</mask>
	<rect id="新建会话" width="19.999998" height="19.999998" x="0.000000" y="0.000000" />
	<rect id="矩形 77650" width="19.999998" height="19.999998" x="0.000000" y="0.000000" fill="rgb(255,255,255)" fill-opacity="0" />
	<g id="clip path group" mask="url(#mask_3)">
		<g id="组合 91333746">
			<g id="clip path group" mask="url(#mask_4)">
				<g id="组合 91333748">
					<path id="矢量 8606" d="M-0.000101273 9.99189C-0.000101273 8.42939 -0.00426794 6.86689 -0.000101273 5.30439C-0.00426794 4.54189 0.0915654 3.78773 0.274899 3.05856C0.683232 1.50856 1.69157 0.587726 3.24573 0.229393C4.01657 0.0627263 4.81657 -0.0164403 5.60823 0.000226319C8.5999 0.000226319 11.5957 0.000226319 14.5999 0.000226319C15.3541 -0.00810701 16.1082 0.0752263 16.8457 0.254393C18.4416 0.641893 19.3999 1.65439 19.7624 3.24606C19.9291 3.99606 20.0041 4.76273 19.9957 5.53356C19.9957 8.56273 19.9957 11.5919 19.9957 14.6169C19.9999 15.3669 19.9166 16.1169 19.7374 16.8461C19.3457 18.4461 18.3332 19.3919 16.7416 19.7586C15.9624 19.9252 15.1707 20.0086 14.3791 19.9961C11.3957 19.9961 8.40823 19.9961 5.42907 19.9961C4.66657 20.0044 3.90407 19.9127 3.16657 19.7377C1.5624 19.3544 0.595732 18.3377 0.233232 16.7336C0.0498987 15.9252 -0.000101273 15.1127 -0.000101273 14.2877C-0.000101273 12.8544 -0.000101273 11.4211 -0.000101273 9.99189Z" fill="rgb(255,255,255)" fill-opacity="0" fill-rule="evenodd" />
					<circle id="椭圆 3639" cx="9.99999905" cy="9.99999905" r="9.99999905" fill="rgb(255,255,255)" fill-opacity="0" />
				</g>
			</g>
			<g id="clip path group" mask="url(#mask_5)">
				<g id="组合 91333750">
					<path id="矢量 8607" d="M10.008 2.2876C14.7038 2.2876 18.5622 5.54593 18.5622 9.60843C18.5622 13.6709 14.7038 16.9293 10.008 16.9293C9.57467 16.9293 9.13717 16.8959 8.70801 16.8418C8.36217 16.8001 8.12051 16.4876 8.16217 16.1459C8.20384 15.8043 8.51634 15.5626 8.85801 15.6043C9.24134 15.6501 9.63301 15.6793 10.008 15.6793C14.058 15.6793 17.3122 12.9293 17.3122 9.60843C17.3122 6.2876 14.058 3.5376 10.008 3.5376C5.96217 3.5376 2.70801 6.2876 2.70801 9.60843C2.70801 10.9501 3.34134 12.3418 4.44967 13.4709C4.57467 13.6001 4.64134 13.7793 4.62467 13.9626C4.56634 14.6251 4.39967 15.2959 4.14967 15.9501L4.02051 16.2626L4.21217 16.2126C4.42884 16.1543 4.64134 16.0834 4.84967 16.0084L5.15384 15.8834C5.62051 15.6834 6.02467 15.4418 6.34967 15.1626C6.61217 14.9376 7.00384 14.9668 7.22884 15.2293C7.45384 15.4918 7.42467 15.8834 7.16634 16.1084C6.73301 16.4793 6.22467 16.7834 5.64967 17.0334C5.05801 17.2876 4.42884 17.4709 3.79967 17.5959L3.49551 17.6501C3.26217 17.6876 3.07467 17.7084 2.94551 17.7209C2.43301 17.7584 2.09134 17.1959 2.37051 16.7584L2.48301 16.5709C2.60384 16.3459 2.77051 16.0209 2.88301 15.7459C3.07051 15.2959 3.21634 14.8376 3.30384 14.3876L3.34967 14.1251L3.19134 13.9501C2.14967 12.7376 1.52467 11.2959 1.46217 9.8501L1.45801 9.60843C1.45801 5.54593 5.31634 2.2876 10.008 2.2876ZM6.24551 8.5376C6.82051 8.5376 7.28717 9.00426 7.28717 9.57926C7.28717 10.1543 6.82051 10.6209 6.24551 10.6209C5.67051 10.6209 5.20384 10.1543 5.20384 9.57926C5.20384 9.00426 5.67051 8.5376 6.24551 8.5376ZM13.7455 8.5376C14.3205 8.5376 14.7872 9.00426 14.7872 9.57926C14.7872 10.1543 14.3205 10.6209 13.7455 10.6209C13.1705 10.6209 12.7038 10.1543 12.7038 9.57926C12.7038 9.00426 13.1705 8.5376 13.7455 8.5376ZM9.99551 8.5376C10.5705 8.5376 11.0372 9.00426 11.0372 9.57926C11.0372 10.1543 10.5705 10.6209 9.99551 10.6209C9.42051 10.6209 8.95384 10.1543 8.95384 9.57926C8.95384 9.00426 9.42051 8.5376 9.99551 8.5376Z" fill="rgb(25,25,25)" fill-rule="evenodd" />
					<path id="矢量 8608" d="M13.7497 10.5999C13.1747 10.5999 12.708 10.1333 12.708 9.55827C12.708 8.98327 13.1747 8.5166 13.7497 8.5166C14.3205 8.5166 14.7913 8.98327 14.7913 9.55827C14.7913 10.1333 14.3205 10.5999 13.7497 10.5999ZM9.99967 10.5999C9.42467 10.5999 8.95801 10.1333 8.95801 9.55827C8.95801 8.98327 9.42467 8.5166 9.99967 8.5166C10.5705 8.5166 11.0413 8.98327 11.0413 9.55827C11.0413 10.1333 10.5705 10.5999 9.99967 10.5999ZM6.24967 10.5999C5.67467 10.5999 5.20801 10.1333 5.20801 9.55827C5.20801 8.98327 5.67467 8.5166 6.24967 8.5166C6.82051 8.5166 7.29134 8.98327 7.29134 9.55827C7.29134 10.1333 6.82051 10.5999 6.24967 10.5999Z" fill="rgb(25,25,25)" fill-rule="evenodd" />
				</g>
			</g>
			<g id="clip path group" mask="url(#mask_6)">
				<g id="组合 91333752">
					<path id="矢量 8609" d="M13.7497 10.5999C13.1747 10.5999 12.708 10.1333 12.708 9.55827C12.708 8.98327 13.1747 8.5166 13.7497 8.5166C14.3205 8.5166 14.7913 8.98327 14.7913 9.55827C14.7913 10.1333 14.3205 10.5999 13.7497 10.5999ZM9.99967 10.5999C9.42467 10.5999 8.95801 10.1333 8.95801 9.55827C8.95801 8.98327 9.42467 8.5166 9.99967 8.5166C10.5705 8.5166 11.0413 8.98327 11.0413 9.55827C11.0413 10.1333 10.5705 10.5999 9.99967 10.5999ZM6.24967 10.5999C5.67467 10.5999 5.20801 10.1333 5.20801 9.55827C5.20801 8.98327 5.67467 8.5166 6.24967 8.5166C6.82051 8.5166 7.29134 8.98327 7.29134 9.55827C7.29134 10.1333 6.82051 10.5999 6.24967 10.5999ZM9.99967 2.5791C5.45801 2.5791 1.77051 5.71243 1.77051 9.55827C1.77051 11.1833 2.44134 12.7583 3.66217 14.0083C3.52051 15.0541 3.16634 16.0208 2.61217 16.8916L2.27884 17.4166L2.89551 17.3708C4.29551 17.2708 5.64134 16.7958 6.79967 15.9874C7.09967 16.0999 7.79134 16.3291 8.55801 16.4291C8.62051 16.4416 9.30384 16.5374 9.99967 16.5374C14.5372 16.5374 18.2288 13.4083 18.2288 9.55827C18.2288 5.71243 14.5372 2.5791 9.99967 2.5791Z" fill="rgb(255,255,255)" fill-opacity="0" fill-rule="evenodd" />
					<path id="矢量 8610" d="M13.7497 10.5999C13.1747 10.5999 12.708 10.1333 12.708 9.55827C12.708 8.98327 13.1747 8.5166 13.7497 8.5166C14.3205 8.5166 14.7913 8.98327 14.7913 9.55827C14.7913 10.1333 14.3205 10.5999 13.7497 10.5999ZM9.99967 10.5999C9.42467 10.5999 8.95801 10.1333 8.95801 9.55827C8.95801 8.98327 9.42467 8.5166 9.99967 8.5166C10.5705 8.5166 11.0413 8.98327 11.0413 9.55827C11.0413 10.1333 10.5705 10.5999 9.99967 10.5999ZM6.24967 10.5999C5.67467 10.5999 5.20801 10.1333 5.20801 9.55827C5.20801 8.98327 5.67467 8.5166 6.24967 8.5166C6.82051 8.5166 7.29134 8.98327 7.29134 9.55827C7.29134 10.1333 6.82051 10.5999 6.24967 10.5999Z" fill="rgb(255,255,255)" fill-opacity="0" fill-rule="evenodd" />
				</g>
			</g>
		</g>
	</g>
</svg>
