<svg viewBox="0 0 24 24" xmlns="http://www.w3.org/2000/svg" xmlns:xlink="http://www.w3.org/1999/xlink" width="24.000000" height="24.000000" fill="none">
	<rect id="时间-time" width="24.000000" height="24.000000" x="0.000000" y="0.000000" />
	<path id="path" d="M12 1.5C6.15 1.5 1.5 6.15 1.5 12C1.5 17.85 6.15 22.5 12 22.5C17.85 22.5 22.5 17.85 22.5 12C22.5 6.15 17.85 1.5 12 1.5ZM12 21C7.05 21 3 16.95 3 12C3 7.05 7.05 3 12 3C16.95 3 21 7.05 21 12C21 16.95 16.95 21 12 21ZM15 12.6C15 13.2 14.7 13.5 14.25 13.5L11.55 13.5C10.95 13.5 10.5 13.05 10.5 12.45L10.5 8.25C10.5 7.8 10.8 7.5 11.25 7.5C11.7 7.5 12 7.8 12 8.25L12 12L14.25 12C14.55 12 14.85 12.3 15 12.6Z" fill="rgb(25,25,25)" fill-rule="nonzero" />
</svg>
