<svg viewBox="0 0 20 20" xmlns="http://www.w3.org/2000/svg" xmlns:xlink="http://www.w3.org/1999/xlink" width="20.000000" height="20.000000" fill="none">
	<rect id="插件-extension" width="20.000000" height="20.000000" x="0.000000" y="0.000000" />
	<path id="矢量_1506" d="M8.125 3.75L8.125 3.4375C8.125 3.225 8.15 3.025 8.1875 2.8375C8.225 2.6625 8.275 2.5 8.35 2.3375C8.4125 2.1875 8.5 2.025 8.5875 1.8875C8.6875 1.725 8.8125 1.5875 8.95 1.45C9.0875 1.3125 9.2375 1.2 9.3875 1.0875C9.525 1 9.6875 0.9125 9.8375 0.85C10 0.775 10.1625 0.725 10.3375 0.6875C10.525 0.65 10.725 0.625 10.9375 0.625C11.15 0.625 11.35 0.65 11.5375 0.6875C11.7125 0.725 11.875 0.775 12.0375 0.85C12.1875 0.9125 12.35 1 12.4875 1.0875C12.65 1.1875 12.7875 1.3125 12.925 1.45C13.0625 1.5875 13.175 1.7375 13.2875 1.8875C13.3875 2.025 13.4625 2.1875 13.525 2.3375C13.5875 2.5 13.65 2.6625 13.675 2.825C13.725 3.025 13.75 3.225 13.75 3.4375L13.75 3.75L15.625 3.75C15.8125 3.75 15.9875 3.775 16.1625 3.8125C16.3125 3.85 16.4625 3.8875 16.6 3.95C16.7375 4.0125 16.875 4.0875 17 4.1625C17.1375 4.25 17.275 4.3625 17.3875 4.4875C17.5125 4.6125 17.6125 4.7375 17.7125 4.875C17.8 5 17.8625 5.1375 17.925 5.275C17.9875 5.4125 18.0375 5.5625 18.0625 5.7125C18.1 5.8875 18.125 6.0625 18.125 6.25L18.125 15.625C18.125 15.8125 18.1 15.9875 18.0625 16.1625C18.025 16.3125 17.9875 16.4625 17.925 16.6C17.8625 16.7375 17.7875 16.875 17.7125 17C17.625 17.1375 17.5125 17.275 17.3875 17.3875C17.2625 17.5125 17.1375 17.6125 17 17.7125C16.875 17.8 16.7375 17.8625 16.6 17.925C16.4625 17.9875 16.3125 18.0375 16.1625 18.0625C15.9875 18.1 15.8125 18.125 15.625 18.125L13.1375 18.125L13.125 18.125C12.775 18.125 12.5 17.85 12.5 17.5L12.5 16.5625C12.5 16.4375 12.4875 16.325 12.4625 16.2C12.4375 16.1125 12.4125 16.025 12.375 15.95C12.3375 15.8625 12.3 15.7875 12.25 15.7125C12.1875 15.625 12.125 15.5375 12.0375 15.4625C11.9625 15.3875 11.875 15.3125 11.7875 15.25C11.7125 15.2 11.625 15.1625 11.55 15.125C11.4625 15.0875 11.3875 15.0625 11.3 15.0375C11.175 15.0125 11.0625 15 10.9375 15C10.8125 15 10.7 15.0125 10.575 15.0375C10.4875 15.0625 10.4 15.0875 10.325 15.125C10.2375 15.1625 10.1625 15.2 10.0875 15.25C10 15.3125 9.9125 15.375 9.8375 15.4625C9.7625 15.5375 9.6875 15.625 9.625 15.7125C9.575 15.7875 9.5375 15.875 9.5 15.95C9.4625 16.0375 9.4375 16.1125 9.4125 16.2C9.3875 16.3125 9.375 16.4375 9.375 16.5625L9.375 17.5C9.375 17.85 9.1 18.125 8.75 18.125L8.7375 18.125L6.25 18.125C6.0625 18.125 5.8875 18.1 5.7125 18.0625C5.5625 18.025 5.4125 17.9875 5.275 17.925C5.1375 17.8625 5 17.8 4.875 17.7125C4.7375 17.625 4.6 17.5125 4.4875 17.3875C4.3625 17.2625 4.2625 17.1375 4.1625 17C4.075 16.875 4.0125 16.7375 3.95 16.6C3.8875 16.4625 3.8375 16.3125 3.8125 16.1625C3.775 15.9875 3.75 15.8125 3.75 15.625L3.75 13.125L3.4375 13.125C3.225 13.125 3.025 13.1 2.8375 13.0625C2.6625 13.025 2.5 12.975 2.3375 12.9C2.175 12.8375 2.025 12.75 1.8875 12.6625C1.725 12.5625 1.5875 12.4375 1.45 12.3C1.3125 12.1625 1.2 12.0125 1.0875 11.8625C1 11.725 0.9125 11.5625 0.85 11.4125C0.775 11.25 0.725 11.0875 0.6875 10.9125C0.65 10.725 0.625 10.525 0.625 10.3125C0.625 10.1 0.65 9.9 0.6875 9.7125C0.725 9.5375 0.775 9.375 0.85 9.2125C0.9125 9.0625 1 8.9 1.0875 8.7625C1.1875 8.6 1.3125 8.4625 1.45 8.325C1.5875 8.1875 1.7375 8.075 1.8875 7.9625C2.025 7.875 2.1875 7.7875 2.3375 7.725C2.5 7.65 2.6625 7.6 2.8375 7.5625C3.025 7.525 3.225 7.5 3.4375 7.5L3.75 7.5L3.75 6.25C3.75 6.0625 3.775 5.8875 3.8125 5.7125C3.85 5.5625 3.8875 5.4125 3.95 5.275C4.0125 5.1375 4.075 5 4.1625 4.875C4.25 4.7375 4.3625 4.6 4.4875 4.4875C4.6125 4.3625 4.7375 4.2625 4.875 4.1625C5 4.075 5.1375 4.0125 5.275 3.95C5.4125 3.8875 5.5625 3.8375 5.7125 3.8125C5.8875 3.775 6.0625 3.75 6.25 3.75L8.125 3.75ZM8.75 5L6.25 5C6.15 5 6.05 5.0125 5.9625 5.0375C5.9 5.05 5.825 5.075 5.7625 5.1C5.7 5.125 5.6375 5.1625 5.575 5.2C5.5 5.25 5.425 5.3 5.3625 5.3625C5.3 5.425 5.25 5.5 5.2 5.575C5.1625 5.6375 5.125 5.7 5.1 5.7625C5.075 5.825 5.05 5.8875 5.0375 5.9625C5.0125 6.05 5 6.15 5 6.25L5 8.125C5 8.475 4.725 8.75 4.375 8.75L3.4375 8.75C3.3125 8.75 3.2 8.7625 3.075 8.7875C3 8.8125 2.9125 8.8375 2.825 8.875C2.75 8.9125 2.6625 8.95 2.5875 9C2.5 9.0625 2.4125 9.125 2.3375 9.2125C2.25 9.2875 2.1875 9.375 2.125 9.4625C2.075 9.5375 2.0375 9.625 2 9.7C1.9625 9.7875 1.9375 9.875 1.9125 9.95C1.8875 10.075 1.875 10.1875 1.875 10.3125C1.875 10.4375 1.8875 10.55 1.9125 10.675C1.9375 10.75 1.9625 10.8375 2 10.925C2.0375 11 2.075 11.0875 2.125 11.1625C2.1875 11.25 2.25 11.3375 2.3375 11.4125C2.4125 11.5 2.5 11.5625 2.5875 11.625C2.6625 11.675 2.75 11.7125 2.825 11.75C2.9125 11.7875 2.9875 11.8125 3.075 11.8375C3.2 11.8625 3.3125 11.875 3.4375 11.875L4.375 11.875C4.725 11.875 5 12.15 5 12.5L5 15.625C5 15.725 5.0125 15.825 5.0375 15.9125C5.05 15.975 5.075 16.05 5.1 16.1125C5.125 16.175 5.1625 16.25 5.2 16.3C5.25 16.375 5.3 16.4375 5.3625 16.5C5.425 16.5625 5.5 16.6125 5.5625 16.6625C5.625 16.7 5.6875 16.7375 5.75 16.7625C5.8125 16.7875 5.875 16.8125 5.95 16.825C6.05 16.8625 6.15 16.875 6.25 16.875L8.125 16.875L8.125 16.5625C8.125 16.35 8.15 16.15 8.1875 15.9625C8.225 15.8 8.275 15.6375 8.35 15.475C8.4125 15.3125 8.5 15.1625 8.5875 15.025C8.6875 14.8625 8.8125 14.725 8.95 14.5875C9.0875 14.45 9.2375 14.3375 9.3875 14.225C9.525 14.125 9.6875 14.05 9.8375 13.9875C10 13.925 10.1625 13.8625 10.325 13.8375C10.525 13.775 10.725 13.75 10.9375 13.75C11.15 13.75 11.35 13.775 11.5375 13.8125C11.7 13.85 11.8625 13.9 12.025 13.9625C12.1875 14.025 12.3375 14.1125 12.475 14.2C12.6375 14.3 12.775 14.425 12.9125 14.5625C13.05 14.7 13.1625 14.85 13.275 15C13.375 15.1375 13.45 15.3 13.5125 15.45C13.575 15.6125 13.6375 15.775 13.675 15.9375C13.7125 16.1375 13.7375 16.3375 13.7375 16.5375L13.7375 16.85L15.6125 16.85C15.7125 16.85 15.8125 16.8375 15.9 16.8125C15.9625 16.8 16.0375 16.775 16.1 16.75C16.1625 16.725 16.2375 16.6875 16.2875 16.65C16.3625 16.6 16.425 16.55 16.4875 16.4875C16.55 16.425 16.6 16.35 16.65 16.2875C16.6875 16.225 16.725 16.1625 16.75 16.1C16.775 16.0375 16.8 15.975 16.8125 15.9C16.8375 15.8125 16.85 15.7125 16.85 15.6125L16.85 6.25C16.85 6.15 16.8375 6.05 16.8125 5.9625C16.8 5.9 16.775 5.825 16.75 5.7625C16.725 5.7 16.6875 5.625 16.65 5.575C16.6 5.5 16.55 5.4375 16.4875 5.375C16.425 5.3125 16.3625 5.2625 16.2875 5.2125C16.225 5.175 16.1625 5.1375 16.1 5.1125C16.0375 5.0875 15.975 5.0625 15.9 5.05C15.825 5.0125 15.725 5 15.625 5L13.1375 5L13.125 5C12.775 5 12.5 4.725 12.5 4.375L12.5 3.4375C12.5 3.3125 12.4875 3.2 12.4625 3.075C12.4375 3 12.4125 2.9125 12.375 2.825C12.3375 2.75 12.3 2.6625 12.25 2.5875C12.1875 2.5 12.125 2.4125 12.0375 2.3375C11.9625 2.25 11.875 2.1875 11.7875 2.125C11.7125 2.075 11.625 2.0375 11.55 2C11.4625 1.9625 11.375 1.9375 11.3 1.9125C11.175 1.8875 11.0625 1.875 10.9375 1.875C10.8125 1.875 10.7 1.8875 10.575 1.9125C10.5 1.9375 10.4125 1.9625 10.325 2C10.25 2.0375 10.1625 2.075 10.0875 2.125C10 2.1875 9.9125 2.25 9.8375 2.3375C9.75 2.4125 9.6875 2.5 9.625 2.5875C9.575 2.6625 9.5375 2.75 9.5 2.825C9.4625 2.9125 9.4375 3 9.4125 3.075C9.3875 3.2 9.375 3.3125 9.375 3.4375L9.375 4.375C9.375 4.725 9.1 5 8.75 5Z" fill="rgb(25,25,25)" fill-rule="evenodd" />
</svg>
