<svg viewBox="0 0 20 20" xmlns="http://www.w3.org/2000/svg" xmlns:xlink="http://www.w3.org/1999/xlink" width="20.000000" height="20.000000" fill="none" customFrame="#000000">
	<rect id="帮助" width="20.000000" height="20.000000" x="0.000000" y="0.000000" />
	<rect id="矩形 1" width="20.000000" height="20.000000" x="0.000000" y="0.000000" fill="rgb(196,196,196)" fill-opacity="0" />
	<path id="矢量 14" d="M10 1.5C5.30558 1.5 1.5 5.30557 1.5 10C1.5 14.6944 5.30558 18.5 10 18.5C14.6944 18.5 18.5 14.6944 18.5 10C18.5 5.30557 14.6944 1.5 10 1.5ZM10 2.5C5.85786 2.5 2.5 5.85785 2.5 10C2.5 14.1422 5.85786 17.5 10 17.5C14.1421 17.5 17.5 14.1422 17.5 10C17.5 5.85785 14.1421 2.5 10 2.5ZM9.4736 10.5414L9.4736 12.0482C9.4736 12.3282 9.6936 12.5482 9.9736 12.5482C10.2536 12.5482 10.4736 12.3282 10.4736 12.0482L10.4736 10.9944C10.627 10.9604 10.8484 10.8978 10.9956 10.8359C11.31 10.7036 11.5883 10.5169 11.8306 10.2758C11.9602 10.1469 12.0742 10.0076 12.1725 9.85812C12.2582 9.72794 12.332 9.5899 12.394 9.44409C12.4576 9.29446 12.5066 9.1416 12.5409 8.9855C12.581 8.80292 12.601 8.61594 12.601 8.42453C12.601 8.23315 12.581 8.04617 12.5409 7.86359C12.5066 7.70749 12.4576 7.5546 12.394 7.40494C12.332 7.25913 12.2582 7.12109 12.1725 6.99088C12.0741 6.8414 11.9602 6.70218 11.8306 6.57324C11.7057 6.44897 11.5712 6.33917 11.4272 6.2438C11.2918 6.15417 11.1479 6.07727 10.9956 6.01318C10.8484 5.9512 10.6981 5.90326 10.5447 5.86932C10.3589 5.82822 10.1685 5.80768 9.9736 5.80768C9.77869 5.80768 9.58833 5.82822 9.40251 5.86932C9.24914 5.90326 9.09873 5.95123 8.95155 6.01318C8.79925 6.0773 8.6554 6.15417 8.52 6.2438C8.37597 6.33917 8.2415 6.44897 8.11661 6.57324C7.98702 6.70218 7.87305 6.8414 7.7747 6.99091C7.68902 7.12113 7.61518 7.25916 7.5532 7.40494C7.48959 7.5546 7.44064 7.70746 7.40634 7.86356C7.36623 8.04614 7.34617 8.23312 7.34617 8.42453C7.34617 8.70453 7.56617 8.92453 7.84617 8.92453C8.12617 8.92453 8.34617 8.70453 8.34617 8.42453C8.34617 8.30103 8.35964 8.1806 8.3866 8.06326C8.40748 7.97238 8.43645 7.88333 8.4735 7.79614C8.51002 7.71027 8.55323 7.62872 8.60316 7.55148C8.6656 7.45493 8.73853 7.36514 8.82195 7.28214C8.90085 7.20361 8.98586 7.13443 9.077 7.07455C9.15947 7.02039 9.24696 6.97382 9.33946 6.93488C9.42471 6.89902 9.51173 6.87073 9.60051 6.85001C9.72158 6.82178 9.84595 6.80768 9.9736 6.80768C10.1012 6.80768 10.2256 6.82178 10.3467 6.85001C10.4355 6.87073 10.5225 6.89902 10.6077 6.93488C10.7002 6.97379 10.7877 7.02036 10.8702 7.07455C10.9613 7.13443 11.0464 7.20361 11.1253 7.28214Q11.2495 7.40568 11.3427 7.54934L11.344 7.55148C11.394 7.62869 11.4372 7.71027 11.4737 7.79614C11.5108 7.88333 11.5397 7.97238 11.5606 8.06326C11.5876 8.18057 11.601 8.30103 11.601 8.42453C11.601 8.54803 11.5876 8.66846 11.5606 8.7858C11.5397 8.87671 11.5108 8.96573 11.4737 9.05289C11.4372 9.13879 11.394 9.22034 11.3441 9.29755C11.2816 9.39413 11.2087 9.48392 11.1253 9.56693C11.0464 9.64545 10.9613 9.71463 10.8702 9.77451C10.7877 9.82867 10.7002 9.87524 10.6077 9.91418C10.5225 9.95004 10.4355 9.97833 10.3467 9.99902C10.2256 10.0273 10.1012 10.0414 9.9736 10.0414C9.80694 10.0414 9.68194 10.083 9.5986 10.1664C9.51527 10.2497 9.4736 10.3747 9.4736 10.5414ZM9.92307 13.1963C9.54071 13.1963 9.23076 13.5047 9.23076 13.8851C9.23076 14.2656 9.54071 14.574 9.92307 14.574C10.3054 14.574 10.6154 14.2656 10.6154 13.8851C10.6154 13.5047 10.3054 13.1963 9.92307 13.1963Z" fill="rgb(25,25,25)" fill-rule="evenodd" />
</svg>
