<svg viewBox="0 0 20 20" xmlns="http://www.w3.org/2000/svg" xmlns:xlink="http://www.w3.org/1999/xlink" width="20.000000" height="20.000000" fill="none">
	<rect id="休眠-hibernate" width="20.000000" height="20.000000" x="0.000000" y="0.000000" />
	<path id="形状" d="M17.2917 11.2954C17.1083 11.1287 16.85 11.087 16.625 11.187C15.825 11.537 14.9667 11.712 14.0833 11.712C10.5417 11.712 7.66667 8.8287 7.66667 5.29536C7.66667 4.62036 7.76667 3.9537 7.975 3.32036C8.05 3.08703 7.975 2.8287 7.8 2.66203C7.61667 2.49536 7.35833 2.4537 7.13333 2.5537C4.31667 3.77036 2.5 6.53703 2.5 9.59537C2.5 13.8204 5.94167 17.262 10.1667 17.262C13.5083 17.262 16.4417 15.1287 17.4667 11.9454C17.5417 11.712 17.4667 11.462 17.2917 11.2954ZM10.1667 16.012C6.625 16.012 3.75 13.1287 3.75 9.59537C3.75 7.4787 4.78333 5.5287 6.475 4.34536C6.43333 4.66203 6.41667 4.97036 6.41667 5.28703C6.41667 9.51203 9.85833 12.9537 14.0833 12.9537C14.65 12.9537 15.2083 12.8954 15.75 12.7704C14.625 14.7454 12.5083 16.012 10.1667 16.012ZM12.3167 7.4537C12.225 7.2037 12.3167 6.9287 12.5167 6.76203L15.0417 4.74536L13.1667 4.74536C12.825 4.74536 12.5417 4.46203 12.5417 4.12036C12.5417 3.7787 12.825 3.49536 13.1667 3.49536L16.825 3.49536C17.0917 3.49536 17.325 3.66203 17.4167 3.91203C17.5083 4.16203 17.4167 4.43703 17.2167 4.6037L14.6917 6.62036L16.825 6.62036C17.1667 6.62036 17.45 6.9037 17.45 7.24536C17.45 7.58703 17.1667 7.87036 16.825 7.87036L12.9083 7.87036C12.6417 7.87036 12.4083 7.7037 12.3167 7.4537Z" fill="rgb(25,25,25)" fill-rule="nonzero" />
</svg>