<svg viewBox="0 0 20 20" xmlns="http://www.w3.org/2000/svg" xmlns:xlink="http://www.w3.org/1999/xlink" width="20.000000" height="20.000000" fill="none">
	<rect id="问题反馈" width="20.000000" height="20.000000" x="0.000000" y="0.000000" />
	<path id="形状结合" d="M15.2512 12.4529C15.7622 11.5767 16.8881 11.2775 17.7685 11.7835L17.8852 11.8563C18.6766 12.391 18.9307 13.4538 18.444 14.2938L16.0934 18.3415C16.0256 18.4582 15.9181 18.5467 15.7905 18.5907L13.7735 19.287C13.4308 19.4052 13.0674 19.1733 13.0304 18.8127L12.8279 16.8414C12.8158 16.7232 12.8414 16.6043 12.901 16.5015L15.2512 12.4529ZM14.125 1.875C15.9764 1.875 17.5 3.26012 17.5 5L17.5 10C17.5 10.3452 17.2202 10.625 16.875 10.625C16.5298 10.625 16.25 10.3452 16.25 10L16.25 5C16.25 3.97846 15.3112 3.125 14.125 3.125L5.875 3.125C4.68881 3.125 3.75 3.97846 3.75 5L3.75 15C3.75 16.0215 4.68881 16.875 5.875 16.875L10 16.875C10.3452 16.875 10.625 17.1548 10.625 17.5C10.625 17.8452 10.3452 18.125 10 18.125L5.875 18.125C4.02363 18.125 2.5 16.7399 2.5 15L2.5 5C2.5 3.26012 4.02363 1.875 5.875 1.875L14.125 1.875ZM15.5642 14.1542L13.965 16.9075L14.0767 17.9917L15.225 17.595L16.8067 14.8717L15.5642 14.1542ZM17.1269 12.7188C16.7969 12.5802 16.4069 12.7043 16.2236 13.0187L16.1292 13.1808L17.3717 13.8983L17.4708 13.7294C17.6361 13.4441 17.5803 13.0926 17.3558 12.871L17.1269 12.7188ZM10.625 10.1965C10.9702 10.1965 11.25 10.4763 11.25 10.8215C11.25 11.1666 10.9702 11.4465 10.625 11.4465L6.875 11.4465C6.52982 11.4465 6.25 11.1666 6.25 10.8215C6.25 10.4763 6.52982 10.1965 6.875 10.1965L10.625 10.1965ZM13.125 6.25C13.4702 6.25 13.75 6.52982 13.75 6.875C13.75 7.22018 13.4702 7.5 13.125 7.5L6.875 7.5C6.52982 7.5 6.25 7.22018 6.25 6.875C6.25 6.52982 6.52982 6.25 6.875 6.25L13.125 6.25Z" fill="rgb(25,25,25)" fill-rule="nonzero" />
</svg>
