<svg viewBox="0 0 20 20" xmlns="http://www.w3.org/2000/svg" xmlns:xlink="http://www.w3.org/1999/xlink" width="20.000000" height="20.000000" fill="none">
	<rect id="新建文件夹-folder-add" width="20.000000" height="20.000000" x="0.000000" y="0.000000" />
	<g id="组合 91334293">
		<path id="矢量 8611" d="M8.22812 2.5L10.8915 4.49794L17.8172 4.49794C18.2503 4.49794 18.6216 4.7945 18.7232 5.20644L18.7419 5.30394L18.75 5.43069L18.75 8.39062C18.75 8.43064 18.7461 8.47026 18.7383 8.50951C18.7305 8.54875 18.7189 8.58686 18.7036 8.62382C18.6883 8.66079 18.6695 8.69591 18.6473 8.72918C18.6251 8.76244 18.5998 8.79323 18.5715 8.82152C18.5432 8.84981 18.5124 8.87507 18.4792 8.8973C18.4459 8.91953 18.4108 8.9383 18.3738 8.95361C18.3369 8.96893 18.2987 8.98048 18.2595 8.98829C18.2203 8.9961 18.1806 9 18.1406 9C18.1006 9 18.061 8.9961 18.0217 8.98829C17.9825 8.98048 17.9444 8.96893 17.9074 8.95361C17.8705 8.9383 17.8353 8.91953 17.8021 8.8973C17.7688 8.87507 17.738 8.84981 17.7097 8.82152C17.6814 8.79323 17.6562 8.76244 17.6339 8.72918C17.6117 8.69591 17.5929 8.66079 17.5776 8.62382C17.5623 8.58686 17.5508 8.54875 17.543 8.50951C17.5352 8.47026 17.5312 8.43064 17.5312 8.39062L17.5312 5.92469L10.3431 5.92469L7.52369 3.8L3.71875 3.8L3.71875 14.85L8.3825 14.85C8.42307 14.85 8.46325 14.854 8.50305 14.8619C8.54284 14.8698 8.58148 14.8815 8.61896 14.897C8.65645 14.9126 8.69205 14.9316 8.72579 14.9541C8.75952 14.9767 8.79074 15.0023 8.81943 15.031C8.84811 15.0597 8.87373 15.0909 8.89627 15.1246C8.91881 15.1583 8.93784 15.194 8.95337 15.2314C8.9689 15.2689 8.98062 15.3076 8.98853 15.3474C8.99645 15.3872 9.00041 15.4273 9.00041 15.4679C9.00041 15.5085 8.99645 15.5487 8.98853 15.5885C8.98062 15.6282 8.9689 15.6669 8.95337 15.7044C8.93784 15.7419 8.91881 15.7775 8.89627 15.8112C8.87373 15.8449 8.84811 15.8761 8.81943 15.9048C8.79074 15.9335 8.75952 15.9591 8.72579 15.9817C8.69205 16.0042 8.65644 16.0233 8.61896 16.0388C8.58148 16.0543 8.54284 16.066 8.50305 16.0739C8.46325 16.0819 8.42307 16.0858 8.3825 16.0858L3.43194 16.0858C3.37507 16.0858 3.31868 16.0806 3.26277 16.0702C3.20686 16.0598 3.15234 16.0445 3.09924 16.0242C3.04613 16.0038 2.99531 15.9789 2.94677 15.9492C2.89823 15.9196 2.85278 15.8858 2.81042 15.8479C2.76806 15.8099 2.72949 15.7685 2.69472 15.7235C2.65994 15.6785 2.62953 15.6307 2.60349 15.5802C2.57746 15.5296 2.55622 15.4771 2.53978 15.4227C2.52334 15.3682 2.51198 15.3128 2.50569 15.2563L2.5 15.1539L2.5 3.43275C2.5 2.95175 2.864 2.55606 3.33119 2.50569L3.43275 2.5L8.22731 2.5L8.22812 2.5ZM14.3584 14.4551C14.3238 14.4551 14.2894 14.4584 14.2554 14.4651C14.2214 14.4718 14.1884 14.4818 14.1564 14.495C14.1244 14.5083 14.0939 14.5245 14.0651 14.5437C14.0363 14.5629 14.0096 14.5848 13.985 14.6093C13.9605 14.6338 13.9386 14.6604 13.9193 14.6892C13.9001 14.718 13.8838 14.7484 13.8705 14.7805C13.8573 14.8125 13.8472 14.8455 13.8405 14.8795C13.8337 14.9135 13.8303 14.9478 13.8303 14.9824L13.8303 16.0363C13.8303 16.0709 13.8337 16.1052 13.8405 16.1392C13.8472 16.1732 13.8572 16.2062 13.8705 16.2382C13.8837 16.2702 13.9 16.3006 13.9192 16.3294C13.9385 16.3582 13.9604 16.3849 13.9849 16.4094C14.0094 16.4339 14.036 16.4558 14.0648 16.475C14.0937 16.4943 14.1241 16.5105 14.1561 16.5238C14.1881 16.5371 14.2211 16.5471 14.2551 16.5538C14.2891 16.5606 14.3234 16.564 14.358 16.564C14.3927 16.564 14.427 16.5606 14.461 16.5538C14.495 16.5471 14.528 16.5371 14.56 16.5238C14.592 16.5105 14.6224 16.4943 14.6512 16.475C14.68 16.4558 14.7067 16.4339 14.7312 16.4094C14.7557 16.3849 14.7776 16.3582 14.7968 16.3294C14.8161 16.3006 14.8323 16.2702 14.8456 16.2382C14.8588 16.2062 14.8688 16.1732 14.8756 16.1392C14.8824 16.1052 14.8857 16.0709 14.8857 16.0363L14.8857 14.9751C14.8853 14.9408 14.8815 14.9068 14.8744 14.8732C14.8672 14.8396 14.8569 14.807 14.8435 14.7754C14.83 14.7438 14.8135 14.7138 14.7942 14.6854C14.7748 14.657 14.7529 14.6308 14.7285 14.6067C14.704 14.5826 14.6774 14.5611 14.6487 14.5422C14.62 14.5233 14.5898 14.5073 14.558 14.4943C14.5262 14.4813 14.4934 14.4715 14.4597 14.4649C14.426 14.4583 14.392 14.4551 14.3576 14.4551L14.3584 14.4551Z" fill="rgb(25,25,25)" fill-rule="nonzero" />
		<path id="矢量 8612" d="M17.4478 12.423L16.9944 12.423L16.9944 11.6357C16.9944 11.5493 16.9902 11.4632 16.9817 11.3773C16.9732 11.2914 16.9606 11.2061 16.9437 11.1214C16.9269 11.0367 16.9059 10.9531 16.8809 10.8704C16.8558 10.7878 16.8268 10.7066 16.7937 10.6269C16.7607 10.5471 16.7238 10.4691 16.6831 10.393C16.6424 10.3168 16.5981 10.2429 16.5501 10.1711C16.5021 10.0993 16.4508 10.03 16.396 9.96331C16.3412 9.89657 16.2833 9.83267 16.2223 9.77162C16.1612 9.71057 16.0973 9.65266 16.0306 9.59789C15.9639 9.54312 15.8946 9.49175 15.8228 9.44378C15.751 9.39582 15.677 9.35149 15.6009 9.31079C15.5248 9.27009 15.4468 9.23322 15.367 9.20018C15.2873 9.16714 15.2061 9.13809 15.1235 9.11302C15.0408 9.08796 14.9572 9.06701 14.8725 9.05017C14.7878 9.03332 14.7025 9.02067 14.6166 9.01221C14.5307 9.00374 14.4446 8.99951 14.3582 8.99951C14.2719 8.99951 14.1858 9.00374 14.0998 9.01221C14.0139 9.02067 13.9286 9.03332 13.8439 9.05017C13.7593 9.06701 13.6756 9.08796 13.593 9.11302C13.5104 9.13809 13.4292 9.16714 13.3494 9.20018C13.2697 9.23322 13.1917 9.27009 13.1156 9.31079C13.0394 9.35149 12.9654 9.39582 12.8937 9.44378C12.8219 9.49175 12.7526 9.54312 12.6859 9.59789C12.6191 9.65266 12.5552 9.71057 12.4942 9.77162C12.4331 9.83267 12.3752 9.89657 12.3205 9.96331C12.2657 10.03 12.2143 10.0993 12.1663 10.1711C12.1184 10.2429 12.074 10.3168 12.0333 10.393C11.9926 10.4691 11.9558 10.5471 11.9227 10.6269C11.8897 10.7066 11.8606 10.7878 11.8356 10.8704C11.8105 10.9531 11.7896 11.0367 11.7727 11.1214C11.7559 11.2061 11.7432 11.2914 11.7348 11.3773C11.7263 11.4632 11.7221 11.5493 11.7221 11.6357L11.7221 12.4238L11.2687 12.4238C10.5894 12.4238 10.0386 12.9739 10.0386 13.6531L10.0386 17.5198C10.0386 18.199 10.5894 18.7499 11.2687 18.7499L17.4478 18.7499C18.127 18.7499 18.6779 18.199 18.6779 17.5198L18.6779 13.6531C18.6779 12.9739 18.127 12.423 17.4478 12.423ZM12.7767 11.6357C12.7755 11.5831 12.7769 11.5306 12.781 11.4782C12.785 11.4258 12.7916 11.3738 12.8009 11.322C12.8101 11.2703 12.8219 11.2191 12.8362 11.1686C12.8505 11.118 12.8673 11.0683 12.8866 11.0194C12.9059 10.9705 12.9276 10.9227 12.9516 10.8759C12.9757 10.8292 13.002 10.7838 13.0306 10.7397C13.0592 10.6956 13.0899 10.653 13.1227 10.6119C13.1555 10.5709 13.1903 10.5316 13.227 10.494C13.2638 10.4564 13.3023 10.4207 13.3426 10.387C13.3829 10.3532 13.4248 10.3216 13.4682 10.292C13.5117 10.2624 13.5565 10.2351 13.6026 10.21C13.6488 10.1849 13.6961 10.1621 13.7446 10.1418C13.793 10.1214 13.8424 10.1034 13.8926 10.088C13.9428 10.0725 13.9937 10.0596 14.0452 10.0492C14.0967 10.0388 14.1486 10.0309 14.2009 10.0257C14.2532 10.0205 14.3057 10.0179 14.3582 10.0179C14.4108 10.0179 14.4632 10.0205 14.5155 10.0257C14.5678 10.0309 14.6197 10.0388 14.6712 10.0492C14.7228 10.0596 14.7736 10.0725 14.8239 10.088C14.8741 10.1034 14.9234 10.1214 14.9719 10.1418C15.0203 10.1621 15.0676 10.1849 15.1138 10.21C15.16 10.2351 15.2048 10.2624 15.2483 10.292C15.2917 10.3216 15.3336 10.3532 15.3739 10.387C15.4142 10.4207 15.4527 10.4564 15.4894 10.494C15.5262 10.5316 15.561 10.5709 15.5938 10.6119C15.6266 10.653 15.6573 10.6956 15.6859 10.7397C15.7145 10.7838 15.7408 10.8292 15.7648 10.8759C15.7889 10.9227 15.8105 10.9705 15.8298 11.0194C15.8491 11.0683 15.8659 11.118 15.8802 11.1686C15.8946 11.2191 15.9064 11.2703 15.9156 11.322C15.9248 11.3738 15.9314 11.4258 15.9355 11.4782C15.9395 11.5306 15.941 11.5831 15.9398 11.6357L15.9398 12.4238L12.7767 12.4238L12.7767 11.6357ZM17.6241 17.5198C17.6241 17.6173 17.5453 17.6953 17.4478 17.6953L11.2687 17.6953C11.2454 17.6953 11.223 17.6908 11.2015 17.6819C11.18 17.673 11.1611 17.6603 11.1446 17.6439C11.1281 17.6274 11.1155 17.6085 11.1066 17.587C11.0977 17.5655 11.0932 17.5431 11.0932 17.5198L11.0932 13.6531C11.0932 13.6298 11.0977 13.6074 11.1066 13.5859C11.1155 13.5644 11.1281 13.5455 11.1446 13.529C11.1611 13.5126 11.18 13.4999 11.2015 13.491C11.223 13.4821 11.2454 13.4776 11.2687 13.4776L17.4478 13.4776C17.5453 13.4776 17.6241 13.5564 17.6241 13.6531L17.6241 17.5198L17.6241 17.5198Z" fill="rgb(25,25,25)" fill-rule="nonzero" />
	</g>
</svg>
