<svg viewBox="0 0 20 20" xmlns="http://www.w3.org/2000/svg" xmlns:xlink="http://www.w3.org/1999/xlink" width="20.000000" height="20.000000" fill="none">
	<rect id="主题模式" width="20.000000" height="20.000000" x="0.000000" y="0.000000" />
	<g id="ic_public_paintbrush-刷子/base/ic_public_paintbrush">
		<path id="path1" d="M2.50182 9.99389C2.50182 8.8222 2.49772 7.6505 2.50182 6.47881C2.49947 5.91183 2.56915 5.34684 2.70921 4.79743C3.0162 3.63452 3.7737 2.94439 4.93543 2.67666C5.51794 2.5508 6.11291 2.49184 6.70879 2.50091C8.95571 2.50091 11.2028 2.50091 13.4501 2.50091C14.0177 2.49738 14.5836 2.5623 15.1356 2.69424C16.3325 2.98716 17.0507 3.74525 17.3243 4.93803C17.4473 5.50176 17.5061 6.07761 17.4995 6.65456C17.4995 8.9257 17.4995 11.197 17.4995 13.4686C17.5026 14.0306 17.4379 14.591 17.3068 15.1376C17.0138 16.3351 16.2522 17.0498 15.0595 17.3234C14.4769 17.4488 13.882 17.5078 13.2861 17.4992C11.0485 17.4992 8.8112 17.4992 6.57404 17.4992C6.00215 17.5038 5.43176 17.4399 4.87509 17.3088C3.67293 17.0159 2.95117 16.2543 2.67816 15.0556C2.53873 14.4463 2.50182 13.8353 2.50182 13.219C2.50182 12.1441 2.50182 11.0691 2.50182 9.99389Z" fill="rgb(255,255,255)" fill-opacity="0" fill-rule="nonzero" />
		<path id="path1" d="M2.50182 6.47881C2.49947 5.91183 2.56915 5.34684 2.70921 4.79743C3.0162 3.63452 3.7737 2.94439 4.93543 2.67666C5.51794 2.5508 6.11291 2.49184 6.70879 2.50091C8.95571 2.50091 11.2028 2.50091 13.4501 2.50091C14.0177 2.49738 14.5836 2.5623 15.1356 2.69424C16.3325 2.98716 17.0507 3.74525 17.3243 4.93803C17.4473 5.50176 17.5061 6.07761 17.4995 6.65456C17.4995 8.9257 17.4995 11.197 17.4995 13.4686C17.5026 14.0306 17.4379 14.591 17.3068 15.1376C17.0138 16.3351 16.2522 17.0498 15.0595 17.3234C14.4769 17.4488 13.882 17.5078 13.2861 17.4992C11.0485 17.4992 8.8112 17.4992 6.57404 17.4992C6.00215 17.5038 5.43176 17.4399 4.87509 17.3088C3.67293 17.0159 2.95117 16.2543 2.67816 15.0556C2.53873 14.4463 2.50182 13.8353 2.50182 13.219C2.50182 12.1441 2.50182 11.0691 2.50182 9.99389C2.50182 8.8222 2.49772 7.6505 2.50182 6.47881Z" fill-rule="nonzero" stroke="rgb(255,255,255)" stroke-opacity="0" stroke-width="1" />
		<path id="path2" d="M2.50182 6.47881C2.49947 5.91183 2.56915 5.34684 2.70921 4.79743C3.0162 3.63452 3.7737 2.94439 4.93543 2.67666C5.51794 2.5508 6.11291 2.49184 6.70879 2.50091C8.95571 2.50091 11.2028 2.50091 13.4501 2.50091C14.0177 2.49738 14.5836 2.5623 15.1356 2.69424C16.3325 2.98716 17.0507 3.74525 17.3243 4.93803C17.4473 5.50176 17.5061 6.07761 17.4995 6.65456C17.4995 8.9257 17.4995 11.197 17.4995 13.4686C17.5026 14.0306 17.4379 14.591 17.3068 15.1376C17.0138 16.3351 16.2522 17.0498 15.0595 17.3234C14.4769 17.4488 13.882 17.5078 13.2861 17.4992C11.0485 17.4992 8.8112 17.4992 6.57404 17.4992C6.00215 17.5038 5.43176 17.4399 4.87509 17.3088C3.67293 17.0159 2.95117 16.2543 2.67816 15.0556C2.53873 14.4463 2.50182 13.8353 2.50182 13.219C2.50182 12.1441 2.50182 11.0691 2.50182 9.99389C2.50182 8.8222 2.49772 7.6505 2.50182 6.47881Z" fill-rule="nonzero" stroke="rgb(255,255,255)" stroke-opacity="0" stroke-width="1" />
		<ellipse id="path3" rx="8.000001" ry="8.000000" cx="10.000001" cy="10" fill="rgb(255,255,255)" fill-opacity="0" />
		<path id="path4" d="M15.9853 6.66392L16.1472 4.77162C16.2414 3.67108 15.4256 2.70255 14.3251 2.60836C14.2684 2.6035 14.2115 2.60107 14.1545 2.60107L3.33301 2.60107C4.27953 3.52408 4.89306 4.3809 5.17358 5.17154C5.4541 5.96218 5.61836 7.12719 5.66634 8.66659" fill-rule="evenodd" stroke="rgb(25,25,25)" stroke-linecap="round" stroke-linejoin="round" stroke-width="1" />
		<path id="path5" d="M16.9997 9.00033L16.9997 10.167C16.9997 10.9954 16.3281 11.667 15.4997 11.667L12.454 11.667C12.0858 11.667 11.7873 11.9655 11.7873 12.3337C11.7873 12.3706 11.7904 12.4074 11.7965 12.4438L12.3016 15.4583C12.4537 16.3661 11.841 17.2253 10.9332 17.3774C10.8422 17.3927 10.7501 17.4003 10.6578 17.4003L10.6229 17.4003C9.70245 17.4003 8.95626 16.6541 8.95626 15.7337C8.95626 15.634 8.9652 15.5345 8.98299 15.4364L9.52392 12.4526C9.5896 12.0903 9.34915 11.7434 8.98687 11.6777C8.94763 11.6706 8.90783 11.667 8.86795 11.667L5.83301 11.667C5.00458 11.667 4.33301 10.9954 4.33301 10.167L4.33301 9.00033C4.33301 8.81623 4.48225 8.66699 4.66634 8.66699L16.6663 8.66699C16.8504 8.66699 16.9997 8.81623 16.9997 9.00033Z" fill="rgb(255,255,255)" fill-opacity="0" fill-rule="evenodd" />
		<path id="path5" d="M16.9997 10.167C16.9997 10.9954 16.3281 11.667 15.4997 11.667L12.454 11.667C12.0858 11.667 11.7873 11.9655 11.7873 12.3337C11.7873 12.3706 11.7904 12.4074 11.7965 12.4438L12.3016 15.4583C12.4537 16.3661 11.841 17.2253 10.9332 17.3774C10.8422 17.3927 10.7501 17.4003 10.6578 17.4003L10.6229 17.4003C9.70245 17.4003 8.95626 16.6541 8.95626 15.7337C8.95626 15.634 8.9652 15.5345 8.98299 15.4364L9.52392 12.4526C9.5896 12.0903 9.34915 11.7434 8.98687 11.6777C8.94763 11.6706 8.90783 11.667 8.86795 11.667L5.83301 11.667C5.00458 11.667 4.33301 10.9954 4.33301 10.167L4.33301 9.00033C4.33301 8.81623 4.48225 8.66699 4.66634 8.66699L16.6663 8.66699C16.8504 8.66699 16.9997 8.81623 16.9997 9.00033L16.9997 10.167Z" fill-rule="evenodd" stroke="rgb(25,25,25)" stroke-linejoin="round" stroke-width="1" />
		<path id="path6" d="M15.9853 6.66392L16.1472 4.77162C16.2414 3.67108 15.4256 2.70255 14.3251 2.60836C14.2684 2.6035 14.2115 2.60107 14.1545 2.60107L3.33301 2.60107C4.12322 3.386 4.66772 4.08259 4.96651 4.69084C5.21376 5.15829 5.39373 5.81598 5.50643 6.66392L15.9853 6.66392Z" fill="rgb(255,255,255)" fill-opacity="0" fill-rule="evenodd" />
		<path id="path6" d="M16.1472 4.77162C16.2414 3.67108 15.4256 2.70255 14.3251 2.60836C14.2684 2.6035 14.2115 2.60107 14.1545 2.60107L3.33301 2.60107C4.12322 3.386 4.66772 4.08259 4.96651 4.69084C5.21376 5.15829 5.39373 5.81598 5.50643 6.66392L15.9853 6.66392L16.1472 4.77162Z" fill-rule="evenodd" stroke="rgb(255,255,255)" stroke-opacity="0" stroke-linecap="round" stroke-linejoin="round" stroke-width="1" />
	</g>
</svg>
