<svg viewBox="0 0 20 20" xmlns="http://www.w3.org/2000/svg" xmlns:xlink="http://www.w3.org/1999/xlink" width="20.000000" height="20.000000" fill="none">
	<rect id="用量统计" width="20.000000" height="20.000000" x="0.000000" y="0.000000" />
	<path id="矢量_8266" d="M16.4627 1.7875C16.3377 1.75 16.2002 1.75 16.0752 1.75L3.57519 1.75C3.4377 1.75 3.30019 1.7625 3.17519 1.7875C3.0627 1.8125 2.9502 1.85 2.8377 1.8875C2.7252 1.9375 2.6252 1.9875 2.5377 2.05C2.4252 2.125 2.3377 2.2 2.2377 2.2875C2.1502 2.3875 2.0752 2.475 2.0002 2.5875C1.9377 2.675 1.8877 2.775 1.8377 2.8875C1.8002 3 1.7627 3.1125 1.7377 3.225C1.7002 3.35 1.7002 3.4875 1.7002 3.625L1.7002 7.375C1.7002 7.5 1.7127 7.6375 1.7377 7.7625C1.7627 7.875 1.8002 7.9875 1.8377 8.1C1.8877 8.2125 1.9377 8.3125 2.0002 8.4C2.0752 8.5125 2.1502 8.6 2.2377 8.7C2.3377 8.7875 2.4252 8.8625 2.5377 8.9375C2.6252 9 2.7252 9.05 2.8377 9.1C2.9502 9.1375 3.0627 9.175 3.1752 9.2C3.3002 9.225 3.4377 9.25 3.5752 9.25L16.0752 9.25C16.2002 9.25 16.3377 9.225 16.4627 9.2C16.5752 9.175 16.6877 9.1375 16.8002 9.1C16.9127 9.05 17.0127 9 17.1002 8.9375C17.2127 8.8625 17.3002 8.7875 17.4002 8.7C17.4877 8.6 17.5627 8.5125 17.6377 8.4C17.7002 8.3125 17.7502 8.2125 17.8002 8.1C17.8377 7.9875 17.8752 7.875 17.9002 7.7625C17.9252 7.6375 17.9502 7.5 17.9502 7.375L17.9502 3.625C17.9502 3.4875 17.9252 3.35 17.9002 3.225C17.8752 3.1125 17.8377 3 17.8002 2.8875C17.7502 2.775 17.7002 2.675 17.6377 2.5875C17.5627 2.475 17.4877 2.3875 17.4002 2.2875C17.3002 2.2 17.2127 2.125 17.1002 2.05C17.0127 1.9875 16.9127 1.9375 16.8002 1.8875C16.6877 1.85 16.5752 1.8125 16.4627 1.7875ZM3.5752 3L16.0752 3C16.1627 3 16.2377 3.0125 16.3127 3.0375C16.3877 3.075 16.4502 3.1125 16.5127 3.175C16.5752 3.2375 16.6127 3.3 16.6502 3.375C16.6877 3.45 16.7002 3.5375 16.7002 3.625L16.7002 7.375C16.7002 7.4625 16.6877 7.5375 16.6502 7.6125C16.6127 7.6875 16.5752 7.75 16.5127 7.8125C16.4502 7.875 16.3877 7.9125 16.3127 7.95C16.2377 7.9875 16.1627 8 16.0752 8L3.57519 8C3.48769 8 3.40019 7.9875 3.32519 7.95C3.2502 7.9125 3.1877 7.875 3.1252 7.8125C3.0627 7.75 3.0252 7.6875 2.9877 7.6125C2.9502 7.5375 2.9502 7.4625 2.9502 7.375L2.9502 3.625C2.9502 3.5375 2.9627 3.45 2.9877 3.375C3.0252 3.3 3.0627 3.2375 3.1252 3.175C3.1877 3.1125 3.2502 3.075 3.3252 3.0375C3.4002 3 3.4877 3 3.5752 3ZM5.4502 4.5625C4.9252 4.5625 4.5127 4.975 4.5127 5.5C4.5127 6.0125 4.9377 6.4375 5.4502 6.4375C5.9627 6.4375 6.3877 6.025 6.3877 5.5C6.3877 4.975 5.9752 4.5625 5.4502 4.5625ZM14.8252 4.875L9.82519 4.875C9.46269 4.875 9.2002 5.15 9.2002 5.5C9.2002 5.85 9.46269 6.125 9.82519 6.125L14.8252 6.125C15.1752 6.125 15.4502 5.8625 15.4502 5.5C15.4502 5.1375 15.1752 4.875 14.8252 4.875ZM3.5752 18L9.82519 18C10.1752 18 10.4502 17.725 10.4502 17.375C10.4502 17.025 10.1752 16.75 9.82519 16.75L3.57519 16.75C3.48769 16.75 3.40019 16.7375 3.32519 16.7C3.2502 16.6625 3.1877 16.625 3.1252 16.5625C3.0627 16.5 3.0252 16.4375 2.9877 16.3625C2.9502 16.2875 2.9502 16.2125 2.9502 16.125L2.9502 12.375C2.9502 12.2875 2.9627 12.2 2.9877 12.125C3.0252 12.05 3.0627 11.9875 3.1252 11.925C3.1877 11.8625 3.2502 11.825 3.3252 11.7875C3.4002 11.7625 3.4877 11.75 3.5752 11.75L9.82519 11.75C10.1752 11.75 10.4502 11.4875 10.4502 11.125C10.4502 10.7625 10.1752 10.5 9.82519 10.5L3.57519 10.5C3.4377 10.5 3.30019 10.5125 3.17519 10.5375C3.0627 10.5625 2.9502 10.6 2.8377 10.6375C2.7252 10.6875 2.6252 10.7375 2.5377 10.8C2.4252 10.875 2.3377 10.95 2.2377 11.0375C2.1502 11.1375 2.0752 11.225 2.0002 11.3375C1.9377 11.425 1.8877 11.525 1.8377 11.6375C1.8002 11.75 1.7627 11.8625 1.7377 11.975C1.7002 12.1 1.7002 12.2375 1.7002 12.375L1.7002 16.125C1.7002 16.25 1.7127 16.3875 1.7377 16.5125C1.7627 16.625 1.8002 16.7375 1.8377 16.85C1.8877 16.9625 1.9377 17.0625 2.0002 17.15C2.0752 17.2625 2.1502 17.35 2.2377 17.45C2.3377 17.5375 2.4252 17.6125 2.5377 17.6875C2.6252 17.75 2.7252 17.8 2.8377 17.85C2.9502 17.8875 3.0627 17.925 3.1752 17.95C3.3002 17.975 3.4377 18 3.5752 18ZM15.4377 10.8625C15.3377 10.7125 15.1627 10.625 14.9752 10.625L14.0127 10.625L13.9127 10.6375C13.7377 10.675 13.6002 10.8 13.5252 10.9625L13.2627 11.575L13.0002 11.725L12.3377 11.65L12.2252 11.65C12.0502 11.6625 11.8877 11.7625 11.8002 11.9125L11.3127 12.75L11.2752 12.85C11.2252 13.0125 11.2502 13.2 11.3627 13.3375L11.7627 13.8625L11.7627 14.175L11.3627 14.7L11.3002 14.7875C11.2252 14.95 11.2252 15.1375 11.3252 15.3L11.8752 16.2125C12.0002 16.3375 12.1627 16.4 12.3502 16.3875L13.0127 16.3125L13.2877 16.4625L13.5502 17.075L13.6002 17.175C13.7002 17.325 13.8752 17.4125 14.0502 17.4125L14.9877 17.4125L15.1127 17.4C15.2877 17.3625 15.4252 17.2375 15.5002 17.075L15.7627 16.4625L16.0377 16.3125L16.7002 16.3875L16.8127 16.3875C16.9877 16.375 17.1627 16.275 17.2502 16.1125L17.7252 15.275L17.7627 15.175C17.8127 15.0125 17.7877 14.825 17.6752 14.6875L17.2752 14.1625L17.2752 13.875L17.6752 13.35L17.7377 13.2625C17.8127 13.1 17.8127 12.9125 17.7127 12.75L17.2377 11.9375L17.1627 11.8375C17.0502 11.7125 16.8752 11.65 16.6877 11.6625L16.0252 11.7375L15.7502 11.575L15.4877 10.9625L15.4377 10.8625ZM14.4127 11.75L14.6002 11.75L14.7127 12.0125C14.8127 12.2375 14.9752 12.425 15.1877 12.55L15.4627 12.7L15.5877 12.7625C15.7627 12.8375 15.9627 12.8625 16.1502 12.8375L16.4377 12.8L16.5252 12.9625L16.3502 13.1875C16.2002 13.3875 16.1252 13.625 16.1252 13.8625L16.1252 14.175L16.1377 14.325C16.1627 14.5125 16.2377 14.7 16.3502 14.85L16.5252 15.075L16.4377 15.2375L16.1502 15.2C15.9127 15.175 15.6627 15.225 15.4502 15.3375L15.1752 15.4875L15.0502 15.5625C14.9002 15.675 14.7752 15.8375 14.7002 16.0125L14.5877 16.275L14.4002 16.275L14.2877 16.0125C14.1877 15.7875 14.0252 15.6 13.8127 15.475L13.5377 15.325L13.4127 15.2625C13.2377 15.1875 13.0377 15.1625 12.8502 15.1875L12.5627 15.225L12.4627 15.0625L12.6377 14.8375C12.7877 14.6375 12.8627 14.4 12.8627 14.1625L12.8627 13.875L12.8502 13.725C12.8252 13.5375 12.7502 13.35 12.6377 13.2L12.4627 12.975L12.5502 12.8125L12.8377 12.85C13.0752 12.875 13.3252 12.825 13.5377 12.7125L13.8127 12.5625L13.9377 12.4875C14.0877 12.375 14.2127 12.2125 14.2877 12.0375L14.4127 11.75ZM15.4127 14.025C15.4127 13.525 15.0127 13.125 14.5127 13.125C14.0127 13.125 13.6127 13.525 13.6127 14.025C13.6127 14.525 14.0127 14.925 14.5127 14.925C15.0127 14.925 15.4127 14.525 15.4127 14.025ZM5.4502 13.3125C4.9252 13.3125 4.5127 13.725 4.5127 14.25C4.5127 14.7625 4.9377 15.1875 5.4502 15.1875C5.9627 15.1875 6.3877 14.775 6.3877 14.25C6.3877 13.725 5.9752 13.3125 5.4502 13.3125Z" fill="rgb(25,25,25)" fill-rule="evenodd" />
</svg>
