<svg viewBox="0 0 20 20" xmlns="http://www.w3.org/2000/svg" xmlns:xlink="http://www.w3.org/1999/xlink" width="20.000000" height="20.000000" fill="none">
	<mask id="mask_18" width="16.000002" height="16.000002" x="2.000000" y="2.000000" maskUnits="userSpaceOnUse">
		<g filter="url(#pixso_custom_mask_type_alpha)">
			<g id="mask1262_109614">
				<path id="mask" d="M18 2L2 2L2 18L12.4906 18C12.4211 17.9671 12.3515 17.9309 12.2819 17.8913L9.99673 16.5932C9.58007 16.3565 9.26757 16.0606 9.05923 15.7056C8.8509 15.3505 8.74673 14.9363 8.74673 14.4628L8.74673 11.8666C8.74673 11.4045 8.84593 10.9989 9.04437 10.6496C9.0493 10.641 9.05427 10.6324 9.05923 10.6239C9.26757 10.2688 9.58007 9.97293 9.99673 9.73623L12.2819 8.4381C12.6986 8.2014 13.1152 8.08303 13.5319 8.08303C13.9486 8.08303 14.3652 8.2014 14.7819 8.4381L17.0671 9.73623C17.4807 9.97123 17.7917 10.2645 18 10.6162L18 2ZM18 15.7133C17.7917 16.0649 17.4807 16.3582 17.0671 16.5932L14.7819 17.8913C14.7123 17.9309 14.6427 17.9671 14.5732 18L18 18L18 15.7133Z" fill="rgb(196,196,196)" fill-rule="evenodd" />
			</g>
		</g>
	</mask>
	<mask id="mask_17" width="16.000002" height="16.000002" x="2.000000" y="2.000000" maskUnits="userSpaceOnUse">
		<g filter="url(#pixso_custom_mask_type_alpha)">
			<g id="mask1262_109601">
				<path id="mask" d="M18 2L2 2L2 18L12.4906 18C12.4211 17.9671 12.3515 17.9309 12.2819 17.8913L9.99673 16.5932C9.58007 16.3565 9.26757 16.0606 9.05923 15.7056C8.8509 15.3505 8.74673 14.9363 8.74673 14.4628L8.74673 11.8666C8.74673 11.4045 8.84593 10.9989 9.04437 10.6496C9.0493 10.641 9.05427 10.6324 9.05923 10.6239C9.26757 10.2688 9.58007 9.97293 9.99673 9.73623L12.2819 8.4381C12.6986 8.2014 13.1152 8.08303 13.5319 8.08303C13.9486 8.08303 14.3652 8.2014 14.7819 8.4381L17.0671 9.73623C17.4807 9.97123 17.7917 10.2645 18 10.6162L18 2ZM18 15.7133C17.7917 16.0649 17.4807 16.3582 17.0671 16.5932L14.7819 17.8913C14.7123 17.9309 14.6427 17.9671 14.5732 18L18 18L18 15.7133Z" fill="rgb(196,196,196)" fill-rule="evenodd" />
			</g>
		</g>
	</mask>
	<mask id="mask_16" width="16.000002" height="16.000002" x="2.000000" y="2.000000" maskUnits="userSpaceOnUse">
		<g filter="url(#pixso_custom_mask_type_alpha)">
			<g id="mask1262_109601">
				<path id="mask" d="M18 2L2 2L2 18L12.4906 18C12.4211 17.9671 12.3515 17.9309 12.2819 17.8913L9.99673 16.5932C9.58007 16.3565 9.26757 16.0606 9.05923 15.7056C8.8509 15.3505 8.74673 14.9363 8.74673 14.4628L8.74673 11.8666C8.74673 11.4045 8.84593 10.9989 9.04437 10.6496C9.0493 10.641 9.05427 10.6324 9.05923 10.6239C9.26757 10.2688 9.58007 9.97293 9.99673 9.73623L12.2819 8.4381C12.6986 8.2014 13.1152 8.08303 13.5319 8.08303C13.9486 8.08303 14.3652 8.2014 14.7819 8.4381L17.0671 9.73623C17.4807 9.97123 17.7917 10.2645 18 10.6162L18 2ZM18 15.7133C17.7917 16.0649 17.4807 16.3582 17.0671 16.5932L14.7819 17.8913C14.7123 17.9309 14.6427 17.9671 14.5732 18L18 18L18 15.7133Z" fill="rgb(196,196,196)" fill-rule="evenodd" />
			</g>
		</g>
	</mask>
	<mask id="mask_15" width="16.000002" height="16.000002" x="2.000000" y="2.000000" maskUnits="userSpaceOnUse">
		<g filter="url(#pixso_custom_mask_type_alpha)">
			<g id="mask1262_109601">
				<path id="mask" d="M18 2L2 2L2 18L12.4906 18C12.4211 17.9671 12.3515 17.9309 12.2819 17.8913L9.99673 16.5932C9.58007 16.3565 9.26757 16.0606 9.05923 15.7056C8.8509 15.3505 8.74673 14.9363 8.74673 14.4628L8.74673 11.8666C8.74673 11.4045 8.84593 10.9989 9.04437 10.6496C9.0493 10.641 9.05427 10.6324 9.05923 10.6239C9.26757 10.2688 9.58007 9.97293 9.99673 9.73623L12.2819 8.4381C12.6986 8.2014 13.1152 8.08303 13.5319 8.08303C13.9486 8.08303 14.3652 8.2014 14.7819 8.4381L17.0671 9.73623C17.4807 9.97123 17.7917 10.2645 18 10.6162L18 2ZM18 15.7133C17.7917 16.0649 17.4807 16.3582 17.0671 16.5932L14.7819 17.8913C14.7123 17.9309 14.6427 17.9671 14.5732 18L18 18L18 15.7133Z" fill="rgb(196,196,196)" fill-rule="evenodd" />
			</g>
		</g>
	</mask>
	<mask id="mask_14" width="16.000002" height="16.000002" x="2.000000" y="2.000000" maskUnits="userSpaceOnUse">
		<g filter="url(#pixso_custom_mask_type_alpha)">
			<g id="mask1262_109601">
				<path id="mask" d="M18 2L2 2L2 18L12.4906 18C12.4211 17.9671 12.3515 17.9309 12.2819 17.8913L9.99673 16.5932C9.58007 16.3565 9.26757 16.0606 9.05923 15.7056C8.8509 15.3505 8.74673 14.9363 8.74673 14.4628L8.74673 11.8666C8.74673 11.4045 8.84593 10.9989 9.04437 10.6496C9.0493 10.641 9.05427 10.6324 9.05923 10.6239C9.26757 10.2688 9.58007 9.97293 9.99673 9.73623L12.2819 8.4381C12.6986 8.2014 13.1152 8.08303 13.5319 8.08303C13.9486 8.08303 14.3652 8.2014 14.7819 8.4381L17.0671 9.73623C17.4807 9.97123 17.7917 10.2645 18 10.6162L18 2ZM18 15.7133C17.7917 16.0649 17.4807 16.3582 17.0671 16.5932L14.7819 17.8913C14.7123 17.9309 14.6427 17.9671 14.5732 18L18 18L18 15.7133Z" fill="rgb(196,196,196)" fill-rule="evenodd" />
			</g>
		</g>
	</mask>
	<defs>
		<filter id="pixso_custom_mask_type_alpha">
			<feColorMatrix type="matrix" values="0 0 0 0 1 0 0 0 0 1 0 0 0 0 1 0 0 0 1 0 " />
		</filter>
	</defs>
	<mask id="mask_13" width="16.000002" height="16.000002" x="2.000000" y="2.000000" maskUnits="userSpaceOnUse">
		<g filter="url(#pixso_custom_mask_type_alpha)">
			<g id="mask1262_109601">
				<path id="mask" d="M18 2L2 2L2 18L12.4906 18C12.4211 17.9671 12.3515 17.9309 12.2819 17.8913L9.99673 16.5932C9.58007 16.3565 9.26757 16.0606 9.05923 15.7056C8.8509 15.3505 8.74673 14.9363 8.74673 14.4628L8.74673 11.8666C8.74673 11.4045 8.84593 10.9989 9.04437 10.6496C9.0493 10.641 9.05427 10.6324 9.05923 10.6239C9.26757 10.2688 9.58007 9.97293 9.99673 9.73623L12.2819 8.4381C12.6986 8.2014 13.1152 8.08303 13.5319 8.08303C13.9486 8.08303 14.3652 8.2014 14.7819 8.4381L17.0671 9.73623C17.4807 9.97123 17.7917 10.2645 18 10.6162L18 2ZM18 15.7133C17.7917 16.0649 17.4807 16.3582 17.0671 16.5932L14.7819 17.8913C14.7123 17.9309 14.6427 17.9671 14.5732 18L18 18L18 15.7133Z" fill="rgb(196,196,196)" fill-rule="evenodd" />
			</g>
		</g>
	</mask>
	<rect id="版本更新" width="20.000000" height="20.000000" x="0.000000" y="0.000000" />
	<path id="path1" d="M1.99953 9.99338C1.99953 8.74338 1.9962 7.49338 1.99953 6.24338C1.9962 5.63671 2.07286 5.03338 2.21953 4.45005C2.54953 3.21005 3.3562 2.47338 4.5962 2.18671C5.2162 2.05338 5.85286 1.99005 6.4862 2.00005C8.88286 2.00005 11.2795 2.00005 13.6795 2.00005C14.2829 1.99671 14.8862 2.06338 15.4762 2.20671C16.7529 2.51671 17.5195 3.32671 17.8095 4.60005C17.9429 5.20005 18.0029 5.81338 17.9962 6.43005C17.9962 8.85338 17.9962 11.2767 17.9962 13.6967C17.9995 14.2967 17.9329 14.8967 17.7929 15.4801C17.4795 16.7567 16.6662 17.5167 15.3962 17.8101C14.7729 17.9434 14.1395 18.0067 13.5029 17.9967C11.1162 17.9967 8.72953 17.9967 6.34286 17.9967C5.73286 18.0034 5.1262 17.9334 4.53286 17.7934C3.24953 17.4834 2.47953 16.6701 2.18953 15.3901C2.03953 14.7401 1.99953 14.0901 1.99953 13.4334C1.99953 12.2867 1.99953 11.14 1.99953 9.99338Z" fill="rgb(255,255,255)" fill-opacity="0" fill-rule="evenodd" />
	<circle id="path2" cx="10.000001" cy="10.000001" r="8.00000095" fill="rgb(255,255,255)" fill-opacity="0" />
	<g id="mask" mask="url(#mask_13)">
		<g id="组合 4420">
			<path id="path3" d="M16.8337 5.16699L16.8337 14.8337C16.8337 15.937 15.937 16.8337 14.8337 16.8337L5.16699 16.8337C4.06033 16.8337 3.16699 15.937 3.16699 14.8337L3.16699 5.16699C3.16699 4.06033 4.06033 3.16699 5.16699 3.16699L14.8337 3.16699C15.937 3.16699 16.8337 4.06033 16.8337 5.16699Z" fill-rule="evenodd" stroke="rgb(25,25,25)" stroke-width="1" />
		</g>
	</g>
	<g id="mask" mask="url(#mask_14)">
		<g id="组合 4422">
			<path id="路径 4" d="M6.66699 9.83301L11.667 9.83301" stroke="rgb(25,25,25)" stroke-linecap="round" stroke-linejoin="round" stroke-width="1" />
		</g>
	</g>
	<g id="mask" mask="url(#mask_15)">
		<g id="组合 4424">
			<path id="路径 4" d="M5 9.83301L5.16667 9.83301" stroke="rgb(25,25,25)" stroke-linecap="round" stroke-linejoin="round" stroke-width="1" />
		</g>
	</g>
	<g id="mask" mask="url(#mask_16)">
		<g id="组合 4426">
			<path id="矢量 309" d="M6.66699 6.5L14.3337 6.5" stroke="rgb(25,25,25)" stroke-linecap="round" stroke-linejoin="round" stroke-width="1" />
		</g>
	</g>
	<g id="mask" mask="url(#mask_17)">
		<g id="组合 4428">
			<path id="矢量 309" d="M5 6.5L5.16667 6.5" stroke="rgb(25,25,25)" stroke-linecap="round" stroke-linejoin="round" stroke-width="1" />
		</g>
	</g>
	<path id="fuxing" d="M16.8171 11.8465L16.8171 14.4832C16.8171 14.8398 16.6271 15.1732 16.3171 15.3498L14.0304 16.6698C13.7204 16.8465 13.3404 16.8465 13.0304 16.6698L10.7471 15.3498C10.4371 15.1732 10.2471 14.8398 10.2471 14.4832L10.2471 11.8465C10.2471 11.4898 10.4371 11.1565 10.7471 10.9798L13.0304 9.65984C13.3404 9.48318 13.7204 9.48318 14.0304 9.65984L16.3171 10.9798C16.6271 11.1565 16.8171 11.4898 16.8171 11.8465Z" fill-rule="nonzero" stroke="rgb(25,25,25)" stroke-linejoin="round" stroke-width="1" />
	<circle id="fuxing" cx="13.532753" cy="13.1684952" r="1.32767487" stroke="rgb(25,25,25)" stroke-linejoin="round" stroke-width="1" />
	<g id="mask" mask="url(#mask_18)">
		<g id="组合 4430">
			<path id="减去顶层" d="M14.8337 2.66602L5.16699 2.66602C3.7863 2.66602 2.66699 3.78532 2.66699 5.16602L2.66699 14.8333C2.66699 16.214 3.7863 17.3333 5.16699 17.3333L14.8337 17.3333C16.2144 17.3333 17.3337 16.214 17.3337 14.8333L17.3337 5.16602C17.3337 3.78532 16.2144 2.66602 14.8337 2.66602ZM5.16699 6L5.00033 6C4.7203 6 4.50033 6.22 4.50033 6.5C4.50033 6.78 4.7203 7 5.00033 7L5.16699 7C5.44703 7 5.66699 6.78 5.66699 6.5C5.66699 6.22 5.44703 6 5.16699 6ZM6.66699 6L14.3337 6C14.6137 6 14.8337 6.22 14.8337 6.5C14.8337 6.78 14.6137 7 14.3337 7L6.66699 7C6.38696 7 6.16699 6.78 6.16699 6.5C6.16699 6.22 6.38696 6 6.66699 6ZM5.00033 9.33333L5.16699 9.33333C5.44703 9.33333 5.66699 9.55333 5.66699 9.83333C5.66699 10.1133 5.44703 10.3333 5.16699 10.3333L5.00033 10.3333C4.7203 10.3333 4.50033 10.1133 4.50033 9.83333C4.50033 9.55333 4.7203 9.33333 5.00033 9.33333ZM14.3337 9.33333L6.66699 9.33333C6.38696 9.33333 6.16699 9.55333 6.16699 9.83333C6.16699 10.1133 6.38696 10.3333 6.66699 10.3333L14.3337 10.3333C14.6137 10.3333 14.8337 10.1133 14.8337 9.83333C14.8337 9.55333 14.6137 9.33333 14.3337 9.33333Z" fill="rgb(255,255,255)" fill-opacity="0" fill-rule="evenodd" />
		</g>
	</g>
	<path id="fuxing" d="M16.5674 10.5485C16.817 10.6926 17.0044 10.8728 17.1294 11.089L17.1299 11.0898C17.2549 11.3063 17.3174 11.5589 17.3174 11.8475L17.3174 14.4862C17.3174 14.7749 17.2549 15.0275 17.1299 15.244C17.0049 15.4605 16.8174 15.641 16.5674 15.7853L14.2822 17.1047C14.0322 17.2489 13.7822 17.3211 13.5322 17.3211C13.2822 17.3211 13.0322 17.249 12.7822 17.1047L10.4971 15.7853C10.2471 15.6409 10.0596 15.4605 9.93457 15.244C9.80957 15.0275 9.74707 14.7749 9.74707 14.4862L9.74707 11.8475C9.74707 11.5589 9.80957 11.3064 9.93447 11.09L9.93457 11.0898L9.93507 11.089C10.0601 10.8728 10.2474 10.6926 10.4971 10.5485L12.7822 9.22916C13.0322 9.08483 13.2822 9.0127 13.5322 9.0127C13.7822 9.0127 14.0322 9.0848 14.2822 9.22916L16.5674 10.5485ZM13.5322 11.8405C12.799 11.8405 12.2046 12.435 12.2046 13.1682C12.2046 13.9015 12.799 14.4959 13.5322 14.4959C14.2655 14.4959 14.8599 13.9015 14.8599 13.1682C14.8599 12.435 14.2655 11.8405 13.5322 11.8405Z" fill="rgb(255,255,255)" fill-opacity="0" fill-rule="evenodd" />
</svg>
