<svg viewBox="0 0 16 16" xmlns="http://www.w3.org/2000/svg" xmlns:xlink="http://www.w3.org/1999/xlink" width="16.000000" height="16.000000" fill="none" customFrame="#000000">
	<rect id="消息状态" width="16.000000" height="16.000000" x="0.000000" y="0.000000" />
	<path id="路径" d="M8 1C4.13438 1 1 4.13438 1 8C1 11.8656 4.13438 15 8 15C11.8656 15 15 11.8656 15 8C15 4.13438 11.8656 1 8 1Z" fill="rgb(242,48,48)" fill-rule="evenodd" />
	<g id="编组">
		<path id="路径_00000080208483849487366210000017231728556077793688_" d="M7.93031 5.7103C7.46001 5.7103 7.0697 5.3297 7.0697 4.8497C7.0697 4.37939 7.46001 4 7.93031 4C8.40061 4 8.7897 4.38061 8.7897 4.86061C8.7897 5.3297 8.40061 5.7103 7.93031 5.7103Z" fill="rgb(255,255,255)" fill-rule="evenodd" />
		<path id="矢量 41" d="M8.13033 12L8.93032 12L8.13033 12Z" fill="rgb(255,255,255)" fill-rule="evenodd" />
		<path id="矢量 41" d="M7.55889 7L8.13033 7L8.13033 12M7.33032 12L8.13033 12L8.93032 12" fill-rule="evenodd" stroke="rgb(255,255,255)" stroke-linecap="round" stroke-width="1" />
	</g>
</svg>
