<svg viewBox="0 0 16 16" xmlns="http://www.w3.org/2000/svg" xmlns:xlink="http://www.w3.org/1999/xlink" width="16.000000" height="16.000000" fill="none">
	<mask id="mask_3" width="16.000000" height="16.000000" x="0.000000" y="0.000000" maskUnits="userSpaceOnUse">
		<g filter="url(#pixso_custom_mask_type_alpha)">
			<g id="clip947_4721">
				<rect id="filled" width="16.000000" height="16.000000" x="0.000000" y="0.000000" fill="rgb(159,83,230)" />
			</g>
		</g>
	</mask>
	<mask id="mask_2" width="16.000000" height="16.000000" x="0.000000" y="0.000000" maskUnits="userSpaceOnUse">
		<g filter="url(#pixso_custom_mask_type_alpha)">
			<g id="clip947_4716">
				<rect id="border" width="16.000000" height="16.000000" x="0.000000" y="0.000000" fill="rgb(159,83,230)" />
			</g>
		</g>
	</mask>
	<mask id="mask_1" width="16.000000" height="16.000000" x="0.000000" y="0.000000" maskUnits="userSpaceOnUse">
		<g filter="url(#pixso_custom_mask_type_alpha)">
			<g id="clip947_4710">
				<rect id="support" width="16.000000" height="16.000000" x="0.000000" y="0.000000" fill="rgb(159,83,230)" />
			</g>
		</g>
	</mask>
	<defs>
		<filter id="pixso_custom_mask_type_alpha">
			<feColorMatrix type="matrix" values="0 0 0 0 1 0 0 0 0 1 0 0 0 0 1 0 0 0 1 0 " />
		</filter>
	</defs>
	<mask id="mask_0" width="16.000000" height="16.000000" x="0.000000" y="0.000000" maskUnits="userSpaceOnUse">
		<g filter="url(#pixso_custom_mask_type_alpha)">
			<g id="clip947_4709">
				<rect id="code_file-code文件/base/code_file" width="16.000000" height="16.000000" x="0.000000" y="0.000000" fill="rgb(159,83,230)" />
			</g>
		</g>
	</mask>
	<rect id="ic_ict_code_file" width="16.000000" height="16.000000" x="0.000000" y="0.000000" />
	<rect id="code_file-code文件/base/code_file" width="16.000000" height="16.000000" x="0.000000" y="0.000000" fill="rgb(255,255,255)" fill-opacity="0" />
	<g id="clip path group" mask="url(#mask_0)">
		<g id="组合 12">
			<g id="clip path group" mask="url(#mask_1)">
				<g id="组合 14">
					<path id="path1" d="M3.32757e-05 7.99333C3.32757e-05 6.74333 -0.00663339 5.49333 3.32757e-05 4.24333C-0.00663339 3.63666 0.0700333 3.03333 0.2167 2.45C0.5467 1.20666 1.35337 0.469996 2.5967 0.186663C3.21337 0.0533294 3.85003 -0.0133373 4.4867 -3.97372e-06C6.88003 -3.97372e-06 9.2767 -3.97372e-06 11.68 -3.97372e-06C12.28 -0.00333731 12.8834 0.0633294 13.4734 0.206663C14.75 0.513329 15.5167 1.32666 15.8067 2.59666C15.94 3.2 16 3.81333 15.9934 4.43C15.9934 6.85333 15.9934 9.27666 15.9934 11.6933C16 12.2967 15.93 12.8967 15.79 13.48C15.4767 14.7567 14.6667 15.5133 13.3934 15.8067C12.77 15.9433 12.1367 16.0067 11.5 15.9967C9.11337 15.9967 6.7267 15.9967 4.34003 15.9967C3.73003 16 3.12337 15.93 2.53003 15.79C1.25003 15.4833 0.4767 14.6667 0.1867 13.3867C0.0367 12.7367 3.32757e-05 12.09 3.32757e-05 11.43C3.32757e-05 10.2867 3.32757e-05 9.13666 3.32757e-05 7.99333Z" fill="rgb(255,255,255)" fill-opacity="0" fill-rule="evenodd" />
					<circle id="path2" cx="8" cy="7.99999952" r="8" fill="rgb(255,255,255)" fill-opacity="0" />
				</g>
			</g>
			<g id="clip path group" mask="url(#mask_2)">
				<g id="组合 16">
					<path id="path3" d="M12.2733 15.3334L3.71997 15.3334C2.61664 15.3334 1.71997 14.4367 1.71997 13.3334L1.71997 2.66669C1.71997 1.56002 2.61664 0.666687 3.71997 0.666687L10.2333 0.666687L10.2333 3.40002C10.2333 4.13335 10.83 4.73335 11.5666 4.73335L14.2733 4.73335L14.2733 13.3334C14.2733 14.4367 13.38 15.3334 12.2733 15.3334Z" fill-rule="evenodd" stroke="rgb(16,117,163)" stroke-linejoin="round" stroke-width="0.886666715" />
					<path id="path5" d="M11.5666 4.73335L14.2733 4.73335L14.2733 4.68002L10.2799 0.666687L10.2333 0.666687L10.2333 3.40002C10.2333 4.13335 10.8299 4.73335 11.5666 4.73335Z" fill-rule="evenodd" stroke="rgb(16,117,163)" stroke-linejoin="round" stroke-width="0.886666715" />
					<path id="矢量 324" d="M9.93668 7.08331L11.66 8.89665C11.89 9.13665 11.89 9.52665 11.66 9.76665L9.93668 11.5833M6.06002 7.08331L4.33668 8.89665C4.10668 9.13665 4.10668 9.52665 4.33668 9.76665L6.06002 11.5833M7.22335 11.4566L8.77335 7.20665" fill-rule="evenodd" stroke="rgb(16,117,163)" stroke-linecap="round" stroke-linejoin="round" stroke-width="0.886666715" />
				</g>
			</g>
			<g id="clip path group" mask="url(#mask_3)">
				<g id="组合 18">
					<path id="减去顶层" d="M9.56703 0.166687L9.56703 3.40009C9.56703 4.50459 10.4625 5.40009 11.567 5.40009L14.776 5.40009L14.776 13.3334C14.776 13.6784 14.7148 13.9984 14.5927 14.293C14.4707 14.5876 14.2877 14.8571 14.0436 15.1013C13.7994 15.3454 13.5299 15.5284 13.2353 15.6504C12.9407 15.7725 12.6211 15.8334 12.276 15.8334L3.72326 15.8334C3.37823 15.8334 3.05823 15.7725 2.76363 15.6504C2.46904 15.5284 2.1995 15.3451 1.95569 15.1013C1.71155 14.8571 1.52828 14.5876 1.40621 14.293C1.28414 13.9984 1.22327 13.6784 1.22327 13.3334L1.22327 2.66669C1.22327 2.32163 1.28414 2.00197 1.40621 1.70738C1.52828 1.41278 1.71155 1.14292 1.95569 0.898784C2.19983 0.654644 2.46904 0.4717 2.76363 0.34963C3.05823 0.227559 3.37823 0.166687 3.72326 0.166687L9.56703 0.166687ZM10.2337 3.40009L10.2337 0.666687L10.2825 0.666687L14.276 4.68295L14.276 4.73342L11.567 4.73342C10.8307 4.73342 10.2337 4.13642 10.2337 3.40009ZM4.69983 9.24352L6.42283 7.42742C6.61553 7.22432 6.60739 6.91342 6.40426 6.72072C6.20113 6.52802 5.88993 6.53615 5.69723 6.73929L3.97426 8.55535C3.92803 8.60419 3.88669 8.65629 3.85056 8.71192C3.80726 8.77735 3.77146 8.84769 3.74246 8.92289C3.71969 8.98212 3.70209 9.04235 3.68943 9.10385C3.67413 9.17872 3.66663 9.25522 3.66663 9.33335C3.66663 9.47529 3.69169 9.61199 3.74246 9.74352C3.77113 9.81772 3.80626 9.88739 3.84893 9.95282C3.88536 10.0088 3.92703 10.0619 3.97426 10.1114L5.69723 11.9274C5.88993 12.1306 6.20113 12.1387 6.40426 11.946C6.60739 11.7533 6.61553 11.4424 6.42283 11.2393L4.69983 9.42319C4.67769 9.39975 4.66663 9.36982 4.66663 9.33335C4.66663 9.29689 4.67769 9.26695 4.69983 9.24352ZM9.59566 6.72072C9.79879 6.52802 10.1097 6.53615 10.3024 6.73929L12.0254 8.55535C12.1266 8.66212 12.2041 8.78452 12.2571 8.92289C12.3079 9.05439 12.3333 9.19109 12.3333 9.33335C12.3333 9.47529 12.3079 9.61199 12.2575 9.74352C12.2041 9.88185 12.1269 10.0043 12.0257 10.1114L10.3024 11.9274C10.1097 12.1306 9.79879 12.1387 9.59566 11.946C9.39253 11.7533 9.38439 11.4424 9.5771 11.2393L11.3001 9.42319C11.3222 9.39975 11.3333 9.36982 11.3333 9.33335C11.3333 9.29689 11.3222 9.26695 11.2998 9.24352L9.57679 7.42742C9.38406 7.22432 9.39253 6.91342 9.59566 6.72072ZM7.69333 11.6306L9.24539 7.37925C9.34143 7.11622 9.21026 6.83402 8.94723 6.73799C8.68419 6.64195 8.40199 6.77312 8.30596 7.03615L6.75386 11.2875C6.65783 11.5505 6.78903 11.8327 7.05203 11.9287C7.31506 12.0248 7.59729 11.8936 7.69333 11.6306Z" fill="rgb(255,255,255)" fill-opacity="0" fill-rule="evenodd" />
					<path id="path5" d="M10.2333 0.666687L10.2333 3.40002C10.2333 4.13335 10.8299 4.73335 11.5666 4.73335L14.2733 4.73335L14.2733 4.68002L10.2799 0.666687L10.2333 0.666687Z" fill="rgb(255,255,255)" fill-opacity="0" fill-rule="evenodd" />
				</g>
			</g>
		</g>
	</g>
</svg>
