<svg viewBox="0 0 16 16" xmlns="http://www.w3.org/2000/svg" xmlns:xlink="http://www.w3.org/1999/xlink" width="16.000000" height="16.000000" fill="none">
	<defs>
		<filter id="pixso_custom_mask_type_alpha">
			<feColorMatrix type="matrix" values="0 0 0 0 1 0 0 0 0 1 0 0 0 0 1 0 0 0 1 0 " />
		</filter>
	</defs>
	<mask id="mask_4" width="16.000000" height="16.000000" x="0.000000" y="0.000000" maskUnits="userSpaceOnUse">
		<g filter="url(#pixso_custom_mask_type_alpha)">
			<g id="clipPath_681">
				<rect id="矩形 9" width="16.000000" height="16.000000" x="0.000000" y="0.000000" fill="rgb(243,79,41)" />
			</g>
		</g>
	</mask>
	<rect id="ic_.gitignore" width="16.000000" height="16.000000" x="0.000000" y="0.000000" />
	<rect id="ic_public_info_file-信息文件/base/ic_public_info_file" width="16.000000" height="16.000000" x="0.000000" y="0.000000" fill="rgb(255,255,255)" fill-opacity="0" />
	<g id="clip path group" mask="url(#mask_4)">
		<g id="support">
			<rect id="support" width="16.000000" height="16.000000" x="0.000000" y="0.000000" />
			<path id="path1" d="M1.66385e-05 7.99329C1.66385e-05 6.74329 -0.0033167 5.49329 1.66385e-05 4.24329C-0.0033167 3.63662 0.07335 3.03329 0.220017 2.44996C0.550017 1.20996 1.35668 0.47329 2.59668 0.186622C3.21668 0.0532891 3.85337 -0.0100443 4.48667 -4.43257e-05C6.88333 -4.43257e-05 9.28 -4.43257e-05 11.68 -4.43257e-05C12.2833 -0.00337766 12.8867 0.0632891 13.4767 0.206622C14.7533 0.516623 15.52 1.32662 15.81 2.59996C15.9434 3.19996 16.0033 3.81329 15.9967 4.42996C15.9967 6.85329 15.9967 9.27662 15.9967 11.6966C16 12.2966 15.9333 12.8966 15.7934 13.48C15.48 14.7566 14.6667 15.5166 13.3967 15.81C12.7733 15.9433 12.14 16.0066 11.5033 15.9966C9.11667 15.9966 6.73003 15.9966 4.34333 15.9966C3.73333 16.0033 3.12668 15.9333 2.53335 15.7933C1.25002 15.4833 0.480017 14.67 0.190017 13.39C0.0400167 12.74 1.66385e-05 12.09 1.66385e-05 11.4333C1.66385e-05 10.2866 1.66385e-05 9.13996 1.66385e-05 7.99329Z" fill="rgb(255,255,255)" fill-opacity="0" fill-rule="evenodd" />
			<circle id="path2" cx="8" cy="8" r="8" fill="rgb(255,255,255)" fill-opacity="0" />
		</g>
	</g>
	<g id="border">
		<rect id="border" width="16.000000" height="16.000000" x="0.000000" y="0.000000" />
		<g id="组合 10">
			<rect id="矩形 10" width="9.899495" height="9.899495" x="0.000000" y="0.000000" rx="0.659303" fill="rgb(196,196,196)" fill-opacity="0" transform="matrix(0.707107,0.707107,-0.707107,0.707107,8,1)" />
			<rect id="矩形 10" width="9.899495" height="9.899495" x="0.000000" y="0.000000" rx="0.659303" stroke="rgb(243,79,41)" stroke-width="1" transform="matrix(0.707107,0.707107,-0.707107,0.707107,8,1)" />
			<g id="组合 9">
				<path id="矢量 8382" d="M6.92358 4.90404C6.92358 4.31992 7.4057 3.84641 8.00045 3.84641C8.59519 3.84641 9.07731 4.31992 9.07731 4.90404C9.07731 5.48816 8.59519 5.96167 8.00045 5.96167C7.4057 5.96167 6.92358 5.48816 6.92358 4.90404ZM10.1542 8.07693C10.1542 7.49281 10.6363 7.0193 11.231 7.0193C11.8258 7.0193 12.3079 7.49281 12.3079 8.07693C12.3079 8.66105 11.8258 9.13456 11.231 9.13456C10.6363 9.13456 10.1542 8.66105 10.1542 8.07693ZM8.00045 10.1922C7.4057 10.1922 6.92358 10.6657 6.92358 11.2498C6.92358 11.8339 7.4057 12.3075 8.00045 12.3075C8.59519 12.3075 9.07731 11.8339 9.07731 11.2498C9.07731 10.6657 8.59519 10.1922 8.00045 10.1922Z" fill="rgb(243,79,41)" fill-rule="evenodd" />
				<path id="矢量 8380" d="M8.00037 5.43286L8.00037 10.721" stroke="rgb(243,79,41)" stroke-width="1" />
				<path id="矢量 8381" d="M8.53882 5.43286L11.231 8.07692" stroke="rgb(243,79,41)" stroke-width="1" />
			</g>
		</g>
	</g>
</svg>
