<svg viewBox="0 0 16 16" xmlns="http://www.w3.org/2000/svg" xmlns:xlink="http://www.w3.org/1999/xlink" width="16.000000" height="16.000000" fill="none">
	<mask id="mask_9" width="16.000000" height="16.000000" x="0.000000" y="0.000000" maskUnits="userSpaceOnUse">
		<g filter="url(#pixso_custom_mask_type_alpha)">
			<g id="mask_79">
				<g id="mask_350">
					<path id="蒙版" d="M9.5 0L0 0L0 16L16 16L16 5.5L11.5667 5.5C10.4622 5.5 9.5 4.5046 9.5 3.40003L9.5 0ZM9.8 11.3167L9.8 7.98473L8.41603 10.0607C8.33943 10.1756 8.23343 10.2466 8.09807 10.2736C7.96267 10.3007 7.83753 10.276 7.72267 10.1994C7.6952 10.1811 7.6698 10.1602 7.64643 10.1369C7.6231 10.1136 7.6023 10.0882 7.58397 10.0607L6.2 7.98473L6.2 11.3167C6.2 11.5967 5.98 11.8167 5.7 11.8167C5.42 11.8167 5.2 11.5967 5.2 11.3167L5.2 6.33333C5.2 6.24973 5.21973 6.1711 5.25917 6.0974C5.2986 6.0237 5.3531 5.96367 5.42267 5.9173C5.53753 5.84073 5.66267 5.81597 5.79807 5.84303C5.93347 5.87013 6.03943 5.9411 6.11603 6.056L8 8.88193L9.88397 6.056C9.93033 5.98643 9.99037 5.93193 10.0641 5.8925C10.1378 5.85307 10.2164 5.83333 10.3 5.83333C10.369 5.83333 10.433 5.84553 10.4919 5.86993C10.5509 5.89437 10.6047 5.93097 10.6536 5.9798C10.7512 6.0774 10.8 6.19527 10.8 6.33333L10.8 11.3167C10.8 11.5967 10.58 11.8167 10.3 11.8167C10.02 11.8167 9.8 11.5967 9.8 11.3167Z" fill="rgb(255,255,255)" fill-opacity="0" fill-rule="evenodd" />
				</g>
			</g>
		</g>
	</mask>
	<mask id="mask_8" width="16.000000" height="16.000000" x="0.000000" y="0.000000" maskUnits="userSpaceOnUse">
		<g filter="url(#pixso_custom_mask_type_alpha)">
			<g id="mask_78">
				<g id="mask_349">
					<path id="mask" d="M0 0L16 0L16 16L0 16L0 0Z" fill="rgb(255,136,0)" fill-rule="evenodd" />
				</g>
			</g>
		</g>
	</mask>
	<defs>
		<filter id="pixso_custom_mask_type_alpha">
			<feColorMatrix type="matrix" values="0 0 0 0 1 0 0 0 0 1 0 0 0 0 1 0 0 0 1 0 " />
		</filter>
	</defs>
	<mask id="mask_7" width="16.000000" height="16.000000" x="0.000000" y="0.000000" maskUnits="userSpaceOnUse">
		<g filter="url(#pixso_custom_mask_type_alpha)">
			<g id="clipPath_169">
				<rect id="矩形 10" width="16.000000" height="16.000000" x="0.000000" y="0.000000" fill="rgb(0,0,0)" />
			</g>
		</g>
	</mask>
	<rect id="ic_ict_markdown_file" width="16.000000" height="16.000000" x="0.000000" y="0.000000" />
	<rect id="ic_public_markdown_file-markdown文件/base/ic_public_markdown_file" width="16.000000" height="16.000000" x="0.000000" y="0.000000" fill="rgb(255,255,255)" fill-opacity="0" />
	<g id="clip path group" mask="url(#mask_7)">
		<g id="support">
			<rect id="support" width="16.000000" height="15.999999" x="0.000000" y="0.000000" />
			<path id="path1" d="M1.66345e-05 7.99334C1.66345e-05 6.74334 -0.00331669 5.49334 1.66345e-05 4.24334C-0.00331669 3.63668 0.07335 3.03335 0.220017 2.45002C0.550017 1.21002 1.35668 0.47335 2.59668 0.186683C3.21668 0.0533501 3.85335 -0.00998332 4.48669 1.66695e-05C6.88335 1.66695e-05 9.28002 1.66695e-05 11.68 1.66695e-05C12.2834 -0.00331666 12.8867 0.0633501 13.4767 0.206683C14.7534 0.516683 15.52 1.32668 15.81 2.60002C15.9434 3.20002 16.0034 3.81334 15.9967 4.43001C15.9967 6.85334 15.9967 9.27668 15.9967 11.6967C16 12.2967 15.9334 12.8967 15.7934 13.48C15.48 14.7567 14.6667 15.5167 13.3967 15.81C12.7734 15.9433 12.14 16.0067 11.5034 15.9967C9.11669 15.9967 6.73002 15.9967 4.34335 15.9967C3.73335 16.0033 3.12668 15.9333 2.53335 15.7933C1.25002 15.4833 0.480017 14.67 0.190017 13.39C0.0400167 12.74 1.66345e-05 12.09 1.66345e-05 11.4333C1.66345e-05 10.2867 1.66345e-05 9.14001 1.66345e-05 7.99334Z" fill="rgb(255,255,255)" fill-opacity="0" fill-rule="evenodd" />
			<circle id="path2" cx="8" cy="7.99999952" r="8" fill="rgb(255,255,255)" fill-opacity="0" />
		</g>
	</g>
	<g id="border">
		<rect id="border" width="16.000000" height="16.000000" x="0.000000" y="0.000000" />
		<rect id="ic_public_markdown_file-markdown文件-border" width="16.000000" height="15.999512" x="0.000000" y="0.000000" />
		<g id="mask" mask="url(#mask_8)">
			<g id="mask">
				<g id="蒙版">
					<path id="path3" d="M3.83337 15.3333C2.7288 15.3333 1.83337 14.4379 1.83337 13.3333L1.83337 2.66666C1.83337 1.56209 2.7288 0.666656 3.83337 0.666656L10.1951 0.666656L10.1951 3.39992C10.1951 4.13632 10.7921 4.73326 11.5285 4.73326L14.1667 4.73326L14.1667 13.3333C14.1667 14.4379 13.2713 15.3333 12.1667 15.3333L3.83337 15.3333Z" fill-rule="evenodd" stroke="rgb(255,136,0)" stroke-linecap="round" stroke-linejoin="round" stroke-width="0.886666715" />
					<path id="path5-border" d="M14.1666 4.66666L14.1666 4.61702L10.2148 0.666656L10.1666 0.666656L10.1666 3.35516C10.1666 4.07949 10.7574 4.66666 11.4861 4.66666L14.1666 4.66666Z" fill-rule="evenodd" stroke="rgb(255,136,0)" stroke-linecap="round" stroke-linejoin="round" stroke-width="0.886666715" />
					<path id="矢量 2231" d="M5.69995 11.3167L5.69995 6.33334L7.99995 9.78334L10.3 6.33334L10.3 11.3167" fill-rule="nonzero" stroke="rgb(255,136,0)" stroke-linecap="round" stroke-linejoin="round" stroke-width="0.886666715" />
				</g>
			</g>
		</g>
	</g>
	<g id="filled">
		<rect id="filled" width="16.000000" height="16.000000" x="0.000000" y="0.000000" />
		<rect id="ic_public_markdown_file-markdown文件-filled" width="16.000000" height="15.999268" x="0.000000" y="0.000000" />
		<g id="mask" mask="url(#mask_9)">
			<g id="mask">
				<g id="蒙版">
					<path id="path" d="M10.1667 0.666656L10.1667 3.39992C10.1667 4.13632 10.7817 4.83332 11.5052 4.83332L14.1667 4.83332L14.1667 13.3333C14.1667 14.4379 13.2868 15.3333 12.2016 15.3333L3.79844 15.3333C2.71324 15.3333 1.83337 14.4379 1.83337 13.3333L1.83337 2.66666C1.83337 1.56208 2.71324 0.666656 3.79844 0.666656L10.1667 0.666656Z" fill="rgb(255,255,255)" fill-opacity="0" fill-rule="evenodd" />
					<path id="path" d="M3.79844 15.3333C2.71324 15.3333 1.83337 14.4379 1.83337 13.3333L1.83337 2.66666C1.83337 1.56208 2.71324 0.666656 3.79844 0.666656L10.1667 0.666656L10.1667 3.39992C10.1667 4.13632 10.7817 4.83332 11.5052 4.83332L14.1667 4.83332L14.1667 13.3333C14.1667 14.4379 13.2868 15.3333 12.2016 15.3333L3.79844 15.3333Z" fill-rule="evenodd" stroke="rgb(255,255,255)" stroke-opacity="0" stroke-linecap="round" stroke-linejoin="round" stroke-width="0.886666715" />
				</g>
			</g>
		</g>
		<path id="path5" d="M10.5 3.18851L10.5 0.5L10.5482 0.5L14.5 4.45037L14.5 4.5L11.8194 4.5C11.0908 4.5 10.5 3.91283 10.5 3.18851Z" fill="rgb(255,255,255)" fill-opacity="0" fill-rule="evenodd" />
		<path id="矢量 2231" d="M5.69995 11.3167L5.69995 6.33334L7.99995 9.78334L10.3 6.33334L10.3 11.3167" fill-rule="nonzero" stroke="rgb(255,255,255)" stroke-opacity="0" stroke-linecap="round" stroke-linejoin="round" stroke-width="0.886666715" />
	</g>
</svg>
