<svg viewBox="0 0 16 16" xmlns="http://www.w3.org/2000/svg" xmlns:xlink="http://www.w3.org/1999/xlink" width="16.000000" height="16.000000" fill="none">
	<rect id="PDF文件-files-pdf" width="16.000000" height="16.000000" x="0.000000" y="0.000000" />
	<path id="pdf" d="M9.65 0.54C9.5 0.5 9.33 0.5 9.17 0.5L4 0.5C3.81 0.5 3.63 0.51 3.46 0.55C3.31 0.59 3.16 0.63 3.02 0.69C2.88 0.75 2.75 0.82 2.62 0.91C2.48 1 2.35 1.11 2.23 1.23C2.11 1.35 2 1.48 1.91 1.62C1.82 1.75 1.75 1.88 1.69 2.02C1.63 2.16 1.59 2.31 1.55 2.46C1.5 2.63 1.5 2.81 1.5 3L1.5 13C1.5 13.18 1.5 13.36 1.55 13.53C1.59 13.68 1.63 13.83 1.69 13.97C1.75 14.11 1.82 14.24 1.91 14.37C2 14.51 2.11 14.64 2.23 14.76C2.46 14.99 2.72 15.17 3.02 15.3C3.33 15.43 3.66 15.5 4 15.5L12 15.5C12.18 15.5 12.36 15.48 12.53 15.44C12.68 15.4 12.83 15.36 12.97 15.3C13.27 15.17 13.53 14.99 13.76 14.76C13.99 14.53 14.17 14.27 14.3 13.97C14.43 13.66 14.5 13.33 14.5 13L14.5 5.82C14.5 5.66 14.48 5.5 14.45 5.34C14.42 5.18 14.37 5.02 14.3 4.87C14.24 4.71 14.16 4.57 14.07 4.43C13.98 4.3 13.88 4.17 13.76 4.06L10.93 1.23C10.7 0.989999 10.43 0.809999 10.12 0.689999C9.97 0.619999 9.81 0.569999 9.65 0.539999L9.65 0.54ZM4 1.5L9.27 1.5C9.33 1.5 9.44 1.51 9.51 1.53L9.51 4C9.51 4.1 9.52 4.21 9.54 4.31C9.56 4.4 9.59 4.49 9.62 4.58C9.66 4.67 9.7 4.75 9.75 4.82C9.81 4.91 9.87 4.98 9.94 5.06C10.02 5.13 10.09 5.19 10.18 5.25C10.25 5.3 10.34 5.34 10.42 5.38C10.61 5.46 10.8 5.5 11.01 5.5L13.47 5.53C13.49 5.63 13.5 5.72 13.5 5.82L13.5 13C13.5 13.11 13.48 13.22 13.46 13.34C13.44 13.42 13.41 13.5 13.38 13.58C13.3 13.76 13.19 13.92 13.06 14.06C12.92 14.19 12.76 14.3 12.58 14.38C12.39 14.46 12.2 14.5 12 14.5L4 14.5C3.88 14.5 3.77 14.48 3.65 14.46C3.57 14.44 3.49 14.41 3.41 14.38C3.33 14.34 3.25 14.3 3.18 14.25C3.09 14.2 3.01 14.13 2.93 14.06C2.8 13.92 2.69 13.76 2.61 13.58C2.53 13.39 2.5 13.2 2.5 13L2.5 3C2.5 2.88 2.5 2.77 2.53 2.65C2.55 2.57 2.58 2.49 2.61 2.41C2.65 2.33 2.69 2.25 2.74 2.18C2.79 2.09 2.86 2.01 2.93 1.93C3.01 1.86 3.09 1.79 3.18 1.74C3.25 1.69 3.33 1.65 3.41 1.61C3.49 1.58 3.57 1.55 3.65 1.53C3.77 1.5 3.88 1.5 4 1.5L4 1.5ZM10.5 4L10.5 2.2L12.76 4.46L11 4.5C10.93 4.5 10.86 4.48 10.8 4.46C10.74 4.43 10.69 4.4 10.64 4.35C10.59 4.3 10.56 4.25 10.53 4.19C10.51 4.13 10.5 4.06 10.5 4L10.5 4ZM11.65 13.63C11.49 13.79 11.32 13.9 11.12 13.96C11.12 13.96 11.07 13.97 11.05 13.98C10.98 13.99 10.91 14 10.85 14C10.7 14 10.55 13.97 10.39 13.9C10.07 13.76 9.76 13.47 9.46 13.02C9.21 12.65 8.97 12.19 8.75 11.64C8.72 11.57 8.7 11.51 8.67 11.44C8.35 11.33 8.02 11.23 7.67 11.14C7.35 11.06 7.04 10.99 6.73 10.93C6.69 10.96 6.65 10.99 6.61 11.03C6.14 11.4 5.7 11.68 5.3 11.87C4.82 12.11 4.4 12.21 4.05 12.17C3.87 12.15 3.72 12.11 3.58 12.03C3.53 12 3.48 11.97 3.44 11.93C3.41 11.91 3.39 11.88 3.36 11.86C3.23 11.73 3.13 11.56 3.06 11.35C2.99 11.13 2.98 10.93 3.02 10.73C3.02 10.71 3.03 10.68 3.04 10.66C3.06 10.59 3.09 10.53 3.12 10.47C3.19 10.34 3.29 10.22 3.43 10.12C3.71 9.91 4.11 9.79 4.65 9.75C5.09 9.72 5.61 9.75 6.2 9.82C6.29 9.83 6.37 9.84 6.46 9.86C6.72 9.64 6.97 9.4 7.23 9.15C7.46 8.92 7.68 8.68 7.88 8.45C7.87 8.38 7.86 8.31 7.85 8.24C7.77 7.65 7.74 7.13 7.78 6.68C7.82 6.14 7.94 5.73 8.14 5.45C8.24 5.31 8.36 5.2 8.49 5.13C8.55 5.1 8.6 5.07 8.66 5.05C8.69 5.05 8.72 5.03 8.74 5.02C8.93 4.97 9.13 4.98 9.34 5.04C9.56 5.1 9.73 5.19 9.87 5.33C9.89 5.35 9.91 5.37 9.93 5.39C9.97 5.44 10.01 5.49 10.05 5.55C10.13 5.68 10.18 5.83 10.2 6C10.24 6.35 10.15 6.76 9.91 7.24C9.72 7.64 9.44 8.07 9.08 8.54C9.03 8.6 8.98 8.67 8.93 8.73C8.99 9.05 9.07 9.37 9.15 9.71C9.24 10.04 9.33 10.36 9.44 10.66C9.49 10.68 9.55 10.7 9.6 10.72C10.16 10.94 10.62 11.18 10.99 11.43C11.44 11.73 11.74 12.04 11.88 12.36C11.95 12.52 11.99 12.67 11.99 12.83C11.99 12.89 11.99 12.96 11.97 13.02C11.97 13.05 11.96 13.07 11.95 13.1C11.9 13.29 11.79 13.46 11.64 13.62L11.65 13.63ZM9.01 6.81C8.94 6.96 8.86 7.11 8.76 7.27C8.76 7.09 8.76 6.91 8.76 6.76C8.78 6.41 8.84 6.18 8.94 6.05C8.96 6.03 8.97 6.01 8.98 6.01C9 6.01 9.04 6.01 9.09 6.02C9.14 6.03 9.18 6.05 9.19 6.07C9.19 6.07 9.2 6.1 9.21 6.13C9.23 6.29 9.16 6.52 9.02 6.83L9.01 6.81ZM8.19 9.98C8.22 10.08 8.24 10.18 8.27 10.28C8.15 10.25 8.04 10.21 7.92 10.18C7.83 10.16 7.75 10.14 7.67 10.12C7.76 10.04 7.84 9.95 7.93 9.87C7.99 9.81 8.06 9.74 8.12 9.68C8.14 9.78 8.17 9.88 8.2 9.98L8.19 9.98ZM4.72 10.76C4.89 10.75 5.07 10.75 5.26 10.76C5.12 10.84 4.99 10.91 4.87 10.98C4.55 11.13 4.31 11.2 4.15 11.19C4.11 11.19 4.09 11.18 4.07 11.17C4.05 11.15 4.03 11.12 4.02 11.07C4 11.02 4 10.99 4 10.97C4 10.97 4.01 10.96 4.03 10.95C4.08 10.91 4.16 10.88 4.26 10.85C4.39 10.82 4.54 10.79 4.72 10.78L4.72 10.76ZM10.29 12.47C10.2 12.34 10.11 12.18 10.02 12.02C10.18 12.1 10.32 12.19 10.45 12.27C10.74 12.46 10.92 12.63 10.99 12.78C11 12.81 11.01 12.83 11.01 12.84C11.01 12.86 10.98 12.89 10.95 12.93C10.95 12.93 10.88 12.99 10.86 13C10.86 13 10.83 13 10.81 12.99C10.67 12.93 10.5 12.76 10.31 12.47L10.29 12.47Z" fill="rgb(255,76,72)" fill-rule="evenodd" />
</svg>
