<svg viewBox="0 0 16 16" xmlns="http://www.w3.org/2000/svg" xmlns:xlink="http://www.w3.org/1999/xlink" width="16.000000" height="16.000000" fill="none">
	<mask id="mask_6" width="16.000000" height="16.000000" x="0.000000" y="0.000000" maskUnits="userSpaceOnUse">
		<g filter="url(#pixso_custom_mask_type_alpha)">
			<g id="clip1830_64095_rx71wmpjci115777">
				<rect id="矩形 11" width="16.000000" height="16.000000" x="0.000000" y="0.000000" fill="rgb(0,0,0)" />
			</g>
		</g>
	</mask>
	<defs>
		<filter id="pixso_custom_mask_type_alpha">
			<feColorMatrix type="matrix" values="0 0 0 0 1 0 0 0 0 1 0 0 0 0 1 0 0 0 1 0 " />
		</filter>
	</defs>
	<mask id="mask_5" width="16.000000" height="16.000000" x="0.000000" y="0.000000" maskUnits="userSpaceOnUse">
		<g filter="url(#pixso_custom_mask_type_alpha)">
			<g id="clip1830_64094_rx71wmpjci115777">
				<rect id="矩形 12" width="16.000000" height="16.000000" x="0.000000" y="0.000000" fill="rgb(0,0,0)" />
			</g>
		</g>
	</mask>
	<rect id="ic_public_files" width="16.000000" height="16.000000" x="0.000000" y="0.000000" />
	<rect id="矩形 10" width="16.000000" height="16.000000" x="0.000000" y="0.000000" fill="rgb(255,255,255)" fill-opacity="0" />
	<g id="clip path group" mask="url(#mask_5)">
		<g id="组合 12">
			<g id="clip path group" mask="url(#mask_6)">
				<g id="组合 14">
					<path id="矢量 7" d="M3.32759e-05 7.99332C3.32759e-05 6.74332 -0.00663339 5.49332 3.32759e-05 4.24332C-0.00663339 3.63665 0.0733666 3.03332 0.220033 2.44999C0.550033 1.20999 1.3567 0.469986 2.5967 0.186653C3.2167 0.0533195 3.85337 -0.0100138 4.4867 -1.37885e-05C6.88337 -1.37885e-05 9.28003 -1.37885e-05 11.68 -1.37885e-05C12.2834 -0.00334712 12.8867 0.0599862 13.4767 0.206653C14.7534 0.516653 15.52 1.32332 15.81 2.59999C15.9434 3.19999 16.0034 3.80999 15.9967 4.42999C15.9967 6.85332 15.9967 9.27665 15.9967 11.6967C16 12.2967 15.9334 12.8933 15.7934 13.4767C15.48 14.7567 14.6667 15.5167 13.3967 15.81C12.7734 15.9433 12.1367 16.0067 11.5 15.9967C9.1167 15.9967 6.73003 15.9967 4.34337 15.9967C3.73337 16.0033 3.1267 15.9333 2.53337 15.7933C1.25003 15.4833 0.480033 14.67 0.190033 13.3867C0.0367 12.74 3.32759e-05 12.09 3.32759e-05 11.4333C3.32759e-05 10.2867 3.32759e-05 9.13665 3.32759e-05 7.99332Z" fill="rgb(255,255,255)" fill-opacity="0" fill-rule="evenodd" />
					<circle id="椭圆 2" cx="8" cy="8" r="8" fill="rgb(255,255,255)" fill-opacity="0" />
				</g>
			</g>
			<path id="矢量 8" d="M12.1667 15.3333L3.83337 15.3333C2.72671 15.3333 1.83337 14.4367 1.83337 13.3333L1.83337 2.66666C1.83337 1.55999 2.72671 0.666656 3.83337 0.666656L10.3334 0.666656L14.1667 4.66666L14.1667 13.3333C14.1667 14.4367 13.27 15.3333 12.1667 15.3333ZM14.1667 4.66666L12 4.66666C11.0767 4.66666 10.3334 3.91999 10.3334 2.99999L10.3334 0.666656" fill-rule="nonzero" stroke="rgb(128,128,128)" stroke-linejoin="round" stroke-width="0.886666715" />
			<path id="矢量 9" d="M3.70337 10.99L8.99004 10.99M3.70337 7.68668L7.0067 7.68668" stroke="rgb(128,128,128)" stroke-linecap="round" stroke-linejoin="round" stroke-width="0.886666715" />
			<path id="矢量 10" d="M9.66671 0L9.66671 3.33333C9.66671 4.25333 10.41 5 11.3334 5L14.6667 5L14.6667 13.5C14.6667 14.88 13.5467 16 12.1667 16L3.83337 16C2.45004 16 1.33337 14.88 1.33337 13.5L1.33337 2.5C1.33337 1.11667 2.45004 0 3.83337 0L9.66671 0ZM14.6667 4.33333L11.3334 4.33333C10.78 4.33333 10.3334 3.88333 10.3334 3.33333L10.3334 0L14.6667 4.33333ZM7.00671 8.18667L3.70337 8.18667C3.42337 8.18667 3.20337 7.96667 3.20337 7.68667C3.20337 7.40667 3.42337 7.18667 3.70337 7.18667L7.00671 7.18667C7.28671 7.18667 7.50671 7.40667 7.50671 7.68667C7.50671 7.96667 7.28671 8.18667 7.00671 8.18667ZM8.99004 11.49L3.70337 11.49C3.42337 11.49 3.20337 11.27 3.20337 10.99C3.20337 10.71 3.42337 10.49 3.70337 10.49L8.99004 10.49C9.27004 10.49 9.49004 10.71 9.49004 10.99C9.49004 11.27 9.27004 11.49 8.99004 11.49Z" fill="rgb(255,255,255)" fill-opacity="0" fill-rule="evenodd" />
			<path id="矢量 11" d="M11.3334 4.33333L14.6667 4.33333L10.3334 0L10.3334 3.33333C10.3334 3.88333 10.78 4.33333 11.3334 4.33333Z" fill="rgb(255,255,255)" fill-opacity="0" fill-rule="evenodd" />
		</g>
	</g>
</svg>
