<svg viewBox="0 0 16 16" xmlns="http://www.w3.org/2000/svg" xmlns:xlink="http://www.w3.org/1999/xlink" width="16.000000" height="16.000000" fill="none">
	<mask id="mask_13" width="16.000000" height="16.000000" x="0.000000" y="0.000000" maskUnits="userSpaceOnUse">
		<g filter="url(#pixso_custom_mask_type_alpha)">
			<g id="clip947_4383">
				<rect id="filled" width="16.000000" height="16.000000" x="0.000000" y="0.000000" fill="rgb(20,118,255)" />
			</g>
		</g>
	</mask>
	<mask id="mask_12" width="16.000000" height="16.000000" x="0.000000" y="0.000000" maskUnits="userSpaceOnUse">
		<g filter="url(#pixso_custom_mask_type_alpha)">
			<g id="clip947_4378">
				<rect id="border" width="16.000000" height="16.000000" x="0.000000" y="0.000000" fill="rgb(20,118,255)" />
			</g>
		</g>
	</mask>
	<mask id="mask_11" width="16.000000" height="16.000000" x="0.000000" y="0.000000" maskUnits="userSpaceOnUse">
		<g filter="url(#pixso_custom_mask_type_alpha)">
			<g id="clip947_4372">
				<rect id="support" width="16.000000" height="16.000000" x="0.000000" y="0.000000" fill="rgb(20,118,255)" />
			</g>
		</g>
	</mask>
	<defs>
		<filter id="pixso_custom_mask_type_alpha">
			<feColorMatrix type="matrix" values="0 0 0 0 1 0 0 0 0 1 0 0 0 0 1 0 0 0 1 0 " />
		</filter>
	</defs>
	<mask id="mask_10" width="16.000000" height="16.000000" x="0.000000" y="0.000000" maskUnits="userSpaceOnUse">
		<g filter="url(#pixso_custom_mask_type_alpha)">
			<g id="clip947_4371">
				<rect id="word_file-word文件/base/word_file" width="16.000000" height="16.000000" x="0.000000" y="0.000000" fill="rgb(20,118,255)" />
			</g>
		</g>
	</mask>
	<rect id="ic_ict_word_file" width="16.000000" height="16.000000" x="0.000000" y="0.000000" />
	<rect id="word_file-word文件/base/word_file" width="16.000000" height="16.000000" x="0.000000" y="0.000000" fill="rgb(255,255,255)" fill-opacity="0" />
	<g id="clip path group" mask="url(#mask_10)">
		<g id="组合 12">
			<g id="clip path group" mask="url(#mask_11)">
				<g id="组合 14">
					<path id="path1" d="M3.32757e-05 7.99333C3.32757e-05 6.74333 -0.00663339 5.49333 3.32757e-05 4.24333C-0.00663339 3.63666 0.0700333 3.03333 0.2167 2.45C0.5467 1.20666 1.35337 0.469996 2.5967 0.186663C3.21337 0.0533294 3.85003 -0.0133373 4.4867 -3.97372e-06C6.88003 -3.97372e-06 9.2767 -3.97372e-06 11.68 -3.97372e-06C12.28 -0.00333731 12.8834 0.0633294 13.4734 0.206663C14.75 0.513329 15.5167 1.32666 15.8067 2.59666C15.94 3.2 16 3.81333 15.9934 4.43C15.9934 6.85333 15.9934 9.27666 15.9934 11.6933C16 12.2967 15.93 12.8967 15.79 13.48C15.4767 14.7567 14.6667 15.5133 13.3934 15.8067C12.77 15.9433 12.1367 16.0067 11.5 15.9967C9.11337 15.9967 6.7267 15.9967 4.34003 15.9967C3.73003 16 3.12337 15.93 2.53003 15.79C1.25003 15.4833 0.4767 14.6667 0.1867 13.3867C0.0367 12.7367 3.32757e-05 12.09 3.32757e-05 11.43C3.32757e-05 10.2867 3.32757e-05 9.13666 3.32757e-05 7.99333Z" fill="rgb(255,255,255)" fill-opacity="0" fill-rule="evenodd" />
					<circle id="path2" cx="8" cy="7.99999952" r="8" fill="rgb(255,255,255)" fill-opacity="0" />
				</g>
			</g>
			<g id="clip path group" mask="url(#mask_12)">
				<g id="组合 16">
					<path id="path3" d="M12.2733 15.3333L3.71997 15.3333C2.61664 15.3333 1.71997 14.4367 1.71997 13.3333L1.71997 2.66667C1.71997 1.56 2.61664 0.666672 3.71997 0.666672L10.2333 0.666672L10.2333 3.40001C10.2333 4.13334 10.83 4.73334 11.5666 4.73334L14.2733 4.73334L14.2733 13.3333C14.2733 14.4367 13.38 15.3333 12.2733 15.3333Z" fill-rule="evenodd" stroke="rgb(20,118,255)" stroke-linejoin="round" stroke-width="0.886666715" />
					<path id="path5" d="M11.5666 4.73334L14.2733 4.73334L14.2733 4.68001L10.2799 0.666672L10.2333 0.666672L10.2333 3.40001C10.2333 4.13334 10.8299 4.73334 11.5666 4.73334Z" fill-rule="evenodd" stroke="rgb(20,118,255)" stroke-linejoin="round" stroke-width="0.886666715" />
					<path id="W" d="M4.83337 7L6.41671 12L8.00004 7L9.58337 12L11.1667 7" fill-rule="evenodd" stroke="rgb(20,118,255)" stroke-linecap="round" stroke-linejoin="round" stroke-width="0.886666715" />
				</g>
			</g>
			<g id="clip path group" mask="url(#mask_13)">
				<g id="组合 18">
					<path id="减去顶层" d="M9.56677 0.166672L9.56677 3.40007C9.56677 4.50457 10.4623 5.40007 11.5668 5.40007L14.7754 5.40007L14.7754 13.3333C14.7754 13.6784 14.7146 13.9984 14.5925 14.293C14.4704 14.5876 14.2875 14.8571 14.0433 15.1012C13.7992 15.3454 13.53 15.5283 13.2351 15.6504C12.9405 15.7725 12.6208 15.8333 12.2754 15.8333L3.72301 15.8333C3.37797 15.8333 3.05798 15.7725 2.76339 15.6504C2.46879 15.5283 2.19926 15.3451 1.95512 15.1012C1.71098 14.8571 1.52803 14.5876 1.40596 14.293C1.28389 13.9984 1.22302 13.6784 1.22302 13.3333L1.22302 2.66667C1.22302 2.32162 1.28389 2.00196 1.40596 1.70736L1.40596 1.70704C1.52803 1.41244 1.71098 1.14291 1.95512 0.898768C2.19926 0.654628 2.46879 0.471685 2.76339 0.349615C3.05798 0.227544 3.37797 0.166672 3.72301 0.166672L9.56677 0.166672ZM10.2334 3.40007L10.2334 0.666672L10.2823 0.666672L14.2754 4.68294L14.2754 4.73341L11.5668 4.73341C10.8304 4.73341 10.2334 4.1364 10.2334 3.40007ZM5.30994 6.84897L6.41671 10.3437L7.52347 6.84897C7.57361 6.6901 7.65107 6.58367 7.7559 6.52931C7.86041 6.47494 7.99224 6.47297 8.15107 6.52344C8.31581 6.57554 8.42451 6.68424 8.47661 6.84897L9.58337 10.3437L10.6898 6.84897C10.7744 6.58204 11.0505 6.43881 11.3174 6.52344C11.5843 6.60774 11.7279 6.88411 11.6433 7.15104L10.0599 12.151C10.0075 12.3158 9.89914 12.4245 9.73407 12.4766C9.57524 12.527 9.4434 12.5251 9.3389 12.4707C9.2344 12.4163 9.15694 12.3099 9.10647 12.151L8.00004 8.65627L6.89327 12.151C6.84117 12.3158 6.73247 12.4245 6.56774 12.4766C6.40891 12.527 6.27707 12.5251 6.17224 12.4707C6.06774 12.4163 5.99027 12.3099 5.94014 12.151L4.35647 7.15104C4.27217 6.88411 4.41541 6.60774 4.68234 6.52344C4.94927 6.43881 5.22531 6.58204 5.30994 6.84897Z" fill="rgb(255,255,255)" fill-opacity="0" fill-rule="evenodd" />
					<path id="path5" d="M10.2333 0.666672L10.2333 3.40001C10.2333 4.13334 10.8299 4.73334 11.5666 4.73334L14.2733 4.73334L14.2733 4.68001L10.2799 0.666672L10.2333 0.666672Z" fill="rgb(255,255,255)" fill-opacity="0" fill-rule="evenodd" />
				</g>
			</g>
		</g>
	</g>
</svg>
