<svg viewBox="0 0 16 16" xmlns="http://www.w3.org/2000/svg" xmlns:xlink="http://www.w3.org/1999/xlink" width="16.000000" height="16.000000" fill="none" customFrame="#000000">
	<rect id="框类/加" width="16.000000" height="16.000000" x="0.000000" y="0.000000" />
	<path id="矢量 5" d="M8.6002 7.4006L8.6002 2.59961C8.6002 2.26862 8.33119 1.9996 8.0002 1.9996C7.6682 1.9996 7.40019 2.26862 7.40019 2.59961L7.40019 7.4006L2.60001 7.4006C2.269 7.4006 2 7.66861 2 7.9996C2 8.3306 2.269 8.59961 2.60001 8.59961L7.40019 8.59961L7.40019 13.4006C7.40019 13.7316 7.6682 13.9996 8.0002 13.9996C8.33119 13.9996 8.6002 13.7316 8.6002 13.4006L8.6002 8.59961L13.4 8.59961C13.732 8.59961 14 8.3306 14 7.9996C14 7.66861 13.732 7.4006 13.4 7.4006L8.6002 7.4006Z" fill="rgb(20,118,255)" fill-rule="evenodd" />
</svg>
