<svg xmlns="http://www.w3.org/2000/svg" xmlns:xlink="http://www.w3.org/1999/xlink" viewBox="0 0 50 50" width="50.000000" height="50.000000" fill="none" customFrame="#000000">
	<defs>
		<clipPath id="clipPath_8">
			<rect width="34.375000" height="34.375000" x="7.812500" y="7.813477" fill="rgb(255,255,255)"/>
		</clipPath>
	</defs>
	<g id="一键接入IM">
		<rect id="矩形 77946" width="50.000000" height="50.000000" x="0.000000" y="0.000000" rx="7.605628" opacity="0.100000001" fill="rgb(124,58,236)"/>
		<g id="插件-extension" clip-path="url(#clipPath_8)" customFrame="url(#clipPath_8)">
			<rect id="插件-extension" width="34.375000" height="34.375000" x="7.812500" y="7.813477"/>
			<path id="矢量_1506" d="M21.7773 14.2588L21.7773 13.7217C21.7773 13.3564 21.8203 13.0127 21.8848 12.6904C21.9492 12.3896 22.0352 12.1104 22.1641 11.8311C22.2715 11.5732 22.4219 11.2939 22.5723 11.0576C22.7441 10.7783 22.959 10.542 23.1953 10.3057C23.4316 10.0693 23.6895 9.87598 23.9473 9.68262C24.1836 9.53223 24.4629 9.38184 24.7207 9.27441C25 9.14551 25.2793 9.05957 25.5801 8.99512C25.9023 8.93066 26.2461 8.8877 26.6113 8.8877C26.9766 8.8877 27.3203 8.93066 27.6426 8.99512C27.9434 9.05957 28.2227 9.14551 28.502 9.27441C28.7598 9.38184 29.0391 9.53223 29.2754 9.68262C29.5547 9.85449 29.791 10.0693 30.0273 10.3057C30.2637 10.542 30.457 10.7998 30.6504 11.0576C30.8223 11.2939 30.9512 11.5732 31.0586 11.8311C31.166 12.1104 31.2734 12.3896 31.3164 12.6689C31.4023 13.0127 31.4453 13.3564 31.4453 13.7217L31.4453 14.2588L34.668 14.2588C34.9902 14.2588 35.291 14.3018 35.5918 14.3662C35.8496 14.4307 36.1074 14.4951 36.3438 14.6025C36.5801 14.71 36.8164 14.8389 37.0313 14.9678C37.2676 15.1182 37.5039 15.3115 37.6973 15.5264C37.9121 15.7412 38.084 15.9561 38.2559 16.1924C38.4063 16.4072 38.5137 16.6436 38.6211 16.8799C38.7285 17.1162 38.8145 17.374 38.8574 17.6318C38.9219 17.9326 38.9648 18.2334 38.9648 18.5557L38.9648 34.669C38.9648 34.9912 38.9219 35.292 38.8574 35.5928C38.793 35.8506 38.7285 36.1084 38.6211 36.3447C38.5137 36.5811 38.3848 36.8174 38.2559 37.0322C38.1055 37.2686 37.9121 37.5049 37.6973 37.6982C37.4824 37.9131 37.2676 38.085 37.0312 38.2568C36.8164 38.4072 36.5801 38.5147 36.3438 38.6221C36.1074 38.7295 35.8496 38.8154 35.5918 38.8584C35.291 38.9229 34.9902 38.9658 34.668 38.9658L30.3926 38.9658L30.3711 38.9658C29.7695 38.9658 29.2969 38.4932 29.2969 37.8916L29.2969 36.2803C29.2969 36.0654 29.2754 35.8721 29.2324 35.6572C29.1895 35.5068 29.1465 35.3565 29.082 35.2275C29.0176 35.0772 28.9531 34.9482 28.8672 34.8193C28.7598 34.669 28.6523 34.5186 28.502 34.3897C28.373 34.2607 28.2227 34.1318 28.0723 34.0244C27.9434 33.9385 27.793 33.874 27.6641 33.8096C27.5137 33.7451 27.3848 33.7022 27.2344 33.6592C27.0195 33.6162 26.8262 33.5947 26.6113 33.5947C26.3965 33.5947 26.2031 33.6162 25.9883 33.6592C25.8379 33.7022 25.6875 33.7451 25.5586 33.8096C25.4082 33.874 25.2793 33.9385 25.1504 34.0244C25 34.1318 24.8496 34.2393 24.7207 34.3897C24.5918 34.5186 24.4629 34.669 24.3555 34.8193C24.2695 34.9482 24.2051 35.0986 24.1406 35.2275C24.0762 35.3779 24.0332 35.5068 23.9902 35.6572C23.9473 35.8506 23.9258 36.0654 23.9258 36.2803L23.9258 37.8916C23.9258 38.4932 23.4531 38.9658 22.8516 38.9658L22.8301 38.9658L18.5547 38.9658C18.2324 38.9658 17.9316 38.9229 17.6309 38.8584C17.373 38.794 17.1152 38.7295 16.8789 38.6221C16.6426 38.5147 16.4062 38.4072 16.1914 38.2568C15.9551 38.1065 15.7188 37.9131 15.5254 37.6982C15.3105 37.4834 15.1387 37.2686 14.9668 37.0322C14.8164 36.8174 14.709 36.5811 14.6016 36.3447C14.4941 36.1084 14.4082 35.8506 14.3652 35.5928C14.3008 35.292 14.2578 34.9912 14.2578 34.669L14.2578 30.3721L13.7207 30.3721C13.3555 30.3721 13.0117 30.3291 12.6895 30.2647C12.3887 30.2002 12.1094 30.1143 11.8301 29.9854C11.5508 29.8779 11.293 29.7275 11.0566 29.5772C10.7773 29.4053 10.541 29.1904 10.3047 28.9541C10.0684 28.7178 9.875 28.46 9.68164 28.2022C9.53125 27.9658 9.38086 27.6865 9.27344 27.4287C9.14453 27.1494 9.05859 26.8701 8.99414 26.5693C8.92969 26.2471 8.88672 25.9033 8.88672 25.5381C8.88672 25.1729 8.92969 24.8291 8.99414 24.5068C9.05859 24.2061 9.14453 23.9268 9.27344 23.6475C9.38086 23.3897 9.53125 23.1104 9.68164 22.874C9.85352 22.5947 10.0684 22.3584 10.3047 22.1221C10.541 21.8857 10.7988 21.6924 11.0566 21.499C11.293 21.3486 11.5723 21.1982 11.8301 21.0908C12.1094 20.9619 12.3887 20.876 12.6895 20.8115C13.0117 20.7471 13.3555 20.7041 13.7207 20.7041L14.2578 20.7041L14.2578 18.5557C14.2578 18.2334 14.3008 17.9326 14.3652 17.6318C14.4297 17.374 14.4941 17.1162 14.6016 16.8799C14.709 16.6436 14.8164 16.4072 14.9668 16.1924C15.1172 15.9561 15.3105 15.7197 15.5254 15.5264C15.7402 15.3115 15.9551 15.1396 16.1914 14.9678C16.4062 14.8174 16.6426 14.71 16.8789 14.6025C17.1152 14.4951 17.373 14.4092 17.6309 14.3662C17.9316 14.3018 18.2324 14.2588 18.5547 14.2588L21.7773 14.2588ZM22.8516 16.4072L18.5547 16.4072C18.3828 16.4072 18.2109 16.4287 18.0605 16.4717C17.9531 16.4932 17.8242 16.5361 17.7168 16.5791C17.6094 16.6221 17.502 16.6865 17.3945 16.751C17.2656 16.8369 17.1367 16.9229 17.0293 17.0303C16.9219 17.1377 16.8359 17.2666 16.75 17.3955C16.6855 17.5029 16.6211 17.6104 16.5781 17.7178C16.5352 17.8252 16.4922 17.9326 16.4707 18.0615C16.4277 18.2119 16.4062 18.3838 16.4062 18.5557L16.4062 21.7783C16.4062 22.3799 15.9336 22.8525 15.332 22.8525L13.7207 22.8525C13.5059 22.8525 13.3125 22.874 13.0977 22.917C12.9688 22.96 12.8184 23.0029 12.668 23.0674C12.5391 23.1318 12.3887 23.1963 12.2598 23.2822C12.1094 23.3897 11.959 23.4971 11.8301 23.6475C11.6797 23.7764 11.5723 23.9268 11.4648 24.0772C11.3789 24.2061 11.3145 24.3564 11.25 24.4854C11.1855 24.6357 11.1426 24.7861 11.0996 24.915C11.0566 25.1299 11.0352 25.3232 11.0352 25.5381C11.0352 25.7529 11.0566 25.9463 11.0996 26.1611C11.1426 26.29 11.1855 26.4404 11.25 26.5908C11.3145 26.7197 11.3789 26.8701 11.4648 26.999C11.5723 27.1494 11.6797 27.2998 11.8301 27.4287C11.959 27.5791 12.1094 27.6865 12.2598 27.7939C12.3887 27.8799 12.5391 27.9443 12.668 28.0088C12.8184 28.0732 12.9473 28.1162 13.0977 28.1592C13.3125 28.2022 13.5059 28.2236 13.7207 28.2236L15.332 28.2236C15.9336 28.2236 16.4062 28.6963 16.4062 29.2979L16.4062 34.669C16.4062 34.8408 16.4277 35.0127 16.4707 35.1631C16.4922 35.2705 16.5352 35.3994 16.5781 35.5068C16.6211 35.6143 16.6855 35.7432 16.75 35.8291C16.8359 35.958 16.9219 36.0654 17.0293 36.1729C17.1367 36.2803 17.2656 36.3662 17.373 36.4522C17.4805 36.5166 17.5879 36.5811 17.6953 36.624C17.8027 36.667 17.9102 36.71 18.0391 36.7314C18.2109 36.7959 18.3828 36.8174 18.5547 36.8174L21.7773 36.8174L21.7773 36.2803C21.7773 35.915 21.8203 35.5713 21.8848 35.249C21.9492 34.9697 22.0352 34.6904 22.1641 34.4111C22.2715 34.1318 22.4219 33.874 22.5723 33.6377C22.7441 33.3584 22.959 33.1221 23.1953 32.8857C23.4316 32.6494 23.6895 32.4561 23.9473 32.2627C24.1836 32.0908 24.4629 31.9619 24.7207 31.8545C25 31.7471 25.2793 31.6397 25.5586 31.5967C25.9023 31.4893 26.2461 31.4463 26.6113 31.4463C26.9766 31.4463 27.3203 31.4893 27.6426 31.5537C27.9219 31.6182 28.2012 31.7041 28.4805 31.8115C28.7598 31.919 29.0176 32.0693 29.2539 32.2197C29.5332 32.3916 29.7695 32.6064 30.0059 32.8428C30.2422 33.0791 30.4355 33.3369 30.6289 33.5947C30.8008 33.8311 30.9297 34.1104 31.0371 34.3682C31.1445 34.6475 31.252 34.9268 31.3164 35.2061C31.3809 35.5498 31.4238 35.8936 31.4238 36.2373L31.4238 36.7744L34.6465 36.7744C34.8184 36.7744 34.9902 36.7529 35.1406 36.71C35.248 36.6885 35.377 36.6455 35.4844 36.6025C35.5918 36.5596 35.7207 36.4951 35.8066 36.4307C35.9355 36.3447 36.043 36.2588 36.1504 36.1514C36.2578 36.044 36.3438 35.915 36.4297 35.8076C36.4941 35.7002 36.5586 35.5928 36.6016 35.4854C36.6445 35.3779 36.6875 35.2705 36.709 35.1416C36.752 34.9912 36.7734 34.8193 36.7734 34.6475L36.7734 18.5557C36.7734 18.3838 36.752 18.2119 36.709 18.0615C36.6875 17.9541 36.6445 17.8252 36.6016 17.7178C36.5586 17.6104 36.4941 17.4814 36.4297 17.3955C36.3438 17.2666 36.2578 17.1592 36.1504 17.0518C36.043 16.9443 35.9355 16.8584 35.8066 16.7725C35.6992 16.708 35.5918 16.6436 35.4844 16.6006C35.377 16.5576 35.2695 16.5147 35.1406 16.4932C35.0117 16.4287 34.8398 16.4072 34.668 16.4072L30.3926 16.4072L30.3711 16.4072C29.7695 16.4072 29.2969 15.9346 29.2969 15.333L29.2969 13.7217C29.2969 13.5068 29.2754 13.3135 29.2324 13.0986C29.1895 12.9697 29.1465 12.8193 29.082 12.6689C29.0176 12.54 28.9531 12.3896 28.8672 12.2607C28.7598 12.1104 28.6523 11.96 28.502 11.8311C28.373 11.6807 28.2227 11.5732 28.0723 11.4658C27.9434 11.3799 27.793 11.3154 27.6641 11.251C27.5137 11.1865 27.3633 11.1436 27.2344 11.1006C27.0195 11.0576 26.8262 11.0361 26.6113 11.0361C26.3965 11.0361 26.2031 11.0576 25.9883 11.1006C25.8594 11.1436 25.709 11.1865 25.5586 11.251C25.4297 11.3154 25.2793 11.3799 25.1504 11.4658C25 11.5732 24.8496 11.6807 24.7207 11.8311C24.5703 11.96 24.4629 12.1104 24.3555 12.2607C24.2695 12.3896 24.2051 12.54 24.1406 12.6689C24.0762 12.8193 24.0332 12.9697 23.9902 13.0986C23.9473 13.3135 23.9258 13.5068 23.9258 13.7217L23.9258 15.333C23.9258 15.9346 23.4531 16.4072 22.8516 16.4072Z" fill="rgb(126,61,236)" fill-rule="evenodd"/>
		</g>
	</g>
</svg>