<svg viewBox="0 0 20 20" xmlns="http://www.w3.org/2000/svg" xmlns:xlink="http://www.w3.org/1999/xlink" width="20.000000" height="20.000000" fill="none">
	<rect id="版本信息-infomation" width="20.000000" height="20.000000" x="0.000000" y="0.000000" />
	<path id="形状结合" d="M10 1.25C14.8325 1.25 18.75 5.16751 18.75 10C18.75 14.8325 14.8325 18.75 10 18.75C5.16751 18.75 1.25 14.8325 1.25 10C1.25 5.16751 5.16751 1.25 10 1.25ZM10 2.5C5.85786 2.5 2.5 5.85786 2.5 10C2.5 14.1421 5.85786 17.5 10 17.5C14.1421 17.5 17.5 14.1421 17.5 10C17.5 5.85786 14.1421 2.5 10 2.5ZM10 8.75C10.3452 8.75 10.625 9.02982 10.625 9.375L10.625 14.375C10.625 14.7202 10.3452 15 10 15C9.65482 15 9.375 14.7202 9.375 14.375L9.375 9.375C9.375 9.02982 9.65482 8.75 10 8.75ZM10 5.75C10.5178 5.75 10.9375 6.16973 10.9375 6.6875C10.9375 7.20527 10.5178 7.625 10 7.625C9.48223 7.625 9.0625 7.20527 9.0625 6.6875C9.0625 6.16973 9.48223 5.75 10 5.75Z" fill="rgb(25,25,25)" fill-rule="nonzero" />
</svg>