<svg viewBox="0 0 720 720" xmlns="http://www.w3.org/2000/svg" xmlns:xlink="http://www.w3.org/1999/xlink" width="720.000000" height="720.000000" fill="none" customFrame="#000000">
	<mask id="mask_2" width="720.000000" height="720.000000" x="0.000000" y="0.000000" maskUnits="userSpaceOnUse">
		<g filter="url(#pixso_custom_mask_type_alpha)">
			<rect id="矩形 2" width="720.000000" height="720.000000" x="0.000000" y="0.000000" rx="160.000000" fill="rgb(196,196,196)" />
		</g>
	</mask>
	<mask id="mask_1" width="720.000000" height="720.000000" x="0.000000" y="0.000000" maskUnits="userSpaceOnUse">
		<g filter="url(#pixso_custom_mask_type_alpha)">
			<rect id="矩形 2" width="720.000000" height="720.000000" x="0.000000" y="0.000000" rx="160.000000" fill="rgb(196,196,196)" />
		</g>
	</mask>
	<defs>
		<filter id="pixso_custom_mask_type_alpha">
			<feColorMatrix type="matrix" values="0 0 0 0 1 0 0 0 0 1 0 0 0 0 1 0 0 0 1 0 " />
		</filter>
		<linearGradient id="paint_linear_0" x1="68.999939" x2="638.999817" y1="-3.05175781e-05" y2="720.000122" gradientUnits="userSpaceOnUse">
			<stop stop-color="rgb(173,119,255)" offset="0" stop-opacity="1" />
			<stop stop-color="rgb(155,66,238)" offset="0.477557212" stop-opacity="1" />
			<stop stop-color="rgb(166,82,248)" offset="1" stop-opacity="1" />
		</linearGradient>
		<linearGradient id="paint_linear_1" x1="68.999939" x2="638.999817" y1="-3.05175781e-05" y2="720.000122" gradientUnits="userSpaceOnUse">
			<stop stop-color="rgb(255,115,45)" offset="0" stop-opacity="1" />
			<stop stop-color="rgb(232,53,17)" offset="0.477557212" stop-opacity="1" />
			<stop stop-color="rgb(246,66,30)" offset="1" stop-opacity="1" />
		</linearGradient>
		<linearGradient id="paint_linear_2" x1="68.999939" x2="638.999817" y1="-3.05175781e-05" y2="720.000122" gradientUnits="userSpaceOnUse">
			<stop stop-color="rgb(255,115,45)" offset="0" stop-opacity="1" />
			<stop stop-color="rgb(232,53,17)" offset="0.477557212" stop-opacity="1" />
			<stop stop-color="rgb(246,66,30)" offset="1" stop-opacity="1" />
		</linearGradient>
	</defs>
	<mask id="mask_0" width="720.000000" height="720.000000" x="0.000000" y="0.000000" maskUnits="userSpaceOnUse">
		<g filter="url(#pixso_custom_mask_type_alpha)">
			<rect id="矩形 2" width="720.000000" height="720.000000" x="0.000000" y="0.000000" rx="160.000000" fill="rgb(196,196,196)" />
		</g>
	</mask>
	<rect id="组合 4967" width="720.000000" height="720.000000" x="0.000000" y="0.000000" />
	<g id="组合 4928">
		<g id="组合 4927">
			<g id="组合 4922">
				<g id="组合 4887">
					<g id="组合 4884">
						<g id="组合 4877">
							<g id="组合 4841">
								<g id="组合 3903">
									<g id="组合 3879">
										<g id="蒙版" mask="url(#mask_0)">
											<rect id="矩形 1" width="720.000000" height="720.000000" x="0.000000" y="0.000000" rx="160.000000" fill="url(#paint_linear_0)" />
										</g>
									</g>
								</g>
							</g>
						</g>
					</g>
				</g>
			</g>
		</g>
		<g id="组合 4926" opacity="0">
			<path id="矢量 8187" d="M383.81 183.696L198.571 183.696L233.377 258.875L337.294 258.875C348.857 258.875 359.598 264.854 365.691 274.681L439.769 394.159C448.663 408.504 469.659 408.131 478.038 393.478L588.469 200.363C592.715 192.938 587.354 183.696 578.801 183.696L528.423 183.696C516.361 183.696 505.235 190.197 499.313 200.706L459.475 271.405L411.733 198.759C405.555 189.357 395.06 183.696 383.81 183.696Z" fill="rgb(255,255,255)" fill-rule="evenodd" />
			<path id="矢量 8187" d="M383.81 183.696C395.06 183.696 405.555 189.357 411.733 198.759L459.475 271.405L499.313 200.706C505.235 190.197 516.361 183.696 528.423 183.696L578.801 183.696C587.354 183.696 592.715 192.938 588.469 200.363L478.038 393.478C469.659 408.131 448.663 408.504 439.769 394.159L365.691 274.681C359.598 264.854 348.857 258.875 337.294 258.875L233.377 258.875L198.571 183.696L383.81 183.696Z" fill-rule="evenodd" stroke="rgb(0,0,0)" stroke-opacity="0" stroke-width="1.39221108" />
			<path id="矢量 8186" d="M392.393 531.016L366.911 576.007C362.659 583.515 351.854 583.545 347.56 576.062L160.29 249.725C143.247 220.024 164.688 183 198.931 183L211.102 183L289.065 183C289.065 183 252.869 189.958 246.603 214.325C240.337 238.693 253.564 258.876 253.564 258.876L392.218 497.777C398.174 508.04 398.241 520.691 392.393 531.016Z" fill="rgb(255,255,255)" fill-rule="evenodd" />
			<path id="矢量 8186" d="M392.393 531.016C398.241 520.691 398.174 508.04 392.218 497.777L253.564 258.876C253.564 258.876 240.337 238.693 246.603 214.325C252.869 189.958 289.065 183 289.065 183L211.102 183L198.931 183C164.688 183 143.247 220.024 160.29 249.725L347.56 576.062C351.854 583.545 362.659 583.515 366.911 576.007L392.393 531.016Z" fill-rule="evenodd" stroke="rgb(0,0,0)" stroke-opacity="0" stroke-width="1.39221108" />
		</g>
	</g>
	<g id="组合 4955">
		<g id="组合 4952">
			<g id="组合 4884">
				<g id="组合 4877">
					<g id="组合 4841">
						<g id="组合 3903">
							<g id="组合 3879">
								<g id="蒙版" mask="url(#mask_1)">
									<rect id="矩形 1" width="720.000000" height="720.000000" x="0.000000" y="0.000000" rx="160.000000" fill="url(#paint_linear_1)" />
								</g>
							</g>
						</g>
					</g>
				</g>
			</g>
		</g>
		<g id="组合 4885">
			<g id="组合 4855">
				<g id="组合 4853">
					<g id="组合 4841">
						<g id="组合 4734">
							<g id="组合 4732">
								<path id="矩形 5624" d="M145 213.684L319.5 213.684C363.81 213.684 399.731 249.605 399.731 293.916L399.731 299.103L225.231 299.103C180.921 299.103 145 263.182 145 218.872L145 213.684Z" fill="rgb(255,255,255)" fill-rule="evenodd" />
								<path id="矩形 5625" d="M0 0L174.5 0C218.81 0 254.731 35.9209 254.731 80.2315L254.731 85.4188L80.2315 85.4188C35.9209 85.4188 0 49.498 0 5.18734L0 0Z" fill="rgb(255,255,255)" fill-rule="evenodd" transform="matrix(-0.5,0.866026,-0.866026,-0.5,575,226.709)" />
								<path id="矩形 5626" d="M0 0L174.5 0C218.81 0 254.731 35.9209 254.731 80.2315L254.731 85.4188L80.2315 85.4188C35.9209 85.4188 0 49.498 0 5.18734L0 0Z" fill="rgb(255,255,255)" fill-rule="evenodd" transform="matrix(-0.5,-0.866026,0.866026,-0.5,325.317,591.712)" />
							</g>
						</g>
					</g>
				</g>
			</g>
		</g>
		<g id="组合 4965">
			<g id="组合 4952">
				<g id="组合 4884">
					<g id="组合 4877">
						<g id="组合 4841">
							<g id="组合 3903">
								<g id="组合 3879">
									<g id="蒙版" mask="url(#mask_2)">
										<rect id="矩形 1" width="720.000000" height="720.000000" x="0.000000" y="0.000000" rx="160.000000" fill="url(#paint_linear_2)" />
									</g>
								</g>
							</g>
						</g>
					</g>
				</g>
			</g>
			<g id="组合 4882">
				<path id="直线 2(边框)" d="M99.7174 367.923C90.5272 367.839 64.617 366.454 53.1857 347.133C43.0011 329.091 53.7739 300.91 53.7739 300.91L48.1092 310.041C22.0126 352.107 36.7227 407.463 80.2584 431.025C92.5962 437.702 106.38 441.26 120.408 441.389L150.624 441.666L253.78 442.611L336.22 443.366C343.403 443.432 350.413 442.709 357.248 441.199C359.482 440.705 361.697 440.128 363.893 439.466C368.286 438.142 372.53 436.504 376.624 434.554C380.558 432.679 384.355 430.515 388.013 428.061C390.882 426.137 393.624 424.064 396.238 421.841C400.135 418.528 403.75 414.883 407.082 410.905C409.468 408.057 411.669 405.088 413.683 401.997C416.232 398.087 418.484 393.983 420.438 389.686C422.392 385.387 424.005 380.991 425.276 376.498C426.28 372.95 427.07 369.341 427.647 365.671C428.454 360.545 428.824 355.425 428.759 350.31C428.715 346.879 428.475 343.45 428.038 340.024C427.482 335.653 426.616 331.368 425.442 327.169C424.22 322.803 422.665 318.53 420.775 314.351C419.83 312.262 418.81 310.214 417.714 308.207C414.358 302.063 410.294 296.305 405.521 290.934L224.853 87.6451L212.275 72.9075C191.308 48.341 201.766 10.3673 232.355 0C164.707 6.61421 131.058 85.347 173.03 138.811L178.58 145.88L350.751 339.609C352.886 342.012 354.3 344.595 354.991 347.359C355.149 347.989 355.269 348.629 355.352 349.278C355.477 350.263 355.521 351.245 355.483 352.224C355.39 354.622 354.807 357 353.735 359.36C352.662 361.719 351.253 363.721 349.508 365.367C348.795 366.04 348.026 366.653 347.201 367.206C346.657 367.571 346.096 367.901 345.517 368.197C342.98 369.492 340.105 370.125 336.891 370.096L254.451 369.34L151.295 368.395C151.295 368.395 119.833 368.107 99.7174 367.923Z" fill="rgb(255,255,255)" fill-opacity="0.600000024" fill-rule="evenodd" transform="matrix(-0.407919,-0.913018,0.913018,-0.407919,230.286,716.344)" />
				<path id="直线 2(边框)" d="M130.022 367.923C120.832 367.839 94.9216 366.455 83.4903 347.134C73.3057 329.091 86.5931 297.527 86.5931 297.527L79.9266 305.361C41.8481 350.108 61.4283 419.187 117.323 437.297C125.295 439.879 133.614 441.233 141.993 441.309L180.929 441.666L284.084 442.611L366.524 443.366C373.708 443.432 380.718 442.71 387.553 441.199C389.787 440.706 392.002 440.128 394.198 439.466C398.591 438.142 402.834 436.505 406.928 434.554C410.863 432.679 414.659 430.515 418.318 428.061C421.187 426.138 423.928 424.064 426.543 421.842C430.44 418.528 434.054 414.883 437.387 410.906C439.773 408.058 441.973 405.088 443.988 401.998C446.537 398.088 448.789 393.984 450.742 389.686C452.697 385.387 454.31 380.991 455.58 376.499C456.584 372.95 457.375 369.341 457.952 365.672C458.758 360.546 459.129 355.425 459.063 350.31C459.019 346.879 458.779 343.45 458.343 340.024C457.787 335.653 456.921 331.368 455.747 327.17C454.525 322.804 452.97 318.531 451.08 314.352C450.135 312.262 449.115 310.214 448.019 308.208C444.663 302.063 440.599 296.305 435.826 290.935L255.158 87.6451L242.579 72.9075C221.612 48.3411 232.071 10.3673 262.659 0L259.135 0.50107C189.43 10.4126 160.179 95.0389 208.884 145.88L381.056 339.61C383.191 342.012 384.604 344.595 385.296 347.359C385.454 347.989 385.574 348.629 385.656 349.278C385.782 350.263 385.826 351.246 385.788 352.225C385.695 354.622 385.112 357.001 384.039 359.36C382.967 361.719 381.558 363.721 379.813 365.367C379.1 366.04 378.331 366.653 377.505 367.207C376.962 367.571 376.4 367.901 375.822 368.197C373.285 369.493 370.409 370.126 367.196 370.096L284.755 369.341L181.6 368.396C181.6 368.396 150.137 368.108 130.022 367.923Z" fill="rgb(255,255,255)" fill-rule="evenodd" transform="matrix(0.407919,-0.913018,-0.913018,-0.407919,472.442,744.014)" />
			</g>
		</g>
	</g>
</svg>
