<svg viewBox="0 0 32 32.0017" xmlns="http://www.w3.org/2000/svg" xmlns:xlink="http://www.w3.org/1999/xlink" width="32.000000" height="32.001709" fill="none" customFrame="#000000">
	<defs>
		<linearGradient id="paint_linear_50" x1="9.35030365" x2="4.10028839" y1="23.0010777" y2="27.9010849" gradientUnits="userSpaceOnUse">
			<stop stop-color="rgb(250,194,1)" offset="0" stop-opacity="1" />
			<stop stop-color="rgb(250,194,1)" offset="0.4178949" stop-opacity="0.5" />
			<stop stop-color="rgb(255,255,255)" offset="1" stop-opacity="1" />
		</linearGradient>
		<linearGradient id="paint_linear_51" x1="12.4592953" x2="7.62795115" y1="20.174305" y2="25.2334137" gradientUnits="userSpaceOnUse">
			<stop stop-color="rgb(255,242,207)" offset="0" stop-opacity="1" />
			<stop stop-color="rgb(250,100,1)" offset="0.430528224" stop-opacity="0.5" />
			<stop stop-color="rgb(255,255,255)" offset="1" stop-opacity="1" />
		</linearGradient>
		<linearGradient id="paint_linear_52" x1="30.0002632" x2="8.57239914" y1="2.00021267" y2="26.0507278" gradientUnits="userSpaceOnUse">
			<stop stop-color="rgb(255,61,24)" offset="0" stop-opacity="1" />
			<stop stop-color="rgb(250,119,94)" offset="0.553705633" stop-opacity="1" />
			<stop stop-color="rgb(255,172,156)" offset="0.75" stop-opacity="1" />
			<stop stop-color="rgb(255,172,156)" offset="1" stop-opacity="1" />
		</linearGradient>
		<linearGradient id="paint_linear_53" x1="13.4076786" x2="9.59107208" y1="19.6297474" y2="25.6784744" gradientUnits="userSpaceOnUse">
			<stop stop-color="rgb(255,61,24)" offset="0" stop-opacity="1" />
			<stop stop-color="rgb(255,172,156)" offset="0.646899998" stop-opacity="1" />
			<stop stop-color="rgb(255,172,156)" offset="0.75" stop-opacity="1" />
			<stop stop-color="rgb(255,172,156)" offset="1" stop-opacity="1" />
		</linearGradient>
		<linearGradient id="paint_linear_54" x1="39.0741806" x2="24.2123451" y1="-6.03700161" y2="8.14658356" gradientUnits="userSpaceOnUse">
			<stop stop-color="rgb(255,61,24)" offset="0" stop-opacity="1" />
			<stop stop-color="rgb(250,119,94)" offset="0.646651924" stop-opacity="1" />
			<stop stop-color="rgb(255,172,156)" offset="0.75" stop-opacity="1" />
			<stop stop-color="rgb(255,172,156)" offset="1" stop-opacity="1" />
		</linearGradient>
	</defs>
	<rect id="本地部署" width="32.000000" height="32.001633" x="0.000000" y="0.000000" />
	<g id="组合 91333745">
		<path id="矢量 8597" d="M10.7102 21.7374C11.9356 22.9628 11.9356 24.976 10.7102 26.2015C9.48483 27.4269 5.87416 29.0244 4.64875 27.799C3.42334 26.5735 5.02074 22.9629 6.2462 21.7375C7.47161 20.512 9.46294 20.512 10.7102 21.7374L10.7102 21.7374Z" fill="url(#paint_linear_50)" fill-rule="nonzero" />
		<path id="矢量 8598" d="M7.05566 21.1463L7.05566 21.2776C7.05566 23.5534 8.9157 25.4134 11.1915 25.4134L11.279 25.4134C11.8917 24.2318 11.6948 22.7438 10.6882 21.7371C9.72534 20.7524 8.23735 20.5555 7.05566 21.1463L7.05566 21.1463Z" fill="url(#paint_linear_51)" fill-rule="nonzero" />
		<path id="矢量 8599" d="M17.1436 14.8658C20.8856 18.6078 21.6295 23.9252 18.0846 27.4702L16.3996 29.1552C12.8546 32.7002 15.3055 24.1878 11.5635 20.4459C7.82157 16.7039 -0.712684 19.1767 2.8542 15.6098L4.53916 13.9248C8.08421 10.3799 13.4017 11.1239 17.1436 14.8658L17.1436 14.8658Z" fill="rgb(242,108,79)" fill-rule="nonzero" />
		<path id="矢量 8600" d="M29.5292 2.48042C30.6671 3.61832 30.1638 10.8396 23.1832 17.8421C18.6316 22.3718 15.765 23.9692 15.765 23.9692C12.7232 26.0262 11.2571 24.6257 9.33143 22.7C7.40572 20.7744 5.9834 19.3082 8.06224 16.2665C8.06224 16.2665 9.68158 13.378 14.2113 8.82637C21.1918 1.84585 28.3913 1.32068 29.5292 2.48042Z" fill="url(#paint_linear_52)" fill-rule="nonzero" />
		<path id="矢量 8601" d="M16.9685 22.9844C13.7955 25.1071 12.2637 23.6628 10.2724 21.6715C8.25913 19.6583 6.79297 18.1484 8.95938 14.9754L9.28763 14.4502C8.43421 15.61 8.06222 16.2664 8.06222 16.2664C5.98339 19.3082 7.40576 20.7743 9.33142 22.7C11.2571 24.6257 12.7232 26.0043 15.7649 23.9692C15.7649 23.9692 17.1216 23.2032 19.4631 21.2557C17.8657 22.4812 16.9685 22.9844 16.9685 22.9844L16.9685 22.9844Z" fill="url(#paint_linear_53)" fill-rule="nonzero" />
		<path id="矢量 8602" d="M22.1984 9.81105C23.2706 10.8833 23.2706 12.612 22.1984 13.6843C21.1262 14.7565 19.3974 14.7565 18.3252 13.6843C17.2529 12.6121 17.2529 10.8833 18.3252 9.81105C19.3974 8.73876 21.1481 8.73877 22.1984 9.81105L22.1984 9.81105Z" fill="rgb(89,89,89)" fill-rule="nonzero" />
		<path id="矢量 8603" d="M15.874 16.5947C16.421 17.1418 15.3707 19.0893 12.701 21.7591C10.0312 24.4288 8.41193 25.1509 7.86488 24.5819C7.31782 24.0349 8.01806 22.4155 10.6877 19.7459C13.3793 17.0762 15.305 16.0258 15.874 16.5947L15.874 16.5947Z" fill="rgb(242,108,79)" fill-rule="nonzero" />
		<path id="矢量 8604" d="M20.2728 9.65793C20.8199 9.65793 21.345 9.87673 21.739 10.2707C22.1328 10.6645 22.3517 11.1898 22.3517 11.7368C22.3517 12.2839 22.1329 12.809 21.739 13.203C21.3451 13.5968 20.8199 13.8157 20.2728 13.8157C19.7257 13.8157 19.2006 13.5969 18.8066 13.203C18.4128 12.8091 18.1939 12.2839 18.1939 11.7368C18.1939 11.1898 18.4127 10.6646 18.8066 10.2707C19.2005 9.87673 19.7257 9.65793 20.2728 9.65793ZM20.2728 9.00147C19.5725 9.00147 18.8723 9.26405 18.3471 9.81111C17.2749 10.8833 17.2749 12.6121 18.3471 13.6844C18.8723 14.2095 19.5725 14.494 20.2728 14.494C20.973 14.494 21.6733 14.2314 22.1984 13.6844C23.2707 12.6121 23.2707 10.8834 22.1984 9.81111C21.6733 9.26405 20.973 9.00146 20.2728 9.00146L20.2728 9.00147Z" fill="rgb(255,249,224)" fill-rule="nonzero" />
		<path id="矢量 8605" d="M22.833 3.02723C23.03 4.49339 23.8177 6.04706 25.1088 7.33814C26.2467 8.45415 27.5597 9.19817 28.8508 9.50454C30.295 5.91571 30.1856 3.15852 29.5291 2.48012C28.8945 1.82366 26.2686 1.71426 22.833 3.02723Z" fill="url(#paint_linear_54)" fill-rule="nonzero" />
	</g>
</svg>
