<svg viewBox="0 0 32 32" xmlns="http://www.w3.org/2000/svg" xmlns:xlink="http://www.w3.org/1999/xlink" width="32.000000" height="32.000000" fill="none" customFrame="#000000">
	<defs>
		<clipPath id="clipPath_32">
			<rect width="22.441179" height="28.800001" x="3.746582" y="1.600098" fill="rgb(255,255,255)" />
		</clipPath>
		<linearGradient id="paint_linear_35" x1="21.7276535" x2="21.7276535" y1="1.59863281" y2="9.54687309" gradientUnits="userSpaceOnUse">
			<stop stop-color="rgb(191,190,191)" offset="0" stop-opacity="1" />
			<stop stop-color="rgb(191,190,191)" offset="1" stop-opacity="0.5" />
		</linearGradient>
		<linearGradient id="paint_linear_36" x1="10.9194784" x2="10.9194784" y1="4.13671875" y2="11.1784067" gradientUnits="userSpaceOnUse">
			<stop stop-color="rgb(191,190,191)" offset="0" stop-opacity="1" />
			<stop stop-color="rgb(191,190,191)" offset="1" stop-opacity="0.5" />
		</linearGradient>
		<linearGradient id="paint_linear_37" x1="14.966795" x2="14.966795" y1="17.2978516" y2="18.2870274" gradientUnits="userSpaceOnUse">
			<stop stop-color="rgb(191,190,191)" offset="0" stop-opacity="1" />
			<stop stop-color="rgb(191,190,191)" offset="1" stop-opacity="0.5" />
		</linearGradient>
		<linearGradient id="paint_linear_38" x1="14.9677734" x2="14.9677734" y1="15.3452148" y2="16.3343906" gradientUnits="userSpaceOnUse">
			<stop stop-color="rgb(191,190,191)" offset="0" stop-opacity="1" />
			<stop stop-color="rgb(191,190,191)" offset="1" stop-opacity="0.5" />
		</linearGradient>
		<linearGradient id="paint_linear_39" x1="14.9671135" x2="14.9671135" y1="13.3925781" y2="14.3824844" gradientUnits="userSpaceOnUse">
			<stop stop-color="rgb(191,190,191)" offset="0" stop-opacity="1" />
			<stop stop-color="rgb(191,190,191)" offset="1" stop-opacity="0.5" />
		</linearGradient>
		<linearGradient id="paint_linear_40" x1="13.5189905" x2="13.5189905" y1="8.49462891" y2="12.0209541" gradientUnits="userSpaceOnUse">
			<stop stop-color="rgb(191,190,191)" offset="0" stop-opacity="1" />
			<stop stop-color="rgb(191,190,191)" offset="1" stop-opacity="0.5" />
		</linearGradient>
		<linearGradient id="paint_linear_41" x1="3.89109039" x2="14.8988934" y1="30.3226242" y2="5.29424763" gradientUnits="userSpaceOnUse">
			<stop stop-color="rgb(255,61,24)" offset="0" stop-opacity="1" />
			<stop stop-color="rgb(250,119,94)" offset="0.553705633" stop-opacity="1" />
			<stop stop-color="rgb(255,172,156)" offset="0.75" stop-opacity="1" />
			<stop stop-color="rgb(255,172,156)" offset="1" stop-opacity="1" />
		</linearGradient>
		<linearGradient id="paint_linear_42" x1="14.9677763" x2="14.9677763" y1="1.59960938" y2="21.6820641" gradientUnits="userSpaceOnUse">
			<stop stop-color="rgb(234,233,234)" offset="0" stop-opacity="1" />
			<stop stop-color="rgb(241,241,241)" offset="1" stop-opacity="1" />
		</linearGradient>
	</defs>
	<rect id="生产力" width="32.000000" height="32.000000" x="0.000000" y="0.000000" />
	<g id="_图层_1" clip-path="url(#clipPath_32)" customFrame="url(#clipPath_32)">
		<rect id="_图层_1" width="22.441179" height="28.800001" x="3.746582" y="1.600098" />
		<path id="矢量 26" d="M18.2009 1.59986C18.2743 1.59986 18.3477 1.61147 18.4168 1.63716C18.5734 1.69648 18.6724 1.82918 18.7837 1.93987C20.9841 4.13531 23.1807 6.33503 25.3774 8.53414C25.4489 8.60569 25.5187 8.6803 25.5853 8.75613C25.7113 8.90045 25.7217 9.06618 25.6691 9.24169C25.6385 9.28511 25.6104 9.33037 25.5768 9.37134C25.4728 9.49854 25.3328 9.54685 25.1731 9.54685C23.7097 9.54685 22.2469 9.54685 20.7835 9.54685C20.4557 9.54685 20.1279 9.54563 19.8001 9.54685C19.4534 9.54808 19.117 9.49426 18.8094 9.32914C18.4865 9.15608 18.2248 8.91268 18.0346 8.59529C17.8958 8.36413 17.8132 8.11401 17.7747 7.8486C17.7649 7.78133 17.7576 7.67064 17.7576 7.60215C17.7563 5.77302 17.7563 3.9439 17.7563 2.11416C17.7563 1.93987 17.8114 1.79127 17.9624 1.69036C17.9832 1.67691 18.0071 1.66223 18.0309 1.66101C18.0762 1.65795 18.0774 1.63104 18.0762 1.59863L18.2003 1.59863L18.2009 1.59986Z" fill="url(#paint_linear_35)" fill-rule="nonzero" />
		<path id="矢量 27" d="M10.911 11.1784C10.7049 11.1576 10.497 11.1484 10.2934 11.1142C9.80903 11.0329 9.36444 10.847 8.95776 10.5718C8.34011 10.1541 7.90163 9.59329 7.635 8.89796C7.51819 8.59341 7.45153 8.27847 7.41912 7.95374C7.37631 7.52933 7.42585 7.11348 7.53532 6.70558C7.62888 6.35761 7.77382 6.02677 7.97563 5.72773C8.28384 5.27151 8.66912 4.89419 9.15224 4.61961C9.4048 4.4759 9.66715 4.3542 9.94479 4.28081C10.1998 4.21354 10.4646 4.17685 10.7276 4.14933C11.1434 4.10591 11.5489 4.1793 11.947 4.29733C12.2369 4.38355 12.5114 4.50647 12.764 4.67037C12.9499 4.79084 13.1236 4.93211 13.293 5.07521C13.6006 5.3345 13.8312 5.6574 14.0201 6.00965C14.2054 6.35578 14.3326 6.72393 14.3877 7.11409C14.4078 7.25903 14.4225 7.40519 14.4329 7.55135C14.4402 7.65409 14.4347 7.6547 14.3351 7.65531C14.1547 7.65531 13.9743 7.65531 13.7938 7.65592C13.7737 7.65592 13.7535 7.65592 13.7327 7.65592C13.7174 7.65592 13.7021 7.65592 13.6868 7.65592C13.6611 7.65592 13.6361 7.65592 13.6104 7.65592C12.8582 7.65592 12.106 7.65592 11.3538 7.65592C11.2321 7.65592 11.1098 7.65837 10.9881 7.65408C10.9263 7.65164 10.9104 7.67365 10.911 7.73297C10.9135 8.09623 10.9123 8.4601 10.9129 8.82335C10.9129 9.55293 10.9129 10.2825 10.9135 11.0115C10.9135 11.0267 10.9135 11.042 10.9135 11.0567C10.9135 11.0671 10.9135 11.0775 10.9135 11.0873C10.9135 11.1075 10.9135 11.1276 10.9135 11.1478C10.9123 11.1576 10.9116 11.1674 10.9104 11.1772L10.911 11.1784Z" fill="url(#paint_linear_36)" fill-rule="nonzero" />
		<path id="矢量 28" d="M15.0435 18.2739C12.6121 18.2739 10.1806 18.2739 7.74906 18.2739C7.66834 18.2739 7.58762 18.2824 7.50628 18.2867C7.44819 18.2898 7.41883 18.2708 7.41944 18.2042C7.42189 17.9296 7.42128 17.655 7.41944 17.3804C7.41944 17.3352 7.42739 17.307 7.47999 17.3076C7.51484 17.3076 7.55031 17.2979 7.58517 17.2979C8.64742 17.2979 9.70906 17.2979 10.7713 17.2979C13.2046 17.2979 15.6374 17.2979 18.0707 17.2979C19.4925 17.2979 20.9144 17.2979 22.3368 17.2979C22.4554 17.2979 22.5146 17.3572 22.5142 17.4758C22.5142 17.707 22.5142 17.9387 22.5142 18.1699C22.5142 18.2739 22.5135 18.2745 22.4065 18.2745C19.9524 18.2745 17.4977 18.2745 15.0435 18.2745L15.0435 18.2739Z" fill="url(#paint_linear_37)" fill-rule="nonzero" />
		<path id="矢量 29" d="M15.0439 16.3212C12.61 16.3212 10.176 16.3212 7.74209 16.3212C7.66381 16.3212 7.58554 16.3298 7.50726 16.3341C7.44916 16.3371 7.41981 16.3182 7.42042 16.2515C7.42348 15.9769 7.42225 15.7024 7.42042 15.4278C7.42042 15.3825 7.42837 15.3544 7.48096 15.355C7.51582 15.355 7.55129 15.3452 7.58615 15.3452C8.6484 15.3452 9.71004 15.3452 10.7723 15.3452C13.2056 15.3452 15.6383 15.3452 18.0717 15.3452C19.4935 15.3452 20.9153 15.3452 22.3378 15.3452C22.4564 15.3452 22.5155 15.4045 22.5151 15.5232C22.5151 15.7543 22.5151 15.9861 22.5151 16.2173C22.5151 16.3212 22.5145 16.3218 22.4075 16.3218C19.9534 16.3218 17.4986 16.3218 15.0445 16.3218L15.0439 16.3212Z" fill="url(#paint_linear_38)" fill-rule="nonzero" />
		<path id="矢量 30" d="M15.0368 14.3692C12.628 14.3692 10.2197 14.3692 7.81085 14.3692C7.7124 14.3692 7.61333 14.3766 7.51487 14.3821C7.45004 14.3857 7.41824 14.3668 7.41947 14.2922C7.42314 14.0225 7.42191 13.7534 7.41947 13.4837C7.41947 13.4323 7.42803 13.4005 7.48735 13.4011C7.51976 13.4011 7.55278 13.3926 7.5852 13.3926C8.64745 13.3926 9.70908 13.3926 10.7713 13.3926C13.2047 13.3926 15.6374 13.3926 18.0707 13.3926C19.4925 13.3926 20.9144 13.3926 22.3368 13.3926C22.4559 13.3926 22.5152 13.4517 22.5148 13.5699C22.5148 13.8011 22.5148 14.0329 22.5148 14.264C22.5148 14.3686 22.5142 14.3692 22.4084 14.3692C19.9518 14.3692 17.4946 14.3692 15.0381 14.3692L15.0368 14.3692Z" fill="url(#paint_linear_39)" fill-rule="nonzero" />
		<path id="矢量 31" d="M11.766 10.2491C11.766 9.69509 11.7672 9.14103 11.7642 8.58697C11.7642 8.51236 11.7868 8.49463 11.8583 8.49463C12.9707 8.49646 14.0831 8.49646 15.1961 8.49463C15.2561 8.49463 15.2744 8.50992 15.2738 8.57107C15.2701 9.02606 15.1692 9.45964 14.9937 9.87733C14.8115 10.3109 14.5516 10.6937 14.2152 11.0203C13.8514 11.3744 13.4294 11.6422 12.9475 11.8104C12.5916 11.9346 12.2265 12.0092 11.8486 12.0208C11.7788 12.0232 11.7642 11.9994 11.7642 11.9339C11.7666 11.3725 11.7654 10.8105 11.7654 10.2491L11.766 10.2491Z" fill="url(#paint_linear_40)" fill-rule="nonzero" />
		<path id="矢量 32" d="M26.1419 22.2695C26.1388 22.2604 26.1358 22.2512 26.1327 22.2414C26.1309 22.2353 26.1284 22.2298 26.1266 22.2237C26.0434 21.9895 25.8808 21.8201 25.6808 21.6818C25.5756 21.6482 25.4704 21.6146 25.3646 21.5809C25.2692 21.5718 25.1738 21.554 25.0784 21.554C21.4391 21.5528 17.8004 21.5528 14.1612 21.5522C14.1116 21.5522 14.0615 21.5406 14.0119 21.5345C13.8028 21.3002 13.5924 21.0666 13.3845 20.8306C13.2237 20.6483 13.064 20.4649 12.9069 20.279C12.6776 20.0074 12.3889 19.8851 12.0324 19.8857C9.63696 19.89 7.24094 19.8888 4.84552 19.887C4.63638 19.887 4.4364 19.9145 4.24866 20.0099C3.97163 20.1762 3.80346 20.4166 3.76248 20.7382C3.74903 20.841 3.74658 20.9462 3.74658 21.0501C3.74658 23.3122 3.74658 25.5743 3.74658 27.8358C3.74658 27.8866 3.74842 27.9373 3.74903 27.9881C3.75148 28.0095 3.75453 28.0309 3.75698 28.0529C3.75759 28.0621 3.75881 28.0712 3.76004 28.0804C3.76004 28.0914 3.76065 28.1018 3.76126 28.1128C3.7686 28.1825 3.77594 28.2529 3.78328 28.3226C3.78511 28.3293 3.78695 28.336 3.78878 28.3428C3.87195 28.8846 4.12024 29.3414 4.51346 29.7181C4.91157 30.0997 5.38858 30.3187 5.93652 30.3804C6.0625 30.3945 6.1897 30.3994 6.3169 30.3994C12.1015 30.4 17.8867 30.4 23.6713 30.4C23.7116 30.4 23.7526 30.3982 23.793 30.3969C23.7997 30.3963 23.8058 30.3951 23.8125 30.3945C23.8211 30.3933 23.8297 30.3927 23.8376 30.3914C23.8443 30.3902 23.8511 30.3896 23.8578 30.3884C24.9812 30.3407 25.9364 29.509 26.1382 28.4021C26.1425 28.377 26.1443 28.3513 26.1474 28.3263C26.1505 28.3061 26.1541 28.2853 26.1572 28.2651L26.1572 28.2627C26.1676 28.1715 26.178 28.0804 26.1884 27.9899L26.1884 22.4677L26.1425 22.2695L26.1419 22.2695ZM13.2481 25.1854C13.2102 25.7052 12.9173 26.0299 12.4519 26.2164C12.34 26.2611 12.2183 26.2806 12.1015 26.3118C12.0807 26.3155 12.0599 26.3192 12.0385 26.3228C11.7352 26.3241 11.4318 26.3253 11.1285 26.3283C11.0973 26.3283 11.0661 26.3387 11.035 26.3442C11.0307 26.3846 11.027 26.4244 11.0227 26.4647C11.0227 26.9478 11.0227 27.4303 11.0227 27.9135C11.0246 27.9171 11.0264 27.9208 11.027 27.9245C11.027 27.9257 11.0239 27.9275 11.0227 27.9294C11.0227 27.9391 11.0227 27.9495 11.0227 27.9593C11.0246 27.963 11.0264 27.9667 11.0276 27.9703C11.0276 27.9716 11.0246 27.9734 11.0233 27.9752C11.0215 27.9893 11.0197 28.004 11.0172 28.018C10.9909 28.0242 10.964 28.0345 10.9377 28.0352C10.6766 28.037 10.4161 28.0376 10.1549 28.037C10.1366 28.037 10.1176 28.0272 10.0993 28.0223C10.0987 28.0113 10.0981 28.0003 10.0975 27.9887C10.0987 27.8615 10.1005 27.7349 10.1005 27.6077C10.1005 26.3626 10.1005 25.1181 10.0999 23.873C10.0999 23.8528 10.0993 23.8326 10.0987 23.8118C10.0987 23.8057 10.0987 23.799 10.0987 23.7929C10.0987 23.7788 10.0987 23.7648 10.0987 23.7507C10.0987 23.7342 10.0987 23.7183 10.0987 23.7018C10.1225 23.6969 10.1464 23.6883 10.1702 23.6883C10.6907 23.6877 11.2111 23.6767 11.7315 23.6914C12.0813 23.7018 12.4293 23.7507 12.735 23.9501C13.0592 24.161 13.2237 24.4625 13.2457 24.8447C13.2518 24.9511 13.25 25.0576 13.2518 25.164C13.2512 25.1707 13.25 25.1774 13.2494 25.1841L13.2481 25.1854ZM16.7614 25.5144C16.6367 25.877 16.3578 26.0794 16.0209 26.2189C15.8337 26.2959 15.6386 26.332 15.435 26.3283C15.1837 26.3241 14.9317 26.3296 14.6804 26.3253C14.6161 26.3241 14.5996 26.3418 14.5996 26.4054C14.6021 26.9215 14.5996 27.4377 14.6027 27.9538C14.6027 28.0217 14.585 28.0388 14.5177 28.0382C14.2639 28.0339 14.0095 28.037 13.7557 28.0364C13.7325 28.0364 13.7086 28.0266 13.6854 28.0217C13.6842 28.0003 13.6829 27.9795 13.6811 27.9581C13.6811 26.6818 13.6805 25.4055 13.6793 24.1299C13.6793 24.0082 13.6768 23.8858 13.6713 23.7641C13.6689 23.7103 13.6793 23.6877 13.7404 23.6877C14.2663 23.6902 14.7923 23.6883 15.3182 23.6895C15.3738 23.6895 15.4295 23.6993 15.4845 23.7042C15.49 23.7042 15.4955 23.7048 15.501 23.7054C15.5145 23.7073 15.5286 23.7097 15.542 23.7116C15.5487 23.7128 15.5561 23.7146 15.5628 23.7158C15.8252 23.7427 16.079 23.7996 16.3034 23.9476C16.6116 24.1513 16.7761 24.443 16.8146 24.8062C16.8397 25.0447 16.8409 25.2838 16.7608 25.515L16.7614 25.5144ZM20.1054 24.4002C20.1054 24.4625 20.0852 24.4833 20.0216 24.4833C19.684 24.4815 19.3458 24.4833 19.0082 24.4833C19.0058 24.5041 19.0034 24.5249 19.0009 24.5457C18.9997 25.6832 18.9991 26.82 18.9979 27.9575C18.9966 27.974 18.996 27.9905 18.9948 28.007C18.9746 28.0168 18.9544 28.0352 18.9343 28.0358C18.6676 28.0382 18.401 28.0376 18.1344 28.0401C18.0848 28.0401 18.0756 28.0205 18.0763 27.9765C18.0787 27.8315 18.0769 27.6866 18.0769 27.5416C18.0769 26.5503 18.0763 25.559 18.0781 24.5677C18.0781 24.5017 18.0665 24.4784 17.9937 24.479C17.6788 24.4839 17.3638 24.479 17.0489 24.4827C16.992 24.4827 16.9767 24.4693 16.9779 24.4118C16.9816 24.1934 16.981 23.9745 16.9779 23.7562C16.9779 23.706 16.9853 23.6865 17.0421 23.6865C18.0402 23.6883 19.0388 23.6883 20.0369 23.6865C20.0931 23.6865 20.1115 23.7012 20.1103 23.7586C20.1054 23.9721 20.1035 24.1855 20.1047 24.3989L20.1054 24.4002Z" fill="url(#paint_linear_41)" fill-rule="nonzero" />
		<path id="矢量 33" d="M25.6985 9.37109C25.6985 9.32829 25.6796 9.28548 25.6692 9.24267C25.6386 9.28609 25.6105 9.33134 25.5768 9.37232C25.4729 9.49952 25.3328 9.54783 25.1732 9.54783C23.7098 9.54783 22.247 9.54783 20.7835 9.54783C20.4558 9.54783 20.128 9.54661 19.8002 9.54783C19.4534 9.54905 19.1171 9.49524 18.8095 9.33012C18.4866 9.15705 18.2249 8.91366 18.0347 8.59627C17.8958 8.36511 17.8133 8.11499 17.7748 7.84958C17.765 7.78231 17.7576 7.67162 17.7576 7.60313C17.7564 5.774 17.7564 3.94488 17.7564 2.11514C17.7564 1.94085 17.8114 1.79225 17.9625 1.69134C17.9833 1.67789 18.0071 1.66321 18.031 1.66199C18.0762 1.65893 18.0775 1.63202 18.0762 1.59961L6.0576 1.59961C5.93835 1.60022 5.81787 1.61612 5.70779 1.66137C5.7029 1.66321 5.69801 1.66504 5.69251 1.66688C5.49192 1.7317 5.29745 1.80814 5.11949 1.92495C4.83023 2.11453 4.61007 2.36771 4.4523 2.6692C4.33488 2.89363 4.2615 3.13764 4.2511 3.3951C4.24315 3.58529 4.23642 3.77548 4.23581 3.96506C4.2352 9.2708 4.2352 14.5765 4.23581 19.8829C4.23581 19.9251 4.24498 19.9679 4.24988 20.0101C4.43762 19.9147 4.63759 19.8872 4.84674 19.8872C7.24277 19.889 9.63818 19.8896 12.0336 19.886C12.3901 19.886 12.6788 20.0077 12.9081 20.2792C13.0653 20.4651 13.2249 20.6486 13.3857 20.8308C13.5936 21.0662 13.804 21.2998 14.0132 21.5347C14.0627 21.5408 14.1128 21.5524 14.1624 21.5524C17.8017 21.553 21.4403 21.5524 25.0796 21.5543C25.175 21.5543 25.2704 21.572 25.3658 21.5812L25.682 21.6821C25.6881 21.6117 25.6997 21.5414 25.6997 21.4705C25.7004 17.4373 25.7004 13.4036 25.6997 9.37048L25.6985 9.37109ZM15.2735 8.5712C15.2699 9.02618 15.169 9.45977 14.9935 9.87745C14.8112 10.311 14.5513 10.6939 14.215 11.0204C13.8511 11.3745 13.4291 11.6424 12.9472 11.8105C12.5913 11.9347 12.2262 12.0093 11.8483 12.0209C11.7786 12.0234 11.7639 11.9995 11.7639 11.9341C11.7663 11.3727 11.7651 10.8107 11.7651 10.2493C11.7651 9.69521 11.7663 9.14116 11.7633 8.5871C11.7633 8.51249 11.7859 8.49475 11.8575 8.49475C12.9699 8.49659 14.0823 8.49659 15.1953 8.49475C15.2552 8.49475 15.2735 8.51004 15.2729 8.5712L15.2735 8.5712ZM7.53508 6.7066C7.62865 6.35863 7.77358 6.02779 7.97539 5.72875C8.28361 5.27254 8.66888 4.89521 9.152 4.62063C9.40457 4.47692 9.66692 4.35522 9.94456 4.28184C10.1996 4.21457 10.4644 4.17787 10.7273 4.15035C11.1432 4.10693 11.5486 4.18032 11.9468 4.29835C12.2366 4.38457 12.5112 4.50749 12.7638 4.67139C12.9497 4.79186 13.1234 4.93313 13.2928 5.07623C13.6004 5.33552 13.8309 5.65842 14.0199 6.01067C14.2052 6.3568 14.3324 6.72495 14.3874 7.11511C14.4076 7.26005 14.4223 7.40621 14.4327 7.55237C14.44 7.65511 14.4345 7.65572 14.3348 7.65633C14.1544 7.65694 13.974 7.65633 13.7936 7.65694C13.7887 7.66734 13.7832 7.67529 13.7783 7.68079C13.7832 7.67529 13.7887 7.66734 13.7936 7.65694L13.6866 7.65694L13.6101 7.65694C12.8579 7.65694 12.1058 7.65694 11.3536 7.65694C11.2319 7.65694 11.1095 7.65939 10.9879 7.65511C10.9261 7.65266 10.9102 7.67467 10.9108 7.73399C10.9132 8.09725 10.912 8.46112 10.9126 8.82438C10.9126 9.55395 10.9126 10.2829 10.9132 11.0125C10.9218 11.0192 10.9304 11.0253 10.9389 11.032C10.9304 11.0406 10.9218 11.0492 10.9132 11.0583C10.9132 11.0687 10.9132 11.0791 10.9132 11.0889C10.9542 11.1091 10.9542 11.1293 10.9132 11.1495C10.912 11.1592 10.9114 11.169 10.9102 11.1788C10.7041 11.158 10.4962 11.1488 10.2925 11.1146C9.80819 11.0333 9.36359 10.8474 8.95692 10.5728C8.33926 10.1551 7.90078 9.59431 7.63415 8.89898C7.51735 8.59443 7.45069 8.27949 7.41828 7.95476C7.37547 7.53035 7.425 7.1145 7.53447 6.7066L7.53508 6.7066ZM11.0086 11.1917C10.9989 11.2039 10.9909 11.2118 10.9823 11.2161C10.9781 11.2186 10.9744 11.2198 10.9701 11.2198C10.9744 11.2198 10.9781 11.2186 10.9823 11.2161C10.9903 11.2118 10.9989 11.2039 11.0086 11.1917ZM10.9683 11.2192C10.9567 11.2192 10.9444 11.2118 10.9285 11.1972C10.9444 11.2118 10.9567 11.2192 10.9683 11.2192ZM22.5142 18.1694C22.5142 18.2733 22.5136 18.2739 22.4066 18.2739C19.9525 18.2739 17.4977 18.2739 15.0436 18.2739C12.6121 18.2739 10.1806 18.2739 7.74912 18.2739C7.6684 18.2739 7.58768 18.2825 7.50634 18.2868C7.44824 18.2898 7.41889 18.2709 7.4195 18.2042C7.42195 17.9296 7.42134 17.6551 7.4195 17.3805C7.4195 17.3352 7.42745 17.3071 7.48004 17.3077C7.5149 17.3077 7.55037 17.2979 7.58584 17.2979C8.64809 17.2979 9.70973 17.2979 10.772 17.2979C13.2053 17.2979 15.638 17.2979 18.0714 17.2979C19.4932 17.2979 20.915 17.2979 22.3369 17.2979C22.4555 17.2979 22.5146 17.3572 22.5142 17.4759C22.5142 17.707 22.5142 17.9388 22.5142 18.17L22.5142 18.1694ZM22.5142 16.2167C22.5142 16.3207 22.5136 16.3213 22.4066 16.3213C19.9525 16.3213 17.4977 16.3213 15.0436 16.3213C12.6097 16.3213 10.1757 16.3213 7.74178 16.3213C7.66351 16.3213 7.58523 16.3298 7.50695 16.3341C7.44885 16.3372 7.4195 16.3182 7.42011 16.2516C7.42317 15.977 7.42195 15.7024 7.42011 15.4278C7.42011 15.3826 7.42806 15.3544 7.48066 15.355C7.51551 15.355 7.55098 15.3453 7.58584 15.3453C8.64809 15.3453 9.70973 15.3453 10.772 15.3453C13.2053 15.3453 15.638 15.3453 18.0714 15.3453C19.4932 15.3453 20.915 15.3453 22.3375 15.3453C22.4561 15.3453 22.5152 15.4046 22.5148 15.5232C22.5148 15.7544 22.5148 15.9862 22.5148 16.2173L22.5142 16.2167ZM22.5142 14.2634C22.5142 14.368 22.5136 14.3686 22.4078 14.3686C19.9512 14.3686 17.4941 14.3686 15.0375 14.3686C12.6286 14.3686 10.2204 14.3686 7.8115 14.3686C7.71304 14.3686 7.61397 14.376 7.51551 14.3815C7.45069 14.3851 7.41889 14.3662 7.42011 14.2916C7.42378 14.0219 7.42256 13.7528 7.42011 13.4831C7.42011 13.4317 7.42868 13.3999 7.488 13.4006C7.52041 13.4006 7.55343 13.392 7.58584 13.392C8.64809 13.392 9.70973 13.392 10.772 13.392C13.2053 13.392 15.638 13.392 18.0714 13.392C19.4932 13.392 20.915 13.392 22.3369 13.392C22.4559 13.392 22.5154 13.4511 22.5154 13.5693C22.5154 13.8005 22.5154 14.0323 22.5154 14.2634L22.5142 14.2634Z" fill="url(#paint_linear_42)" fill-rule="nonzero" />
		<path id="矢量 34" d="M12.0388 26.3227C11.7355 26.3239 11.4322 26.3251 11.1288 26.3282C11.0977 26.3282 11.0665 26.3386 11.0353 26.3441C11.031 26.3844 11.0273 26.4242 11.023 26.4645C11.023 26.9477 11.023 27.4302 11.023 27.9133C11.023 27.9188 11.023 27.9237 11.023 27.9292C11.023 27.939 11.023 27.9494 11.023 27.9591C11.023 27.9646 11.023 27.9695 11.023 27.975C11.0212 27.9897 11.0194 28.0038 11.0169 28.0185C10.9906 28.024 10.9637 28.035 10.9374 28.035C10.6763 28.0368 10.4158 28.0374 10.1547 28.0368C10.1363 28.0368 10.1173 28.027 10.099 28.0221C10.0984 28.0111 10.0978 28.0001 10.0972 27.9885C10.0984 27.8613 10.1002 27.7347 10.1002 27.6075C10.1002 26.3624 10.1002 25.1179 10.0996 23.8728C10.0996 23.8526 10.099 23.8325 10.0984 23.8117C10.0984 23.8055 10.0984 23.7988 10.0984 23.7927C10.0984 23.7786 10.0984 23.7646 10.0984 23.7505C10.0984 23.734 10.0984 23.7181 10.0984 23.7016C10.1222 23.6967 10.1461 23.6881 10.1699 23.6881C10.6904 23.6875 11.2108 23.6765 11.7312 23.6912C12.081 23.7016 12.429 23.7505 12.7348 23.9499C13.0589 24.1609 13.2234 24.4623 13.2454 24.8446C13.2515 24.951 13.2497 25.0574 13.2515 25.1638C13.2509 25.1705 13.2503 25.1772 13.2491 25.184C13.2111 25.7038 12.9182 26.0285 12.4528 26.215C12.3409 26.2597 12.2192 26.2792 12.1024 26.3104C12.0816 26.3141 12.0608 26.3178 12.0394 26.3214L12.0388 26.3227ZM11.0353 25.5338C11.0451 25.538 11.0555 25.5417 11.0652 25.546C11.2652 25.546 11.4652 25.5558 11.6646 25.5442C11.7862 25.5374 11.9055 25.4989 12.0266 25.4751C12.0388 25.4696 12.051 25.4647 12.0639 25.4592C12.092 25.4433 12.1202 25.4267 12.1477 25.4108C12.1923 25.3552 12.2363 25.2995 12.281 25.2433C12.2932 25.1925 12.3048 25.1418 12.3171 25.091C12.3122 25.0146 12.3073 24.9381 12.3024 24.8611C12.2718 24.6764 12.1526 24.5645 11.944 24.5241C11.9361 24.5211 11.9281 24.518 11.9202 24.5143C11.9098 24.5125 11.9 24.5107 11.8896 24.5088C11.8792 24.5058 11.8688 24.5027 11.8584 24.4996L11.7759 24.4941C11.7526 24.4905 11.7294 24.4868 11.7067 24.4831C11.7012 24.4831 11.6964 24.4831 11.6908 24.4831C11.5477 24.4825 11.4046 24.4801 11.2615 24.4813C11.1814 24.4813 11.1019 24.4874 11.0218 24.4911C11.02 24.4911 11.0188 24.4911 11.0169 24.4911C11.0188 24.4911 11.0206 24.4905 11.0224 24.4899C11.0243 24.5021 11.0255 24.5149 11.0273 24.5272C11.0273 24.5321 11.0285 24.537 11.0292 24.5425C11.0279 24.6342 11.0261 24.7259 11.0249 24.8176C11.0249 24.8378 11.0249 24.858 11.0249 24.8788C11.0249 24.899 11.0249 24.9198 11.0249 24.94C11.0249 25.1179 11.0249 25.2959 11.0249 25.4738C11.0285 25.494 11.0316 25.5142 11.0353 25.5344L11.0359 25.535L11.0353 25.5338Z" fill="rgb(254,254,255)" fill-rule="nonzero" />
		<path id="矢量 35" d="M15.5016 23.7046C15.515 23.7065 15.5291 23.7089 15.5425 23.7107C15.5493 23.712 15.5566 23.7138 15.5633 23.715C15.8257 23.7419 16.0795 23.7988 16.3039 23.9468C16.6121 24.1504 16.7766 24.4421 16.8152 24.8054C16.8402 25.0439 16.8415 25.283 16.7613 25.5142C16.6366 25.8768 16.3577 26.0792 16.0208 26.2187C15.8336 26.2957 15.6386 26.3318 15.4349 26.3281C15.1836 26.3239 14.9316 26.3294 14.6803 26.3251C14.6161 26.3239 14.5995 26.3416 14.5995 26.4052C14.602 26.9213 14.5995 27.4375 14.6026 27.9536C14.6026 28.0215 14.5849 28.0386 14.5176 28.038C14.2638 28.0337 14.0094 28.0368 13.7556 28.0362C13.7324 28.0362 13.7085 28.0264 13.6853 28.0215C13.6841 28.0001 13.6828 27.9793 13.681 27.9579C13.681 26.6816 13.6804 25.4053 13.6792 24.1296C13.6792 24.0079 13.6767 23.8856 13.6712 23.7639C13.6688 23.7101 13.6792 23.6875 13.7403 23.6875C14.2663 23.6899 14.7922 23.6881 15.3181 23.6893C15.3738 23.6893 15.4294 23.6991 15.4844 23.704C15.4899 23.704 15.4955 23.7046 15.501 23.7052L15.5016 23.7046ZM14.6014 25.0072C14.6014 25.1674 14.6014 25.327 14.6014 25.4873C14.6014 25.5233 14.602 25.5527 14.6515 25.5509C14.92 25.5392 15.1891 25.5399 15.4557 25.5148C15.6532 25.4964 15.8287 25.4035 15.874 25.1937C15.9547 24.817 15.8477 24.581 15.4685 24.5076C15.4465 24.5033 15.4239 24.496 15.4013 24.496C15.1505 24.4905 14.8992 24.4874 14.6485 24.4807C14.6038 24.4794 14.6008 24.4996 14.6008 24.5351C14.602 24.6923 14.6008 24.85 14.6014 25.0078L14.6014 25.0072Z" fill="rgb(254,254,255)" fill-rule="nonzero" />
		<path id="矢量 36" d="M19.0016 24.5457C19.0003 25.6832 18.9997 26.8201 18.9985 27.9575C18.9973 27.9741 18.9967 27.9906 18.9955 28.0071C18.9753 28.0169 18.9551 28.0352 18.9349 28.0358C18.6683 28.0383 18.4016 28.0377 18.135 28.0401C18.0855 28.0401 18.0763 28.0205 18.0769 27.9765C18.0794 27.8316 18.0775 27.6866 18.0775 27.5417C18.0775 26.5504 18.0769 25.5591 18.0787 24.5678C18.0787 24.5017 18.0671 24.4785 17.9944 24.4791C17.6794 24.484 17.3645 24.4791 17.0495 24.4828C16.9926 24.4828 16.9774 24.4693 16.9786 24.4118C16.9823 24.1935 16.9816 23.9746 16.9786 23.7562C16.9786 23.7061 16.9859 23.6865 17.0428 23.6865C18.0408 23.6884 19.0395 23.6884 20.0375 23.6865C20.0938 23.6865 20.1121 23.7012 20.1109 23.7587C20.106 23.9721 20.1042 24.1855 20.1054 24.399C20.1054 24.4613 20.0852 24.4821 20.0216 24.4821C19.684 24.4803 19.3459 24.4821 19.0083 24.4821C19.0058 24.5029 19.0034 24.5237 19.001 24.5445L19.0016 24.5457Z" fill="rgb(254,254,255)" fill-rule="nonzero" />
		<path id="矢量 37" d="M11.022 26.4647C11.0263 26.4244 11.0299 26.3846 11.0342 26.3442C11.0299 26.3846 11.0263 26.4244 11.022 26.4647Z" fill="rgb(226,88,70)" fill-rule="nonzero" />
		<path id="矢量 38" d="M13.6816 27.9575C13.6829 27.9789 13.6841 27.9997 13.6859 28.0211C13.6847 27.9997 13.6835 27.9789 13.6816 27.9575Z" fill="rgb(236,149,139)" fill-rule="nonzero" />
		<path id="矢量 39" d="M19.0015 24.5458C19.0039 24.525 19.0064 24.5042 19.0088 24.4834C19.0064 24.5042 19.0039 24.525 19.0015 24.5458Z" fill="rgb(241,150,137)" fill-rule="nonzero" />
		<path id="矢量 40" d="M26.1568 28.2656C26.1537 28.2858 26.15 28.3066 26.147 28.3268C26.15 28.3066 26.1537 28.2858 26.1568 28.2656Z" fill="rgb(221,158,137)" fill-rule="nonzero" />
		<path id="矢量 41" d="M3.75697 28.0531C3.75453 28.0317 3.75147 28.0103 3.74902 27.9883C3.75147 28.0097 3.75453 28.0311 3.75697 28.0531Z" fill="rgb(243,159,164)" fill-rule="nonzero" />
		<path id="矢量 42" d="M12.0386 26.323C12.0594 26.3193 12.0802 26.3157 12.1016 26.312C12.0808 26.3157 12.06 26.3193 12.0386 26.323Z" fill="rgb(248,166,166)" fill-rule="nonzero" />
		<path id="矢量 43" d="M10.0977 23.7026C10.0977 23.7191 10.0977 23.735 10.0977 23.7516C10.0977 23.735 10.0977 23.7191 10.0977 23.7026Z" fill="rgb(237,136,118)" fill-rule="nonzero" />
		<path id="矢量 44" d="M18.9956 28.0071C18.9968 27.9905 18.9974 27.974 18.9987 27.9575C18.9974 27.974 18.9968 27.9905 18.9956 28.0071Z" fill="rgb(241,150,137)" fill-rule="nonzero" />
		<path id="矢量 45" d="M10.0962 27.9888C10.0968 27.9998 10.0974 28.0108 10.098 28.0224C10.0974 28.0114 10.0968 28.0004 10.0962 27.9888Z" fill="rgb(237,136,118)" fill-rule="nonzero" />
		<path id="矢量 46" d="M3.76099 28.113C3.76099 28.102 3.76038 28.0916 3.75977 28.0806C3.75977 28.0916 3.76038 28.102 3.76099 28.113Z" fill="rgb(243,159,164)" fill-rule="nonzero" />
		<path id="矢量 47" d="M11.022 27.9754C11.022 27.9699 11.022 27.965 11.022 27.9595C11.0238 27.9631 11.0256 27.9668 11.0269 27.9705C11.0269 27.9717 11.0238 27.9735 11.0226 27.9754L11.022 27.9754Z" fill="rgb(226,88,70)" fill-rule="nonzero" />
		<path id="矢量 48" d="M11.022 27.9295C11.022 27.924 11.022 27.9191 11.022 27.9136C11.0238 27.9172 11.0256 27.9209 11.0263 27.9246C11.0263 27.9258 11.0232 27.9276 11.022 27.9295L11.022 27.9295Z" fill="rgb(226,88,70)" fill-rule="nonzero" />
		<path id="矢量 49" d="M13.248 25.1852C13.2487 25.1785 13.2499 25.1718 13.2505 25.165C13.2499 25.1718 13.2487 25.1785 13.248 25.1852Z" fill="rgb(235,156,148)" fill-rule="nonzero" />
		<path id="矢量 50" d="M10.0977 23.7935C10.0977 23.7996 10.0977 23.8063 10.0977 23.8124C10.0977 23.8063 10.0977 23.7996 10.0977 23.7935Z" fill="rgb(237,136,118)" fill-rule="nonzero" />
		<path id="矢量 51" d="M11.0161 28.0187C11.0161 28.0187 11.0204 28.0211 11.0228 28.0217C11.021 28.0205 11.0186 28.0193 11.0167 28.0181L11.0161 28.0187Z" fill="rgb(226,88,70)" fill-rule="nonzero" />
		<path id="矢量 52" d="M15.5638 23.7152C15.557 23.714 15.5497 23.7122 15.543 23.7109C15.5497 23.7122 15.557 23.714 15.5638 23.7152Z" fill="rgb(239,147,131)" fill-rule="nonzero" />
		<path id="矢量 53" d="M15.5019 23.7048C15.4964 23.7048 15.4909 23.7042 15.4854 23.7036C15.4909 23.7036 15.4964 23.7042 15.5019 23.7048Z" fill="rgb(239,147,131)" fill-rule="nonzero" />
		<path id="矢量 54" d="M26.127 22.2236C26.1288 22.2297 26.1312 22.2353 26.1331 22.2414C26.1312 22.2353 26.1288 22.2297 26.127 22.2236Z" fill="rgb(236,144,128)" fill-rule="nonzero" />
		<path id="矢量 55" d="M3.78822 28.3429C3.78638 28.3362 3.78455 28.3295 3.78271 28.3228C3.78455 28.3295 3.78638 28.3362 3.78822 28.3429Z" fill="rgb(241,162,154)" fill-rule="nonzero" />
		<path id="矢量 56" d="M23.812 30.3945C23.8053 30.3951 23.7992 30.3964 23.7925 30.397C23.7992 30.3964 23.8053 30.3951 23.812 30.3945Z" fill="rgb(248,149,141)" fill-rule="nonzero" />
		<path id="矢量 57" d="M23.8571 30.3887C23.8504 30.3899 23.8436 30.3905 23.8369 30.3917C23.8436 30.3905 23.8504 30.3899 23.8571 30.3887Z" fill="rgb(248,149,141)" fill-rule="nonzero" />
		<path id="矢量 58" d="M10.9141 11.0879C10.955 11.1081 10.955 11.1283 10.9141 11.1484C10.9141 11.1283 10.9141 11.1081 10.9141 11.0879Z" fill="rgb(234,233,234)" fill-rule="nonzero" />
		<path id="矢量 59" d="M10.9141 11.0122C10.9226 11.0189 10.9312 11.0251 10.9397 11.0318C10.9312 11.0403 10.9226 11.0489 10.9141 11.0581C10.9141 11.0428 10.9141 11.0275 10.9141 11.0128L10.9141 11.0122Z" fill="rgb(234,233,234)" fill-rule="nonzero" />
		<path id="矢量 60" d="M11.6895 24.4839C11.695 24.4839 11.6999 24.4839 11.7054 24.4839C11.7287 24.4876 11.7519 24.4912 11.7745 24.4949L11.8571 24.5004C11.8675 24.5035 11.8779 24.5065 11.8883 24.5096C11.8987 24.5114 11.9085 24.5132 11.9189 24.5151C11.9268 24.5181 11.9348 24.5212 11.9427 24.5249C12.1519 24.5652 12.2711 24.6771 12.3011 24.8618C12.2442 24.9254 12.2888 25.0025 12.2736 25.0722C12.2729 25.0752 12.3011 25.085 12.3158 25.0918C12.3035 25.1425 12.2919 25.1933 12.2797 25.244C12.2522 25.2514 12.221 25.2526 12.1977 25.2673C12.1439 25.3003 12.1421 25.3559 12.1464 25.4116C12.1182 25.4275 12.0901 25.444 12.0626 25.4599C12.0503 25.4654 12.0381 25.4703 12.0253 25.4758C11.9048 25.4997 11.7849 25.5382 11.6632 25.5449C11.4639 25.5559 11.2639 25.5474 11.0639 25.5467C11.0541 25.5425 11.0437 25.5388 11.034 25.5345L11.0333 25.5339C11.0297 25.5137 11.0266 25.4935 11.0229 25.4734C11.0229 25.2954 11.0229 25.1174 11.0229 24.9395C11.0364 24.9291 11.0492 24.9193 11.0627 24.9089C11.0492 24.8985 11.0364 24.8887 11.0229 24.8783C11.0229 24.8582 11.0229 24.838 11.0229 24.8172C11.0358 24.8111 11.0566 24.8074 11.0596 24.7982C11.0835 24.7273 11.1024 24.6551 11.1257 24.5842C11.1306 24.5689 11.1544 24.5444 11.1581 24.5463C11.1917 24.5634 11.2223 24.586 11.2541 24.6068C11.2437 24.6209 11.2358 24.6447 11.2229 24.6478C11.1349 24.668 11.1098 24.7261 11.1257 24.8062C11.1349 24.8539 11.1563 24.8991 11.1679 24.9462C11.1746 24.9737 11.182 25.0049 11.1758 25.0318C11.1636 25.0875 11.1844 25.1064 11.237 25.1077C11.2896 25.1089 11.3428 25.1193 11.3954 25.1174C11.5391 25.1132 11.6828 25.107 11.8259 25.0967C11.8461 25.0954 11.8834 25.0624 11.8809 25.0502C11.8699 24.9927 11.8864 24.9193 11.8051 24.8936C11.7696 24.8826 11.7378 24.8606 11.703 24.8478C11.6645 24.8337 11.6687 24.8153 11.6944 24.7939C11.7562 24.7413 11.7544 24.7346 11.6871 24.6771C11.6681 24.6612 11.6516 24.6288 11.6534 24.6056C11.6571 24.564 11.6755 24.5242 11.6883 24.4839L11.6895 24.4839Z" fill="rgb(229,57,34)" fill-rule="nonzero" />
		<path id="矢量 61" d="M11.6893 24.4839C11.6771 24.5242 11.6581 24.5646 11.6544 24.6056C11.6526 24.6288 11.6691 24.6612 11.6881 24.6771C11.7553 24.734 11.7572 24.7413 11.6954 24.7939C11.6697 24.8153 11.6654 24.8337 11.704 24.8477C11.7388 24.8606 11.7706 24.882 11.8061 24.8936C11.8868 24.9193 11.8709 24.9927 11.8819 25.0502C11.8844 25.0624 11.8477 25.0954 11.8269 25.0966C11.6838 25.107 11.5401 25.1131 11.3964 25.1174C11.3438 25.1186 11.2912 25.1089 11.238 25.1076C11.1854 25.1064 11.1646 25.0881 11.1768 25.0318C11.1829 25.0049 11.1756 24.9737 11.1689 24.9462C11.1566 24.8991 11.1358 24.8538 11.1267 24.8061C11.1108 24.726 11.1358 24.6679 11.2239 24.6478C11.2367 24.6447 11.2447 24.6208 11.2551 24.6068C11.2233 24.586 11.1927 24.5634 11.1591 24.5462C11.1554 24.5444 11.1316 24.5689 11.1267 24.5842C11.1034 24.6551 11.0839 24.7273 11.0606 24.7982C11.0576 24.8074 11.0362 24.811 11.0239 24.8172C11.0252 24.7254 11.027 24.6337 11.0282 24.542C11.0294 24.5401 11.0325 24.5383 11.0319 24.5371C11.0307 24.5334 11.0282 24.5303 11.0264 24.5267C11.0245 24.5144 11.0233 24.5016 11.0215 24.4894L11.0215 24.4906C11.1016 24.4875 11.1811 24.4814 11.2612 24.4808C11.4043 24.4796 11.5474 24.482 11.6905 24.4826L11.6893 24.4839Z" fill="rgb(229,57,35)" fill-rule="nonzero" />
		<path id="矢量 62" d="M12.147 25.4117C12.1427 25.3561 12.1445 25.2998 12.1983 25.2674C12.2216 25.2533 12.2528 25.2515 12.2803 25.2441C12.2356 25.2998 12.1916 25.3554 12.147 25.4117Z" fill="rgb(229,57,35)" fill-rule="nonzero" />
		<path id="矢量 63" d="M12.3161 25.0918C12.3014 25.085 12.2733 25.0759 12.2739 25.0722C12.2892 25.0025 12.2445 24.9254 12.3014 24.8618C12.3063 24.9383 12.3112 25.0147 12.3161 25.0918Z" fill="rgb(229,57,35)" fill-rule="nonzero" />
		<path id="矢量 64" d="M11.0234 24.8784C11.0369 24.8888 11.0497 24.8986 11.0632 24.909C11.0497 24.9194 11.0369 24.9292 11.0234 24.9396C11.0234 24.9194 11.0234 24.8986 11.0234 24.8784Z" fill="rgb(229,57,35)" fill-rule="nonzero" />
		<path id="矢量 65" d="M11.8886 24.5101C11.8782 24.5071 11.8678 24.504 11.8574 24.501C11.8678 24.504 11.8782 24.5071 11.8886 24.5101Z" fill="rgb(229,57,35)" fill-rule="nonzero" />
		<path id="矢量 66" d="M11.7752 24.4954C11.7519 24.4917 11.7287 24.488 11.7061 24.4844C11.7293 24.488 11.7525 24.4917 11.7752 24.4954Z" fill="rgb(229,57,35)" fill-rule="nonzero" />
		<path id="矢量 67" d="M11.0239 25.4727C11.0276 25.4928 11.0307 25.513 11.0343 25.5332C11.0307 25.513 11.0276 25.4928 11.0239 25.4727Z" fill="rgb(229,98,82)" fill-rule="nonzero" />
		<path id="矢量 68" d="M12.0259 25.4759C12.0381 25.4704 12.0503 25.4655 12.0632 25.46C12.051 25.4655 12.0387 25.4704 12.0259 25.4759Z" fill="rgb(229,57,35)" fill-rule="nonzero" />
		<path id="矢量 69" d="M11.0352 25.5342C11.0449 25.5385 11.0553 25.5421 11.0651 25.5464C11.0553 25.5421 11.0449 25.5385 11.0352 25.5342Z" fill="rgb(229,98,82)" fill-rule="nonzero" />
		<path id="矢量 70" d="M11.0211 24.4919L11.0211 24.4907C11.0193 24.4907 11.0175 24.4913 11.0156 24.4919C11.0175 24.4919 11.0187 24.4919 11.0205 24.4919L11.0211 24.4919Z" fill="rgb(229,98,82)" fill-rule="nonzero" />
		<path id="矢量 71" d="M11.0259 24.5273C11.0277 24.531 11.0302 24.5341 11.0314 24.5377C11.0314 24.539 11.0289 24.5408 11.0277 24.5426C11.0277 24.5377 11.0265 24.5328 11.0259 24.5273Z" fill="rgb(229,98,82)" fill-rule="nonzero" />
		<path id="矢量 72" d="M11.9433 24.5249C11.9353 24.5219 11.9274 24.5188 11.9194 24.5151C11.9274 24.5182 11.9353 24.5213 11.9433 24.5249Z" fill="rgb(229,57,35)" fill-rule="nonzero" />
		<path id="矢量 73" d="M14.6016 25.0077C14.6016 24.8499 14.6022 24.6927 14.6016 24.5349C14.6016 24.4995 14.6046 24.4793 14.6493 24.4805C14.9 24.4866 15.1513 24.4903 15.4021 24.4958C15.4247 24.4958 15.4467 24.5031 15.4693 24.5074C15.8485 24.5808 15.9555 24.8175 15.8748 25.1936C15.8302 25.4033 15.654 25.4963 15.4565 25.5146C15.1893 25.5391 14.9202 25.5391 14.6523 25.5507C14.6028 25.5526 14.6016 25.5238 14.6022 25.4871C14.6028 25.3269 14.6022 25.1673 14.6022 25.0071L14.6016 25.0077Z" fill="rgb(229,57,35)" fill-rule="nonzero" />
	</g>
</svg>
