<svg viewBox="0 0 32 32" xmlns="http://www.w3.org/2000/svg" xmlns:xlink="http://www.w3.org/1999/xlink" width="32.000000" height="32.000000" fill="none" customFrame="#000000">
	<defs>
		<clipPath id="clipPath_33">
			<rect width="32.000000" height="31.868765" x="0.000000" y="0.065430" fill="rgb(255,255,255)" />
		</clipPath>
		<clipPath id="clipPath_34">
			<rect width="80.000000" height="80.000000" x="-19.200195" y="-12.000000" fill="rgb(255,255,255)" />
		</clipPath>
		<linearGradient id="paint_linear_43" x1="7.80340624" x2="7.80340624" y1="13.2768555" y2="31.9348011" gradientUnits="userSpaceOnUse">
			<stop stop-color="rgb(225,244,196)" offset="0" stop-opacity="1" />
			<stop stop-color="rgb(165,228,130)" offset="1" stop-opacity="1" />
		</linearGradient>
		<linearGradient id="paint_linear_44" x1="24.1940536" x2="24.1940536" y1="13.277832" y2="31.9323883" gradientUnits="userSpaceOnUse">
			<stop stop-color="rgb(244,196,224)" offset="0" stop-opacity="1" />
			<stop stop-color="rgb(183,130,228)" offset="1" stop-opacity="1" />
		</linearGradient>
		<linearGradient id="paint_linear_45" x1="16.3466091" x2="14.141469" y1="1.83118391" y2="2.44680071" gradientUnits="userSpaceOnUse">
			<stop stop-color="rgb(250,194,1)" offset="0" stop-opacity="1" />
			<stop stop-color="rgb(250,194,1)" offset="0.4178949" stop-opacity="0.5" />
			<stop stop-color="rgb(255,255,255)" offset="1" stop-opacity="1" />
		</linearGradient>
		<linearGradient id="paint_linear_46" x1="6.78572989" x2="6.78572989" y1="16.0904694" y2="9.96614456" gradientUnits="userSpaceOnUse">
			<stop stop-color="rgb(245,190,176)" offset="0.0632911474" stop-opacity="1" />
			<stop stop-color="rgb(239,201,160)" offset="0.83544302" stop-opacity="1" />
		</linearGradient>
		<linearGradient id="paint_linear_47" x1="25.2166958" x2="25.2166958" y1="16.0907936" y2="9.96663284" gradientUnits="userSpaceOnUse">
			<stop stop-color="rgb(245,190,176)" offset="0.0632911474" stop-opacity="1" />
			<stop stop-color="rgb(239,201,160)" offset="0.83544302" stop-opacity="1" />
		</linearGradient>
		<linearGradient id="paint_linear_48" x1="24.2606182" x2="20.8961353" y1="4.69841671" y2="7.86197186" gradientUnits="userSpaceOnUse">
			<stop stop-color="rgb(250,194,1)" offset="0" stop-opacity="1" />
			<stop stop-color="rgb(250,194,1)" offset="0.4178949" stop-opacity="0.5" />
			<stop stop-color="rgb(255,255,255)" offset="1" stop-opacity="1" />
		</linearGradient>
		<linearGradient id="paint_linear_49" x1="9.56428432" x2="6.19532585" y1="4.68392754" y2="7.8262229" gradientUnits="userSpaceOnUse">
			<stop stop-color="rgb(250,194,1)" offset="0" stop-opacity="1" />
			<stop stop-color="rgb(250,194,1)" offset="0.4178949" stop-opacity="0.5" />
			<stop stop-color="rgb(255,255,255)" offset="1" stop-opacity="1" />
		</linearGradient>
		<clipPath id="clipPath_35">
			<rect width="32.000004" height="26.236256" x="0.000000" y="3.000000" fill="rgb(255,255,255)" />
		</clipPath>
	</defs>
	<rect id="专家团" width="32.000000" height="32.000000" x="0.000000" y="0.000000" />
	<g id="_图层_1 3" clip-path="url(#clipPath_33)" customFrame="url(#clipPath_33)">
		<rect id="_图层_1 3" width="32.000000" height="31.868765" x="0.000000" y="0.065430" />
		<g id="容器 91333504" clip-path="url(#clipPath_34)" customFrame="url(#clipPath_34)">
			<rect id="容器 91333504" width="80.000000" height="80.000000" x="-19.200195" y="-12.000000" />
			<g id="J8kJrH.tif">
				<g id="组合 3">
					<path id="矢量 15" d="M12.0844 21.3923C12.1657 21.6656 12.2592 21.9358 12.3264 22.2123C12.4749 22.8192 12.6196 23.4267 12.7489 24.0375C12.9563 25.0156 13.0158 26.0098 13.0811 27.0059C13.1554 28.1339 13.0939 29.2574 13.0466 30.3815C13.0146 31.151 12.5735 31.7009 11.8891 31.8853C11.7777 31.9154 11.6587 31.9314 11.5434 31.932C9.38033 31.9346 7.2172 31.9339 5.05408 31.9333C5.03296 31.9333 5.01183 31.9282 4.99071 31.925C4.98494 31.8725 4.9875 31.818 4.97214 31.7681C4.67574 30.7829 4.36654 29.8002 4.1841 28.7849C4.04454 28.0091 3.8749 27.2351 3.90242 26.4387C3.92163 25.8895 3.94147 25.3402 3.96644 24.7909C3.97668 24.5726 3.84225 24.3627 3.65788 24.3345C3.4447 24.3019 3.23025 24.4324 3.20272 24.6315C3.16943 24.871 3.13486 25.1136 3.13806 25.3543C3.14767 26.0316 3.16431 26.7089 3.20208 27.3849C3.22449 27.7824 3.26738 28.1832 3.34676 28.573C3.57786 29.7055 3.85441 30.8264 4.22379 31.9237C3.47799 31.9262 2.7322 31.9448 1.98768 31.9275C1.29502 31.9122 0.723996 31.4103 0.576757 30.7118C0.310448 29.4443 0.060143 28.1742 0.0460594 26.8715C0.0460594 26.8132 0.0146912 26.755 -0.00195312 26.6967C-0.00195312 26.2499 -0.00195312 25.8024 -0.00195312 25.3556C0.0191724 25.2026 0.0479799 25.0508 0.0607832 24.8972C0.20098 23.2705 0.567795 21.7117 1.49924 20.3379C2.37691 19.0435 3.55737 18.155 5.08225 17.7325C5.89526 17.5071 6.70955 17.4476 7.54369 17.5539C7.92331 17.6019 8.30805 17.6044 8.68895 17.6454C9.13834 17.6934 9.52756 17.5539 9.88862 17.3048C10.8469 16.6435 11.6497 15.8376 12.2496 14.8325C12.4723 14.4593 12.715 14.095 12.9819 13.7525C13.3993 13.2174 13.9633 13.1341 14.5349 13.501C15.2353 13.9504 15.6712 14.5553 15.6015 15.4266C15.5605 15.9387 15.3973 16.4201 15.186 16.8881C14.6399 18.0993 13.8711 19.1671 13.0581 20.2067C12.9409 20.3559 12.8091 20.4935 12.6836 20.6363C12.6176 20.5774 12.5306 20.5306 12.4909 20.4577C12.4058 20.3008 12.3552 20.1248 12.2713 19.9673C12.1836 19.8028 11.9096 19.7368 11.7374 19.8213C11.5979 19.8898 11.4935 20.112 11.5543 20.2477C11.7259 20.6311 11.9058 21.0108 12.0825 21.3923L12.0844 21.3923Z" fill="url(#paint_linear_43)" fill-rule="nonzero" />
					<path id="矢量 16" d="M19.3144 20.6361C18.9834 20.2225 18.639 19.8186 18.324 19.3929C17.7543 18.6234 17.2358 17.8213 16.8369 16.9474C16.6199 16.4718 16.449 15.9821 16.3984 15.4591C16.328 14.7312 16.6244 14.1582 17.1756 13.7024C17.2735 13.6211 17.3804 13.5501 17.4886 13.4822C18.0289 13.1455 18.607 13.2242 18.9969 13.7229C19.2709 14.0731 19.5192 14.4469 19.7471 14.8291C20.29 15.7382 21.0191 16.466 21.8405 17.1254C22.457 17.6203 23.1349 17.724 23.8794 17.61C24.791 17.4711 25.7045 17.4301 26.6072 17.642C27.593 17.8738 28.4918 18.2982 29.2683 18.9588C30.2657 19.8071 30.9404 20.8685 31.3668 22.0989C31.7163 23.109 31.8975 24.148 31.9474 25.2126C31.9506 25.2818 31.982 25.3496 31.9999 25.4175L31.9999 26.6306C31.9826 26.7317 31.9532 26.8322 31.95 26.9334C31.9225 27.8264 31.8194 28.7099 31.6421 29.585C31.5685 29.9486 31.5025 30.3135 31.427 30.6771C31.2663 31.4466 30.6773 31.9273 29.8835 31.9299C29.1806 31.9325 28.4771 31.9241 27.7742 31.9209C27.9035 31.4875 28.0514 31.0593 28.1576 30.6208C28.3599 29.7853 28.5603 28.948 28.7191 28.1036C28.81 27.6197 28.8356 27.121 28.8586 26.6274C28.881 26.1498 28.8695 25.671 28.8599 25.1928C28.8561 24.9937 28.8375 24.7908 28.7882 24.5993C28.7511 24.4553 28.639 24.3471 28.4681 24.3318C28.214 24.3094 28.0322 24.4764 28.0347 24.7575C28.036 24.8925 28.0917 25.027 28.0917 25.1614C28.0917 26.1748 28.1199 27.1856 27.9189 28.1939C27.7403 29.0908 27.5591 29.9832 27.2921 30.8583C27.1852 31.2091 27.102 31.5669 27.0073 31.9222C26.5387 31.9254 26.0701 31.9305 25.6015 31.9312C23.9287 31.9325 22.256 31.9331 20.5826 31.9312C19.6409 31.9299 18.9821 31.3141 18.9501 30.3801C18.9162 29.382 18.8727 28.3827 18.897 27.3854C18.9168 26.5711 19.0231 25.758 19.1051 24.9463C19.2049 23.9515 19.4386 22.9829 19.7177 22.0252C19.7798 21.8127 19.8489 21.6014 19.9142 21.3896C20.0775 21.0381 20.2407 20.6867 20.4039 20.3346C20.5038 20.1201 20.4404 19.9197 20.2362 19.8026C20.0704 19.7072 19.8342 19.7751 19.7241 19.9671C19.6562 20.0849 19.6268 20.2238 19.5602 20.3422C19.4981 20.453 19.4981 20.6252 19.3125 20.6342L19.3144 20.6361Z" fill="url(#paint_linear_44)" fill-rule="nonzero" />
					<path id="矢量 17" d="M16.2565 0.0654297C16.325 0.109601 16.3947 0.151852 16.4626 0.197944C16.7251 0.37463 16.8934 0.613412 16.8941 0.936056C16.8979 2.35979 16.9017 3.78416 16.8915 5.20789C16.8883 5.68673 16.4722 6.06827 16.0004 6.06827C15.5286 6.06827 15.1125 5.68609 15.1086 5.20789C15.099 3.78416 15.1029 2.35979 15.1061 0.936056C15.1067 0.612772 15.277 0.37591 15.5375 0.197944C15.6048 0.151852 15.6752 0.109601 15.7437 0.0660698C15.9146 0.0660698 16.0849 0.0660698 16.2558 0.0660698L16.2565 0.0654297Z" fill="url(#paint_linear_45)" fill-rule="nonzero" />
					<path id="矢量 18" d="M9.85529 13.0514C9.83033 14.7466 8.46997 16.1082 6.76329 16.0903C5.05148 16.073 3.70457 14.7242 3.71738 13.0079C3.73018 11.257 5.13791 9.9639 6.80554 9.96582C8.48854 9.96774 9.86233 11.3633 9.85529 13.0508L9.85529 13.0514Z" fill="url(#paint_linear_46)" fill-rule="nonzero" />
					<path id="矢量 19" d="M28.2876 13.0244C28.278 14.7208 26.9272 16.0927 25.2224 16.0908C23.5132 16.0882 22.1618 14.7535 22.1471 13.0353C22.1324 11.3516 23.526 9.96184 25.2109 9.96632C26.9029 9.9708 28.2658 11.3075 28.2876 13.0244Z" fill="url(#paint_linear_47)" fill-rule="nonzero" />
					<path id="矢量 20" d="M24.866 3.30482C25.4287 3.26705 25.9857 3.94947 25.6073 4.6146C25.5452 4.72343 25.4588 4.82201 25.3692 4.91164C24.4371 5.84564 23.5018 6.7758 22.5691 7.70917C22.2753 8.003 21.9462 8.14384 21.5314 7.99084C20.986 7.78919 20.7747 7.17527 21.0903 6.68874C21.1473 6.6004 21.2184 6.51846 21.2926 6.4442C22.2324 5.50315 23.176 4.56595 24.1151 3.62362C24.3289 3.40917 24.5696 3.27537 24.866 3.30418L24.866 3.30482Z" fill="url(#paint_linear_48)" fill-rule="nonzero" />
					<path id="矢量 21" d="M11.0224 7.16019C11.0775 7.68769 10.4572 8.25168 9.81763 7.97C9.68447 7.91111 9.55452 7.82469 9.45145 7.72226C8.49056 6.77225 7.53415 5.81776 6.58094 4.86008C6.29735 4.5752 6.17956 4.23271 6.33832 3.84285C6.5579 3.30383 7.16349 3.12202 7.66026 3.43955C7.74861 3.49588 7.82799 3.57014 7.90289 3.6444C8.83049 4.56752 9.75553 5.4932 10.6838 6.41568C10.8963 6.62694 11.048 6.85868 11.0218 7.15955L11.0224 7.16019Z" fill="url(#paint_linear_49)" fill-rule="nonzero" />
					<path id="矢量 22" d="M4.22509 31.9238C3.85635 30.8272 3.57916 29.7056 3.34806 28.5731C3.26868 28.1833 3.22579 27.7825 3.20338 27.385C3.16497 26.709 3.14897 26.0317 3.13937 25.3544C3.13617 25.1137 3.17074 24.871 3.20402 24.6316C3.23155 24.4325 3.44537 24.3019 3.65918 24.3346C3.84355 24.3628 3.97798 24.5727 3.96774 24.791C3.94214 25.3403 3.92293 25.8895 3.90373 26.4388C3.8762 27.2352 4.04584 28.0091 4.1854 28.785C4.36785 29.7997 4.67705 30.7823 4.97344 31.7682C4.98817 31.8181 4.98625 31.8725 4.99201 31.925C4.73658 31.925 4.48115 31.9244 4.22573 31.9238L4.22509 31.9238Z" fill="rgb(34,195,25)" fill-rule="nonzero" />
					<path id="矢量 23" d="M27.0088 31.924C27.1029 31.5693 27.1861 31.2108 27.2937 30.86C27.5606 29.9849 27.7411 29.0919 27.9204 28.1957C28.1214 27.1874 28.0932 26.1766 28.0932 25.1632C28.0932 25.0288 28.0375 24.8937 28.0363 24.7593C28.0331 24.4782 28.2149 24.3111 28.4696 24.3335C28.6412 24.3489 28.7526 24.4571 28.7897 24.6011C28.8397 24.7925 28.8576 24.9961 28.8614 25.1946C28.871 25.6728 28.8826 26.1523 28.8602 26.6292C28.8371 27.1227 28.8115 27.6214 28.7206 28.1054C28.5618 28.9498 28.3615 29.7871 28.1592 30.6225C28.0529 31.0611 27.905 31.49 27.7757 31.9227C27.5203 31.9227 27.2649 31.9234 27.0094 31.924L27.0088 31.924Z" fill="rgb(141,46,215)" fill-rule="nonzero" />
					<path id="矢量 24" d="M19.3145 20.6362C19.5001 20.6272 19.5001 20.455 19.5622 20.3443C19.6288 20.2259 19.6582 20.0869 19.7261 19.9692C19.8362 19.7777 20.0724 19.7099 20.2382 19.8046C20.4424 19.9218 20.5058 20.1228 20.4059 20.3366C20.2427 20.6881 20.0795 21.0395 19.9162 21.3916C19.7158 21.14 19.5148 20.8878 19.3145 20.6362L19.3145 20.6362Z" fill="rgb(141,46,215)" fill-rule="nonzero" />
					<path id="矢量 25" d="M12.0845 21.392C11.9078 21.0104 11.7279 20.6308 11.5563 20.2474C11.4955 20.1117 11.5992 19.8889 11.7394 19.821C11.9116 19.7365 12.1856 19.8025 12.2733 19.967C12.3572 20.1245 12.4078 20.3005 12.4929 20.4573C12.5326 20.5303 12.6197 20.5771 12.6856 20.636C12.4852 20.8882 12.2849 21.1398 12.0845 21.392L12.0845 21.392Z" fill="rgb(34,195,25)" fill-rule="nonzero" />
				</g>
			</g>
		</g>
	</g>
	<g id="_图层_1 2" opacity="0" clip-path="url(#clipPath_35)" customFrame="url(#clipPath_35)">
		<rect id="_图层_1 2" width="32.000004" height="26.236256" x="0.000000" y="3.000000" opacity="0" />
		<g id="qcUW7o.tif">
			<g id="组合 2">
				<path id="矢量 8" d="M32.0002 18.1773L32.0002 29.2325L31.657 29.2325C29.7002 29.2325 27.7441 29.2325 25.7874 29.2325C25.4398 29.2325 25.4391 29.2312 25.4385 28.8742C25.4385 28.4163 25.4366 27.9591 25.4385 27.5012C25.4404 27.054 25.3439 26.6343 25.0633 26.2792C24.628 25.7286 24.0092 25.3985 23.2757 25.515C22.2842 25.6729 21.6728 26.5091 21.6872 27.4386C21.6954 27.9585 21.6835 28.479 21.6916 28.9988C21.6941 29.1686 21.6465 29.2362 21.4649 29.235C19.6441 29.2262 17.8226 29.225 16.0018 29.2218C16.0018 27.1642 16.003 25.1067 16.0012 23.0485C16.0012 22.62 16.0525 22.6795 15.6135 22.6745C15.0003 22.6676 14.387 22.6626 13.7738 22.657C13.7369 22.6476 13.7006 22.6382 13.6636 22.6282C13.0228 22.5787 12.2831 21.7851 12.2349 21.2007C12.2249 21.1637 12.2155 21.1274 12.2054 21.0905C12.0413 20.176 12.6458 19.1751 13.6624 18.9715L13.6924 18.9752L13.715 18.9565C14.3589 18.9464 15.0028 18.9358 15.6467 18.9264C16.0394 18.9207 16.0012 18.969 16.0012 18.5813C16.0024 16.5137 16.0012 14.446 16.0012 12.3791C16.4791 12.3753 16.957 12.3703 17.4355 12.369C19.2758 12.3647 21.116 12.3615 22.9556 12.3584C23.3784 12.359 23.8006 12.3603 24.2234 12.3609C24.5766 12.3634 24.9299 12.3709 25.2825 12.3678C26.7883 12.3534 28.155 12.7655 29.3633 13.6788C30.5508 14.5763 31.3639 15.7282 31.7547 17.1695C31.8449 17.5033 31.9182 17.8415 31.999 18.1773L32.0002 18.1773Z" fill="rgb(98,159,248)" fill-rule="nonzero" />
				<path id="矢量 9" d="M22.9566 12.3584C22.1931 12.2488 21.4903 11.9738 20.8746 11.5141C19.367 10.3885 18.6442 8.88213 18.9317 7.00994C19.2323 5.05571 20.4005 3.78357 22.2877 3.17851C22.4831 3.1165 22.6798 3.0595 22.8758 3C23.3343 3 23.7922 3 24.2507 3C24.5056 3.07767 24.7643 3.14532 25.0148 3.23488C26.7592 3.85561 27.8109 5.08828 28.183 6.88968C28.3208 7.55676 28.2738 8.22445 28.0796 8.89152C27.6443 10.3873 26.738 11.4452 25.2823 12.0152C24.9372 12.1505 24.577 12.2476 24.2238 12.3622C23.801 12.3615 23.3788 12.3603 22.956 12.3597L22.9566 12.3584Z" fill="rgb(244,188,157)" fill-rule="nonzero" />
				<path id="矢量 10" d="M8.93995 3C9.08902 3.03758 9.23622 3.08143 9.38654 3.11212C11.2318 3.49545 12.6968 4.93733 13.0269 6.7926C13.31 8.38417 12.8985 9.78972 11.7473 10.9679C11.0833 11.6481 10.2897 12.0578 9.37715 12.2638C9.17608 12.3096 8.96813 12.3258 8.76394 12.3553C8.46705 12.3578 8.16953 12.3603 7.87263 12.3622C7.63337 12.302 7.38971 12.2544 7.15545 12.1793C5.34403 11.5986 4.19341 10.3798 3.8439 8.51696C3.31839 5.72153 5.34716 3.39899 7.73985 3.06138C7.78745 3.05449 7.83192 3.0213 7.87764 3C8.23154 3 8.58606 3 8.93995 3Z" fill="rgb(244,188,157)" fill-rule="nonzero" />
				<path id="矢量 11" d="M7.87334 12.3628C8.17023 12.3603 8.46775 12.3578 8.76465 12.356C11.0421 12.3603 13.3195 12.3647 15.597 12.3697C15.7323 12.3697 15.8669 12.376 16.0022 12.3798C16.0022 14.4474 16.0028 16.515 16.0022 18.582C16.0022 18.9697 16.0398 18.9214 15.6477 18.9271C15.0038 18.9365 14.3599 18.9471 13.716 18.9571C13.6953 18.9484 13.6784 18.9534 13.664 18.9722C12.6474 19.1764 12.043 20.1773 12.2071 21.0911C12.2171 21.1281 12.2265 21.1644 12.2365 21.2014C12.2848 21.7858 13.0245 22.5787 13.6653 22.6289C13.7022 22.6383 13.7386 22.6476 13.7755 22.6577C14.3887 22.6633 15.0019 22.6683 15.6151 22.6752C16.0542 22.6802 16.0022 22.6207 16.0028 23.0491C16.0047 25.1067 16.0035 27.1643 16.0035 29.2225C14.182 29.2257 12.3606 29.2269 10.5391 29.2363C10.3594 29.2369 10.3105 29.1774 10.3136 29.0052C10.323 28.4853 10.3161 27.9648 10.3174 27.4443C10.3193 26.7152 10.0174 26.1314 9.40228 25.7581C8.46274 25.1888 7.22756 25.5276 6.78535 26.5029C6.66133 26.7766 6.59557 27.0935 6.5774 27.3954C6.54483 27.9347 6.56362 28.4772 6.57051 29.0177C6.57239 29.173 6.53418 29.2357 6.36381 29.2351C4.31312 29.23 2.26242 29.23 0.211727 29.2351C0.0419844 29.2351 -0.0118824 29.1737 0.00628197 29.0177C0.0112928 28.9764 0.00628197 28.9344 0.00628197 28.8931C0.00628197 25.5947 0.00628197 22.2969 0.00628197 18.9985C0.00628197 18.2851 0.0814449 17.5835 0.306934 16.9008C0.694023 15.7283 1.3636 14.7367 2.29124 13.9394C3.18192 13.174 4.21603 12.6892 5.39045 12.4812C6.21975 12.334 7.0478 12.4011 7.87584 12.3622L7.87334 12.3628Z" fill="rgb(234,90,85)" fill-rule="nonzero" />
				<path id="矢量 12" d="M12.2355 21.202C12.2255 21.1651 12.2161 21.1288 12.2061 21.0918C12.2161 21.1288 12.2255 21.1651 12.2355 21.202Z" fill="rgb(244,188,157)" fill-rule="nonzero" />
				<path id="矢量 13" d="M13.7738 22.6577C13.7369 22.6483 13.7005 22.6389 13.6636 22.6289C13.7005 22.6383 13.7369 22.6477 13.7738 22.6577Z" fill="rgb(244,188,157)" fill-rule="nonzero" />
				<path id="矢量 14" d="M13.6627 18.9723C13.6771 18.9536 13.6947 18.9485 13.7147 18.9573L13.6922 18.9761L13.6621 18.9723L13.6627 18.9723Z" fill="rgb(244,188,157)" fill-rule="nonzero" />
			</g>
		</g>
	</g>
</svg>
