<svg viewBox="0 0 44 44" xmlns="http://www.w3.org/2000/svg" xmlns:xlink="http://www.w3.org/1999/xlink" width="44.000000" height="44.000000" fill="none" customFrame="#000000">
	<defs>
		<clipPath id="clipPath_0">
			<rect width="44.000000" height="44.000000" x="0.000000" y="0.000000" fill="rgb(255,255,255)" />
		</clipPath>
		<clipPath id="clipPath_1">
			<rect width="44.000000" height="44.000000" x="0.000000" y="0.000000" fill="rgb(255,255,255)" />
		</clipPath>
	</defs>
	<g id="模型">
		<g id="下载 4" clip-path="url(#clipPath_0)" customFrame="url(#clipPath_0)">
			<rect id="下载 4" width="44.000000" height="44.000000" x="0.000000" y="0.000000" />
			<rect id="下载 3" width="44.000000" height="44.000000" x="0.000000" y="0.000000" />
			<rect id="矩形" width="44.000015" height="44.000004" x="0.000000" y="0.000000" rx="5.500000" fill="rgb(92,179,0)" />
			<g id="矩形 8260" clip-path="url(#clipPath_1)" customFrame="url(#clipPath_1)">
				<rect id="矩形 8260" width="44.000000" height="44.000000" x="0.000000" y="0.000000" />
				<rect id="下载 3" width="44.000000" height="44.000000" x="0.000000" y="0.000000" />
				<path id="矢量 315" d="M33.4483 15.1413C33.8159 14.312 33.4445 13.3386 32.616 12.9693L23.2614 8.53256C23.0625 8.43941 22.8566 8.36901 22.6437 8.32143C22.4309 8.27379 22.2156 8.25 21.9981 8.25C21.7805 8.25 21.5653 8.27379 21.3524 8.32143C21.1396 8.36901 20.9337 8.43941 20.7347 8.53256L11.382 12.9693C11.1999 13.0487 11.0371 13.1601 10.894 13.3035C10.7509 13.4467 10.6367 13.6125 10.5516 13.8006C10.184 14.6299 10.5554 15.6034 11.382 15.9726L21.2237 20.6167C21.4625 20.743 21.7275 20.8142 22.0018 20.8181C22.2738 20.8079 22.5325 20.7407 22.7781 20.6167L32.6198 15.9726C32.8012 15.8919 32.9634 15.7798 33.1061 15.6363C33.2488 15.4927 33.3629 15.3271 33.4483 15.1394M20.1768 22.0719L11.3037 17.8958C11.1858 17.8293 11.062 17.779 10.9324 17.7447C10.8028 17.7105 10.6712 17.6934 10.5377 17.6934C10.4041 17.6934 10.2725 17.7105 10.1429 17.7447C10.0133 17.779 9.88955 17.8293 9.77165 17.8958C9.64728 17.9669 9.53384 18.054 9.4314 18.1571C9.32903 18.2601 9.2411 18.3756 9.16782 18.5036C9.09453 18.6315 9.03829 18.7673 8.99924 18.9111C8.96019 19.0548 8.93964 19.2015 8.9375 19.3511L8.9375 30.0077C8.93716 30.1668 8.95785 30.3229 8.99945 30.4758C9.04111 30.6287 9.10202 30.7726 9.18232 30.9072C9.26262 31.0417 9.35908 31.1618 9.47162 31.2674C9.58424 31.373 9.70847 31.4599 9.84439 31.528L18.7362 35.7101C18.9641 35.8307 19.2054 35.892 19.4602 35.8937C19.7429 35.8832 20.0067 35.8029 20.2514 35.6528C20.3743 35.5802 20.4863 35.4921 20.5874 35.3884C20.6885 35.2848 20.7753 35.1692 20.8478 35.0416C20.9203 34.9139 20.976 34.7786 21.0151 34.6356C21.0541 34.4924 21.0751 34.3465 21.0781 34.1976L21.0781 23.5272C21.071 23.3744 21.0451 23.2253 21.0004 23.0799C20.9556 22.9345 20.8937 22.7978 20.8145 22.6699C20.7352 22.542 20.6415 22.4273 20.5334 22.3259C20.4252 22.2244 20.3063 22.1398 20.1768 22.0719ZM35.0624 30.0096L35.0624 19.355C35.0598 19.2055 35.0389 19.059 34.9996 18.9154C34.9603 18.7718 34.904 18.6361 34.8308 18.5083C34.7575 18.3805 34.6698 18.265 34.5676 18.1618C34.4654 18.0586 34.3523 17.9712 34.2282 17.8997C34.1139 17.8324 33.9936 17.7806 33.8673 17.7442C33.741 17.7079 33.6124 17.688 33.4815 17.6848C33.3507 17.6815 33.2214 17.6949 33.0936 17.7249C32.9658 17.7549 32.8433 17.8007 32.7261 17.8622L23.7914 22.072C23.664 22.1413 23.5476 22.2271 23.442 22.3294C23.3364 22.4318 23.2453 22.547 23.1689 22.6751C23.0924 22.8033 23.0332 22.9397 22.9913 23.0847C22.9494 23.2295 22.9262 23.3777 22.9218 23.5291L22.9218 34.2312C22.9292 34.8255 23.2409 35.3764 23.7485 35.6863C23.991 35.8226 24.2635 35.8957 24.5396 35.8957C24.7916 35.8957 25.0416 35.8364 25.2637 35.7121L34.1909 31.528C34.3234 31.4573 34.4441 31.3686 34.5531 31.262C34.662 31.1554 34.7551 31.0351 34.8321 30.9008C34.9091 30.7666 34.9672 30.6238 35.0063 30.4723C35.0455 30.3208 35.0642 30.1666 35.0624 30.0096Z" fill="rgb(255,255,255)" fill-rule="nonzero" />
			</g>
		</g>
	</g>
</svg>
