<svg viewBox="0 0 80.001 80" xmlns="http://www.w3.org/2000/svg" xmlns:xlink="http://www.w3.org/1999/xlink" width="80.000977" height="80.000000" fill="none" customFrame="#000000">
	<rect id="暂无数据-no-data" width="80.000000" height="80.000000" x="0.000000" y="0.000000" fill="rgb(255,255,255)" fill-opacity="0" />
	<g id="数据为空">
		<g id="编组">
			<path id="矩形备份" d="M12.5 24.875L69.68 24.875C71.7897 24.875 73.5 26.5853 73.5 28.695L73.5 70.1063C73.5 72.1877 71.8127 73.875 69.7313 73.875L16.2687 73.875C14.1873 73.875 12.5 72.1877 12.5 70.1063L12.5 24.875Z" fill="rgb(240,240,240)" fill-rule="evenodd" />
			<path id="矩形" d="M8.81909 25.375L56.5 25.375L56.5 70.1063C56.5 72.1877 54.8127 73.875 52.7313 73.875L11.2687 73.875C9.18729 73.875 7.5 72.0814 7.5 70L7.5 39.5L0.5 39.5C0.5 38.7715 8.09061 25.375 8.81909 25.375Z" fill="rgb(255,254.745,254.745)" fill-rule="evenodd" />
			<path id="矩形备份-4" d="M56.2959 25.3749L70.0916 25.3749C70.7744 25.3749 71.608 25.2443 71.941 25.8404L78.7174 37.9733C78.9712 38.4276 79.4545 39.1212 79.0002 39.3749C78.8598 39.4534 78.0557 39.3749 77.8949 39.3749L66.2246 39.3749C64.8098 39.3749 63.5141 38.5825 62.8696 37.3229L56.2959 25.3749Z" fill="rgb(255,254.745,254.745)" fill-rule="evenodd" />
		</g>
		<g id="编组">
			<path id="矩形备份" d="M73.619 39.3911L73.619 70.0621C73.619 72.2368 71.8548 73.9996 69.6786 73.9996L52.5977 73.9996L52.5977 73.1246L69.6786 73.1246C71.3712 73.1246 72.7434 71.7535 72.7434 70.0621L72.7434 39.3911L73.619 39.3911Z" fill="rgb(128,128,128)" fill-rule="nonzero" />
			<path id="矩形" d="M56.9202 25.0005L56.9202 70.0621C56.9202 72.2367 55.156 73.9996 52.9798 73.9996L10.9483 73.9996C8.77201 73.9996 7.00781 72.2367 7.00781 70.0621L7.00781 39.3911L7.88347 39.3911L7.88347 70.0621C7.88347 71.7535 9.25563 73.1246 10.9483 73.1246L52.9798 73.1246C54.6724 73.1246 56.0446 71.7535 56.0446 70.0621L56.0446 25.8755L10.6716 25.8755L10.6716 25.0005L56.9202 25.0005Z" fill="rgb(128,128,128)" fill-rule="nonzero" />
			<path id="矩形" d="M47.6109 0C48.2047 0 48.7566 0.312949 49.0717 0.828254L56.9113 13.6494C57.1639 14.0625 57.0416 14.6069 56.6382 14.8655C56.5011 14.9534 56.3427 15 56.1809 15L11.3545 15C10.1852 15 9.0957 14.3931 8.4605 13.3879L0 0L47.6109 0ZM47.3915 1L1.86778 1L9.3849 12.8125C9.85608 13.5529 10.6643 14 11.5316 14L55.8678 14L48.1139 1.40676C47.9581 1.15369 47.6851 1 47.3915 1Z" fill="rgb(128,128,128)" fill-rule="nonzero" transform="matrix(-1,0,0,1,57.043,25)" />
			<path id="矩形备份-4" d="M70.7516 25C71.315 25 71.8397 25.3031 72.1441 25.8045L79.8692 38.5272C80.1161 38.9339 80.0045 39.4752 79.62 39.7363C79.4866 39.8269 79.3314 39.875 79.1729 39.875L66.1499 39.875C64.977 39.875 63.8917 39.2186 63.2971 38.1496L55.9824 25L70.7516 25ZM70.7285 26L57.8004 26L64.1868 37.7183C64.6196 38.5124 65.4095 39 66.2631 39L78.9004 39L71.4041 26.3984C71.2564 26.1501 71.0019 26 70.7285 26Z" fill="rgb(128,128,128)" fill-rule="nonzero" />
			<g id="编组-2">
				<rect id="矩形" width="14.000000" height="4.000000" x="13.500000" y="56.000000" rx="1.886225" fill="rgb(20,118,255)" />
				<path id="矩形备份-2" d="M23.5625 63C23.8041 63 24 63.2239 24 63.5C24 63.7761 23.8041 64 23.5625 64L13.9375 64C13.6959 64 13.5 63.7761 13.5 63.5C13.5 63.2239 13.6959 63 13.9375 63L23.5625 63Z" fill="rgb(128,128,128)" fill-rule="nonzero" />
				<rect id="矩形备份-3" width="5.000000" height="1.000000" x="13.500000" y="66.000000" rx="0.500000" fill="rgb(128,128,128)" />
			</g>
		</g>
		<g id="编组-3">
			<path id="路径备份" d="M40.0003 6C40.2782 6 40.5035 6.19725 40.5035 6.44058L40.5035 12.6086C40.5035 12.852 40.2782 13.0492 40.0003 13.0492C39.7224 13.0492 39.4971 12.852 39.4971 12.6086L39.4971 6.44058C39.4971 6.19725 39.7224 6 40.0003 6Z" fill="rgb(128,128,128)" fill-rule="nonzero" />
			<path id="路径备份" d="M0.503237 0C0.78117 0 1.00647 0.197253 1.00647 0.440575L1.00647 6.60863C1.00647 6.85195 0.78117 7.04921 0.503237 7.04921C0.225307 7.04921 0 6.85195 0 6.60863L0 0.440575C0 0.197253 0.225307 0 0.503237 0Z" fill="rgb(128,128,128)" fill-rule="nonzero" transform="matrix(0.866025,0.5,-0.5,0.866025,56.1172,8.3916)" />
			<path id="路径备份" d="M0.503238 0C0.781168 0 1.00648 0.197253 1.00648 0.440575L1.00648 6.60863C1.00648 6.85195 0.781168 7.0492 0.503238 7.0492C0.225307 7.0492 0 6.85195 0 6.60863L0 0.440575C0 0.197253 0.225307 0 0.503238 0Z" fill="rgb(128,128,128)" fill-rule="nonzero" transform="matrix(0.866025,-0.5,0.5,0.866025,23.0117,8.89502)" />
		</g>
	</g>
</svg>
