<svg viewBox="0 0 80 80" xmlns="http://www.w3.org/2000/svg" xmlns:xlink="http://www.w3.org/1999/xlink" width="80.000000" height="80.000000" fill="none">
	<rect id="暂无搜索结果-no-search-results" width="80.000000" height="80.000000" x="0.000000" y="0.000000" />
	<g id="缺省提示/暂无搜索结果">
		<g id="01小容器/01背景/文档">
			<path id="矩形备份-2" d="M55.1348 10L63.3395 10C65.589 10 67.4126 11.8236 67.4126 14.0731L67.4126 22.9817C67.4126 23.5441 66.9567 24 66.3943 24L55.1348 24L55.1348 10Z" fill="rgb(240,240,240)" fill-rule="evenodd" />
			<path id="矩形备份-2" d="M63.32 10C65.5803 10 67.4126 11.7909 67.4126 14L67.4126 23C67.4126 23.5523 66.9545 24 66.3895 24L55.1348 24L55.1348 10L63.32 10ZM63.32 10.9009L56.0565 10.9009L56.0565 23.0991L66.3895 23.0991C66.4455 23.0991 66.4909 23.0547 66.4909 23L66.4909 14C66.4909 12.2884 65.0712 10.9009 63.32 10.9009Z" fill="rgb(128,128,128)" fill-rule="nonzero" />
			<path id="矩形" d="M14.5278 10L63.3017 10C63.4855 10.5692 63.5773 10.8538 63.5773 10.8538C59.1419 10.8538 59.7107 13.6103 59.7107 22.1441C59.7107 26.4567 59.7107 29.9095 59.7107 32.5026L59.7107 67.5875C59.7107 70.0244 57.7351 72 55.2982 72L14.5278 72C12.0908 72 10.1152 70.0244 10.1152 67.5875L10.1152 14.4125C10.1152 11.9756 12.0908 10 14.5278 10Z" fill="rgb(255,254.928,254.745)" fill-rule="evenodd" />
			<path id="矩形" d="M14.5489 10L63.3017 10L63.5773 10.8538L63.3197 10.8571C59.2066 10.9641 59.7 13.7221 59.7105 21.8899L59.7107 67.6667C59.7107 70.0599 57.7257 72 55.277 72L14.5489 72C12.1003 72 10.1152 70.0599 10.1152 67.6667L10.1152 14.3333C10.1152 11.9401 12.1003 10 14.5489 10ZM14.5489 10.9009C12.6093 10.9009 11.037 12.4377 11.037 14.3333L11.037 67.6667C11.037 69.5623 12.6093 71.0991 14.5489 71.0991L55.277 71.0991C57.2166 71.0991 58.7889 69.5623 58.7889 67.6667L58.7872 21.2849L58.7683 18.131L58.7711 16.8687C58.791 14.4557 58.9062 13.5059 59.2517 12.5059C59.4854 11.8292 59.824 11.2994 60.2818 10.9021L14.5489 10.9009Z" fill="rgb(128,128,128)" fill-rule="nonzero" />
			<path id="路径备份-3" d="M55.5048 72.0002C56.8664 72.0002 42.1426 72.0002 11.3333 72.0002C7.83553 72.0002 5 69.1646 5 65.6668L5 60.0123C5 59.6374 5.30393 59.3335 5.67885 59.3335L50.455 59.3335C50.8299 59.3335 51.1339 59.6374 51.1339 60.0123C51.1339 62.4949 51.1339 64.9775 51.1339 67.4601C51.1339 69.0893 52.2653 71.1114 54.6835 71.1114C56.2024 71.1114 54.7664 72.0002 55.5048 72.0002Z" fill="rgb(255,254.928,254.745)" fill-rule="evenodd" />
			<path id="路径备份-3" d="M50.4517 59.3335C50.8285 59.3335 51.1339 59.632 51.1339 60.0002L51.1339 67.4601C51.1339 69.0547 52.2177 71.0256 54.5309 71.1087L54.6835 71.1114C56.2023 71.1114 54.7664 72.0002 55.5048 72.0002L11.48 72.0002C7.90118 72.0002 5 69.1646 5 65.6668L5 60.0002C5 59.632 5.30539 59.3335 5.6821 59.3335L50.4517 59.3335ZM50.2119 60.2344L5.92176 60.2344L5.92176 65.6668C5.92176 68.6216 8.33542 71.0254 11.3408 71.0976L11.48 71.0993L51.9323 71.0993C50.8927 70.2745 50.2479 68.9684 50.2136 67.5827L50.2121 67.4601L50.2119 60.2344Z" fill="rgb(128,128,128)" fill-rule="nonzero" />
		</g>
		<g id="编组-2">
			<path id="Fill-1" d="M65.7049 55.783L63.1428 53.2791C62.9237 53.0657 62.9237 52.7185 63.1428 52.5044C63.362 52.2902 63.7172 52.2902 63.9355 52.5044L66.4975 55.0083C66.7166 55.2224 66.7166 55.5688 66.4975 55.783C66.3884 55.8904 66.2448 55.9437 66.1012 55.9437C65.9576 55.9437 65.814 55.8904 65.7049 55.783Z" fill="rgb(128,128,128)" fill-rule="evenodd" />
			<path id="Fill-1" d="M63.9355 52.5044L66.4975 55.0083C66.7166 55.2224 66.7166 55.5688 66.4975 55.783C66.3884 55.8904 66.2448 55.9437 66.1012 55.9437C65.9576 55.9437 65.814 55.8904 65.7049 55.783L63.1428 53.2791C62.9237 53.0657 62.9237 52.7185 63.1428 52.5044C63.362 52.2902 63.7172 52.2902 63.9355 52.5044Z" fill="rgb(128,128,128)" fill-rule="nonzero" />
			<path id="矩形" d="M1.82513 0C2.84035 0.00452995 3.66222 0.815092 3.66681 1.81636L3.7 9.04907C3.70436 10.0046 2.94963 10.7888 1.9944 10.8458L1.87488 10.8491C0.859659 10.8445 0.037796 10.034 0.033205 9.03271L1.90735e-05 1.8C-0.00434494 0.84449 0.750385 0.0602741 1.70561 0.00329781L1.82513 0ZM1.82014 1.08771C1.42581 1.08947 1.10113 1.40617 1.1029 1.79508L1.13608 9.02779C1.13782 9.40838 1.43195 9.72075 1.80422 9.7577L1.88633 9.76136C2.28066 9.7596 2.59889 9.4429 2.59711 9.05399L2.56394 1.82128C2.56208 1.4169 2.23016 1.08954 1.82014 1.08771Z" fill="rgb(128,128,128)" fill-rule="nonzero" transform="matrix(0.707107,-0.707107,0.707107,0.707107,64.6797,56.5508)" />
			<path id="矩形" d="M1.84168 0C2.85881 0 3.68335 0.805887 3.68335 1.8L3.68335 9C3.68335 9.95983 2.91469 10.7442 1.94618 10.7972L1.84168 10.8C0.824547 10.8 0 9.99411 0 9L0 1.8C0 0.840168 0.768661 0.0558033 1.73717 0.00284958L1.84168 0ZM1.84168 0.9C1.33311 0.9 0.920839 1.30294 0.920839 1.8L0.920839 9C0.920839 9.49706 1.33311 9.9 1.84168 9.9C2.35024 9.9 2.76252 9.49706 2.76252 9L2.76252 1.8C2.76252 1.30294 2.35024 0.9 1.84168 0.9Z" fill="rgb(128,128,128)" fill-rule="nonzero" transform="matrix(0.707107,-0.707107,0.707107,0.707107,64.7031,56.562)" />
			<path id="路径" d="M55.2316 31.0127C62.3402 31.0127 68.1233 36.6649 68.1233 43.6127C68.1233 50.5605 62.3402 56.2127 55.2316 56.2127C48.1229 56.2127 42.3398 50.5605 42.3398 43.6127C42.3398 36.6649 48.1229 31.0127 55.2316 31.0127Z" fill="rgb(255,254.928,254.745)" fill-rule="evenodd" />
			<path id="路径" d="M55.2316 31.0127C62.3402 31.0127 68.1233 36.6649 68.1233 43.6127C68.1233 50.5605 62.3402 56.2127 55.2316 56.2127C48.1229 56.2127 42.3398 50.5605 42.3398 43.6127C42.3398 36.6649 48.1229 31.0127 55.2316 31.0127ZM55.2316 32.1004C48.7298 32.1004 43.4427 37.2679 43.4427 43.6127C43.4427 49.9575 48.7298 55.125 55.2316 55.125C61.7334 55.125 67.0204 49.9575 67.0204 43.6127C67.0204 37.2679 61.7334 32.1004 55.2316 32.1004Z" fill="rgb(128,128,128)" fill-rule="nonzero" />
			<path id="路径" d="M55.2316 31.0127C62.3402 31.0127 68.1233 36.6649 68.1233 43.6127C68.1233 50.5605 62.3402 56.2127 55.2316 56.2127C48.1229 56.2127 42.3398 50.5605 42.3398 43.6127C42.3398 36.6649 48.1229 31.0127 55.2316 31.0127ZM55.2316 31.9127C48.6315 31.9127 43.2607 37.162 43.2607 43.6127C43.2607 50.0634 48.6315 55.3127 55.2316 55.3127C61.8317 55.3127 67.2025 50.0634 67.2025 43.6127C67.2025 37.162 61.8317 31.9127 55.2316 31.9127Z" fill="rgb(128,128,128)" fill-rule="nonzero" />
			<path id="路径" d="M55.2316 31.0127C62.3402 31.0127 68.1233 36.6649 68.1233 43.6127C68.1233 50.491 62.4553 56.0995 55.4444 56.211L55.2316 56.2127C48.1229 56.2127 42.3398 50.5605 42.3398 43.6127C42.3398 36.7344 48.0078 31.1259 55.0187 31.0144L55.2316 31.0127ZM55.2316 31.9127C48.6315 31.9127 43.2607 37.162 43.2607 43.6127C43.2607 50.0634 48.6315 55.3127 55.2316 55.3127C61.8317 55.3127 67.2025 50.0634 67.2025 43.6127C67.2025 37.162 61.8317 31.9127 55.2316 31.9127Z" fill="rgb(128,128,128)" fill-rule="nonzero" />
		</g>
		<path id="Fill-1" d="M24 16C19.5888 16 16 19.5888 16 24C16 28.4112 19.5888 32 24 32C28.4112 32 32 28.4112 32 24C32 19.5888 28.4112 16 24 16Z" fill="rgb(20,118,255)" fill-rule="nonzero" />
		<path id="形状结合" d="M4.5 8.62104e-33C4.77614 -5.07265e-17 5 0.223858 5 0.5L5 3.9995L8.5 4C8.77614 4 9 4.22386 9 4.5C9 4.77614 8.77614 5 8.5 5L5 5L5 8.5C5 8.77614 4.77614 9 4.5 9C4.22386 9 4 8.77614 4 8.5L4 5L0.5 5C0.223858 5 0 4.77614 0 4.5C0 4.22386 0.223858 4 0.5 4L4 4L4 0.5C4 0.223858 4.22386 5.07265e-17 4.5 8.62104e-33Z" fill="rgb(255,255,255)" fill-rule="evenodd" transform="matrix(0.707107,0.707107,-0.707107,0.707107,24,17.6362)" />
	</g>
</svg>
