<svg viewBox="0 0 186 54" xmlns="http://www.w3.org/2000/svg" xmlns:xlink="http://www.w3.org/1999/xlink" width="186.000000" height="54.000000" fill="none" customFrame="#000000">
	<defs>
		<linearGradient id="paint_linear_0" x1="14.1529922" x2="21.940464" y1="12.1382484" y2="65.3863602" gradientUnits="userSpaceOnUse">
			<stop stop-color="rgb(255,173,66)" offset="0" stop-opacity="1" />
			<stop stop-color="rgb(243,170,64)" offset="0.132735774" stop-opacity="1" />
			<stop stop-color="rgb(255,162,0)" offset="0.388198346" stop-opacity="1" />
			<stop stop-color="rgb(255,35,155)" offset="0.746195734" stop-opacity="1" />
			<stop stop-color="rgb(204,26,167)" offset="0.999461949" stop-opacity="1" />
		</linearGradient>
		<linearGradient id="paint_linear_1" x1="185.577179" x2="177.970093" y1="11.138669" y2="61.8442574" gradientUnits="userSpaceOnUse">
			<stop stop-color="rgb(123,72,255)" offset="0" stop-opacity="1" />
			<stop stop-color="rgb(200,27,181)" offset="0.23677884" stop-opacity="0.737254918" />
			<stop stop-color="rgb(255,100,84)" offset="0.503589869" stop-opacity="0.443137258" />
			<stop stop-color="rgb(255,119,49)" offset="0.715830922" stop-opacity="0.349019617" />
			<stop stop-color="rgb(255,92,12)" offset="1" stop-opacity="1" />
		</linearGradient>
	</defs>
	<rect id="OfficeClaw" width="186.000000" height="54.000000" x="0.000000" y="0.000000" />
	<path id="合并" d="M46.6816 13.1777Q44.7744 15.208 44.7744 19.4531L44.7744 20.3496L37.04 20.3496L37.04 19.8838Q37.04 17.5107 37.7168 16.5C37.8989 16.2315 38.1155 16.0164 38.3665 15.8549C38.7453 15.6111 39.2026 15.4893 39.7383 15.4893Q40.0772 15.4893 40.3999 15.5616L40.4 15.5617Q41.2404 15.7502 41.9707 16.4297L43.8779 12.8262Q43.2275 12.0703 42.0586 11.6045Q40.8896 11.1387 39.3076 11.1387Q37.062 11.1387 35.4022 12.1247C34.9106 12.4167 34.4575 12.7736 34.043 13.1953Q32.0303 15.2432 32.0303 19.4531L32.0303 20.3496L28.8311 20.3496L28.8311 24.5244L32.0303 24.5244L32.0303 39L37.04 39L37.04 24.5244L44.7744 24.5244L44.7744 39L49.7842 39L49.7842 24.5244L54.4248 24.5244L54.4248 20.3496L49.7842 20.3496L49.7842 19.9189Q49.7842 17.4756 50.5576 16.4824C50.6975 16.3028 50.8554 16.1476 51.0315 16.0167C51.5045 15.6651 52.1083 15.4893 52.8428 15.4893C53.1271 15.4893 53.4064 15.5158 53.6805 15.5688C54.1237 15.6546 54.5534 15.8097 54.9697 16.0342L54.9697 11.6748Q53.5986 11.1387 51.9023 11.1387Q49.4105 11.1387 47.7083 12.298C47.338 12.5501 46.9958 12.8434 46.6816 13.1777ZM134.278 39L129.268 39L129.268 11.6045L134.278 11.6045L134.278 39ZM58.4704 17.7769C58.8001 17.91 59.1566 17.9766 59.54 17.9766C59.8979 17.9766 60.2337 17.9177 60.5475 17.8001C60.9478 17.65 61.3122 17.4041 61.6406 17.0625Q62.1589 16.5237 62.3746 15.883C62.4771 15.5786 62.5283 15.2569 62.5283 14.918Q62.5283 14.2783 62.3016 13.7329L62.3015 13.7328L62.3014 13.7326Q62.0795 13.1991 61.6406 12.7559C61.321 12.4299 60.9675 12.1928 60.5799 12.0446C60.2569 11.9211 59.9103 11.8594 59.54 11.8594C59.1436 11.8594 58.776 11.9292 58.437 12.0687C58.0746 12.218 57.745 12.447 57.4482 12.7559Q57.0453 13.1752 56.8309 13.6754L56.8307 13.6758Q56.5869 14.2446 56.5869 14.918C56.5869 15.2757 56.6423 15.6142 56.7531 15.9335C56.8945 16.3412 57.1262 16.7175 57.4482 17.0625C57.7541 17.387 58.0948 17.6252 58.4704 17.7769ZM1.82959 25.79Q1.82959 21.6504 3.48193 18.5566Q4.67256 16.3329 6.47728 14.8632L6.4773 14.8631Q7.19046 14.2824 7.99951 13.8193C8.47737 13.5452 8.96916 13.3054 9.47488 13.0999L9.4749 13.0999Q11.7486 12.1758 14.3979 12.1758Q17.0341 12.1758 19.2965 13.0953L19.2966 13.0953C19.8048 13.3018 20.2989 13.5432 20.7788 13.8193Q21.5981 14.2868 22.3197 14.8743L22.3207 14.8751L22.3208 14.8752L22.3209 14.8752Q24.122 16.342 25.314 18.5566Q26.9927 21.6504 26.9927 25.79Q26.9927 29.9648 25.314 33.0586C24.5289 34.513 23.5458 35.727 22.3645 36.7006C21.8706 37.1077 21.342 37.4728 20.7788 37.7959Q20.0786 38.1966 19.3383 38.4991L19.3382 38.4992Q17.0584 39.4307 14.3979 39.4307C12.6154 39.4307 10.9604 39.1186 9.4329 38.4945C8.94193 38.2938 8.46413 38.061 7.99951 37.7959C7.44369 37.4761 6.92181 37.1151 6.43387 36.7129C5.2501 35.7372 4.26612 34.5191 3.48193 33.0586Q1.82959 29.9648 1.82959 25.79ZM116.45 34.6406C117.466 34.6406 118.369 34.4293 119.159 34.0066C119.362 33.8979 119.558 33.7753 119.746 33.6387Q121.135 32.6279 121.961 30.8262L126.32 33.3486C126.145 33.8284 125.929 34.285 125.675 34.7185C124.988 35.8894 124.013 36.8917 122.752 37.7256C122.615 37.8155 122.476 37.9019 122.335 37.9847C120.695 38.9487 118.771 39.4307 116.564 39.4307C115.009 39.4307 113.544 39.1804 112.171 38.6797C111.486 38.4299 110.823 38.1177 110.184 37.7432C109.627 37.4147 109.104 37.0464 108.613 36.6383C107.416 35.6415 106.416 34.4073 105.613 32.9355Q103.926 29.8242 103.926 25.79Q103.926 21.7559 105.596 18.6621C106.343 17.2843 107.271 16.1144 108.38 15.1524C108.931 14.6743 109.526 14.2475 110.166 13.8721C110.85 13.4721 111.559 13.1429 112.292 12.8844C113.633 12.412 115.057 12.1758 116.564 12.1758Q119.849 12.1758 122.297 13.6069L122.298 13.6071C122.452 13.697 122.603 13.7912 122.752 13.8896C124.013 14.7235 124.988 15.7258 125.675 16.8967C125.929 17.3302 126.145 17.7869 126.32 18.2666L121.961 20.7803Q121.135 18.9873 119.746 17.9766C119.548 17.8315 119.342 17.7021 119.127 17.5882L119.127 17.5881Q117.953 16.9658 116.45 16.9658C115.591 16.9658 114.791 17.1135 114.05 17.4088C113.633 17.5748 113.235 17.7875 112.855 18.0469C112.818 18.0722 112.782 18.0979 112.745 18.124C111.742 18.8402 110.944 19.8428 110.351 21.1318Q109.437 23.127 109.437 25.79Q109.437 28.4531 110.351 30.4746C110.949 31.7796 111.755 32.7909 112.769 33.5084C112.798 33.5286 112.827 33.5486 112.855 33.5684C113.225 33.8191 113.613 34.0259 114.019 34.1887C114.769 34.49 115.579 34.6406 116.45 34.6406ZM7.34033 25.79Q7.34033 28.418 8.21924 30.4395C8.7409 31.6341 9.45299 32.5872 10.3555 33.2988C10.4667 33.3864 10.5808 33.4704 10.6978 33.5508C11.0072 33.7605 11.3301 33.9399 11.6665 34.0891C12.4954 34.4568 13.4059 34.6406 14.3979 34.6406C15.3817 34.6406 16.2845 34.4583 17.1065 34.0937C17.4449 33.9436 17.7696 33.7627 18.0806 33.5508C18.2131 33.4602 18.342 33.365 18.4671 33.2651C19.3541 32.5573 20.0544 31.6154 20.5679 30.4395Q21.4468 28.418 21.4468 25.79Q21.4468 23.1621 20.5679 21.167C20.0594 20.0077 19.3679 19.0757 18.4932 18.3709C18.3599 18.2634 18.2224 18.1613 18.0806 18.0645C17.7595 17.8439 17.4238 17.6566 17.0736 17.5025L17.0735 17.5025Q15.8538 16.9658 14.3979 16.9658Q12.9298 16.9658 11.6997 17.507C11.3514 17.6603 11.0174 17.8461 10.6978 18.0645C10.5717 18.151 10.449 18.2418 10.3296 18.3369L10.3296 18.3369Q8.99422 19.4 8.21924 21.167Q7.34033 23.1621 7.34033 25.79ZM75.1294 35.0801C75.6313 35.0801 76.0985 34.9934 76.5309 34.8201C77.3353 34.4977 78.0195 33.8753 78.5835 32.9531L82.3979 35.1855C82.0756 35.9346 81.6509 36.5865 81.1239 37.1412C80.6739 37.6149 80.1494 38.0177 79.5503 38.3496C79.4371 38.4126 79.3225 38.4729 79.2066 38.5304C77.9963 39.1306 76.6373 39.4307 75.1294 39.4307C74.1653 39.4307 73.2379 39.3029 72.3471 39.0474C71.7057 38.8635 71.0834 38.6133 70.48 38.2969C70.0435 38.068 69.6323 37.8061 69.2463 37.5111C68.3577 36.832 67.6029 35.9777 66.9819 34.9482Q65.6548 32.7334 65.6548 29.6748Q65.6548 26.5811 66.9819 24.3662C67.6029 23.3368 68.3577 22.4825 69.2463 21.8034C69.6323 21.5084 70.0435 21.2465 70.48 21.0176C71.0834 20.7012 71.7057 20.451 72.3471 20.267L72.3476 20.2669L72.3477 20.2669Q73.6836 19.8838 75.1294 19.8838Q77.3912 19.8838 79.2066 20.7841C79.3225 20.8416 79.4371 20.9018 79.5503 20.9648C80.1494 21.2968 80.6739 21.6996 81.1239 22.1732C81.6509 22.7279 82.0756 23.3798 82.3979 24.1289L78.5835 26.3613C78.068 25.513 77.4378 24.9238 76.6927 24.5937C76.2182 24.3834 75.6971 24.2783 75.1294 24.2783C74.405 24.2783 73.7614 24.4292 73.1987 24.7308C72.751 24.9709 72.3546 25.3063 72.0093 25.7373Q70.8403 27.1963 70.8403 29.6748Q70.8403 32.127 72.0269 33.6035Q72.6181 34.3339 73.3835 34.703L73.3837 34.7031Q74.1657 35.0801 75.1294 35.0801ZM92.979 19.8838Q95.2628 19.8838 97.0725 20.8101L97.0733 20.8105C97.1805 20.8653 97.2864 20.9227 97.3911 20.9824C97.9362 21.2936 98.4296 21.6592 98.8711 22.0793C99.4688 22.648 99.9716 23.3166 100.379 24.085Q101.443 26.0801 101.443 28.6641Q101.443 29.8242 101.223 31.0107L88.8394 31.0107Q89.1646 33.0938 90.3511 34.1572C90.5897 34.3711 90.8459 34.5527 91.1198 34.7021C91.7536 35.0478 92.4818 35.2207 93.3042 35.2207C94.0829 35.2207 94.7817 35.0635 95.4007 34.7491C95.4524 34.7228 95.5036 34.6955 95.5542 34.667C95.7372 34.5634 95.9085 34.4456 96.0682 34.3138C96.4864 33.9686 96.8248 33.5268 97.0835 32.9883L100.757 35.1504C100.603 35.5694 100.404 35.9591 100.163 36.3196C99.6164 37.1338 98.8478 37.7987 97.8569 38.3145C97.6706 38.4118 97.4815 38.5028 97.2895 38.5875C96.0147 39.1496 94.616 39.4307 93.0933 39.4307C91.9822 39.4307 90.9236 39.2682 89.9174 38.9434C89.4007 38.7766 88.8978 38.5669 88.4087 38.3145C87.9829 38.0946 87.5816 37.8423 87.2049 37.5576C86.3064 36.8784 85.5475 36.0145 84.9282 34.9658Q83.6187 32.7334 83.6187 29.6045Q83.6187 26.5107 84.9282 24.3135Q85.8751 22.7353 87.2392 21.7148L87.2397 21.7144L87.2399 21.7143C87.5964 21.4476 87.9743 21.2095 88.3735 21C88.8893 20.7293 89.4206 20.5079 89.9674 20.3356C90.9239 20.0344 91.9277 19.8838 92.979 19.8838ZM146.8 19.8838C148.947 19.8838 150.693 20.4027 152.04 21.4406C152.274 21.6209 152.496 21.8168 152.706 22.0283C152.818 22.1405 152.925 22.2564 153.028 22.3761C154.231 23.7762 154.833 25.6935 154.833 28.1279L154.833 39L150.614 39Q150.579 38.71 150.526 38.0508Q150.474 37.3828 150.368 36.873C149.998 37.4553 149.555 37.9372 149.037 38.3187C148.783 38.5054 148.512 38.668 148.224 38.8066Q146.914 39.4307 145.042 39.4307Q143.091 39.4307 141.491 38.7539C140.699 38.4142 140.027 37.958 139.477 37.3852C139.288 37.1874 139.112 36.9756 138.951 36.75C138.814 36.5552 138.691 36.3527 138.584 36.1424C138.208 35.4037 138.02 34.5691 138.02 33.6387C138.02 32.811 138.175 32.0543 138.487 31.3684C138.646 31.0199 138.844 30.6898 139.083 30.3779C139.161 30.2757 139.243 30.1761 139.327 30.079C140.005 29.2969 140.876 28.6817 141.939 28.2334Q143.741 27.4775 145.903 27.4775Q147.846 27.4775 149.902 28.1279C149.857 26.4795 149.418 25.3234 148.587 24.6596C148.026 24.212 147.287 23.9883 146.369 23.9883C145.469 23.9883 144.689 24.1869 144.027 24.5841C143.35 24.9913 142.797 25.6071 142.37 26.4316L138.811 24.3838C139.079 23.8274 139.405 23.3182 139.788 22.856C140.364 22.1597 141.07 21.5704 141.904 21.0879Q143.996 19.8838 146.8 19.8838ZM57.0527 39L62.0537 39L62.0537 20.3496L57.0527 20.3496L57.0527 39ZM177.043 31.9775L173.158 20.3496L168.975 20.3496L165.31 32.127L161.381 20.3496L156.23 20.3496L163.288 38.9648L166.892 38.9648L170.961 27.627L175.206 38.9648L178.766 38.9648L185.577 20.3496L180.717 20.3496L177.043 31.9775ZM92.8384 23.9531C92.2533 23.9531 91.7189 24.0639 91.2353 24.2854C90.9052 24.4365 90.5987 24.6392 90.3159 24.8936Q90.303 24.905 90.2903 24.9166Q89.2656 25.846 88.9097 27.5127L96.3276 27.5127Q96.1917 25.8476 95.292 24.9379L95.2918 24.9377Q95.2861 24.9319 95.2804 24.9262Q95.2757 24.9215 95.2711 24.9169Q95.2652 24.9111 95.2593 24.9053Q95.2442 24.8905 95.229 24.876C95.0066 24.6597 94.7639 24.4815 94.501 24.3413C94.0158 24.0825 93.4616 23.9531 92.8384 23.9531ZM149.902 31.4414Q148.101 31.0107 146.765 31.0107Q144.998 31.0107 144.022 31.6436C143.701 31.8513 143.459 32.1029 143.298 32.3983C143.136 32.6944 143.056 33.0347 143.056 33.4189Q143.056 34.044 143.332 34.5027Q143.518 34.8115 143.829 35.0449Q144.603 35.6162 145.833 35.6162C146.528 35.6162 147.169 35.4895 147.754 35.2362C148.077 35.0966 148.383 34.9186 148.672 34.7021C149.031 34.433 149.311 34.1195 149.513 33.7618C149.773 33.3018 149.902 32.7686 149.902 32.1621L149.902 31.4414Z" fill="url(#paint_linear_0)" fill-rule="evenodd" />
	<path id="合并" d="M46.6816 13.1777Q44.7744 15.208 44.7744 19.4531L44.7744 20.3496L37.04 20.3496L37.04 19.8838Q37.04 17.5107 37.7168 16.5C37.8989 16.2315 38.1155 16.0164 38.3665 15.8549C38.7453 15.6111 39.2026 15.4893 39.7383 15.4893Q40.0772 15.4893 40.3999 15.5616L40.4 15.5617Q41.2404 15.7502 41.9707 16.4297L43.8779 12.8262Q43.2275 12.0703 42.0586 11.6045Q40.8896 11.1387 39.3076 11.1387Q37.062 11.1387 35.4022 12.1247C34.9106 12.4167 34.4575 12.7736 34.043 13.1953Q32.0303 15.2432 32.0303 19.4531L32.0303 20.3496L28.8311 20.3496L28.8311 24.5244L32.0303 24.5244L32.0303 39L37.04 39L37.04 24.5244L44.7744 24.5244L44.7744 39L49.7842 39L49.7842 24.5244L54.4248 24.5244L54.4248 20.3496L49.7842 20.3496L49.7842 19.9189Q49.7842 17.4756 50.5576 16.4824C50.6975 16.3028 50.8554 16.1476 51.0315 16.0167C51.5045 15.6651 52.1083 15.4893 52.8428 15.4893C53.1271 15.4893 53.4064 15.5158 53.6805 15.5688C54.1237 15.6546 54.5534 15.8097 54.9697 16.0342L54.9697 11.6748Q53.5986 11.1387 51.9023 11.1387Q49.4105 11.1387 47.7083 12.298C47.338 12.5501 46.9958 12.8434 46.6816 13.1777ZM134.278 39L129.268 39L129.268 11.6045L134.278 11.6045L134.278 39ZM58.4704 17.7769C58.8001 17.91 59.1566 17.9766 59.54 17.9766C59.8979 17.9766 60.2337 17.9177 60.5475 17.8001C60.9478 17.65 61.3122 17.4041 61.6406 17.0625Q62.1589 16.5237 62.3746 15.883C62.4771 15.5786 62.5283 15.2569 62.5283 14.918Q62.5283 14.2783 62.3016 13.7329L62.3015 13.7328L62.3014 13.7326Q62.0795 13.1991 61.6406 12.7559C61.321 12.4299 60.9675 12.1928 60.5799 12.0446C60.2569 11.9211 59.9103 11.8594 59.54 11.8594C59.1436 11.8594 58.776 11.9292 58.437 12.0687C58.0746 12.218 57.745 12.447 57.4482 12.7559Q57.0453 13.1752 56.8309 13.6754L56.8307 13.6758Q56.5869 14.2446 56.5869 14.918C56.5869 15.2757 56.6423 15.6142 56.7531 15.9335C56.8945 16.3412 57.1262 16.7175 57.4482 17.0625C57.7541 17.387 58.0948 17.6252 58.4704 17.7769ZM1.82959 25.79Q1.82959 21.6504 3.48193 18.5566Q4.67256 16.3329 6.47728 14.8632L6.4773 14.8631Q7.19046 14.2824 7.99951 13.8193C8.47737 13.5452 8.96916 13.3054 9.47488 13.0999L9.4749 13.0999Q11.7486 12.1758 14.3979 12.1758Q17.0341 12.1758 19.2965 13.0953L19.2966 13.0953C19.8048 13.3018 20.2989 13.5432 20.7788 13.8193Q21.5981 14.2868 22.3197 14.8743L22.3207 14.8751L22.3208 14.8752L22.3209 14.8752Q24.122 16.342 25.314 18.5566Q26.9927 21.6504 26.9927 25.79Q26.9927 29.9648 25.314 33.0586C24.5289 34.513 23.5458 35.727 22.3645 36.7006C21.8706 37.1077 21.342 37.4728 20.7788 37.7959Q20.0786 38.1966 19.3383 38.4991L19.3382 38.4992Q17.0584 39.4307 14.3979 39.4307C12.6154 39.4307 10.9604 39.1186 9.4329 38.4945C8.94193 38.2938 8.46413 38.061 7.99951 37.7959C7.44369 37.4761 6.92181 37.1151 6.43387 36.7129C5.2501 35.7372 4.26612 34.5191 3.48193 33.0586Q1.82959 29.9648 1.82959 25.79ZM116.45 34.6406C117.466 34.6406 118.369 34.4293 119.159 34.0066C119.362 33.8979 119.558 33.7753 119.746 33.6387Q121.135 32.6279 121.961 30.8262L126.32 33.3486C126.145 33.8284 125.929 34.285 125.675 34.7185C124.988 35.8894 124.013 36.8917 122.752 37.7256C122.615 37.8155 122.476 37.9019 122.335 37.9847C120.695 38.9487 118.771 39.4307 116.564 39.4307C115.009 39.4307 113.544 39.1804 112.171 38.6797C111.486 38.4299 110.823 38.1177 110.184 37.7432C109.627 37.4147 109.104 37.0464 108.613 36.6383C107.416 35.6415 106.416 34.4073 105.613 32.9355Q103.926 29.8242 103.926 25.79Q103.926 21.7559 105.596 18.6621C106.343 17.2843 107.271 16.1144 108.38 15.1524C108.931 14.6743 109.526 14.2475 110.166 13.8721C110.85 13.4721 111.559 13.1429 112.292 12.8844C113.633 12.412 115.057 12.1758 116.564 12.1758Q119.849 12.1758 122.297 13.6069L122.298 13.6071C122.452 13.697 122.603 13.7912 122.752 13.8896C124.013 14.7235 124.988 15.7258 125.675 16.8967C125.929 17.3302 126.145 17.7869 126.32 18.2666L121.961 20.7803Q121.135 18.9873 119.746 17.9766C119.548 17.8315 119.342 17.7021 119.127 17.5882L119.127 17.5881Q117.953 16.9658 116.45 16.9658C115.591 16.9658 114.791 17.1135 114.05 17.4088C113.633 17.5748 113.235 17.7875 112.855 18.0469C112.818 18.0722 112.782 18.0979 112.745 18.124C111.742 18.8402 110.944 19.8428 110.351 21.1318Q109.437 23.127 109.437 25.79Q109.437 28.4531 110.351 30.4746C110.949 31.7796 111.755 32.7909 112.769 33.5084C112.798 33.5286 112.827 33.5486 112.855 33.5684C113.225 33.8191 113.613 34.0259 114.019 34.1887C114.769 34.49 115.579 34.6406 116.45 34.6406ZM7.34033 25.79Q7.34033 28.418 8.21924 30.4395C8.7409 31.6341 9.45299 32.5872 10.3555 33.2988C10.4667 33.3864 10.5808 33.4704 10.6978 33.5508C11.0072 33.7605 11.3301 33.9399 11.6665 34.0891C12.4954 34.4568 13.4059 34.6406 14.3979 34.6406C15.3817 34.6406 16.2845 34.4583 17.1065 34.0937C17.4449 33.9436 17.7696 33.7627 18.0806 33.5508C18.2131 33.4602 18.342 33.365 18.4671 33.2651C19.3541 32.5573 20.0544 31.6154 20.5679 30.4395Q21.4468 28.418 21.4468 25.79Q21.4468 23.1621 20.5679 21.167C20.0594 20.0077 19.3679 19.0757 18.4932 18.3709C18.3599 18.2634 18.2224 18.1613 18.0806 18.0645C17.7595 17.8439 17.4238 17.6566 17.0736 17.5025L17.0735 17.5025Q15.8538 16.9658 14.3979 16.9658Q12.9298 16.9658 11.6997 17.507C11.3514 17.6603 11.0174 17.8461 10.6978 18.0645C10.5717 18.151 10.449 18.2418 10.3296 18.3369L10.3296 18.3369Q8.99422 19.4 8.21924 21.167Q7.34033 23.1621 7.34033 25.79ZM75.1294 35.0801C75.6313 35.0801 76.0985 34.9934 76.5309 34.8201C77.3353 34.4977 78.0195 33.8753 78.5835 32.9531L82.3979 35.1855C82.0756 35.9346 81.6509 36.5865 81.1239 37.1412C80.6739 37.6149 80.1494 38.0177 79.5503 38.3496C79.4371 38.4126 79.3225 38.4729 79.2066 38.5304C77.9963 39.1306 76.6373 39.4307 75.1294 39.4307C74.1653 39.4307 73.2379 39.3029 72.3471 39.0474C71.7057 38.8635 71.0834 38.6133 70.48 38.2969C70.0435 38.068 69.6323 37.8061 69.2463 37.5111C68.3577 36.832 67.6029 35.9777 66.9819 34.9482Q65.6548 32.7334 65.6548 29.6748Q65.6548 26.5811 66.9819 24.3662C67.6029 23.3368 68.3577 22.4825 69.2463 21.8034C69.6323 21.5084 70.0435 21.2465 70.48 21.0176C71.0834 20.7012 71.7057 20.451 72.3471 20.267L72.3476 20.2669L72.3477 20.2669Q73.6836 19.8838 75.1294 19.8838Q77.3912 19.8838 79.2066 20.7841C79.3225 20.8416 79.4371 20.9018 79.5503 20.9648C80.1494 21.2968 80.6739 21.6996 81.1239 22.1732C81.6509 22.7279 82.0756 23.3798 82.3979 24.1289L78.5835 26.3613C78.068 25.513 77.4378 24.9238 76.6927 24.5937C76.2182 24.3834 75.6971 24.2783 75.1294 24.2783C74.405 24.2783 73.7614 24.4292 73.1987 24.7308C72.751 24.9709 72.3546 25.3063 72.0093 25.7373Q70.8403 27.1963 70.8403 29.6748Q70.8403 32.127 72.0269 33.6035Q72.6181 34.3339 73.3835 34.703L73.3837 34.7031Q74.1657 35.0801 75.1294 35.0801ZM92.979 19.8838Q95.2628 19.8838 97.0725 20.8101L97.0733 20.8105C97.1805 20.8653 97.2864 20.9227 97.3911 20.9824C97.9362 21.2936 98.4296 21.6592 98.8711 22.0793C99.4688 22.648 99.9716 23.3166 100.379 24.085Q101.443 26.0801 101.443 28.6641Q101.443 29.8242 101.223 31.0107L88.8394 31.0107Q89.1646 33.0938 90.3511 34.1572C90.5897 34.3711 90.8459 34.5527 91.1198 34.7021C91.7536 35.0478 92.4818 35.2207 93.3042 35.2207C94.0829 35.2207 94.7817 35.0635 95.4007 34.7491C95.4524 34.7228 95.5036 34.6955 95.5542 34.667C95.7372 34.5634 95.9085 34.4456 96.0682 34.3138C96.4864 33.9686 96.8248 33.5268 97.0835 32.9883L100.757 35.1504C100.603 35.5694 100.404 35.9591 100.163 36.3196C99.6164 37.1338 98.8478 37.7987 97.8569 38.3145C97.6706 38.4118 97.4815 38.5028 97.2895 38.5875C96.0147 39.1496 94.616 39.4307 93.0933 39.4307C91.9822 39.4307 90.9236 39.2682 89.9174 38.9434C89.4007 38.7766 88.8978 38.5669 88.4087 38.3145C87.9829 38.0946 87.5816 37.8423 87.2049 37.5576C86.3064 36.8784 85.5475 36.0145 84.9282 34.9658Q83.6187 32.7334 83.6187 29.6045Q83.6187 26.5107 84.9282 24.3135Q85.8751 22.7353 87.2392 21.7148L87.2397 21.7144L87.2399 21.7143C87.5964 21.4476 87.9743 21.2095 88.3735 21C88.8893 20.7293 89.4206 20.5079 89.9674 20.3356C90.9239 20.0344 91.9277 19.8838 92.979 19.8838ZM146.8 19.8838C148.947 19.8838 150.693 20.4027 152.04 21.4406C152.274 21.6209 152.496 21.8168 152.706 22.0283C152.818 22.1405 152.925 22.2564 153.028 22.3761C154.231 23.7762 154.833 25.6935 154.833 28.1279L154.833 39L150.614 39Q150.579 38.71 150.526 38.0508Q150.474 37.3828 150.368 36.873C149.998 37.4553 149.555 37.9372 149.037 38.3187C148.783 38.5054 148.512 38.668 148.224 38.8066Q146.914 39.4307 145.042 39.4307Q143.091 39.4307 141.491 38.7539C140.699 38.4142 140.027 37.958 139.477 37.3852C139.288 37.1874 139.112 36.9756 138.951 36.75C138.814 36.5552 138.691 36.3527 138.584 36.1424C138.208 35.4037 138.02 34.5691 138.02 33.6387C138.02 32.811 138.175 32.0543 138.487 31.3684C138.646 31.0199 138.844 30.6898 139.083 30.3779C139.161 30.2757 139.243 30.1761 139.327 30.079C140.005 29.2969 140.876 28.6817 141.939 28.2334Q143.741 27.4775 145.903 27.4775Q147.846 27.4775 149.902 28.1279C149.857 26.4795 149.418 25.3234 148.587 24.6596C148.026 24.212 147.287 23.9883 146.369 23.9883C145.469 23.9883 144.689 24.1869 144.027 24.5841C143.35 24.9913 142.797 25.6071 142.37 26.4316L138.811 24.3838C139.079 23.8274 139.405 23.3182 139.788 22.856C140.364 22.1597 141.07 21.5704 141.904 21.0879Q143.996 19.8838 146.8 19.8838ZM57.0527 39L62.0537 39L62.0537 20.3496L57.0527 20.3496L57.0527 39ZM177.043 31.9775L173.158 20.3496L168.975 20.3496L165.31 32.127L161.381 20.3496L156.23 20.3496L163.288 38.9648L166.892 38.9648L170.961 27.627L175.206 38.9648L178.766 38.9648L185.577 20.3496L180.717 20.3496L177.043 31.9775ZM92.8384 23.9531C92.2533 23.9531 91.7189 24.0639 91.2353 24.2854C90.9052 24.4365 90.5987 24.6392 90.3159 24.8936Q90.303 24.905 90.2903 24.9166Q89.2656 25.846 88.9097 27.5127L96.3276 27.5127Q96.1917 25.8476 95.292 24.9379L95.2918 24.9377Q95.2861 24.9319 95.2804 24.9262Q95.2757 24.9215 95.2711 24.9169Q95.2652 24.9111 95.2593 24.9053Q95.2442 24.8905 95.229 24.876C95.0066 24.6597 94.7639 24.4815 94.501 24.3413C94.0158 24.0825 93.4616 23.9531 92.8384 23.9531ZM149.902 31.4414Q148.101 31.0107 146.765 31.0107Q144.998 31.0107 144.022 31.6436C143.701 31.8513 143.459 32.1029 143.298 32.3983C143.136 32.6944 143.056 33.0347 143.056 33.4189Q143.056 34.044 143.332 34.5027Q143.518 34.8115 143.829 35.0449Q144.603 35.6162 145.833 35.6162C146.528 35.6162 147.169 35.4895 147.754 35.2362C148.077 35.0966 148.383 34.9186 148.672 34.7021C149.031 34.433 149.311 34.1195 149.513 33.7618C149.773 33.3018 149.902 32.7686 149.902 32.1621L149.902 31.4414Z" fill="url(#paint_linear_1)" fill-rule="evenodd" />
</svg>
