<svg viewBox="0 0 14 14" xmlns="http://www.w3.org/2000/svg" xmlns:xlink="http://www.w3.org/1999/xlink" width="14.000000" height="14.000000" fill="none">
	<rect id="协作配置" width="14.000000" height="14.000000" x="0.000000" y="0.000000" />
	<path id="矢量 93" d="M9.9167 1.45834C9.9167 0.814056 9.39434 0.291748 8.75 0.291748L5.25 0.291748C4.60566 0.291748 4.08335 0.814056 4.08335 1.45834L4.08335 3.79175C4.08335 4.43604 4.60566 4.95834 5.25 4.95834L6.5625 4.95834L6.5625 6.29819L4.08447 6.29819C3.9673 6.29819 3.8528 6.31044 3.74097 6.33493C3.64533 6.35587 3.55164 6.3857 3.45989 6.42444C3.36821 6.46332 3.28157 6.50975 3.19997 6.56372C3.11067 6.62268 3.02739 6.69083 2.95013 6.76816C2.87287 6.84535 2.80473 6.92859 2.7457 7.01788C2.69169 7.09949 2.64529 7.18615 2.60652 7.27786C2.56771 7.36958 2.53786 7.46329 2.51696 7.55899C2.4925 7.67079 2.48027 7.78529 2.48027 7.9025L2.48027 9.04175L1.16665 9.04175C0.522308 9.04175 0 9.56406 0 10.2083L0 12.5417C0 13.186 0.522308 13.7083 1.16665 13.7083L4.66665 13.7083C5.31099 13.7083 5.83335 13.186 5.83335 12.5417L5.83335 10.2083C5.83335 9.56406 5.31099 9.04175 4.66665 9.04175L3.35527 9.04175L3.35527 7.9025C3.35527 7.80181 3.37307 7.70846 3.40868 7.62244C3.44428 7.53656 3.49767 7.45802 3.56884 7.38681C3.64005 7.3156 3.71861 7.2622 3.80452 7.22659C3.89047 7.19099 3.98378 7.17319 4.08447 7.17319L9.9167 7.17319C10.0174 7.17319 10.1107 7.19099 10.1966 7.22659C10.2825 7.2622 10.3611 7.3156 10.4323 7.38681C10.5035 7.45802 10.5569 7.53656 10.5925 7.62244C10.6281 7.70846 10.6459 7.80181 10.6459 7.9025L10.6459 9.04175L9.3333 9.04175C8.68896 9.04175 8.16665 9.56406 8.16665 10.2083L8.16665 12.5417C8.16665 13.186 8.68896 13.7083 9.3333 13.7083L12.8333 13.7083C13.4776 13.7083 14 13.186 14 12.5417L14 10.2083C14 9.56406 13.4776 9.04175 12.8333 9.04175L11.5209 9.04175L11.5209 7.9025C11.5209 7.78529 11.5086 7.67079 11.4842 7.55899C11.4633 7.46329 11.4334 7.36958 11.3947 7.27786C11.3558 7.18615 11.3095 7.09949 11.2555 7.01788C11.1964 6.92859 11.1283 6.84535 11.051 6.76816C10.9738 6.69083 10.8905 6.62268 10.8012 6.56372C10.7196 6.50975 10.6329 6.46332 10.5413 6.42444C10.4496 6.3857 10.3559 6.35587 10.2603 6.33493C10.1484 6.31044 10.0339 6.29819 9.9167 6.29819L7.43862 6.29819L7.43862 4.95834L8.75 4.95834C9.39434 4.95834 9.9167 4.43604 9.9167 3.79175L9.9167 1.45834ZM9.0417 1.45834C9.0417 1.29727 8.91113 1.16675 8.75 1.16675L5.25 1.16675C5.08893 1.16675 4.95835 1.29727 4.95835 1.45834L4.95835 3.79175C4.95835 3.95282 5.08893 4.08334 5.25 4.08334L8.75 4.08334C8.91113 4.08334 9.0417 3.95282 9.0417 3.79175L9.0417 1.45834ZM4.66665 9.91675C4.82777 9.91675 4.95835 10.0473 4.95835 10.2083L4.95835 12.5417C4.95835 12.7028 4.82777 12.8333 4.66665 12.8333L1.16665 12.8333C1.00558 12.8333 0.875 12.7028 0.875 12.5417L0.875 10.2083C0.875 10.0473 1.00558 9.91675 1.16665 9.91675L4.66665 9.91675ZM13.125 10.2083C13.125 10.0473 12.9944 9.91675 12.8333 9.91675L9.3333 9.91675C9.17223 9.91675 9.04165 10.0473 9.04165 10.2083L9.04165 12.5417C9.04165 12.7028 9.17223 12.8333 9.3333 12.8333L12.8333 12.8333C12.9944 12.8333 13.125 12.7028 13.125 12.5417L13.125 10.2083Z" fill="rgb(25,25,25)" fill-rule="evenodd" />
</svg>
