<svg viewBox="0 0 20 20" xmlns="http://www.w3.org/2000/svg" xmlns:xlink="http://www.w3.org/1999/xlink" width="20.000000" height="20.000000" fill="none" customFrame="#000000">
	<defs>
		<clipPath id="clipPath_0">
			<rect width="20.000000" height="20.000000" x="0.000000" y="0.000000" fill="rgb(255,255,255)" />
		</clipPath>
	</defs>
	<rect id="icon/收起" width="20.000000" height="20.000000" x="0.000000" y="0.000000" />
	<g id="侧边模式" clip-path="url(#clipPath_0)" customFrame="url(#clipPath_0)">
		<rect id="侧边模式" width="20.000000" height="20.000000" x="0.000000" y="0.000000" />
		<path id="path" d="M5 3.125L15 3.125C16.0375 3.125 16.875 3.9625 16.875 5L16.875 15C16.875 16.0375 16.0375 16.875 15 16.875L5 16.875C3.9625 16.875 3.125 16.0375 3.125 15L3.125 5C3.125 3.9625 3.9625 3.125 5 3.125ZM5 1.875C3.275 1.875 1.875 3.275 1.875 5L1.875 15C1.875 16.725 3.275 18.125 5 18.125L15 18.125C16.725 18.125 18.125 16.725 18.125 15L18.125 5C18.125 3.275 16.725 1.875 15 1.875L5 1.875Z" fill="rgb(128,128,128)" fill-rule="nonzero" />
		<path id="矢量 8611" d="M3.76962 4.05126C4.07679 3.74673 4.07679 3.25295 3.76962 2.94885L0.959102 0.162817C0.739692 -0.0542723 0.383967 -0.0542723 0.164557 0.162817C-0.0548525 0.380341 -0.0548525 0.733165 0.164557 0.950689L2.73671 3.50005L0.164557 6.04942C-0.0304714 6.24258 -0.0521436 6.54276 0.0995477 6.75985L0.164557 6.83686C0.383967 7.05438 0.739692 7.05438 0.959102 6.83686L3.76962 4.05126Z" fill="rgb(128,128,128)" fill-rule="evenodd" transform="matrix(-1,0,0,1,14,6.5)" />
		<path id="矩形 6" d="M0 0L15 0" stroke="rgb(128,128,128)" stroke-linecap="round" stroke-width="1.25" transform="matrix(0,1,-1,0,7.5,2.5)" />
	</g>
</svg>
