<svg viewBox="0 0 16 16" xmlns="http://www.w3.org/2000/svg" xmlns:xlink="http://www.w3.org/1999/xlink" width="16.000000" height="16.000000" fill="none">
	<rect id="文件夹-folder" width="16.000000" height="16.000000" x="0.000000" y="0.000000" />
	<path id="矢量 1" d="M2.85714 4.30769L2.85714 5.69231L5.93086 5.69231C6.04896 5.69228 6.14981 5.64736 6.23343 5.55754L7.394 4.30769L6.23343 3.05785C6.14981 2.96803 6.04896 2.9231 5.93086 2.92308L4.14286 2.92308C3.78782 2.92308 3.48477 3.05826 3.23372 3.32862C2.98267 3.59898 2.85714 3.92534 2.85714 4.30769ZM2 4.30769C2 3.67044 2.20921 3.12651 2.62763 2.67591C3.04605 2.2253 3.55112 2 4.14286 2L5.93086 2C6.28577 2.00034 6.58862 2.13572 6.83943 2.40615L8.17743 3.84615L11.8571 3.84615C12.4489 3.84615 12.954 4.07146 13.3724 4.52206C13.7908 4.97267 14 5.51659 14 6.15385L14 8.54C13.8613 8.48742 13.7185 8.46127 13.5714 8.46154L13.1429 8.46154L13.1429 6.15385C13.1429 5.77149 13.0173 5.44514 12.7663 5.17478C12.5152 4.90441 12.2122 4.76923 11.8571 4.76923L8.17743 4.76923L6.84029 6.20923C6.58901 6.48017 6.28558 6.61556 5.93 6.61538L2.85714 6.61538L2.85714 10.7692C2.85714 11.1516 2.98267 11.4779 3.23372 11.7483C3.48477 12.0187 3.78782 12.1538 4.14286 12.1538L8.07286 12.1538C8.12949 12.3257 8.21434 12.4796 8.32743 12.6154C8.21434 12.7512 8.12949 12.905 8.07286 13.0769L4.14286 13.0769C3.55112 13.0769 3.04605 12.8516 2.62763 12.401C2.20921 11.9504 2 11.4065 2 10.7692L2 4.30769ZM9.28571 9.38461C9 9.38461 8.85714 9.53846 8.85714 9.84615C8.85714 10.1538 9 10.3077 9.28571 10.3077L13.5714 10.3077C13.8571 10.3077 14 10.1538 14 9.84615C14 9.53846 13.8571 9.38461 13.5714 9.38461L9.28571 9.38461ZM9.28571 11.2308C9 11.2308 8.85714 11.3846 8.85714 11.6923C8.85714 12 9 12.1538 9.28571 12.1538L13.5714 12.1538C13.8571 12.1538 14 12 14 11.6923C14 11.3846 13.8571 11.2308 13.5714 11.2308L9.28571 11.2308ZM8.85714 13.5385C8.85714 13.2308 9 13.0769 9.28571 13.0769L13.5714 13.0769C13.8571 13.0769 14 13.2308 14 13.5385C14 13.8462 13.8571 14 13.5714 14L9.28571 14C9 14 8.85714 13.8462 8.85714 13.5385Z" fill="rgb(25,25,25)" fill-rule="nonzero" />
</svg>
