<svg viewBox="0 0 16 16" xmlns="http://www.w3.org/2000/svg" xmlns:xlink="http://www.w3.org/1999/xlink" width="16.000000" height="16.000000" fill="none">
	<rect id="数据分析" width="16.000000" height="16.000000" x="0.000000" y="0.000000" />
	<g id="组合 1111233">
		<path id="矢量 8589" d="M14.9995 1.58333L14.9995 3.52778C14.9995 3.85056 14.7389 4.11111 14.4162 4.11111C14.0934 4.11111 13.8328 3.85056 13.8328 3.52778L13.8328 2.99111L9.77282 7.05111C9.66004 7.16583 9.51032 7.22222 9.3606 7.22222C9.21088 7.22222 9.06115 7.16583 8.94838 7.05111L5.8606 3.96333L1.99504 7.82889C1.88226 7.94361 1.73254 8 1.58282 8C1.4331 8 1.28338 7.94361 1.1706 7.82889C1.14355 7.80181 1.11941 7.77235 1.09816 7.74052C1.07691 7.70869 1.05897 7.67509 1.04433 7.63973C1.0297 7.60437 1.01865 7.56792 1.01119 7.53038C1.00373 7.49284 1 7.45494 1 7.41667C1 7.37839 1.00373 7.34049 1.01119 7.30295C1.01865 7.26541 1.0297 7.22896 1.04433 7.1936C1.05897 7.15824 1.07691 7.12464 1.09816 7.09281C1.11941 7.06098 1.14355 7.03152 1.1706 7.00444L5.44838 2.72667C5.47545 2.69962 5.50491 2.67548 5.53674 2.65423C5.56857 2.63298 5.60217 2.61504 5.63753 2.6004C5.6729 2.58577 5.70935 2.57472 5.74688 2.56726C5.78442 2.5598 5.82233 2.55607 5.8606 2.55607C5.89887 2.55607 5.93677 2.5598 5.97431 2.56726C6.01185 2.57472 6.0483 2.58577 6.08366 2.6004C6.11903 2.61504 6.15262 2.63298 6.18445 2.65423C6.21628 2.67548 6.24574 2.69962 6.27282 2.72667L9.3606 5.81444L13.0084 2.16667L12.4717 2.16667C12.1489 2.16667 11.8884 1.90611 11.8884 1.58333C11.8884 1.26056 12.1489 1 12.4717 1L14.4162 1C14.4531 1 14.49 1.00389 14.527 1.01167C14.5406 1.01361 14.5542 1.01556 14.5678 1.02139C14.6106 1.03111 14.6514 1.04667 14.6884 1.06806C14.7039 1.07583 14.7214 1.08556 14.737 1.09722C14.7545 1.10694 14.77 1.11861 14.7837 1.13222C14.8148 1.15556 14.8439 1.18472 14.8673 1.21583C14.8809 1.22944 14.8925 1.245 14.9023 1.2625C14.9139 1.27806 14.9237 1.29556 14.9314 1.31111C14.9528 1.34806 14.9684 1.38889 14.9781 1.43167C14.9839 1.44528 14.9859 1.45889 14.9878 1.4725C14.9956 1.50944 14.9995 1.54639 14.9995 1.58333L14.9995 1.58333ZM2.74949 15C2.71118 15 2.67325 14.9963 2.63568 14.9888C2.59812 14.9813 2.56164 14.9703 2.52625 14.9556C2.49087 14.9409 2.45725 14.923 2.4254 14.9017C2.39356 14.8804 2.36409 14.8562 2.33701 14.8291C2.30992 14.8021 2.28574 14.7726 2.26446 14.7407C2.24318 14.7089 2.22521 14.6753 2.21056 14.6399C2.1959 14.6045 2.18483 14.568 2.17736 14.5305C2.16989 14.4929 2.16615 14.455 2.16615 14.4167L2.16615 10.1389C2.16615 10.1006 2.16989 10.0627 2.17736 10.0251C2.18483 9.98752 2.1959 9.95104 2.21056 9.91566C2.22521 9.88027 2.24318 9.84665 2.26446 9.8148C2.28574 9.78296 2.30992 9.75349 2.33701 9.72641C2.36409 9.69932 2.39356 9.67514 2.4254 9.65386C2.45725 9.63258 2.49087 9.61462 2.52625 9.59996C2.56164 9.5853 2.59812 9.57424 2.63568 9.56676C2.67325 9.55929 2.71118 9.55556 2.74949 9.55556C2.78779 9.55556 2.82572 9.55929 2.86329 9.56676C2.90086 9.57424 2.93733 9.5853 2.97272 9.59996C3.0081 9.61462 3.04172 9.63258 3.07357 9.65386C3.10542 9.67514 3.13488 9.69932 3.16197 9.72641C3.18905 9.75349 3.21323 9.78296 3.23451 9.8148C3.25579 9.84665 3.27376 9.88027 3.28842 9.91566C3.30307 9.95104 3.31414 9.98752 3.32161 10.0251C3.32908 10.0627 3.33282 10.1006 3.33282 10.1389L3.33282 14.4167C3.33282 14.455 3.32908 14.4929 3.32161 14.5305C3.31414 14.568 3.30307 14.6045 3.28842 14.6399C3.27376 14.6753 3.25579 14.7089 3.23451 14.7407C3.21323 14.7726 3.18905 14.8021 3.16197 14.8291C3.13488 14.8562 3.10542 14.8804 3.07357 14.9017C3.04172 14.923 3.0081 14.9409 2.97272 14.9556C2.93733 14.9703 2.90086 14.9813 2.86329 14.9888C2.82572 14.9963 2.78779 15 2.74949 15Z" fill="rgb(25,25,25)" fill-rule="nonzero" />
		<path id="矢量 8590" d="M6.2513 15.0003C6.213 15.0003 6.17507 14.9966 6.1375 14.9891C6.09993 14.9816 6.06346 14.9706 6.02807 14.9559C5.99268 14.9413 5.95907 14.9233 5.92722 14.902C5.89537 14.8807 5.86591 14.8566 5.83882 14.8295C5.81174 14.8024 5.78756 14.7729 5.76628 14.7411C5.745 14.7092 5.72703 14.6756 5.71237 14.6402C5.69771 14.6048 5.68665 14.5684 5.67918 14.5308C5.6717 14.4932 5.66797 14.4553 5.66797 14.417L5.66797 7.41699C5.66797 7.37869 5.6717 7.34076 5.67918 7.30319C5.68665 7.26562 5.69771 7.22915 5.71237 7.19376C5.72703 7.15837 5.745 7.12476 5.76628 7.09291C5.78756 7.06106 5.81174 7.0316 5.83882 7.00451C5.86591 6.97743 5.89537 6.95325 5.92722 6.93197C5.95907 6.91069 5.99268 6.89272 6.02807 6.87806C6.06346 6.8634 6.09993 6.85234 6.1375 6.84487C6.17507 6.83739 6.213 6.83366 6.2513 6.83366C6.2896 6.83366 6.32754 6.83739 6.3651 6.84487C6.40267 6.85234 6.43915 6.8634 6.47453 6.87806C6.50992 6.89272 6.54354 6.91069 6.57538 6.93197C6.60723 6.95325 6.6367 6.97743 6.66378 7.00451C6.69086 7.0316 6.71505 7.06106 6.73633 7.09291C6.75761 7.12476 6.77557 7.15837 6.79023 7.19376C6.80489 7.22915 6.81595 7.26562 6.82343 7.30319C6.8309 7.34076 6.83464 7.37869 6.83464 7.41699L6.83464 14.417C6.83464 14.4553 6.8309 14.4932 6.82343 14.5308C6.81595 14.5684 6.80489 14.6048 6.79023 14.6402C6.77557 14.6756 6.75761 14.7092 6.73633 14.7411C6.71505 14.7729 6.69086 14.8024 6.66378 14.8295C6.6367 14.8566 6.60723 14.8807 6.57538 14.902C6.54354 14.9233 6.50992 14.9413 6.47453 14.9559C6.43915 14.9706 6.40267 14.9816 6.3651 14.9891C6.32754 14.9966 6.2896 15.0003 6.2513 15.0003ZM9.7513 15.0003C9.713 15.0003 9.67507 14.9966 9.6375 14.9891C9.59993 14.9816 9.56346 14.9706 9.52807 14.9559C9.49268 14.9413 9.45907 14.9233 9.42722 14.902C9.39537 14.8807 9.36591 14.8566 9.33882 14.8295C9.31174 14.8024 9.28756 14.7729 9.26628 14.7411C9.245 14.7092 9.22703 14.6756 9.21237 14.6402C9.19771 14.6048 9.18665 14.5684 9.17918 14.5308C9.17171 14.4932 9.16797 14.4553 9.16797 14.417L9.16797 9.36144C9.16797 9.32313 9.17171 9.2852 9.17918 9.24763C9.18665 9.21007 9.19771 9.17359 9.21237 9.1382C9.22703 9.10282 9.245 9.0692 9.26628 9.03735C9.28756 9.00551 9.31174 8.97604 9.33882 8.94896C9.36591 8.92188 9.39537 8.89769 9.42722 8.87641C9.45907 8.85513 9.49268 8.83716 9.52807 8.82251C9.56346 8.80785 9.59993 8.79678 9.6375 8.78931C9.67507 8.78184 9.713 8.7781 9.7513 8.7781C9.7896 8.7781 9.82754 8.78184 9.8651 8.78931C9.90267 8.79678 9.93915 8.80785 9.97453 8.82251C10.0099 8.83716 10.0435 8.85513 10.0754 8.87641C10.1072 8.89769 10.1367 8.92187 10.1638 8.94896C10.1909 8.97604 10.215 9.00551 10.2363 9.03735C10.2576 9.0692 10.2756 9.10282 10.2902 9.1382C10.3049 9.17359 10.316 9.21007 10.3234 9.24763C10.3309 9.2852 10.3346 9.32313 10.3346 9.36144L10.3346 14.417C10.3346 14.4553 10.3309 14.4932 10.3234 14.5308C10.316 14.5684 10.3049 14.6048 10.2902 14.6402C10.2756 14.6756 10.2576 14.7092 10.2363 14.7411C10.215 14.7729 10.1909 14.8024 10.1638 14.8295C10.1367 14.8566 10.1072 14.8807 10.0754 14.902C10.0435 14.9233 10.0099 14.9413 9.97453 14.9559C9.93915 14.9706 9.90267 14.9816 9.8651 14.9891C9.82754 14.9966 9.7896 15.0003 9.7513 15.0003ZM13.2513 15.0003C13.213 15.0003 13.1751 14.9966 13.1375 14.9891C13.0999 14.9816 13.0635 14.9706 13.0281 14.9559C12.9927 14.9413 12.9591 14.9233 12.9272 14.902C12.8954 14.8807 12.8659 14.8566 12.8388 14.8295C12.8117 14.8024 12.7876 14.7729 12.7663 14.7411C12.745 14.7092 12.727 14.6756 12.7124 14.6402C12.6977 14.6048 12.6866 14.5684 12.6792 14.5308C12.6717 14.4932 12.668 14.4553 12.668 14.417L12.668 6.25033C12.668 6.21202 12.6717 6.17409 12.6792 6.13652C12.6866 6.09896 12.6977 6.06248 12.7124 6.02709C12.727 5.99171 12.745 5.95809 12.7663 5.92624C12.7876 5.8944 12.8117 5.86493 12.8388 5.83785C12.8659 5.81076 12.8954 5.78658 12.9272 5.7653C12.9591 5.74402 12.9927 5.72605 13.0281 5.7114C13.0635 5.69674 13.0999 5.68567 13.1375 5.6782C13.1751 5.67073 13.213 5.66699 13.2513 5.66699C13.2896 5.66699 13.3275 5.67073 13.3651 5.6782C13.4027 5.68567 13.4391 5.69674 13.4745 5.7114C13.5099 5.72605 13.5435 5.74402 13.5754 5.7653C13.6072 5.78658 13.6367 5.81076 13.6638 5.83785C13.6909 5.86493 13.715 5.8944 13.7363 5.92624C13.7576 5.95809 13.7756 5.99171 13.7902 6.02709C13.8049 6.06248 13.816 6.09896 13.8234 6.13652C13.8309 6.17409 13.8346 6.21202 13.8346 6.25033L13.8346 14.417C13.8346 14.4553 13.8309 14.4932 13.8234 14.5308C13.816 14.5684 13.8049 14.6048 13.7902 14.6402C13.7756 14.6756 13.7576 14.7092 13.7363 14.7411C13.715 14.7729 13.6909 14.8024 13.6638 14.8295C13.6367 14.8566 13.6072 14.8807 13.5754 14.902C13.5435 14.9233 13.5099 14.9413 13.4745 14.9559C13.4391 14.9706 13.4027 14.9816 13.3651 14.9891C13.3275 14.9966 13.2896 15.0003 13.2513 15.0003Z" fill="rgb(25,25,25)" fill-rule="nonzero" />
	</g>
</svg>
