<svg viewBox="0 0 16 16" xmlns="http://www.w3.org/2000/svg" xmlns:xlink="http://www.w3.org/1999/xlink" width="16.000000" height="16.000000" fill="none" customFrame="#000000">
	<rect id="深度研究" width="16.000000" height="16.000000" x="0.000000" y="0.000000" />
	<path id="合并" d="M5.08701 1.55482L3.86137 2.78046C3.66338 2.97845 3.35225 2.97845 3.15426 2.78046C2.95627 2.58247 2.95627 2.27134 3.15426 2.07335L4.3799 0.847711C4.57789 0.649721 4.88902 0.649721 5.08701 0.847711C5.285 1.0457 5.285 1.35683 5.08701 1.55482ZM5.26159 6.18857L4.22074 5.14772C4.14375 5.07073 4.07649 4.98749 4.01895 4.898L4.01894 4.89799C3.96908 4.82044 3.92653 4.7382 3.89127 4.65126C3.85616 4.56467 3.82946 4.47637 3.81118 4.38636L3.81118 4.38634C3.79133 4.2886 3.7814 4.18884 3.7814 4.08706C3.7814 3.98529 3.79133 3.88553 3.81118 3.78779C3.82946 3.69777 3.85616 3.60946 3.89127 3.52286C3.92653 3.43592 3.96909 3.35368 4.01894 3.27613C4.07649 3.18663 4.14375 3.10339 4.22074 3.0264L5.25781 1.98934C5.3348 1.91234 5.41804 1.84508 5.50754 1.78754C5.58508 1.73768 5.66733 1.69512 5.75427 1.65987C5.84087 1.62475 5.92918 1.59805 6.0192 1.57977L6.01921 1.57977C6.11694 1.55992 6.2167 1.55 6.31847 1.55C6.42024 1.55 6.52 1.55992 6.61774 1.57977C6.70776 1.59805 6.79607 1.62475 6.88266 1.65987C6.96959 1.69512 7.05183 1.73767 7.12937 1.78752L7.1294 1.78754L7.12941 1.78755C7.2189 1.84508 7.30214 1.91235 7.37913 1.98934L11.4803 6.0905C11.5573 6.16749 11.6245 6.25073 11.6821 6.34023C11.7319 6.41778 11.7745 6.50002 11.8098 6.58696C11.8449 6.67355 11.8716 6.76186 11.8899 6.85187C11.9097 6.94962 11.9196 7.04938 11.9196 7.15116C11.9196 7.25296 11.9097 7.35275 11.8898 7.45053C11.8716 7.54051 11.8449 7.62879 11.8098 7.71536C11.7745 7.80228 11.732 7.88452 11.6821 7.96206C11.6246 8.05157 11.5573 8.13482 11.4803 8.21182L10.4432 9.24888C10.3662 9.32588 10.283 9.39314 10.1935 9.45069L10.1935 9.4507C10.1159 9.50055 10.0337 9.5431 9.94676 9.57835C9.86017 9.61347 9.77187 9.64016 9.68187 9.65845C9.58412 9.6783 9.48435 9.68822 9.38257 9.68822C9.28079 9.68822 9.18103 9.6783 9.08329 9.65845C8.99327 9.64017 8.90496 9.61347 8.81837 9.57835C8.73143 9.5431 8.64918 9.50054 8.57163 9.45068C8.48213 9.39314 8.39889 9.32587 8.32191 9.24889L7.11227 8.03925C7.07538 8.059 7.03742 8.07712 6.99839 8.09363C6.91936 8.12706 6.83864 8.1527 6.75624 8.17055L6.75623 8.17055L6.75622 8.17055C6.66178 8.19101 6.56513 8.20124 6.46627 8.20124C6.3674 8.20124 6.27075 8.19101 6.17631 8.17055L6.1763 8.17055C6.0939 8.1527 6.01318 8.12706 5.93415 8.09363C5.90728 8.08227 5.88092 8.07014 5.85507 8.05724C5.79611 8.14404 5.74117 8.23307 5.69025 8.32435L5.69024 8.32436L5.69023 8.32439C5.59953 8.48697 5.5216 8.65667 5.45642 8.83349C5.39461 9.00115 5.34571 9.1715 5.3097 9.34453L5.3097 9.34456C5.25948 9.58593 5.23438 9.83252 5.23438 10.0843C5.23438 10.3597 5.26417 10.6282 5.32376 10.8899L5.32377 10.89L5.32378 10.89L5.32378 10.89L5.3238 10.8901C5.37043 11.0949 5.43529 11.2955 5.51838 11.4919C5.6034 11.6929 5.70471 11.8833 5.82231 12.063L5.82252 12.0633C5.95797 12.2702 6.11501 12.463 6.29366 12.6417C6.4723 12.8203 6.66509 12.9774 6.87201 13.1128L6.87203 13.1128L6.87205 13.1128C7.05183 13.2305 7.24228 13.3319 7.4434 13.417C7.63989 13.5001 7.84052 13.5649 8.04531 13.6116L8.04574 13.6116C8.28565 13.6662 8.53126 13.6958 8.78257 13.7003L13.3999 13.7003C13.6799 13.7003 13.8999 13.9203 13.8999 14.2003C13.8999 14.4803 13.6799 14.7003 13.3999 14.7003L8.851 14.7003L8.851 14.701C8.82521 14.701 8.79947 14.7008 8.77378 14.7003L3 14.7003C2.72 14.7003 2.5 14.4803 2.5 14.2003C2.5 13.9203 2.72 13.7003 3 13.7003L5.97967 13.7003C5.84313 13.5915 5.71209 13.4743 5.58655 13.3488C5.36194 13.1242 5.16407 12.882 4.99293 12.6221L4.99292 12.6221L4.99291 12.6221C4.83961 12.3893 4.70777 12.1425 4.59738 11.8815C4.48795 11.6228 4.40327 11.3586 4.34332 11.0889L4.34332 11.0888C4.27069 10.7621 4.23438 10.4272 4.23438 10.0843C4.23438 9.77308 4.26452 9.46791 4.32482 9.16882L4.32483 9.16876L4.32484 9.16872L4.32485 9.16868C4.37135 8.93804 4.43578 8.71101 4.51814 8.4876C4.60317 8.25695 4.70515 8.03582 4.82408 7.82422L4.82409 7.82419L4.8241 7.82418C4.9286 7.63825 5.04619 7.45969 5.17687 7.28848C5.15782 7.23459 5.1423 7.17995 5.13029 7.12454L5.13029 7.12452C5.10984 7.03009 5.09961 6.93344 5.09961 6.83458C5.09961 6.73571 5.10984 6.63905 5.1303 6.54461L5.1303 6.5446C5.14815 6.4622 5.17379 6.38148 5.20721 6.30246C5.22372 6.26343 5.24185 6.22546 5.26159 6.18857ZM6.02725 5.54001C6.0763 5.52331 6.12599 5.50951 6.1763 5.49861L6.17631 5.4986C6.27075 5.47815 6.3674 5.46792 6.46627 5.46792C6.56513 5.46792 6.66179 5.47815 6.75623 5.49861C6.83863 5.51646 6.91935 5.5421 6.99839 5.57552C7.07697 5.60876 7.1512 5.64855 7.2211 5.69488C7.29669 5.745 7.36721 5.80277 7.43264 5.8682C7.49808 5.93364 7.55585 6.00415 7.60596 6.07975C7.6523 6.14964 7.69208 6.22388 7.72532 6.30246C7.75875 6.38149 7.78439 6.46221 7.80224 6.54462L7.80224 6.54463C7.8227 6.63907 7.83293 6.73571 7.83293 6.83458C7.83293 6.93345 7.8227 7.0301 7.80224 7.12454L7.80223 7.12456C7.79134 7.17487 7.77753 7.22455 7.76083 7.2736L9.02901 8.54178C9.07783 8.59059 9.1317 8.6272 9.19062 8.65161C9.24955 8.67602 9.31353 8.68822 9.38256 8.68822C9.4516 8.68822 9.51558 8.67602 9.57451 8.65161C9.63343 8.6272 9.6873 8.59059 9.73612 8.54178L10.7732 7.50471C10.822 7.4559 10.8586 7.40203 10.883 7.3431C10.9074 7.28418 10.9196 7.22019 10.9196 7.15116C10.9196 7.08212 10.9074 7.01814 10.883 6.95922C10.8586 6.90029 10.822 6.84642 10.7732 6.79761L6.67202 2.69644C6.6232 2.64763 6.56933 2.61101 6.51041 2.58661C6.45148 2.5622 6.3875 2.55 6.31847 2.55C6.24943 2.55 6.18545 2.5622 6.12652 2.58661C6.0676 2.61101 6.01373 2.64763 5.96491 2.69644L4.92785 3.73351C4.87903 3.78232 4.84242 3.83619 4.81801 3.89512C4.7936 3.95404 4.7814 4.01803 4.7814 4.08706C4.7814 4.1561 4.7936 4.22008 4.81801 4.279C4.84242 4.33793 4.87903 4.3918 4.92785 4.44061L6.02725 5.54001ZM6.46627 6.46792C6.41564 6.46792 6.36872 6.47687 6.32551 6.49477C6.2823 6.51267 6.2428 6.53951 6.207 6.57531C6.1712 6.61111 6.14436 6.65061 6.12646 6.69382C6.10856 6.73704 6.09961 6.78395 6.09961 6.83458C6.09961 6.8852 6.10856 6.93212 6.12646 6.97533C6.14436 7.01854 6.1712 7.05805 6.207 7.09384C6.2428 7.12964 6.2823 7.15649 6.32551 7.17439C6.36872 7.19229 6.41564 7.20124 6.46627 7.20124C6.51689 7.20124 6.56381 7.19229 6.60702 7.17439C6.65023 7.15649 6.68974 7.12964 6.72553 7.09384C6.76133 7.05805 6.78818 7.01854 6.80608 6.97533C6.82398 6.93212 6.83293 6.8852 6.83293 6.83458C6.83293 6.78395 6.82398 6.73703 6.80608 6.69382C6.78818 6.65061 6.76133 6.61111 6.72553 6.57531C6.68974 6.53951 6.65023 6.51267 6.60702 6.49477C6.56381 6.47687 6.51689 6.46792 6.46627 6.46792ZM13.7536 8.48784L10.6895 11.5519C10.4915 11.7499 10.1804 11.7499 9.98238 11.5519C9.78439 11.354 9.78439 11.0428 9.98238 10.8448L13.0465 7.78074C13.2445 7.58275 13.5556 7.58275 13.7536 7.78074C13.9516 7.97873 13.9516 8.28985 13.7536 8.48784Z" fill="rgb(25,25,25)" fill-rule="evenodd" />
</svg>
