<svg viewBox="0 0 13.7144 13.7143" xmlns="http://www.w3.org/2000/svg" xmlns:xlink="http://www.w3.org/1999/xlink" width="13.714355" height="13.714294" fill="none">
		<rect id="编辑-edit" width="13.714286" height="13.714286" x="-0.000488" y="0.000000" />
		<path id="形状结合" d="M8.49664 2.0004C9.33348 1.16356 10.6903 1.16356 11.5271 2.0004L11.6235 2.10325C12.3626 2.94495 12.3305 4.22749 11.5271 5.03086L4.93389 11.6241C4.69277 11.8652 4.36575 12.0006 4.02475 12.0006L2.12686 12.0006C1.79548 12.0006 1.52686 11.732 1.52686 11.4006L1.52686 9.50275C1.52686 9.16175 1.66231 8.83473 1.90343 8.59361L8.49664 2.0004ZM11.3955 11.1234C11.6322 11.1234 11.8241 11.3152 11.8241 11.5519C11.8241 11.7886 11.6322 11.9805 11.3955 11.9805L7.1098 11.9805C6.8731 11.9805 6.68123 11.7886 6.68123 11.5519C6.68123 11.3152 6.8731 11.1234 7.1098 11.1234L11.3955 11.1234ZM7.53314 4.1762L2.50952 9.1997C2.42915 9.28007 2.384 9.38908 2.384 9.50275L2.38421 11.1433L4.02475 11.1435C4.11568 11.1435 4.20364 11.1146 4.27633 11.0619L9.35085 5.99392L7.53314 4.1762ZM10.8293 2.5231C10.3242 2.10613 9.5753 2.13392 9.10273 2.60649L8.13886 3.56992L9.95714 5.3882L10.921 4.42477C11.3992 3.94657 11.422 3.18542 10.9893 2.68028L10.921 2.60649L10.8293 2.5231Z" fill="rgb(25,25,25)" fill-rule="nonzero" />
	</svg>