<svg viewBox="0 0 20 20" xmlns="http://www.w3.org/2000/svg" xmlns:xlink="http://www.w3.org/1999/xlink" width="20.000000" height="20.000000" fill="none" customFrame="#000000">
	<rect id="icon/展开" width="20.000000" height="20.000000" x="0.000000" y="0.000000" />
	<path id="path" d="M5 3.125L15 3.125C16.0375 3.125 16.875 3.9625 16.875 5L16.875 15C16.875 16.0375 16.0375 16.875 15 16.875L5 16.875C3.9625 16.875 3.125 16.0375 3.125 15L3.125 5C3.125 3.9625 3.9625 3.125 5 3.125ZM5 1.875C3.275 1.875 1.875 3.275 1.875 5L1.875 15C1.875 16.725 3.275 18.125 5 18.125L15 18.125C16.725 18.125 18.125 16.725 18.125 15L18.125 5C18.125 3.275 16.725 1.875 15 1.875L5 1.875Z" fill="rgb(25,25,25)" fill-rule="nonzero" />
	<path id="矩形 6" d="M0 0L15 0" stroke="rgb(25,25,25)" stroke-linecap="round" stroke-width="1.25" transform="matrix(0,1,-1,0,7.5,2.5)" />
	<path id="矢量 8611" d="M14.1695 10.5513C14.4767 10.2467 14.4767 9.75295 14.1695 9.44885L11.359 6.66282C11.1396 6.44573 10.7839 6.44573 10.5645 6.66282C10.345 6.88034 10.345 7.23317 10.5645 7.45069L13.1366 10.0001L10.5645 12.5494C10.3694 12.7426 10.3478 13.0428 10.4994 13.2599L10.5645 13.3369C10.7839 13.5544 11.1396 13.5544 11.359 13.3369L14.1695 10.5513Z" fill="rgb(25,25,25)" fill-rule="evenodd" />
</svg>
