<svg viewBox="0 0 13.7144 13.7143" xmlns="http://www.w3.org/2000/svg" xmlns:xlink="http://www.w3.org/1999/xlink" width="13.714355" height="13.714294" fill="none">
		<rect id="隐藏-hide" width="13.714286" height="13.714286" x="0.000000" y="0.000000" />
		<path id="形状结合" d="M6.8577 2.71371C8.48217 2.71371 9.96999 3.45763 11.2922 4.68537C11.7484 5.10898 12.1524 5.56178 12.501 6.01491C12.531 6.054 12.5598 6.0919 12.5873 6.12853L12.7361 6.33231L12.8529 6.50146L12.937 6.63196C13.0217 6.7697 13.0217 6.94344 12.937 7.08119L12.8529 7.21168L12.7361 7.38084L12.5873 7.58462L12.501 7.69823C12.1524 8.15137 11.7484 8.60416 11.2922 9.02777C9.96999 10.2555 8.48217 10.9994 6.8577 10.9994C5.23324 10.9994 3.74541 10.2555 2.42322 9.02777C1.96703 8.60416 1.563 8.15137 1.21443 7.69823C1.18436 7.65914 1.1556 7.62124 1.12814 7.58462L0.979282 7.38084L0.862521 7.21168L0.778419 7.08119C0.693652 6.94344 0.693652 6.7697 0.778419 6.63196L0.862521 6.50146L0.979282 6.33231L1.12814 6.12853L1.21443 6.01491C1.563 5.56178 1.96703 5.10898 2.42322 4.68537C3.74541 3.45763 5.23324 2.71371 6.8577 2.71371ZM6.8577 3.57086C5.48217 3.57086 4.18428 4.2198 3.00647 5.31348C2.58766 5.70238 2.2149 6.12012 1.89383 6.53752C1.8665 6.57305 1.84042 6.60739 1.8156 6.64048L1.65827 6.85572L1.89383 7.17562C2.2149 7.59303 2.58766 8.01077 3.00647 8.39966C4.18428 9.49334 5.48217 10.1423 6.8577 10.1423C8.23324 10.1423 9.53113 9.49334 10.7089 8.39966C11.1277 8.01077 11.5005 7.59303 11.8216 7.17562C11.8489 7.1401 11.875 7.10575 11.8998 7.07267L12.0563 6.85572L11.8216 6.53752C11.5005 6.12012 11.1277 5.70238 10.7089 5.31348C9.53113 4.2198 8.23324 3.57086 6.8577 3.57086ZM6.8577 4.28514C8.27785 4.28514 9.42913 5.43642 9.42913 6.85657C9.42913 8.27672 8.27785 9.428 6.8577 9.428C5.43755 9.428 4.28627 8.27672 4.28627 6.85657C4.28627 5.43642 5.43755 4.28514 6.8577 4.28514ZM6.8577 5.14229C5.91094 5.14229 5.14342 5.90981 5.14342 6.85657C5.14342 7.80334 5.91094 8.57086 6.8577 8.57086C7.80447 8.57086 8.57199 7.80334 8.57199 6.85657C8.57199 5.90981 7.80447 5.14229 6.8577 5.14229Z" fill="rgb(25,25,25)" fill-rule="nonzero" />
	</svg>