<svg viewBox="0 0 16 16" xmlns="http://www.w3.org/2000/svg" xmlns:xlink="http://www.w3.org/1999/xlink" width="16.000000" height="16.000000" fill="none">
	<rect id=".json" width="16.000000" height="16.000000" x="0.000000" y="0.000000" />
	<path id="矢量 8602" d="M2.66634 12L2.66634 9.53333C2.66634 9.25719 2.56871 9.02149 2.37345 8.82623C2.17819 8.63096 1.94248 8.53333 1.66634 8.53333L1.33301 8.53333L1.33301 7.46667L1.66634 7.46667C1.94248 7.46667 2.17819 7.36904 2.37345 7.17377C2.56871 6.97851 2.66634 6.74281 2.66634 6.46667L2.66634 4C2.66634 3.44772 2.8616 2.97631 3.25213 2.58579C3.64265 2.19526 4.11406 2 4.66634 2L5.33301 2L5.33301 3.33333L4.66634 3.33333C4.2219 3.33333 3.99967 3.55556 3.99967 4L3.99967 6.73333C3.99983 7.37647 3.6945 7.7987 3.08367 8C3.6945 8.2013 3.99983 8.62353 3.99967 9.26667L3.99967 12C3.99967 12.4444 4.2219 12.6667 4.66634 12.6667L5.33301 12.6667L5.33301 14L4.66634 14C4.11406 14 3.64265 13.8047 3.25213 13.4142C2.8616 13.0237 2.66634 12.5523 2.66634 12ZM13.333 9.53333L13.333 12C13.333 12.5523 13.1377 13.0237 12.7472 13.4142C12.3567 13.8047 11.8853 14 11.333 14L10.6663 14L10.6663 12.6667L11.333 12.6667C11.7775 12.6667 11.9997 12.4444 11.9997 12L11.9997 9.26667C11.9995 8.62353 12.3048 8.2013 12.9157 8C12.3048 7.7987 11.9995 7.37647 11.9997 6.73333L11.9997 4C11.9997 3.55556 11.7775 3.33333 11.333 3.33333L10.6663 3.33333L10.6663 2L11.333 2C11.8853 2 12.3567 2.19526 12.7472 2.58579C13.1377 2.97631 13.333 3.44772 13.333 4L13.333 6.46667C13.333 6.74281 13.4306 6.97851 13.6259 7.17377C13.8212 7.36904 14.0569 7.46667 14.333 7.46667L14.6663 7.46667L14.6663 8.53333L14.333 8.53333C14.0569 8.53333 13.8212 8.63096 13.6259 8.82623C13.4306 9.02149 13.333 9.25719 13.333 9.53333Z" fill="rgb(255,154,46)" fill-rule="nonzero" />
</svg>
