<svg xmlns="http://www.w3.org/2000/svg" xmlns:xlink="http://www.w3.org/1999/xlink" viewBox="0 0 40 40" width="40.000000" height="40.000000" fill="none" customFrame="#000000">
	<rect id="沉浸式-附件格式" width="40.000000" height="40.000000" x="0.000244" y="0.000000"/>
	<rect id="矩形" width="40.000000" height="40.000000" x="0.000244" y="0.000000"/>
	<g id="编组-89">
		<rect id="矩形" width="33.333332" height="33.333336" x="3.333740" y="3.333984"/>
		<g id="ic_normal_white_grid_documents">
			<path id="矩形备份-81" d="M25.8333 3.33398L34.5833 12.084L27.738 12.084C26.686 12.084 25.8333 11.2312 25.8333 10.1792L25.8333 3.33398L25.8333 3.33398Z" fill="rgb(199,201,254)" fill-rule="evenodd"/>
			<path id="矩形备份-23" d="M25.9566 3.33398L25.9416 10.1751C25.9393 11.227 26.7902 12.0817 27.8422 12.084L34.6874 12.084L34.6874 33.334C34.6874 35.1749 33.195 36.6673 31.3541 36.6673L8.85409 36.6673C7.01314 36.6673 5.52075 35.1749 5.52075 33.334L5.52075 6.66732C5.52075 4.82637 7.01314 3.33398 8.85409 3.33398L25.9566 3.33398L25.9566 3.33398Z" fill="rgb(116,121,244)" fill-rule="evenodd"/>
			<g id="编组-249">
				<rect id="矩形" width="15.625000" height="1.666667" x="12.187744" y="18.541992" rx="0.833333" fill="rgb(255,255,255)"/>
				<rect id="矩形备份" width="15.625000" height="1.666667" x="12.187744" y="23.541992" rx="0.833333" fill="rgb(255,255,255)"/>
				<rect id="矩形备份-2" width="9.479168" height="1.666667" x="12.187744" y="28.541992" rx="0.833333" fill="rgb(255,255,255)"/>
			</g>
		</g>
	</g>
</svg>