<svg viewBox="0 0 16 16" xmlns="http://www.w3.org/2000/svg" xmlns:xlink="http://www.w3.org/1999/xlink" width="16.000000" height="16.000000" fill="none">
	<rect id=".py" width="16.000000" height="16.000000" x="0.000000" y="0.000000" />
	<path id="合并" d="M4 3.25L4 4L3.25 4C3.0848 4 2.92342 4.01732 2.76587 4.05196C2.63257 4.08125 2.50195 4.12294 2.37402 4.17702C2.24585 4.23123 2.12472 4.29603 2.01062 4.37143C1.88489 4.45444 1.7677 4.55031 1.65906 4.65901C1.55033 4.76772 1.45447 4.8849 1.37146 5.01057C1.29602 5.12473 1.2312 5.24589 1.177 5.37404C1.12292 5.50191 1.0813 5.63251 1.052 5.76582C1.01733 5.9234 1 6.08479 1 6.25L1 9.75C1 9.91521 1.01733 10.0766 1.052 10.2342C1.0813 10.3675 1.12297 10.4981 1.177 10.626C1.2312 10.7541 1.29602 10.8753 1.37146 10.9894C1.45447 11.1151 1.55033 11.2323 1.65906 11.341C1.7677 11.4497 1.88489 11.5455 2.01062 11.6286C2.12476 11.704 2.24585 11.7688 2.37402 11.823C2.50179 11.877 2.63228 11.9187 2.7655 11.948C2.92306 11.9826 3.0848 12 3.25 12L4 12L4 12.75C4 12.9152 4.01733 13.0766 4.052 13.2342C4.08122 13.3673 4.12297 13.4983 4.177 13.626C4.2312 13.7541 4.29602 13.8753 4.37146 13.9894C4.45447 14.1151 4.55029 14.2323 4.65906 14.341C4.7677 14.4497 4.88489 14.5456 5.01062 14.6286C5.12476 14.704 5.24585 14.7688 5.37402 14.823C5.50187 14.877 5.63245 14.9187 5.76575 14.948C5.92334 14.9827 6.08484 15 6.25 15L9.75 15C9.91516 15 10.0765 14.9827 10.2341 14.9481C10.3676 14.9188 10.498 14.8771 10.626 14.823C10.7542 14.7688 10.8752 14.704 10.9894 14.6286C11.1151 14.5456 11.2323 14.4497 11.3409 14.341C11.4497 14.2323 11.5455 14.1151 11.6285 13.9894C11.704 13.8753 11.7688 13.7541 11.823 13.626C11.8771 13.4981 11.9187 13.3675 11.948 13.2342C11.9827 13.0766 12 12.9152 12 12.75L12 12L12.75 12C12.9152 12 13.0765 11.9827 13.2341 11.948C13.3676 11.9187 13.498 11.8771 13.626 11.823C13.7542 11.7688 13.8752 11.704 13.9894 11.6286C14.1151 11.5455 14.2323 11.4497 14.3409 11.341C14.4497 11.2323 14.5455 11.1151 14.6285 10.9894C14.704 10.8753 14.7688 10.7541 14.823 10.626C14.8771 10.4981 14.9187 10.3675 14.948 10.2342C14.9827 10.0766 15 9.91521 15 9.75L15 6.25C15 6.08481 14.9827 5.9234 14.948 5.76582C14.9187 5.63251 14.8771 5.50191 14.823 5.37404C14.7688 5.24588 14.704 5.12473 14.6285 5.01057C14.5455 4.8849 14.4497 4.76772 14.3409 4.65901C14.2323 4.55031 14.1151 4.45445 13.9894 4.37144C13.8752 4.29604 13.7542 4.23123 13.626 4.17702C13.4981 4.12295 13.3676 4.08126 13.2343 4.05196C13.0767 4.01732 12.9152 4 12.75 4L12 4L12 3.25C12 3.0848 11.9827 2.92341 11.948 2.76582C11.9187 2.63251 11.877 2.5019 11.823 2.37404C11.7688 2.24588 11.704 2.12473 11.6285 2.01057C11.5455 1.8849 11.4497 1.76772 11.3409 1.65901C11.2323 1.55031 11.1151 1.45445 10.9894 1.37144C10.8752 1.29604 10.7542 1.23123 10.626 1.17702C10.4981 1.12295 10.3676 1.08127 10.2343 1.05197C10.0767 1.01733 9.91516 1 9.75 1L6.25 1C6.08484 1 5.92346 1.01732 5.76587 1.05196C5.63245 1.08125 5.50195 1.12294 5.37402 1.17702C5.24593 1.23122 5.1248 1.29601 5.01062 1.3714C4.88489 1.45441 4.7677 1.55031 4.65906 1.65901C4.55029 1.76772 4.45447 1.8849 4.37146 2.01057C4.29602 2.12473 4.2312 2.24588 4.177 2.37404C4.12292 2.50191 4.0813 2.63251 4.052 2.76582C4.01733 2.92341 4 3.08481 4 3.25ZM8 4.5C8 4.78 7.78003 5 7.5 5L3.25 5C3.15251 5 3.0575 5.01079 2.96497 5.03236C2.89648 5.04832 2.82922 5.07025 2.76355 5.09802C2.69531 5.12691 2.63062 5.16124 2.56934 5.20103C2.49658 5.24835 2.42883 5.30338 2.36609 5.36612C2.30334 5.42885 2.24841 5.4966 2.20105 5.56937C2.16125 5.63057 2.12695 5.69531 2.09802 5.7636C2.07031 5.82925 2.04834 5.89627 2.03247 5.96468C2.01086 6.05727 2 6.15237 2 6.25L2 9.75C2 9.84763 2.01086 9.94273 2.03247 10.0353C2.04834 10.1037 2.07031 10.1707 2.09802 10.2364C2.12691 10.3047 2.16125 10.3694 2.20105 10.4306C2.24841 10.5034 2.30334 10.5712 2.36609 10.6339C2.42883 10.6966 2.49658 10.7516 2.56934 10.799C2.63045 10.8387 2.69535 10.8731 2.76355 10.902C2.82922 10.9297 2.89624 10.9516 2.96472 10.9676C3.05725 10.9892 3.15234 11 3.25 11L4 11L4 9.75C4 9.58479 4.01733 9.4234 4.052 9.26582C4.0813 9.13251 4.12292 9.00191 4.177 8.87404C4.2312 8.74588 4.29602 8.62473 4.37146 8.51057C4.45447 8.3849 4.55029 8.26772 4.65906 8.15901C4.7677 8.05031 4.88489 7.95445 5.01062 7.87143C5.12476 7.79604 5.24585 7.73123 5.37402 7.67702C5.50195 7.62294 5.63245 7.58125 5.76587 7.55196C5.92334 7.51732 6.08484 7.5 6.25 7.5L9.75 7.5C9.84766 7.5 9.94275 7.4892 10.0354 7.46758C10.1038 7.4516 10.1708 7.42973 10.2365 7.40198C10.3047 7.37309 10.3694 7.33875 10.4307 7.29895C10.5034 7.25163 10.5712 7.19661 10.6339 7.13388C10.6967 7.07115 10.7516 7.0034 10.799 6.93065C10.8387 6.86945 10.873 6.8047 10.902 6.7364C10.9296 6.67097 10.9515 6.60417 10.9674 6.536C10.989 6.44342 11 6.34763 11 6.25L11 3.25C11 3.15254 10.9892 3.05758 10.9677 2.96513C10.9517 2.89673 10.9297 2.82925 10.902 2.7636C10.873 2.69531 10.8387 2.63057 10.799 2.56937C10.7516 2.4966 10.6967 2.42885 10.6339 2.36612C10.5712 2.30338 10.5034 2.24835 10.4307 2.20103C10.3694 2.16125 10.3047 2.12691 10.2365 2.09802C10.1708 2.07025 10.1038 2.04839 10.0353 2.03242C9.94275 2.0108 9.84766 2 9.75 2L6.25 2C6.15234 2 6.05725 2.0108 5.96472 2.03242C5.89624 2.04839 5.82922 2.07025 5.76355 2.09802C5.69531 2.12691 5.63062 2.16125 5.56934 2.20103C5.49658 2.24835 5.42883 2.30338 5.36609 2.36612C5.30343 2.42877 5.24845 2.49643 5.20117 2.56909C5.16138 2.63029 5.12691 2.69531 5.09802 2.7636C5.07035 2.8291 5.0485 2.89597 5.03247 2.96422C5.01086 3.05681 5 3.15237 5 3.25L5 4L7.5 4C7.78003 4 8 4.22 8 4.5ZM6.75 2.2C6.33582 2.2 6 2.53578 6 2.95C6 3.36421 6.33582 3.7 6.75 3.7C7.16418 3.7 7.5 3.36421 7.5 2.95C7.5 2.53578 7.16418 2.2 6.75 2.2ZM12 5L12 6.25C12 6.41521 11.9827 6.5766 11.948 6.73419C11.9187 6.86749 11.8771 6.99809 11.823 7.12596C11.7688 7.25412 11.704 7.37527 11.6285 7.48943C11.5455 7.6151 11.4497 7.73228 11.3409 7.84099C11.2323 7.94969 11.1151 8.04556 10.9894 8.12857C10.8752 8.20396 10.7542 8.26877 10.626 8.32298C10.498 8.37706 10.3676 8.41875 10.2341 8.44804C10.0765 8.48268 9.91516 8.5 9.75 8.5L6.25 8.5C6.15251 8.5 6.0575 8.51078 5.96497 8.53235C5.89648 8.54831 5.82922 8.57025 5.76355 8.59802C5.69531 8.62691 5.63062 8.66124 5.56934 8.70103C5.49658 8.74835 5.42883 8.80338 5.36609 8.86612C5.30334 8.92885 5.24841 8.9966 5.20105 9.06937C5.16125 9.13057 5.12695 9.19531 5.09802 9.2636C5.07027 9.32925 5.04842 9.39628 5.03247 9.46468C5.0109 9.5571 5 9.65256 5 9.75L5 12.75C5 12.8476 5.01086 12.9427 5.03247 13.0353C5.04834 13.1037 5.07031 13.1707 5.09802 13.2364C5.12695 13.3047 5.16125 13.3694 5.20105 13.4306C5.24841 13.5034 5.30334 13.5712 5.36609 13.6339C5.42883 13.6966 5.49658 13.7516 5.56934 13.799C5.63062 13.8387 5.69531 13.8731 5.76355 13.902C5.82922 13.9297 5.89624 13.9516 5.96472 13.9676C6.05725 13.9892 6.15234 14 6.25 14L9.75 14C9.84766 14 9.94275 13.9892 10.0354 13.9676C10.1038 13.9516 10.1708 13.9297 10.2365 13.902C10.3047 13.8731 10.3694 13.8387 10.4307 13.799C10.5034 13.7516 10.5712 13.6966 10.6339 13.6339C10.6967 13.5712 10.7516 13.5034 10.799 13.4306C10.8387 13.3694 10.873 13.3047 10.902 13.2364C10.9297 13.1708 10.9517 13.1037 10.9675 13.0353C10.9891 12.9427 11 12.8476 11 12.75L11 12L8.5 12C8.21997 12 8 11.78 8 11.5C8 11.22 8.21997 11 8.5 11L12.75 11C12.8477 11 12.9427 10.9892 13.0353 10.9676C13.1038 10.9516 13.1708 10.9297 13.2365 10.902C13.3047 10.8731 13.3694 10.8387 13.4307 10.799C13.5034 10.7516 13.5712 10.6966 13.6339 10.6339C13.6967 10.5712 13.7516 10.5034 13.799 10.4306C13.8387 10.3694 13.873 10.3047 13.902 10.2364C13.9297 10.1708 13.9517 10.1037 13.9675 10.0353C13.9891 9.94275 14 9.84764 14 9.75L14 6.25C14 6.15237 13.9891 6.05725 13.9675 5.96468C13.9517 5.89627 13.9297 5.82924 13.902 5.7636C13.873 5.69531 13.8387 5.63057 13.799 5.56937C13.7516 5.4966 13.6967 5.42885 13.6339 5.36612C13.5712 5.30338 13.5034 5.24835 13.4307 5.20105C13.3694 5.16125 13.3047 5.12691 13.2365 5.09802C13.1708 5.07025 13.1038 5.04839 13.0353 5.03242C12.9427 5.0108 12.8477 5 12.75 5L12 5ZM8.5 12.95C8.5 12.5358 8.83582 12.2 9.25 12.2C9.66418 12.2 10 12.5358 10 12.95C10 13.3642 9.66418 13.7 9.25 13.7C8.83582 13.7 8.5 13.3642 8.5 12.95Z" fill="rgb(55,113,162)" fill-rule="evenodd" />
</svg>
