<svg viewBox="0 0 16 16" xmlns="http://www.w3.org/2000/svg" xmlns:xlink="http://www.w3.org/1999/xlink" width="16.000000" height="16.000000" fill="none">
	<defs>
		<filter id="pixso_custom_mask_type_alpha">
			<feColorMatrix type="matrix" values="0 0 0 0 1 0 0 0 0 1 0 0 0 0 1 0 0 0 1 0 " />
		</filter>
	</defs>
	<mask id="mask_12" width="16.000000" height="16.000000" x="0.000000" y="0.000000" maskUnits="userSpaceOnUse">
		<g filter="url(#pixso_custom_mask_type_alpha)">
			<g id="clipPath_681">
				<rect id="矩形 9" width="16.000000" height="16.000000" x="0.000000" y="0.000000" fill="rgb(243,79,41)" />
			</g>
		</g>
	</mask>
	<rect id=".gitignore" width="16.000000" height="16.000000" x="0.000000" y="0.000000" />
	<rect id="ic_public_info_file-信息文件/base/ic_public_info_file" width="16.000000" height="16.000000" x="0.000000" y="0.000000" fill="rgb(255,255,255)" fill-opacity="0" />
	<g id="clip path group" mask="url(#mask_12)">
		<g id="support">
			<rect id="support" width="16.000000" height="16.000000" x="0.000000" y="0.000000" />
			<path id="path1" d="M-0.000471643 7.99338C-0.000471643 6.74338 -0.00380498 5.49338 -0.000471643 4.24338C-0.00380498 3.63671 0.0728617 3.03338 0.219528 2.45005C0.549528 1.21005 1.3562 0.473381 2.5962 0.186714C3.2162 0.0533807 3.85288 -0.00995277 4.48618 4.7227e-05C6.88285 4.7227e-05 9.27951 4.7227e-05 11.6795 4.7227e-05C12.2828 -0.00328611 12.8862 0.0633807 13.4762 0.206714C14.7528 0.516715 15.5195 1.32671 15.8095 2.60005C15.9429 3.20005 16.0028 3.81338 15.9962 4.43005C15.9962 6.85338 15.9962 9.27672 15.9962 11.6967C15.9995 12.2967 15.9328 12.8967 15.7929 13.48C15.4795 14.7567 14.6662 15.5167 13.3962 15.81C12.7728 15.9434 12.1395 16.0067 11.5028 15.9967C9.11618 15.9967 6.72955 15.9967 4.34285 15.9967C3.73285 16.0034 3.1262 15.9334 2.53286 15.7934C1.24953 15.4834 0.479528 14.67 0.189528 13.39C0.0395284 12.74 -0.000471643 12.09 -0.000471643 11.4334C-0.000471643 10.2867 -0.000471643 9.14005 -0.000471643 7.99338Z" fill="rgb(255,255,255)" fill-opacity="0" fill-rule="evenodd" />
			<circle id="path2" cx="8" cy="8" r="8" fill="rgb(255,255,255)" fill-opacity="0" />
		</g>
	</g>
	<g id="border">
		<rect id="border" width="16.000000" height="16.000000" x="0.000000" y="0.000000" />
		<g id="组合 10">
			<rect id="矩形 10" width="9.899495" height="9.899495" x="0.000000" y="0.000000" rx="0.659303" fill="rgb(196,196,196)" fill-opacity="0" transform="matrix(0.707107,0.707107,-0.707107,0.707107,8,1)" />
			<rect id="矩形 10" width="9.899495" height="9.899495" x="0.000000" y="0.000000" rx="0.659303" stroke="rgb(243,79,41)" stroke-width="1" transform="matrix(0.707107,0.707107,-0.707107,0.707107,8,1)" />
			<g id="组合 9">
				<path id="矢量 8382" d="M6.92383 4.90382C6.92383 4.3197 7.40595 3.84619 8.00069 3.84619C8.59543 3.84619 9.07755 4.3197 9.07755 4.90382C9.07755 5.48794 8.59543 5.96145 8.00069 5.96145C7.40595 5.96145 6.92383 5.48794 6.92383 4.90382ZM10.1544 8.07672C10.1544 7.4926 10.6365 7.01909 11.2313 7.01909C11.826 7.01909 12.3081 7.4926 12.3081 8.07672C12.3081 8.66084 11.826 9.13435 11.2313 9.13435C10.6365 9.13435 10.1544 8.66084 10.1544 8.07672ZM8.00069 10.192C7.40595 10.192 6.92383 10.6655 6.92383 11.2496C6.92383 11.8337 7.40595 12.3072 8.00069 12.3072C8.59543 12.3072 9.07755 11.8337 9.07755 11.2496C9.07755 10.6655 8.59543 10.192 8.00069 10.192Z" fill="rgb(243,79,41)" fill-rule="evenodd" />
				<path id="矢量 8380" d="M8 5.43262L8 10.7208" stroke="rgb(243,79,41)" stroke-width="1" />
				<path id="矢量 8381" d="M8.53906 5.43262L11.2312 8.07668" stroke="rgb(243,79,41)" stroke-width="1" />
			</g>
		</g>
	</g>
</svg>
