<svg viewBox="0 0 16 16" xmlns="http://www.w3.org/2000/svg" xmlns:xlink="http://www.w3.org/1999/xlink" width="16.000000" height="16.000000" fill="none">
	<mask id="mask_11" width="16.000000" height="16.000000" x="0.000000" y="0.000000" maskUnits="userSpaceOnUse">
		<g filter="url(#pixso_custom_mask_type_alpha)">
			<g id="mask_343">
				<path id="蒙版" d="M9.5 0L0 0L0 16L16 16L16 5.5L11.5667 5.5C10.4622 5.5 9.5 4.5046 9.5 3.40003L9.5 0Z" fill="rgb(255,255,255)" fill-opacity="0" fill-rule="evenodd" />
			</g>
		</g>
	</mask>
	<mask id="mask_10" width="16.000000" height="15.999998" x="0.000000" y="-0.000977" maskUnits="userSpaceOnUse">
		<g filter="url(#pixso_custom_mask_type_alpha)">
			<g id="mask_342">
				<path id="减去顶层" d="M16 15.999L16 -0.000976562L0 -0.000976562L0 15.999L16 15.999ZM7.41707 5.56016C7.4186 5.52142 7.4238 5.48362 7.43267 5.44669C7.44137 5.41049 7.4536 5.37519 7.46937 5.34069C7.48457 5.3074 7.50254 5.27607 7.5233 5.24669L7.5233 5.24666C7.5444 5.21679 7.56837 5.18889 7.5952 5.16306C7.62213 5.13712 7.65097 5.11412 7.68173 5.09409C7.71193 5.07446 7.74397 5.05762 7.77787 5.04366C7.81283 5.02926 7.84853 5.01842 7.8849 5.01109C7.9225 5.00352 7.96087 4.99976 8 4.99976C8.04003 4.99976 8.0793 5.00372 8.1177 5.01162C8.155 5.01929 8.1915 5.03069 8.22723 5.04579C8.26183 5.06046 8.29447 5.07806 8.3251 5.09862C8.3563 5.11956 8.38543 5.14356 8.4125 5.17062C8.43957 5.19769 8.46357 5.22682 8.4845 5.25802C8.50506 5.28864 8.52266 5.32127 8.5373 5.35589C8.55243 5.39162 8.56383 5.42812 8.5715 5.46539C8.5794 5.50382 8.58337 5.54306 8.58337 5.58312C8.58337 5.62317 8.57941 5.66241 8.5715 5.70086C8.56383 5.73812 8.55243 5.77462 8.5373 5.81036C8.52267 5.84496 8.50507 5.87759 8.4845 5.90822C8.46357 5.93942 8.43957 5.96856 8.4125 5.99562C8.38543 6.02269 8.3563 6.04669 8.3251 6.06762C8.29447 6.08819 8.26183 6.10579 8.22723 6.12042C8.1915 6.13556 8.15497 6.14696 8.1177 6.15462C8.0793 6.16252 8.04003 6.16649 8 6.16649C7.96087 6.16649 7.92251 6.16271 7.88493 6.15516C7.84853 6.14782 7.81287 6.13699 7.7779 6.12259C7.744 6.10862 7.71193 6.09182 7.68173 6.07216C7.65097 6.05212 7.62213 6.02916 7.5952 6.00319C7.56837 5.97736 7.54443 5.94949 7.5233 5.91959C7.50257 5.89019 7.48457 5.85886 7.46937 5.82556C7.4536 5.79109 7.4414 5.75576 7.4327 5.71959C7.4238 5.68266 7.4186 5.64482 7.41707 5.60612C7.41677 5.59842 7.41663 5.59076 7.41667 5.58312C7.41663 5.57549 7.41677 5.56786 7.41707 5.56016ZM8.00077 6.83309C8.28077 6.83309 8.50077 7.05309 8.50077 7.33309L8.50077 11.9998C8.50077 12.2798 8.28077 12.4998 8.00077 12.4998C7.72077 12.4998 7.50077 12.2798 7.50077 11.9998L7.50077 7.33309C7.50077 7.05309 7.72077 6.83309 8.00077 6.83309Z" fill="rgb(255,255,255)" fill-opacity="0" fill-rule="evenodd" />
			</g>
		</g>
	</mask>
	<defs>
		<filter id="pixso_custom_mask_type_alpha">
			<feColorMatrix type="matrix" values="0 0 0 0 1 0 0 0 0 1 0 0 0 0 1 0 0 0 1 0 " />
		</filter>
	</defs>
	<mask id="mask_9" width="16.000000" height="16.000000" x="0.000000" y="0.000000" maskUnits="userSpaceOnUse">
		<g filter="url(#pixso_custom_mask_type_alpha)">
			<g id="clipPath_681">
				<rect id="矩形 9" width="16.000000" height="16.000000" x="0.000000" y="0.000000" fill="rgb(0,0,0)" />
			</g>
		</g>
	</mask>
	<rect id=".ini" width="16.000000" height="16.000000" x="0.000000" y="0.000000" />
	<rect id="ic_public_info_file-信息文件/base/ic_public_info_file" width="16.000000" height="16.000000" x="0.000000" y="0.000000" fill="rgb(255,255,255)" fill-opacity="0" />
	<g id="clip path group" mask="url(#mask_9)">
		<g id="support">
			<rect id="support" width="16.000000" height="16.000000" x="0.000000" y="0.000000" />
			<path id="path1" d="M-0.000471643 7.99338C-0.000471643 6.74338 -0.00380498 5.49338 -0.000471643 4.24338C-0.00380498 3.63671 0.0728617 3.03338 0.219528 2.45005C0.549528 1.21005 1.3562 0.473381 2.5962 0.186714C3.2162 0.0533807 3.85288 -0.00995277 4.48618 4.7227e-05C6.88285 4.7227e-05 9.27951 4.7227e-05 11.6795 4.7227e-05C12.2828 -0.00328611 12.8862 0.0633807 13.4762 0.206714C14.7528 0.516715 15.5195 1.32671 15.8095 2.60005C15.9429 3.20005 16.0028 3.81338 15.9962 4.43005C15.9962 6.85338 15.9962 9.27672 15.9962 11.6967C15.9995 12.2967 15.9328 12.8967 15.7929 13.48C15.4795 14.7567 14.6662 15.5167 13.3962 15.81C12.7728 15.9434 12.1395 16.0067 11.5028 15.9967C9.11618 15.9967 6.72955 15.9967 4.34285 15.9967C3.73285 16.0034 3.1262 15.9334 2.53286 15.7934C1.24953 15.4834 0.479528 14.67 0.189528 13.39C0.0395284 12.74 -0.000471643 12.09 -0.000471643 11.4334C-0.000471643 10.2867 -0.000471643 9.14005 -0.000471643 7.99338Z" fill="rgb(255,255,255)" fill-opacity="0" fill-rule="evenodd" />
			<circle id="path2" cx="8" cy="8" r="8" fill="rgb(255,255,255)" fill-opacity="0" />
		</g>
	</g>
	<g id="border">
		<rect id="border" width="16.000000" height="16.000000" x="0.000000" y="0.000000" />
		<g id="vertical_rectangle_auxiliary_shape-纵向矩形_副形-border">
			<rect id="vertical_rectangle_auxiliary_shape-纵向矩形_副形-border" width="16.000000" height="16.000244" x="0.000000" y="0.000000" />
			<g id="蒙版">
				<path id="path3" d="M12.1663 15.3332L3.83301 15.3332C2.72844 15.3332 1.83301 14.4377 1.83301 13.3332L1.83301 2.6665C1.83301 1.56193 2.72844 0.666504 3.83301 0.666504L10.1948 0.666504L10.1948 3.39977C10.1948 4.13617 10.7917 4.7331 11.5281 4.7331L14.1663 4.7331L14.1663 13.3332C14.1663 14.4377 13.2709 15.3332 12.1663 15.3332Z" fill-rule="evenodd" stroke="rgb(51,188,242)" stroke-linecap="round" stroke-linejoin="round" stroke-width="0.886666715" />
				<path id="path5-border" d="M11.4864 4.6665L14.167 4.6665L14.167 4.61687L10.2152 0.666504L10.167 0.666504L10.167 3.355C10.167 4.07934 10.7578 4.6665 11.4864 4.6665Z" fill-rule="nonzero" stroke="rgb(51,188,242)" stroke-linecap="round" stroke-linejoin="round" stroke-width="0.886666715" />
			</g>
		</g>
		<path id="path7" d="M8.00106 7.3334L8.00106 12.0002M7.91699 5.58003C7.91873 5.53553 7.95536 5.5 8.00029 5.5C8.04633 5.5 8.08366 5.53733 8.08366 5.58337C8.08366 5.6294 8.04633 5.66673 8.00029 5.66673C7.95536 5.66673 7.91876 5.6312 7.91699 5.5867" fill-rule="evenodd" stroke="rgb(51,188,242)" stroke-linecap="round" stroke-linejoin="round" stroke-width="0.886666715" />
	</g>
	<g id="filled">
		<rect id="filled" width="16.000000" height="16.000000" x="0.000000" y="0.000000" />
		<g id="mask" mask="url(#mask_10)">
			<g id="蒙版">
				<g id="mask" mask="url(#mask_11)">
					<g id="蒙版">
						<path id="path" d="M10.1663 0.666504L10.1663 3.39977C10.1663 4.13617 10.7814 4.83317 11.5048 4.83317L14.1663 4.83317L14.1663 13.3332C14.1663 14.4377 13.2865 15.3332 12.2013 15.3332L3.79807 15.3332C2.71287 15.3332 1.83301 14.4377 1.83301 13.3332L1.83301 2.6665C1.83301 1.56193 2.71287 0.666504 3.79807 0.666504L10.1663 0.666504Z" fill="rgb(255,255,255)" fill-opacity="0" fill-rule="evenodd" />
						<path id="path" d="M12.2013 15.3332L3.79807 15.3332C2.71287 15.3332 1.83301 14.4377 1.83301 13.3332L1.83301 2.6665C1.83301 1.56193 2.71287 0.666504 3.79807 0.666504L10.1663 0.666504L10.1663 3.39977C10.1663 4.13617 10.7814 4.83317 11.5048 4.83317L14.1663 4.83317L14.1663 13.3332C14.1663 14.4377 13.2865 15.3332 12.2013 15.3332Z" fill-rule="evenodd" stroke="rgb(255,255,255)" stroke-opacity="0" stroke-linecap="round" stroke-linejoin="round" stroke-width="0.886666715" />
					</g>
				</g>
			</g>
		</g>
		<path id="path5" d="M10.5 3.18851L10.5 0.5L10.5482 0.5L14.5 4.45037L14.5 4.5L11.8194 4.5C11.0908 4.5 10.5 3.91283 10.5 3.18851Z" fill="rgb(255,255,255)" fill-opacity="0" fill-rule="evenodd" />
		<path id="path7(边框)" d="M7.433 5.44693C7.42413 5.48387 7.41893 5.52167 7.4174 5.5604C7.4171 5.5681 7.41696 5.57573 7.417 5.58337C7.41696 5.591 7.4171 5.59867 7.4174 5.60637C7.41893 5.64507 7.42413 5.6829 7.43303 5.71983C7.44173 5.756 7.45393 5.79133 7.4697 5.8258C7.4849 5.8591 7.5029 5.89043 7.52363 5.91983C7.54476 5.94973 7.5687 5.9776 7.59553 6.00343C7.62246 6.0294 7.6513 6.05237 7.68206 6.0724C7.71226 6.09207 7.74433 6.10887 7.77823 6.12283C7.8132 6.13723 7.84886 6.14807 7.88526 6.1554C7.92283 6.16297 7.9612 6.16673 8.00033 6.16673C8.04036 6.16673 8.07963 6.16277 8.11803 6.15487C8.1553 6.1472 8.19183 6.1358 8.22756 6.12067C8.26216 6.10603 8.2948 6.08843 8.32543 6.06787C8.35663 6.04693 8.38576 6.02293 8.41283 5.99587C8.4399 5.9688 8.4639 5.93967 8.48483 5.90847C8.5054 5.87783 8.523 5.8452 8.53763 5.8106C8.55276 5.77487 8.56416 5.73837 8.57183 5.7011C8.57973 5.66267 8.5837 5.62343 8.5837 5.58337C8.5837 5.5433 8.57973 5.50407 8.57183 5.46563C8.56416 5.42837 8.55276 5.39187 8.53763 5.35613C8.523 5.32153 8.5054 5.2889 8.48483 5.25827C8.4639 5.22707 8.4399 5.19793 8.41283 5.17087C8.38576 5.1438 8.35663 5.1198 8.32543 5.09887C8.2948 5.0783 8.26216 5.0607 8.22756 5.04603C8.19183 5.03093 8.15533 5.01953 8.11803 5.01187C8.07963 5.00397 8.04036 5 8.00033 5C7.9612 5 7.92283 5.00377 7.88523 5.01133C7.84886 5.01867 7.81316 5.0295 7.7782 5.0439C7.7443 5.05787 7.71226 5.0747 7.68206 5.09433C7.6513 5.11437 7.62246 5.13737 7.59553 5.1633C7.5687 5.18913 7.54473 5.21703 7.52363 5.2469C7.5029 5.2763 7.4849 5.30763 7.4697 5.34093C7.45393 5.37543 7.4417 5.41073 7.433 5.44693ZM8.5011 7.33333C8.5011 7.05333 8.2811 6.83333 8.0011 6.83333C7.7211 6.83333 7.5011 7.05333 7.5011 7.33333L7.5011 12C7.5011 12.28 7.7211 12.5 8.0011 12.5C8.2811 12.5 8.5011 12.28 8.5011 12L8.5011 7.33333Z" fill="rgb(255,255,255)" fill-opacity="0" fill-rule="evenodd" />
	</g>
</svg>
