<svg viewBox="0 0 16 16" xmlns="http://www.w3.org/2000/svg" xmlns:xlink="http://www.w3.org/1999/xlink" width="16.000000" height="16.000000" fill="none">
	<mask id="mask_14" width="16.000000" height="16.000000" x="0.000000" y="0.000000" maskUnits="userSpaceOnUse">
		<g filter="url(#pixso_custom_mask_type_alpha)">
			<g id="clip1830_64095_rx71wmpjci115777">
				<rect id="矩形 11" width="16.000000" height="16.000000" x="0.000000" y="0.000000" fill="rgb(0,0,0)" />
			</g>
		</g>
	</mask>
	<defs>
		<filter id="pixso_custom_mask_type_alpha">
			<feColorMatrix type="matrix" values="0 0 0 0 1 0 0 0 0 1 0 0 0 0 1 0 0 0 1 0 " />
		</filter>
	</defs>
	<mask id="mask_13" width="16.000000" height="16.000000" x="0.000000" y="0.000000" maskUnits="userSpaceOnUse">
		<g filter="url(#pixso_custom_mask_type_alpha)">
			<g id="clip1830_64094_rx71wmpjci115777">
				<rect id="矩形 12" width="16.000000" height="16.000000" x="0.000000" y="0.000000" fill="rgb(0,0,0)" />
			</g>
		</g>
	</mask>
	<rect id=".txt" width="16.000000" height="16.000000" x="0.000000" y="0.000000" />
	<rect id="矩形 10" width="16.000000" height="16.000000" x="0.000000" y="0.000000" fill="rgb(255,255,255)" fill-opacity="0" />
	<g id="clip path group" mask="url(#mask_13)">
		<g id="组合 12">
			<g id="clip path group" mask="url(#mask_14)">
				<g id="组合 14">
					<path id="矢量 7" d="M3.32759e-05 7.99338C3.32759e-05 6.74338 -0.00663339 5.49338 3.32759e-05 4.24338C-0.00663339 3.63671 0.0733666 3.03338 0.220033 2.45005C0.550033 1.21005 1.3567 0.470047 2.5967 0.186714C3.2167 0.0533806 3.85337 -0.00995275 4.4867 4.72467e-05C6.88337 4.72467e-05 9.28003 4.72467e-05 11.68 4.72467e-05C12.2834 -0.00328609 12.8867 0.0600472 13.4767 0.206714C14.7534 0.516714 15.52 1.32338 15.81 2.60005C15.9434 3.20005 16.0034 3.81005 15.9967 4.43005C15.9967 6.85338 15.9967 9.27671 15.9967 11.6967C16 12.2967 15.9334 12.8934 15.7934 13.4767C15.48 14.7567 14.6667 15.5167 13.3967 15.81C12.7734 15.9434 12.1367 16.0067 11.5 15.9967C9.1167 15.9967 6.73003 15.9967 4.34337 15.9967C3.73337 16.0034 3.1267 15.9334 2.53337 15.7934C1.25003 15.4834 0.480033 14.67 0.190033 13.3867C0.0367 12.74 3.32759e-05 12.09 3.32759e-05 11.4334C3.32759e-05 10.2867 3.32759e-05 9.13671 3.32759e-05 7.99338Z" fill="rgb(255,255,255)" fill-opacity="0" fill-rule="evenodd" />
					<circle id="椭圆 2" cx="8" cy="8" r="8" fill="rgb(255,255,255)" fill-opacity="0" />
				</g>
			</g>
			<path id="矢量 8" d="M12.1663 15.3332L3.83301 15.3332C2.72634 15.3332 1.83301 14.4365 1.83301 13.3332L1.83301 2.6665C1.83301 1.55984 2.72634 0.666504 3.83301 0.666504L10.333 0.666504L14.1663 4.6665L14.1663 13.3332C14.1663 14.4365 13.2697 15.3332 12.1663 15.3332ZM14.1663 4.6665L11.9997 4.6665C11.0763 4.6665 10.333 3.91984 10.333 2.99984L10.333 0.666504" fill-rule="nonzero" stroke="rgb(128,128,128)" stroke-linejoin="round" stroke-width="0.886666715" />
			<path id="矢量 9" d="M3.70312 10.9899L8.98979 10.9899M3.70312 7.68652L7.00646 7.68652" stroke="rgb(128,128,128)" stroke-linecap="round" stroke-linejoin="round" stroke-width="0.886666715" />
			<path id="矢量 10" d="M9.66634 0L9.66634 3.33333C9.66634 4.25333 10.4097 5 11.333 5L14.6663 5L14.6663 13.5C14.6663 14.88 13.5463 16 12.1663 16L3.83301 16C2.44967 16 1.33301 14.88 1.33301 13.5L1.33301 2.5C1.33301 1.11667 2.44967 0 3.83301 0L9.66634 0ZM14.6663 4.33333L11.333 4.33333C10.7797 4.33333 10.333 3.88333 10.333 3.33333L10.333 0L14.6663 4.33333ZM7.00634 8.18667L3.70301 8.18667C3.42301 8.18667 3.20301 7.96667 3.20301 7.68667C3.20301 7.40667 3.42301 7.18667 3.70301 7.18667L7.00634 7.18667C7.28634 7.18667 7.50634 7.40667 7.50634 7.68667C7.50634 7.96667 7.28634 8.18667 7.00634 8.18667ZM8.98967 11.49L3.70301 11.49C3.42301 11.49 3.20301 11.27 3.20301 10.99C3.20301 10.71 3.42301 10.49 3.70301 10.49L8.98967 10.49C9.26967 10.49 9.48967 10.71 9.48967 10.99C9.48967 11.27 9.26967 11.49 8.98967 11.49Z" fill="rgb(255,255,255)" fill-opacity="0" fill-rule="evenodd" />
			<path id="矢量 11" d="M11.333 4.33333L14.6663 4.33333L10.333 0L10.333 3.33333C10.333 3.88333 10.7797 4.33333 11.333 4.33333Z" fill="rgb(255,255,255)" fill-opacity="0" fill-rule="evenodd" />
		</g>
	</g>
</svg>
