<svg xmlns="http://www.w3.org/2000/svg" xmlns:xlink="http://www.w3.org/1999/xlink" viewBox="0 0 40 40" width="40.000000" height="40.000000" fill="none" customFrame="#000000">
	<rect id="沉浸式-附件格式" width="40.000000" height="40.000000" x="-0.000244" y="0.000000"/>
	<rect id="矩形" width="40.000000" height="40.000000" x="-0.000244" y="0.000000"/>
	<g id="ic_normal_white_grid_xls">
		<path id="矩形备份-77" d="M25.8323 3.33496L34.5823 12.085L27.737 12.085C26.6851 12.085 25.8323 11.2322 25.8323 10.1802L25.8323 3.33496L25.8323 3.33496Z" fill="rgb(126,237,193)" fill-rule="evenodd"/>
		<path id="矩形备份-23" d="M25.9556 3.33496L25.9406 10.176C25.9383 11.228 26.7892 12.0827 27.8412 12.085L34.6864 12.085L34.6864 33.335C34.6864 35.1759 33.1941 36.6683 31.3531 36.6683L8.85311 36.6683C7.01216 36.6683 5.51978 35.1759 5.51978 33.335L5.51978 6.66829C5.51978 4.82735 7.01216 3.33496 8.85311 3.33496L25.9556 3.33496L25.9556 3.33496Z" fill="rgb(6,187,115)" fill-rule="evenodd"/>
		<g id="编组-3">
			<g id="编组-2">
				<path id="路径-5" d="M0 0L12.2267 0" stroke="rgb(255,255,255)" stroke-linecap="round" stroke-width="1.80555582" transform="matrix(0.573677,0.819082,-0.819082,0.573677,16.4514,18.4229)"/>
				<path id="路径-5" d="M0 0L12.2267 0" stroke="rgb(255,255,255)" stroke-linecap="round" stroke-width="1.80555582" transform="matrix(-0.573677,0.819082,-0.819082,-0.573677,23.5999,18.4746)"/>
			</g>
		</g>
	</g>
</svg>