<svg viewBox="0 0 18 18" xmlns="http://www.w3.org/2000/svg" xmlns:xlink="http://www.w3.org/1999/xlink" width="18.000000" height="18.000000" fill="none" customFrame="#000000">
	<rect id="zip" width="18.000000" height="18.000000" x="0.000000" y="0.000000" />
	<rect id="矩形" width="18.000000" height="18.000000" x="0.000000" y="0.000000" />
	<g id="编组-90">
		<rect id="矩形" width="15.000000" height="15.000000" x="1.500000" y="1.500000" />
		<g id="ic_normal_white_grid_compress">
			<path id="矩形备份-83" d="M11.625 1.5L15.5625 5.4375L12.4821 5.4375C12.0088 5.4375 11.625 5.05374 11.625 4.58036L11.625 1.5L11.625 1.5Z" fill="rgb(255,227,199)" fill-rule="evenodd" />
			<path id="矩形备份-23" d="M11.6805 1.5L11.6738 4.57848C11.6727 5.05187 12.0556 5.43646 12.529 5.4375L15.6094 5.4375L15.6094 15C15.6094 15.8284 14.9378 16.5 14.1094 16.5L3.98438 16.5C3.15595 16.5 2.48438 15.8284 2.48438 15L2.48438 3C2.48438 2.17157 3.15595 1.5 3.98438 1.5L11.6805 1.5L11.6805 1.5Z" fill="rgb(255,155,54)" fill-rule="evenodd" />
			<g id="编组-109">
				<path id="Rectangle-16-Copy-2" d="M5.83887 4.5L7.01074 4.5C7.08841 4.5 7.15137 4.56296 7.15137 4.64062L7.15137 5.10938C7.15137 5.18704 7.08841 5.25 7.01074 5.25L5.83887 5.25L5.83887 4.5Z" fill="rgb(255,255,255)" fill-rule="evenodd" />
				<path id="Rectangle-16-Copy-4" d="M5.83887 6L7.01074 6C7.08841 6 7.15137 6.06296 7.15137 6.14062L7.15137 6.75L7.15137 6.75L5.83887 6.75L5.83887 6Z" fill="rgb(255,255,255)" fill-rule="evenodd" />
				<path id="Rectangle-16-Copy" d="M0 0L1.17187 0C1.24954 0 1.3125 0.06296 1.3125 0.140625L1.3125 0.609375C1.3125 0.68704 1.24954 0.75 1.17187 0.75L0 0.75L0 0Z" fill="rgb(255,255,255)" fill-rule="evenodd" transform="matrix(-1,0,0,1,6.40137,3.75)" />
				<path id="Rectangle-16-Copy-6" d="M0.140625 0L1.3125 0L1.3125 0L1.3125 0.75L0.140625 0.75C0.0629599 0.75 0 0.68704 0 0.609375L0 0.140625C0 0.06296 0.0629599 0 0.140625 0Z" fill="rgb(255,255,255)" fill-rule="evenodd" transform="matrix(-1,0,0,1,7.15137,3.00049)" />
				<path id="Rectangle-16-Copy-6备份-3" d="M0 0L1.3125 0L1.3125 0.75L0.140625 0.75C0.0629599 0.75 0 0.68704 0 0.609375L0 0L0 0Z" fill="rgb(255,255,255)" fill-rule="evenodd" transform="matrix(-1,0,0,1,7.15137,1.5)" />
				<path id="Rectangle-16-Copy-6备份-2" d="M0 0L1.17187 0C1.24954 0 1.3125 0.06296 1.3125 0.140625L1.3125 0.609375C1.3125 0.68704 1.24954 0.75 1.17187 0.75L0 0.75L0 0Z" fill="rgb(255,255,255)" fill-rule="evenodd" transform="matrix(-1,0,0,1,6.40137,2.25)" />
				<path id="Rectangle-16-Copy-3" d="M0 0L1.17187 0C1.24954 0 1.3125 0.06296 1.3125 0.140625L1.3125 0.609375C1.3125 0.68704 1.24954 0.75 1.17187 0.75L0 0.75L0 0Z" fill="rgb(255,255,255)" fill-rule="evenodd" transform="matrix(-1,0,0,1,6.40137,5.25049)" />
				<path id="Combined-Shape" d="M7.15137 7.97449L7.15137 6.75L5.08887 6.75L5.08887 7.97449C5.08887 8.12665 5.21222 8.25 5.36438 8.25L6.87586 8.25C7.02802 8.25 7.15137 8.12665 7.15137 7.97449ZM5.60427 7.12507L6.63552 7.12507L6.63552 7.6407C6.63552 7.71836 6.57256 7.78132 6.4949 7.78132L5.7449 7.78132C5.66723 7.78132 5.60427 7.71836 5.60427 7.6407L5.60427 7.12507Z" fill="rgb(255,255,255)" fill-rule="evenodd" />
			</g>
		</g>
	</g>
</svg>
