<svg xmlns="http://www.w3.org/2000/svg" xmlns:xlink="http://www.w3.org/1999/xlink" viewBox="0 0 40 40" width="40.000000" height="40.000000" fill="none" customFrame="#000000">
	<rect id="沉浸式-附件格式" width="40.000000" height="40.000000" x="0.000244" y="0.000000"/>
	<rect id="矩形" width="40.000000" height="40.000000" x="0.000244" y="0.000000"/>
	<g id="ic_normal_white_grid_doc">
		<path id="矩形备份-6" d="M33.4963 11.251L34.3297 11.251L34.3297 12.0843L33.4963 12.0843L33.4963 11.251Z" fill="rgb(255,255,255)" fill-rule="evenodd"/>
		<path id="矩形备份-23" d="M25.9561 3.33496L25.9411 10.176C25.9388 11.228 26.7897 12.0827 27.8417 12.085L34.6869 12.085L34.6869 33.335C34.6869 35.1759 33.1945 36.6683 31.3536 36.6683L8.8536 36.6683C7.01265 36.6683 5.52026 35.1759 5.52026 33.335L5.52026 6.66829C5.52026 4.82735 7.01265 3.33496 8.8536 3.33496L25.9561 3.33496L25.9561 3.33496Z" fill="rgb(59,140,250)" fill-rule="evenodd"/>
		<path id="矩形备份-24" d="M25.8328 3.33496L34.5828 12.085L27.7375 12.085C26.6856 12.085 25.8328 11.2322 25.8328 10.1802L25.8328 3.33496L25.8328 3.33496Z" fill="rgb(173,205,249)" fill-rule="evenodd"/>
		<path id="路径-4" d="M14.7913 20.001L16.9164 28.4886C16.9653 28.6837 17.2392 28.6927 17.3008 28.5013L19.8447 20.5938C19.9042 20.4087 20.1661 20.4088 20.2255 20.594L22.7576 28.4917C22.8193 28.684 23.0946 28.6742 23.1424 28.478L25.2079 20.001" fill-rule="evenodd" stroke="rgb(255,255,255)" stroke-linecap="round" stroke-width="1.80555582"/>
	</g>
</svg>