<svg viewBox="0 0 16 16" xmlns="http://www.w3.org/2000/svg" xmlns:xlink="http://www.w3.org/1999/xlink" width="16.000000" height="16.000000" fill="none">
	<mask id="mask_4" width="16.000000" height="16.000000" x="0.000000" y="0.000000" maskUnits="userSpaceOnUse">
		<g filter="url(#pixso_custom_mask_type_alpha)">
			<g id="clip947_4383">
				<rect id="filled" width="16.000000" height="16.000000" x="0.000000" y="0.000000" fill="rgb(20,118,255)" />
			</g>
		</g>
	</mask>
	<mask id="mask_3" width="16.000000" height="16.000000" x="0.000000" y="0.000000" maskUnits="userSpaceOnUse">
		<g filter="url(#pixso_custom_mask_type_alpha)">
			<g id="clip947_4378">
				<rect id="border" width="16.000000" height="16.000000" x="0.000000" y="0.000000" fill="rgb(20,118,255)" />
			</g>
		</g>
	</mask>
	<mask id="mask_2" width="16.000000" height="16.000000" x="0.000000" y="0.000000" maskUnits="userSpaceOnUse">
		<g filter="url(#pixso_custom_mask_type_alpha)">
			<g id="clip947_4372">
				<rect id="support" width="16.000000" height="16.000000" x="0.000000" y="0.000000" fill="rgb(20,118,255)" />
			</g>
		</g>
	</mask>
	<defs>
		<filter id="pixso_custom_mask_type_alpha">
			<feColorMatrix type="matrix" values="0 0 0 0 1 0 0 0 0 1 0 0 0 0 1 0 0 0 1 0 " />
		</filter>
	</defs>
	<mask id="mask_1" width="16.000000" height="16.000000" x="0.000000" y="0.000000" maskUnits="userSpaceOnUse">
		<g filter="url(#pixso_custom_mask_type_alpha)">
			<g id="clip947_4371">
				<rect id="word_file-word文件/base/word_file" width="16.000000" height="16.000000" x="0.000000" y="0.000000" fill="rgb(20,118,255)" />
			</g>
		</g>
	</mask>
	<rect id=".docx" width="16.000000" height="16.000000" x="0.000000" y="0.000000" />
	<rect id="word_file-word文件/base/word_file" width="16.000000" height="16.000000" x="0.000000" y="0.000000" fill="rgb(255,255,255)" fill-opacity="0" />
	<g id="clip path group" mask="url(#mask_1)">
		<g id="组合 12">
			<g id="clip path group" mask="url(#mask_2)">
				<g id="组合 14">
					<path id="path1" d="M3.32757e-05 7.99354C3.32757e-05 6.74354 -0.00663339 5.49354 3.32757e-05 4.24354C-0.00663339 3.63688 0.0700333 3.03354 0.2167 2.45021C0.5467 1.20688 1.35337 0.47021 2.5967 0.186876C3.21337 0.053543 3.85003 -0.0131237 4.4867 0.000209649C6.88003 0.000209649 9.2767 0.000209649 11.68 0.000209649C12.28 -0.00312368 12.8834 0.063543 13.4734 0.206876C14.75 0.513543 15.5167 1.32688 15.8067 2.59688C15.94 3.20021 16 3.81354 15.9934 4.43021C15.9934 6.85354 15.9934 9.27688 15.9934 11.6935C16 12.2969 15.93 12.8969 15.79 13.4802C15.4767 14.7569 14.6667 15.5135 13.3934 15.8069C12.77 15.9435 12.1367 16.0069 11.5 15.9969C9.11337 15.9969 6.7267 15.9969 4.34003 15.9969C3.73003 16.0002 3.12337 15.9302 2.53003 15.7902C1.25003 15.4835 0.4767 14.6669 0.1867 13.3869C0.0367 12.7369 3.32757e-05 12.0902 3.32757e-05 11.4302C3.32757e-05 10.2869 3.32757e-05 9.13688 3.32757e-05 7.99354Z" fill="rgb(255,255,255)" fill-opacity="0" fill-rule="evenodd" />
					<circle id="path2" cx="8" cy="7.99999952" r="8" fill="rgb(255,255,255)" fill-opacity="0" />
				</g>
			</g>
			<g id="clip path group" mask="url(#mask_3)">
				<g id="组合 16">
					<path id="path3" d="M12.2731 15.3332L3.71973 15.3332C2.61639 15.3332 1.71973 14.4365 1.71973 13.3332L1.71973 2.6665C1.71973 1.55984 2.61639 0.666504 3.71973 0.666504L10.2331 0.666504L10.2331 3.39984C10.2331 4.13317 10.8297 4.73317 11.5664 4.73317L14.2731 4.73317L14.2731 13.3332C14.2731 14.4365 13.3797 15.3332 12.2731 15.3332Z" fill-rule="evenodd" stroke="rgb(20,118,255)" stroke-linejoin="round" stroke-width="0.886666715" />
					<path id="path5" d="M11.5667 4.73317L14.2734 4.73317L14.2734 4.67984L10.2801 0.666504L10.2334 0.666504L10.2334 3.39984C10.2334 4.13317 10.8301 4.73317 11.5667 4.73317Z" fill-rule="evenodd" stroke="rgb(20,118,255)" stroke-linejoin="round" stroke-width="0.886666715" />
					<path id="W" d="M4.83301 7L6.41634 12L7.99967 7L9.58301 12L11.1663 7" fill-rule="evenodd" stroke="rgb(20,118,255)" stroke-linecap="round" stroke-linejoin="round" stroke-width="0.886666715" />
				</g>
			</g>
			<g id="clip path group" mask="url(#mask_4)">
				<g id="组合 18">
					<path id="减去顶层" d="M9.56641 0.166504L9.56641 3.3999C9.56641 4.5044 10.4619 5.3999 11.5664 5.3999L14.7751 5.3999L14.7751 13.3332C14.7751 13.6782 14.7142 13.9982 14.5921 14.2928C14.47 14.5874 14.2871 14.8569 14.043 15.1011C13.7988 15.3452 13.5296 15.5282 13.2347 15.6502C12.9401 15.7723 12.6204 15.8332 12.2751 15.8332L3.72264 15.8332C3.37761 15.8332 3.05762 15.7723 2.76302 15.6502C2.46842 15.5282 2.19889 15.3449 1.95475 15.1011C1.71061 14.8569 1.52767 14.5874 1.4056 14.2928C1.28353 13.9982 1.22266 13.6782 1.22266 13.3332L1.22266 2.6665C1.22266 2.32145 1.28353 2.00179 1.4056 1.70719L1.4056 1.70687C1.52767 1.41227 1.71061 1.14274 1.95475 0.898601C2.19889 0.654461 2.46842 0.471517 2.76302 0.349447C3.05762 0.227376 3.37761 0.166504 3.72264 0.166504L9.56641 0.166504ZM10.2331 3.3999L10.2331 0.666504L10.2819 0.666504L14.2751 4.68277L14.2751 4.73324L11.5664 4.73324C10.8301 4.73324 10.2331 4.13624 10.2331 3.3999ZM5.30957 6.8488L6.41634 10.3436L7.52311 6.8488C7.57324 6.68994 7.65071 6.5835 7.75554 6.52914C7.86004 6.47477 7.99187 6.4728 8.15071 6.52327C8.31544 6.57537 8.42414 6.68407 8.47624 6.8488L9.58301 10.3436L10.6894 6.8488C10.7741 6.58187 11.0501 6.43864 11.317 6.52327C11.584 6.60757 11.7275 6.88394 11.6429 7.15087L10.0596 12.1509C10.0072 12.3156 9.89877 12.4243 9.73371 12.4764C9.57487 12.5269 9.44304 12.5249 9.33854 12.4705C9.23404 12.4162 9.15657 12.3097 9.10611 12.1509L7.99967 8.6561L6.89291 12.1509C6.84081 12.3156 6.73211 12.4243 6.56737 12.4764C6.40854 12.5269 6.27671 12.5249 6.17187 12.4705C6.06737 12.4162 5.98991 12.3097 5.93977 12.1509L4.35611 7.15087C4.27181 6.88394 4.41504 6.60757 4.68197 6.52327C4.94891 6.43864 5.22494 6.58187 5.30957 6.8488Z" fill="rgb(255,255,255)" fill-opacity="0" fill-rule="evenodd" />
					<path id="path5" d="M10.2334 0.666504L10.2334 3.39984C10.2334 4.13317 10.8301 4.73317 11.5667 4.73317L14.2734 4.73317L14.2734 4.67984L10.2801 0.666504L10.2334 0.666504Z" fill="rgb(255,255,255)" fill-opacity="0" fill-rule="evenodd" />
				</g>
			</g>
		</g>
	</g>
</svg>
