<svg viewBox="0 0 16 16" xmlns="http://www.w3.org/2000/svg" xmlns:xlink="http://www.w3.org/1999/xlink" width="16.000000" height="16.000000" fill="none">
	<mask id="mask_17" width="16.000000" height="16.000000" x="0.000000" y="0.000000" maskUnits="userSpaceOnUse">
		<g filter="url(#pixso_custom_mask_type_alpha)">
			<g id="mask_79">
				<g id="mask_350">
					<path id="蒙版" d="M9.5 0L0 0L0 16L16 16L16 5.5L11.5667 5.5C10.4622 5.5 9.5 4.5046 9.5 3.40003L9.5 0ZM9.8 11.3167L9.8 7.98473L8.41603 10.0607C8.33943 10.1756 8.23343 10.2466 8.09807 10.2736C7.96267 10.3007 7.83753 10.276 7.72267 10.1994C7.6952 10.1811 7.6698 10.1602 7.64643 10.1369C7.6231 10.1136 7.6023 10.0882 7.58397 10.0607L6.2 7.98473L6.2 11.3167C6.2 11.5967 5.98 11.8167 5.7 11.8167C5.42 11.8167 5.2 11.5967 5.2 11.3167L5.2 6.33333C5.2 6.24973 5.21973 6.1711 5.25917 6.0974C5.2986 6.0237 5.3531 5.96367 5.42267 5.9173C5.53753 5.84073 5.66267 5.81597 5.79807 5.84303C5.93347 5.87013 6.03943 5.9411 6.11603 6.056L8 8.88193L9.88397 6.056C9.93033 5.98643 9.99037 5.93193 10.0641 5.8925C10.1378 5.85307 10.2164 5.83333 10.3 5.83333C10.369 5.83333 10.433 5.84553 10.4919 5.86993C10.5509 5.89437 10.6047 5.93097 10.6536 5.9798C10.7512 6.0774 10.8 6.19527 10.8 6.33333L10.8 11.3167C10.8 11.5967 10.58 11.8167 10.3 11.8167C10.02 11.8167 9.8 11.5967 9.8 11.3167Z" fill="rgb(255,255,255)" fill-opacity="0" fill-rule="evenodd" />
				</g>
			</g>
		</g>
	</mask>
	<mask id="mask_16" width="16.000000" height="16.000000" x="0.000000" y="0.000000" maskUnits="userSpaceOnUse">
		<g filter="url(#pixso_custom_mask_type_alpha)">
			<g id="mask_78">
				<g id="mask_349">
					<path id="mask" d="M0 0L16 0L16 16L0 16L0 0Z" fill="rgb(255,136,0)" fill-rule="evenodd" />
				</g>
			</g>
		</g>
	</mask>
	<defs>
		<filter id="pixso_custom_mask_type_alpha">
			<feColorMatrix type="matrix" values="0 0 0 0 1 0 0 0 0 1 0 0 0 0 1 0 0 0 1 0 " />
		</filter>
	</defs>
	<mask id="mask_15" width="16.000000" height="16.000000" x="0.000000" y="0.000000" maskUnits="userSpaceOnUse">
		<g filter="url(#pixso_custom_mask_type_alpha)">
			<g id="clipPath_169">
				<rect id="矩形 10" width="16.000000" height="16.000000" x="0.000000" y="0.000000" fill="rgb(0,0,0)" />
			</g>
		</g>
	</mask>
	<rect id=".md" width="16.000000" height="16.000000" x="0.000000" y="0.000000" />
	<rect id="ic_public_markdown_file-markdown文件/base/ic_public_markdown_file" width="16.000000" height="16.000000" x="0.000000" y="0.000000" fill="rgb(255,255,255)" fill-opacity="0" />
	<g id="clip path group" mask="url(#mask_15)">
		<g id="support">
			<rect id="support" width="16.000000" height="15.999999" x="0.000000" y="0.000000" />
			<path id="path1" d="M-0.000471647 7.99337C-0.000471647 6.74337 -0.00380497 5.49337 -0.000471647 4.24337C-0.00380497 3.63671 0.0728617 3.03338 0.219528 2.45005C0.549529 1.21005 1.3562 0.473381 2.5962 0.186714C3.2162 0.0533806 3.85287 -0.0099528 4.4862 4.71871e-05C6.88286 4.71871e-05 9.27953 4.71871e-05 11.6795 4.71871e-05C12.2829 -0.00328615 12.8862 0.0633806 13.4762 0.206714C14.7529 0.516714 15.5195 1.32671 15.8095 2.60005C15.9429 3.20005 16.0029 3.81337 15.9962 4.43004C15.9962 6.85337 15.9962 9.27671 15.9962 11.6967C15.9995 12.2967 15.9329 12.8967 15.7929 13.48C15.4795 14.7567 14.6662 15.5167 13.3962 15.81C12.7729 15.9434 12.1395 16.0067 11.5029 15.9967C9.1162 15.9967 6.72953 15.9967 4.34286 15.9967C3.73287 16.0034 3.1262 15.9334 2.53286 15.7934C1.24953 15.4834 0.479529 14.67 0.189528 13.39C0.0395284 12.74 -0.000471647 12.09 -0.000471647 11.4334C-0.000471647 10.2867 -0.000471647 9.14004 -0.000471647 7.99337Z" fill="rgb(255,255,255)" fill-opacity="0" fill-rule="evenodd" />
			<circle id="path2" cx="8" cy="7.99999952" r="8" fill="rgb(255,255,255)" fill-opacity="0" />
		</g>
	</g>
	<g id="border">
		<rect id="border" width="16.000000" height="16.000000" x="0.000000" y="0.000000" />
		<rect id="ic_public_markdown_file-markdown文件-border" width="16.000000" height="15.999512" x="0.000000" y="0.000000" />
		<g id="mask" mask="url(#mask_16)">
			<g id="mask">
				<g id="蒙版">
					<path id="path3" d="M3.83301 15.3332C2.72844 15.3332 1.83301 14.4377 1.83301 13.3332L1.83301 2.6665C1.83301 1.56193 2.72844 0.666504 3.83301 0.666504L10.1948 0.666504L10.1948 3.39977C10.1948 4.13617 10.7917 4.7331 11.5281 4.7331L14.1663 4.7331L14.1663 13.3332C14.1663 14.4377 13.2709 15.3332 12.1663 15.3332L3.83301 15.3332Z" fill-rule="evenodd" stroke="rgb(255,136,0)" stroke-linecap="round" stroke-linejoin="round" stroke-width="0.886666715" />
					<path id="path5-border" d="M14.167 4.6665L14.167 4.61687L10.2152 0.666504L10.167 0.666504L10.167 3.355C10.167 4.07934 10.7578 4.6665 11.4864 4.6665L14.167 4.6665Z" fill-rule="evenodd" stroke="rgb(255,136,0)" stroke-linecap="round" stroke-linejoin="round" stroke-width="0.886666715" />
					<path id="矢量 2231" d="M5.7002 11.3168L5.7002 6.3335L8.00019 9.7835L10.3002 6.3335L10.3002 11.3168" fill-rule="nonzero" stroke="rgb(255,136,0)" stroke-linecap="round" stroke-linejoin="round" stroke-width="0.886666715" />
				</g>
			</g>
		</g>
	</g>
	<g id="filled">
		<rect id="filled" width="16.000000" height="16.000000" x="0.000000" y="0.000000" />
		<rect id="ic_public_markdown_file-markdown文件-filled" width="16.000000" height="15.999268" x="0.000000" y="0.000000" />
		<g id="mask" mask="url(#mask_17)">
			<g id="mask">
				<g id="蒙版">
					<path id="path" d="M10.1663 0.666504L10.1663 3.39977C10.1663 4.13617 10.7814 4.83317 11.5048 4.83317L14.1663 4.83317L14.1663 13.3332C14.1663 14.4377 13.2865 15.3332 12.2013 15.3332L3.79807 15.3332C2.71287 15.3332 1.83301 14.4377 1.83301 13.3332L1.83301 2.6665C1.83301 1.56193 2.71287 0.666504 3.79807 0.666504L10.1663 0.666504Z" fill="rgb(255,255,255)" fill-opacity="0" fill-rule="evenodd" />
					<path id="path" d="M3.79807 15.3332C2.71287 15.3332 1.83301 14.4377 1.83301 13.3332L1.83301 2.6665C1.83301 1.56193 2.71287 0.666504 3.79807 0.666504L10.1663 0.666504L10.1663 3.39977C10.1663 4.13617 10.7814 4.83317 11.5048 4.83317L14.1663 4.83317L14.1663 13.3332C14.1663 14.4377 13.2865 15.3332 12.2013 15.3332L3.79807 15.3332Z" fill-rule="evenodd" stroke="rgb(255,255,255)" stroke-opacity="0" stroke-linecap="round" stroke-linejoin="round" stroke-width="0.886666715" />
				</g>
			</g>
		</g>
		<path id="path5" d="M10.5 3.18851L10.5 0.5L10.5482 0.5L14.5 4.45037L14.5 4.5L11.8194 4.5C11.0908 4.5 10.5 3.91283 10.5 3.18851Z" fill="rgb(255,255,255)" fill-opacity="0" fill-rule="evenodd" />
		<path id="矢量 2231" d="M5.7002 11.3168L5.7002 6.3335L8.00019 9.7835L10.3002 6.3335L10.3002 11.3168" fill-rule="nonzero" stroke="rgb(255,255,255)" stroke-opacity="0" stroke-linecap="round" stroke-linejoin="round" stroke-width="0.886666715" />
	</g>
</svg>
