<svg viewBox="0 0 16.2673 16.2673" xmlns="http://www.w3.org/2000/svg" xmlns:xlink="http://www.w3.org/1999/xlink" width="16.267273" height="16.267273" fill="none">
	<rect id="展开文件夹-folder-fold" width="16.000000" height="16.000000" x="0.000000" y="0.000000" transform="matrix(0.999858,0.0168466,-0.0168466,0.999858,0.269531,0)" />
	<path id="形状结合" d="M3.81828 0C3.98772 0 4.1517 0.0599236 4.28122 0.169172L6.478 2.022L11.4008 2.0227C12.2302 2.0227 12.9112 2.65767 12.9843 3.46798L12.9908 3.6127L12.9907 4.216L13.6391 4.21663L13.7626 4.22557C14.0338 4.27753 14.2115 4.53952 14.1596 4.81073L13.0108 10.8057C12.9993 10.8661 12.9773 10.9218 12.9471 10.9714C12.6555 11.5117 12.0462 11.8345 11.4008 11.8345L2.68082 11.8345C1.20085 11.8343 0.00106351 10.6346 0.000718276 9.15453L0 1.58991C0 0.711781 0.711863 0 1.59 0L3.81828 0ZM13.0633 5.216L3.152 5.216L2.0962 10.7299C2.2783 10.7975 2.47529 10.8344 2.6809 10.8345L11.4008 10.8345C11.668 10.8345 11.8887 10.7435 12.0063 10.5974L13.0633 5.216ZM3.715 1L1.59 1C1.29671 1 1.05344 1.21391 1.00772 1.49418L1 1.58986L1.00072 9.15436C1.00079 9.45657 1.08064 9.74015 1.22034 9.98516L2.24806 4.62254C2.25354 4.59396 2.26135 4.56642 2.27125 4.54007C2.27663 4.52849 2.29689 4.4827 2.30313 4.47161C2.31207 4.45959 2.35474 4.39649 2.36486 4.38508C2.37554 4.37663 2.45096 4.30775 2.46224 4.30024C2.53624 4.25649 2.64651 4.21663 2.73913 4.21663L11.9907 4.216L11.9908 3.6127C11.9908 3.28686 11.7267 3.0227 11.4008 3.0227L6.37559 3.0227C6.20615 3.0227 6.04217 2.96278 5.91265 2.85353L3.715 1Z" fill="rgb(25,25,25)" fill-rule="nonzero" transform="matrix(0.999858,0.0168466,-0.0168466,0.999858,1.66809,2.20746)" />
</svg>
