<svg xmlns="http://www.w3.org/2000/svg" xmlns:xlink="http://www.w3.org/1999/xlink" viewBox="0 0 40 40" width="40.000000" height="40.000000" fill="none" customFrame="#000000">
	<rect id="沉浸式-附件格式" width="40.000000" height="40.000000" x="0.000000" y="0.000000"/>
	<rect id="矩形" width="40.000000" height="40.000000" x="0.000000" y="0.000000"/>
	<g id="ic_normal_white_grid_pdf">
		<path id="矩形备份-47" d="M25.8325 3.33496L34.5825 12.085L27.7373 12.085C26.6853 12.085 25.8325 11.2322 25.8325 10.1802L25.8325 3.33496L25.8325 3.33496Z" fill="rgb(255,191,190)" fill-rule="evenodd"/>
		<path id="矩形备份-23" d="M25.9558 3.33496L25.9409 10.176C25.9386 11.228 26.7895 12.0827 27.8415 12.085L34.6867 12.085L34.6867 33.335C34.6867 35.1759 33.1943 36.6683 31.3534 36.6683L8.85335 36.6683C7.0124 36.6683 5.52002 35.1759 5.52002 33.335L5.52002 6.66829C5.52002 4.82735 7.0124 3.33496 8.85335 3.33496L25.9558 3.33496L25.9558 3.33496Z" fill="rgb(255,76,72)" fill-rule="evenodd"/>
		<g id="编组">
			<path id="多边形" d="M23.343 27.6338L16.7632 27.6338L20.0531 21.9355L23.343 27.6338Z" fill-rule="evenodd" stroke="rgb(255,255,255)" stroke-linecap="round" stroke-linejoin="round" stroke-width="1.35416675"/>
			<path id="路径" d="M20.1496 21.4246C20.962 20.4724 21.3683 19.7558 21.3683 19.2749C21.3683 18.5255 20.7795 17.918 20.0533 17.918C19.327 17.918 18.7383 18.5255 18.7383 19.2749C18.7383 19.7557 19.1442 20.4718 19.956 21.4235" fill-rule="evenodd" stroke="rgb(255,255,255)" stroke-linecap="round" stroke-linejoin="round" stroke-width="1.35416675"/>
			<path id="路径备份" d="M1.41132 3.50664C2.22376 2.55445 2.62998 1.83788 2.62998 1.35692C2.62998 0.607515 2.04124 0 1.31499 0C0.588741 0 0 0.607515 0 1.35692C0 1.83769 0.405893 2.55388 1.21768 3.50549" fill-rule="evenodd" stroke="rgb(255,255,255)" stroke-linecap="round" stroke-linejoin="round" stroke-width="1.35416675" transform="matrix(-0.5,0.866025,-0.866025,-0.5,27.4893,28.4678)"/>
			<path id="路径备份-2" d="M1.41132 3.50664C2.22376 2.55445 2.62998 1.83788 2.62998 1.35692C2.62998 0.607515 2.04124 0 1.31499 0C0.588741 0 0 0.607515 0 1.35692C0 1.83769 0.405893 2.55388 1.21768 3.50549" fill-rule="evenodd" stroke="rgb(255,255,255)" stroke-linecap="round" stroke-linejoin="round" stroke-width="1.35416675" transform="matrix(-0.5,-0.866025,0.866025,-0.5,13.9326,30.7461)"/>
		</g>
	</g>
</svg>