<svg xmlns="http://www.w3.org/2000/svg" xmlns:xlink="http://www.w3.org/1999/xlink" viewBox="0 0 40 40" width="40.000000" height="40.000000" fill="none" customFrame="#000000">
	<rect id="沉浸式-附件格式" width="40.000000" height="40.000000" x="0.000244" y="0.000000"/>
	<rect id="矩形" width="40.000000" height="40.000000" x="0.000244" y="0.000000"/>
	<g id="ic_normal_white_grid_pptx">
		<g id="编组-236">
			<path id="矩形备份-24" d="M25.8328 3.33496L34.5828 12.085L27.7375 12.085C26.6856 12.085 25.8328 11.2322 25.8328 10.1802L25.8328 3.33496L25.8328 3.33496Z" fill="rgb(254,201,176)" fill-rule="evenodd"/>
			<path id="矩形备份-23" d="M25.9561 3.33496L25.9411 10.176C25.9388 11.228 26.7897 12.0827 27.8417 12.085L34.6869 12.085L34.6869 33.335C34.6869 35.1759 33.1945 36.6683 31.3536 36.6683L8.8536 36.6683C7.01265 36.6683 5.52026 35.1759 5.52026 33.335L5.52026 6.66829C5.52026 4.82735 7.01265 3.33496 8.8536 3.33496L25.9561 3.33496L25.9561 3.33496Z" fill="rgb(255,119,55)" fill-rule="evenodd"/>
		</g>
		<g id="编组-2">
			<path id="路径-7" d="M20.5485 18.5439L16.7191 18.5439C16.4593 18.5439 16.2488 18.7545 16.2488 19.0143L16.2488 29.8838" fill-rule="evenodd" stroke="rgb(255,255,255)" stroke-linecap="round" stroke-width="1.91840291"/>
			<path id="路径" d="M16.9597 24.9265L20.5944 24.9265C22.3477 24.9265 23.769 23.5051 23.769 21.7518C23.769 19.9985 22.3477 18.5439 20.5944 18.5439" fill-rule="evenodd" stroke="rgb(255,255,255)" stroke-linecap="round" stroke-width="1.91840291"/>
		</g>
	</g>
</svg>