<svg viewBox="0 0 16 16" xmlns="http://www.w3.org/2000/svg" xmlns:xlink="http://www.w3.org/1999/xlink" width="16.000000" height="16.000000" fill="none">
	<mask id="mask_8" width="16.000000" height="16.000000" x="0.000000" y="0.000000" maskUnits="userSpaceOnUse">
		<g filter="url(#pixso_custom_mask_type_alpha)">
			<g id="clip947_4721">
				<rect id="filled" width="16.000000" height="16.000000" x="0.000000" y="0.000000" fill="rgb(159,83,230)" />
			</g>
		</g>
	</mask>
	<mask id="mask_7" width="16.000000" height="16.000000" x="0.000000" y="0.000000" maskUnits="userSpaceOnUse">
		<g filter="url(#pixso_custom_mask_type_alpha)">
			<g id="clip947_4716">
				<rect id="border" width="16.000000" height="16.000000" x="0.000000" y="0.000000" fill="rgb(159,83,230)" />
			</g>
		</g>
	</mask>
	<mask id="mask_6" width="16.000000" height="16.000000" x="0.000000" y="0.000000" maskUnits="userSpaceOnUse">
		<g filter="url(#pixso_custom_mask_type_alpha)">
			<g id="clip947_4710">
				<rect id="support" width="16.000000" height="16.000000" x="0.000000" y="0.000000" fill="rgb(159,83,230)" />
			</g>
		</g>
	</mask>
	<defs>
		<filter id="pixso_custom_mask_type_alpha">
			<feColorMatrix type="matrix" values="0 0 0 0 1 0 0 0 0 1 0 0 0 0 1 0 0 0 1 0 " />
		</filter>
	</defs>
	<mask id="mask_5" width="16.000000" height="16.000000" x="0.000000" y="0.000000" maskUnits="userSpaceOnUse">
		<g filter="url(#pixso_custom_mask_type_alpha)">
			<g id="clip947_4709">
				<rect id="code_file-code文件/base/code_file" width="16.000000" height="16.000000" x="0.000000" y="0.000000" fill="rgb(159,83,230)" />
			</g>
		</g>
	</mask>
	<rect id="code" width="16.000000" height="16.000000" x="0.000000" y="0.000000" />
	<rect id="code_file-code文件/base/code_file" width="16.000000" height="16.000000" x="0.000000" y="0.000000" fill="rgb(255,255,255)" fill-opacity="0" />
	<g id="clip path group" mask="url(#mask_5)">
		<g id="组合 12">
			<g id="clip path group" mask="url(#mask_6)">
				<g id="组合 14">
					<path id="path1" d="M3.32757e-05 7.99354C3.32757e-05 6.74354 -0.00663339 5.49354 3.32757e-05 4.24354C-0.00663339 3.63688 0.0700333 3.03354 0.2167 2.45021C0.5467 1.20688 1.35337 0.47021 2.5967 0.186876C3.21337 0.053543 3.85003 -0.0131237 4.4867 0.000209649C6.88003 0.000209649 9.2767 0.000209649 11.68 0.000209649C12.28 -0.00312368 12.8834 0.063543 13.4734 0.206876C14.75 0.513543 15.5167 1.32688 15.8067 2.59688C15.94 3.20021 16 3.81354 15.9934 4.43021C15.9934 6.85354 15.9934 9.27688 15.9934 11.6935C16 12.2969 15.93 12.8969 15.79 13.4802C15.4767 14.7569 14.6667 15.5135 13.3934 15.8069C12.77 15.9435 12.1367 16.0069 11.5 15.9969C9.11337 15.9969 6.7267 15.9969 4.34003 15.9969C3.73003 16.0002 3.12337 15.9302 2.53003 15.7902C1.25003 15.4835 0.4767 14.6669 0.1867 13.3869C0.0367 12.7369 3.32757e-05 12.0902 3.32757e-05 11.4302C3.32757e-05 10.2869 3.32757e-05 9.13688 3.32757e-05 7.99354Z" fill="rgb(255,255,255)" fill-opacity="0" fill-rule="evenodd" />
					<circle id="path2" cx="8" cy="7.99999952" r="8" fill="rgb(255,255,255)" fill-opacity="0" />
				</g>
			</g>
			<g id="clip path group" mask="url(#mask_7)">
				<g id="组合 16">
					<path id="path3" d="M12.2731 15.3332L3.71973 15.3332C2.61639 15.3332 1.71973 14.4365 1.71973 13.3332L1.71973 2.6665C1.71973 1.55984 2.61639 0.666504 3.71973 0.666504L10.2331 0.666504L10.2331 3.39984C10.2331 4.13317 10.8297 4.73317 11.5664 4.73317L14.2731 4.73317L14.2731 13.3332C14.2731 14.4365 13.3797 15.3332 12.2731 15.3332Z" fill-rule="evenodd" stroke="rgb(16,117,163)" stroke-linejoin="round" stroke-width="0.886666715" />
					<path id="path5" d="M11.5667 4.73317L14.2734 4.73317L14.2734 4.67984L10.2801 0.666504L10.2334 0.666504L10.2334 3.39984C10.2334 4.13317 10.8301 4.73317 11.5667 4.73317Z" fill-rule="evenodd" stroke="rgb(16,117,163)" stroke-linejoin="round" stroke-width="0.886666715" />
					<path id="矢量 324" d="M9.93656 7.0835L11.6599 8.89683C11.8899 9.13683 11.8899 9.52683 11.6599 9.76683L9.93656 11.5835M6.0599 7.0835L4.33656 8.89683C4.10656 9.13683 4.10656 9.52683 4.33656 9.76683L6.0599 11.5835M7.22323 11.4568L8.77323 7.20683" fill-rule="evenodd" stroke="rgb(16,117,163)" stroke-linecap="round" stroke-linejoin="round" stroke-width="0.886666715" />
				</g>
			</g>
			<g id="clip path group" mask="url(#mask_8)">
				<g id="组合 18">
					<path id="减去顶层" d="M9.56739 0.166504L9.56739 3.3999C9.56739 4.5044 10.4629 5.3999 11.5674 5.3999L14.7764 5.3999L14.7764 13.3332C14.7764 13.6782 14.7152 13.9982 14.5931 14.2928C14.471 14.5874 14.2881 14.8569 14.044 15.1011C13.7998 15.3452 13.5303 15.5282 13.2357 15.6502C12.9411 15.7723 12.6214 15.8332 12.2764 15.8332L3.72363 15.8332C3.37859 15.8332 3.05859 15.7723 2.764 15.6502C2.4694 15.5282 2.19987 15.3449 1.95606 15.1011C1.71192 14.8569 1.52865 14.5874 1.40658 14.2928C1.28451 13.9982 1.22363 13.6782 1.22363 13.3332L1.22363 2.6665C1.22363 2.32145 1.28451 2.00179 1.40658 1.70719C1.52865 1.4126 1.71192 1.14274 1.95606 0.898601C2.2002 0.654461 2.4694 0.471517 2.764 0.349447C3.05859 0.227376 3.37859 0.166504 3.72363 0.166504L9.56739 0.166504ZM10.2341 3.3999L10.2341 0.666504L10.2829 0.666504L14.2764 4.68277L14.2764 4.73324L11.5674 4.73324C10.8311 4.73324 10.2341 4.13624 10.2341 3.3999ZM4.70019 9.24334L6.42319 7.42724C6.61589 7.22414 6.60776 6.91324 6.40463 6.72054C6.20149 6.52784 5.89029 6.53597 5.69759 6.7391L3.97463 8.55517C3.92839 8.604 3.88706 8.6561 3.85093 8.71174C3.80763 8.77717 3.77183 8.8475 3.74283 8.9227C3.72006 8.98194 3.70246 9.04217 3.68979 9.10367C3.67449 9.17854 3.66699 9.25504 3.66699 9.33317C3.66699 9.4751 3.69206 9.6118 3.74283 9.74334C3.77149 9.81754 3.80663 9.8872 3.84929 9.95264C3.88573 10.0086 3.92739 10.0617 3.97463 10.1112L5.69759 11.9272C5.89029 12.1304 6.20149 12.1385 6.40463 11.9458C6.60776 11.7531 6.61589 11.4422 6.42319 11.2391L4.70019 9.423C4.67806 9.39957 4.66699 9.36964 4.66699 9.33317C4.66699 9.2967 4.67806 9.26677 4.70019 9.24334ZM9.59603 6.72054C9.79916 6.52784 10.11 6.53597 10.3027 6.7391L12.0257 8.55517C12.127 8.66194 12.2044 8.78434 12.2575 8.9227C12.3083 9.0542 12.3337 9.1909 12.3337 9.33317C12.3337 9.4751 12.3083 9.6118 12.2578 9.74334C12.2044 9.88167 12.1273 10.0041 12.026 10.1112L10.3027 11.9272C10.11 12.1304 9.79916 12.1385 9.59603 11.9458C9.39289 11.7531 9.38476 11.4422 9.57746 11.2391L11.3005 9.423C11.3226 9.39957 11.3337 9.36964 11.3337 9.33317C11.3337 9.2967 11.3226 9.26677 11.3001 9.24334L9.57716 7.42724C9.38443 7.22414 9.39289 6.91324 9.59603 6.72054ZM7.69369 11.6304L9.24576 7.37907C9.34179 7.11604 9.21063 6.83384 8.94759 6.7378C8.68456 6.64177 8.40236 6.77294 8.30633 7.03597L6.75423 11.2873C6.65819 11.5503 6.78939 11.8325 7.05239 11.9285C7.31543 12.0246 7.59766 11.8934 7.69369 11.6304Z" fill="rgb(255,255,255)" fill-opacity="0" fill-rule="evenodd" />
					<path id="path5" d="M10.2334 0.666504L10.2334 3.39984C10.2334 4.13317 10.8301 4.73317 11.5667 4.73317L14.2734 4.73317L14.2734 4.67984L10.2801 0.666504L10.2334 0.666504Z" fill="rgb(255,255,255)" fill-opacity="0" fill-rule="evenodd" />
				</g>
			</g>
		</g>
	</g>
</svg>
