<svg viewBox="0 0 16 16" xmlns="http://www.w3.org/2000/svg" xmlns:xlink="http://www.w3.org/1999/xlink" width="16.000000" height="16.000000" fill="none">
	<rect id="compass" width="16.000000" height="16.000000" x="0.000000" y="0.000000" />
	<g id="组合 91334000">
		<path id="矢量 8705" d="M11.3 4.70001L8.94268 8.94268L4.70001 11.3L7.05735 7.05735L11.3 4.70001Z" opacity="0" fill-rule="nonzero" stroke="rgb(20,118,255)" stroke-linecap="round" stroke-linejoin="round" stroke-width="1" />
		<path id="矢量 8706" d="M14.9999 8C14.9999 4.1339 11.866 1 7.99988 1C4.13378 1 0.999878 4.1339 0.999878 8C0.999878 11.8661 4.13378 15 7.99988 15C11.866 15 14.9999 11.8661 14.9999 8Z" fill-rule="nonzero" stroke="rgb(20,118,255)" stroke-linecap="round" stroke-linejoin="round" stroke-width="1" />
		<path id="path10" d="M7.66333 4.68403L5.03389 10.0209C4.95343 10.1842 5.0206 10.3819 5.18391 10.4623C5.25705 10.4984 5.34095 10.506 5.4194 10.4838L7.95473 9.76606L10.581 10.4881C10.7565 10.5364 10.9379 10.4332 10.9862 10.2577C11.008 10.1786 10.9994 10.0943 10.9623 10.0211L8.25303 4.68058C8.17066 4.51822 7.97226 4.45337 7.80989 4.53574C7.74628 4.56801 7.69485 4.62004 7.66333 4.68403Z" fill="rgb(255,255,255)" fill-opacity="0" fill-rule="evenodd" />
		<path id="path10" d="M5.03389 10.0209C4.95343 10.1842 5.0206 10.3819 5.18391 10.4623C5.25705 10.4984 5.34095 10.506 5.4194 10.4838L7.95473 9.76606L10.581 10.4881C10.7565 10.5364 10.9379 10.4332 10.9862 10.2577C11.008 10.1786 10.9994 10.0943 10.9623 10.0211L8.25303 4.68058C8.17066 4.51822 7.97226 4.45337 7.80989 4.53574C7.74628 4.56801 7.69485 4.62004 7.66333 4.68403L5.03389 10.0209Z" fill-rule="evenodd" stroke="rgb(20,118,255)" stroke-linecap="round" stroke-linejoin="round" stroke-width="1" />
	</g>
</svg>
