<svg viewBox="0 0 16 16" xmlns="http://www.w3.org/2000/svg" xmlns:xlink="http://www.w3.org/1999/xlink" width="16.000000" height="16.000000" fill="none" customFrame="#000000">
	<rect id="框类/上箭头" width="16.000000" height="16.000000" x="0.000000" y="0.000000" />
	<path id="矢量 6" d="M5.40832 5.12549C5.11993 5.41388 4.66615 5.43607 4.35231 5.19205L4.27694 5.12549L0.17572 1.02426C-0.0585938 0.789948 -0.0585938 0.410065 0.17572 0.175751C0.386604 -0.0351257 0.715416 -0.0562439 0.949882 0.112488L1.02425 0.175751L4.84264 3.99411L8.66101 0.17572C8.87189 -0.0351562 9.20069 -0.0562439 9.43517 0.112488L9.50954 0.175751C9.72042 0.386627 9.7415 0.715454 9.5728 0.94989L9.50954 1.02426L5.40832 5.12549Z" fill="rgb(128,128,128)" fill-rule="evenodd" transform="matrix(1,0,0,-1,3.15735,10.7598)" />
</svg>
