<svg viewBox="0 0 16 16" xmlns="http://www.w3.org/2000/svg" xmlns:xlink="http://www.w3.org/1999/xlink" width="16.000000" height="16.000000" fill="none" customFrame="#000000">
	<rect id="操作/帮助" width="16.000000" height="16.000000" x="0.000000" y="0.000000" />
	<path id="矢量" d="M1 8C1 4.13403 4.134 1 8 1C11.866 1 15 4.13403 15 8C15 11.866 11.866 15 8 15C4.134 15 1 11.866 1 8ZM2 8C2 4.68628 4.68629 2 8 2C11.3137 2 14 4.68628 14 8C14 11.3137 11.3137 14 8 14C4.68629 14 2 11.3137 2 8ZM7.47847 9.66418L7.47847 8.43988C7.47847 8.27319 7.52014 8.14819 7.60347 8.06488C7.6868 7.98157 7.8118 7.93988 7.97847 7.93988C8.0759 7.93988 8.17076 7.92902 8.26305 7.90729C8.32913 7.89172 8.39389 7.87054 8.45735 7.84387C8.5269 7.81458 8.5927 7.7796 8.65474 7.73889C8.72383 7.6936 8.78827 7.64117 8.84807 7.58167C8.91151 7.51855 8.96692 7.45026 9.01428 7.37671C9.0515 7.31897 9.08374 7.258 9.11102 7.19379C9.13864 7.12885 9.16031 7.0625 9.17601 6.99475C9.19669 6.90552 9.20702 6.8139 9.20702 6.71991C9.20702 6.62598 9.19669 6.53436 9.17601 6.44513C9.16031 6.37738 9.13866 6.31104 9.11102 6.24603C9.08376 6.18188 9.0515 6.12091 9.01428 6.06317C8.96692 5.98962 8.91151 5.92133 8.84807 5.85822C8.78827 5.79871 8.7238 5.74622 8.65472 5.70093C8.59268 5.66022 8.52689 5.62524 8.45735 5.59601C8.39389 5.56927 8.32913 5.54816 8.26305 5.53259C8.17075 5.51086 8.0759 5.5 7.97849 5.5C7.88106 5.5 7.78621 5.51086 7.69391 5.53259C7.62782 5.54816 7.56306 5.56934 7.4996 5.59601C7.43005 5.62531 7.36426 5.66028 7.30222 5.70099C7.23312 5.74628 7.16869 5.79871 7.10889 5.85822C7.04544 5.92133 6.99004 5.98962 6.94267 6.06317C6.90546 6.12091 6.8732 6.18188 6.84593 6.24603C6.81831 6.31104 6.79665 6.37738 6.78094 6.44513C6.76027 6.53436 6.74994 6.62592 6.74994 6.71991C6.74994 6.99994 6.52994 7.21991 6.24994 7.21991C5.96994 7.21991 5.74994 6.99994 5.74994 6.71991C5.74994 6.55804 5.76686 6.3999 5.80069 6.24542C5.8298 6.11249 5.87144 5.9823 5.92563 5.85486C5.97838 5.73077 6.04124 5.61334 6.11421 5.50256C6.19748 5.37616 6.29393 5.25842 6.40355 5.14935C6.50934 5.04407 6.62323 4.95099 6.74522 4.87018C6.86018 4.79407 6.98235 4.72876 7.11169 4.67432C7.23712 4.62152 7.3652 4.58075 7.49591 4.55194C7.65295 4.51733 7.81381 4.5 7.97849 4.5C8.14314 4.5 8.30405 4.51733 8.46109 4.55194C8.59178 4.58075 8.71985 4.62152 8.84526 4.67432C8.97461 4.72876 9.09679 4.79407 9.21175 4.87024C9.33374 4.95105 9.44762 5.04407 9.55341 5.14935C9.66295 5.2583 9.75951 5.37622 9.84274 5.50256C9.91573 5.61334 9.97858 5.73077 10.0313 5.85486C10.0855 5.9823 10.1272 6.11255 10.1563 6.24548C10.1901 6.39996 10.207 6.55811 10.207 6.71991C10.207 6.88171 10.1901 7.04004 10.1563 7.19446C10.1272 7.32739 10.0855 7.45758 10.0313 7.58502C9.97858 7.70911 9.91573 7.82654 9.84274 7.93732C9.75948 8.06372 9.66302 8.18146 9.55341 8.29053C9.44762 8.39581 9.33371 8.48883 9.21173 8.56964C9.09677 8.64581 8.97461 8.71112 8.84526 8.76556C8.7254 8.81598 8.60315 8.85547 8.47847 8.88403L8.47847 9.66418C8.47847 9.94415 8.25848 10.1642 7.97847 10.1642C7.69847 10.1642 7.47847 9.94415 7.47847 9.66418ZM7.37498 11.1567C7.37498 10.8476 7.62683 10.597 7.93748 10.597C8.24815 10.597 8.49998 10.8476 8.49998 11.1567C8.49998 11.4658 8.24815 11.7164 7.93748 11.7164C7.62683 11.7164 7.37498 11.4658 7.37498 11.1567Z" fill="rgb(128,128,128)" fill-rule="evenodd" />
</svg>
