<svg xmlns="http://www.w3.org/2000/svg" xmlns:xlink="http://www.w3.org/1999/xlink" viewBox="0 0 56 28" width="56.000000" height="28.000000" fill="none" clip-path="url(#clipPath_1)" customFrame="url(#clipPath_1)">
	<defs>
		<clipPath id="clipPath_1">
			<rect width="56.000000" height="28.000000" x="0.000000" y="0.000000" rx="4.000000" fill="rgb(255,255,255)"/>
		</clipPath>
		<clipPath id="clipPath_2">
			<rect width="28.000000" height="28.000000" x="28.000000" y="0.000000" rx="4.000000" fill="rgb(255,255,255)"/>
		</clipPath>
		<clipPath id="clipPath_3">
			<rect width="16.000000" height="16.000000" x="34.000000" y="6.000000" fill="rgb(255,255,255)"/>
		</clipPath>
		<clipPath id="clipPath_4">
			<rect width="28.000000" height="28.000000" x="0.000000" y="0.000000" fill="rgb(255,255,255)"/>
		</clipPath>
		<clipPath id="clipPath_5">
			<rect width="16.000000" height="16.000000" x="6.000000" y="6.000000" fill="rgb(255,255,255)"/>
		</clipPath>
	</defs>
	<rect id="代码" width="56.000000" height="28.000000" x="0.000000" y="0.000000" rx="4.000000" fill="rgb(245,245,245)"/>
	<g id=".原子组件/筛选切换-状态" customFrame="url(#clipPath_2)">
		<rect id=".原子组件/筛选切换-状态" width="28.000000" height="28.000000" x="28.000000" y="0.000000" rx="4.000000" fill="rgb(255,255,255)"/>
		<rect id=".原子组件/筛选切换-状态" width="27.000000" height="27.000000" x="28.500000" y="0.500000" rx="3.500000" stroke="rgb(25,25,25)" stroke-width="1"/>
		<g id="svg 21" clip-path="url(#clipPath_3)" customFrame="url(#clipPath_3)">
			<rect id="svg 21" width="16.000000" height="16.000000" x="34.000000" y="6.000000"/>
			<g id="组合 1111158">
				<path id="矢量 8307" d="M42.7278 9.71911C42.8609 9.38632 43.1937 9.2532 43.5265 9.38632C43.8593 9.51944 44.059 9.85223 43.9924 10.185L43.9924 10.2516L41.3301 18.2386L41.3301 18.3051C41.197 18.6379 40.8642 18.771 40.5314 18.6379C40.1986 18.5048 39.9989 18.172 40.0655 17.8392L40.0655 17.7727L42.7278 9.78567L42.7278 9.71911L42.7278 9.71911ZM44.8577 9.51944C45.1239 9.2532 45.4567 9.2532 45.7229 9.45288L45.7895 9.51944L49.783 13.5129L49.8496 13.5795C50.0492 13.8457 50.0492 14.1785 49.8496 14.3782L49.783 14.4448L45.7895 18.4383L45.7229 18.5048C45.4567 18.7045 45.1239 18.7045 44.9242 18.5048L44.8577 18.4383L44.7911 18.3717C44.5915 18.1055 44.5915 17.7727 44.7911 17.573L44.8577 17.5064L48.3853 13.9788L44.8577 10.4513L44.7911 10.3847C44.5915 10.1185 44.5915 9.78567 44.8577 9.51943L44.8577 9.51944Z" fill="rgb(25,25,25)" fill-rule="nonzero"/>
				<path id="矢量 8308" d="M38.2024 9.51999C38.4686 9.25375 38.868 9.25375 39.1342 9.51999C39.4004 9.78622 39.4004 10.119 39.2008 10.3852L39.1342 10.4518L35.6066 13.9794L39.1342 17.507C39.4004 17.7732 39.4004 18.106 39.2008 18.3722L39.1342 18.4388C38.868 18.705 38.5352 18.705 38.2689 18.5054L38.2024 18.4388L34.2089 14.4453C33.9427 14.1791 33.9427 13.8463 34.1423 13.58L34.2089 13.5135L38.2024 9.51999L38.2024 9.51999Z" fill="rgb(25,25,25)" fill-rule="nonzero"/>
			</g>
		</g>
	</g>
	<g id=".原子组件/筛选切换-状态" customFrame="url(#clipPath_4)">
		<rect id=".原子组件/筛选切换-状态" width="28.000000" height="28.000000" x="0.000000" y="0.000000"/>
		<g id="svg 22" clip-path="url(#clipPath_5)" customFrame="url(#clipPath_5)">
			<rect id="svg 22" width="16.000000" height="16.000000" x="6.000000" y="6.000000"/>
			<path id="减去顶层" d="M15.459 19.75L14.6558 18.2388L18.2794 11.4448L18.75 11.5625L18.75 19.75L19.75 19.75L19.75 8.25L18.6503 8.25L14 17.0034L9.34972 8.25L8.25 8.25L8.25 19.75L9.25 19.75L9.25 11.5625L9.72059 11.4448L13.3442 18.2388L12.541 19.75L15.459 19.75Z" fill="rgb(128,128,128)" fill-rule="evenodd"/>
		</g>
	</g>
</svg>
