<svg viewBox="0 0 16 16" xmlns="http://www.w3.org/2000/svg" xmlns:xlink="http://www.w3.org/1999/xlink" width="16.000000" height="16.000000" fill="none">
	<rect id="上传-uploading" width="16.000000" height="16.000000" x="0.000000" y="0.000000" />
	<path id="形状结合" d="M14 10.5C14.2761 10.5 14.5 10.7239 14.5 11L14.5 12.2837C14.5 13.5077 13.5077 14.5 12.2837 14.5L3.71633 14.5C2.49229 14.5 1.5 13.5077 1.5 12.2837L1.5 11C1.5 10.7239 1.72386 10.5 2 10.5C2.27614 10.5 2.5 10.7239 2.5 11L2.5 12.2837C2.5 12.9554 3.04457 13.5 3.71633 13.5L12.2837 13.5C12.9554 13.5 13.5 12.9554 13.5 12.2837L13.5 11C13.5 10.7239 13.7239 10.5 14 10.5ZM7.64645 2.14645C7.84171 1.95118 8.15829 1.95118 8.35355 2.14645L11.182 4.97487C11.3772 5.17014 11.3772 5.48672 11.182 5.68198L11.1127 5.73984C10.9179 5.87483 10.6484 5.85555 10.4749 5.68198L8.54467 3.752L8.54492 12.0307C8.54492 12.2838 8.35682 12.493 8.11277 12.5261L8.04492 12.5307C7.76878 12.5307 7.54492 12.3068 7.54492 12.0307L7.54467 3.66133L5.52513 5.68198C5.34762 5.85949 5.06984 5.87563 4.8741 5.73039C4.67884 5.53513 4.62276 5.17014 4.81802 4.97487L7.64645 2.14645Z" fill="rgb(150,193,255)" fill-rule="nonzero" />
	<path id="形状结合" d="M14.5 11L14.5 12.2837C14.5 13.5077 13.5077 14.5 12.2837 14.5L3.71633 14.5C2.49229 14.5 1.5 13.5077 1.5 12.2837L1.5 11C1.5 10.7239 1.72386 10.5 2 10.5C2.27614 10.5 2.5 10.7239 2.5 11L2.5 12.2837C2.5 12.9554 3.04457 13.5 3.71633 13.5L12.2837 13.5C12.9554 13.5 13.5 12.9554 13.5 12.2837L13.5 11C13.5 10.7239 13.7239 10.5 14 10.5C14.2761 10.5 14.5 10.7239 14.5 11ZM8.35355 2.14645L11.182 4.97487C11.3772 5.17014 11.3772 5.48672 11.182 5.68198L11.1127 5.73984C10.9179 5.87483 10.6484 5.85555 10.4749 5.68198L8.54467 3.752L8.54492 12.0307C8.54492 12.2838 8.35682 12.493 8.11277 12.5261L8.04492 12.5307C7.76878 12.5307 7.54492 12.3068 7.54492 12.0307L7.54467 3.66133L5.52513 5.68198C5.34762 5.85949 5.06984 5.87563 4.8741 5.73039C4.67884 5.53513 4.62276 5.17014 4.81802 4.97487L7.64645 2.14645C7.84171 1.95118 8.15829 1.95118 8.35355 2.14645Z" fill-rule="nonzero" stroke="rgb(150,193,255)" stroke-width="0.200000003" />
</svg>
