<svg viewBox="0 0 24 24" xmlns="http://www.w3.org/2000/svg" width="24" height="24" fill="none">
  <path d="M12 3.33789C12.3452 3.33789 12.625 3.61771 12.625 3.96289L12.6242 8.98539L16.3895 8.98541C17.0466 8.98541 17.587 9.51738 17.7026 10.1785L17.7193 10.3039L18.4543 18.4019C18.5251 19.1815 17.9323 19.8334 17.1499 19.8334L6.85014 19.8334C6.06779 19.8334 5.47501 19.1815 5.54577 18.4019L6.28081 10.3039C6.34598 9.58596 6.91236 8.98541 7.61058 8.98541L11.3742 8.98539L11.375 3.96289C11.375 3.61771 11.6549 3.33789 12 3.33789ZM16.3895 10.2354L7.61058 10.2354C7.6027 10.2354 7.53572 10.3064 7.52569 10.4169L6.79065 18.5149L8.54004 18.5829L8.54049 16.7084C8.54049 16.3632 8.82031 16.0834 9.16549 16.0834C9.51067 16.0834 9.79049 16.3632 9.79049 16.7084L9.79004 18.5829L11.3742 18.5829L11.375 16.7084C11.375 16.3632 11.6549 16.0834 12 16.0834C12.3452 16.0834 12.625 16.3632 12.625 16.7084L12.6242 18.5829L14.2092 18.5829L14.2096 16.7084C14.2096 16.3632 14.4894 16.0834 14.8346 16.0834C15.1797 16.0834 15.4596 16.3632 15.4596 16.7084L15.4592 18.5829L17.1499 18.5834L16.4744 10.4169C16.4643 10.3064 16.3974 10.2354 16.3895 10.2354ZM12.9375 12.0711C13.2827 12.0711 13.5625 12.3509 13.5625 12.6961C13.5625 13.0413 13.2827 13.3211 12.9375 13.3211L11.0625 13.3211C10.7174 13.3211 10.4375 13.0413 10.4375 12.6961C10.4375 12.3509 10.7174 12.0711 11.0625 12.0711L12.9375 12.0711Z" fill="#808080"/>
</svg>
