<svg xmlns="http://www.w3.org/2000/svg" xmlns:xlink="http://www.w3.org/1999/xlink" viewBox="0 0 24 24" width="24.000000" height="24.000000" fill="none" customFrame="url(#clipPath_25)">
	<rect id="置顶" width="24.000000" height="24.000000" x="0.000000" y="0.000000" rx="6.000000" fill="rgb(0,0,0)" fill-opacity="0"/>
	<g id="置顶-top" clip-path="url(#clipPath_26)" customFrame="url(#clipPath_26)">
		<rect id="置顶-top" width="16.000000" height="16.000000" x="4.000000" y="4.000000"/>
		<path id="形状结合" d="M16.7699 5.1543C17.046 5.1543 17.2699 5.37815 17.2699 5.6543C17.2699 5.93044 17.046 6.1543 16.7699 6.1543L7.22988 6.1543C6.95373 6.1543 6.72988 5.93044 6.72988 5.6543C6.72988 5.37815 6.95373 5.1543 7.22988 5.1543L16.7699 5.1543ZM10.8568 7.92913L6.05749 13.0966C5.93517 13.2283 5.86719 13.4014 5.86719 13.5811L5.87137 13.6587C5.91002 14.0154 6.21218 14.2931 6.57919 14.2931L8.84985 14.2921L8.84988 17.3143C8.84988 18.1759 9.54831 18.8743 10.4099 18.8743L13.5899 18.8743L13.6967 18.8707C14.5084 18.8158 15.1499 18.14 15.1499 17.3143L15.1492 14.2921L17.4205 14.2931C17.6003 14.2931 17.7734 14.2252 17.9051 14.1028C18.1932 13.8352 18.2099 13.3847 17.9423 13.0966L13.1429 7.92913L13.0615 7.8477C12.4302 7.26139 11.4431 7.29784 10.8568 7.92913ZM12.381 8.58043L16.7599 13.2927L14.6499 13.2927C14.3738 13.2927 14.1499 13.5166 14.1499 13.7928L14.1499 17.3143C14.1499 17.6236 13.8992 17.8743 13.5899 17.8743L10.4099 17.8743C10.1006 17.8743 9.84988 17.6236 9.84988 17.3143L9.84985 13.7927L9.84529 13.7249C9.81217 13.4808 9.60294 13.2927 9.34978 13.2927L7.23919 13.2927L11.5896 8.60966C11.8 8.38304 12.1544 8.36995 12.381 8.58043Z" fill="rgb(128,128,128)" fill-rule="nonzero"/>
	</g>
</svg>