<svg viewBox="0 0 16 16" xmlns="http://www.w3.org/2000/svg" xmlns:xlink="http://www.w3.org/1999/xlink" width="16.000000" height="16.000000" fill="none">
	<rect id="关闭-clear" width="16.000000" height="16.000000" x="0.000000" y="0.000000" />
	<path id="path" d="M12.5819 3.38999C12.7519 3.55999 12.7719 3.82999 12.6419 4.02999L8.69187 7.97999L12.5819 11.87C12.7919 12.05 12.8219 12.36 12.6419 12.57C12.4619 12.78 12.1519 12.81 11.9419 12.63L7.98186 8.68999L4.09187 12.58C3.91187 12.77 3.60187 12.78 3.41187 12.6C3.23187 12.43 3.19187 12.14 3.33187 11.94L7.28187 7.97999L3.39187 4.08999C3.21187 3.87999 3.23187 3.56999 3.44187 3.37999C3.60187 3.23999 3.84187 3.21999 4.02186 3.32999L7.98187 7.27999L11.8719 3.38999C12.0619 3.18999 12.3819 3.18999 12.5819 3.38999Z" fill="rgb(128,128,128)" fill-rule="nonzero" />
</svg>
