<svg viewBox="0 0 16 16" xmlns="http://www.w3.org/2000/svg" xmlns:xlink="http://www.w3.org/1999/xlink" width="16.000000" height="16.000000" fill="none">
	<rect id="刷新-refresh" width="16.000000" height="16.000000" x="0.000000" y="0.000000" />
	<path id="形状结合" d="M11.8028 2.74214C14.5515 4.72753 15.2727 8.45696 13.5432 11.2912L15.2423 10.8386C15.47 10.778 15.7031 10.8916 15.8 11.0976L15.8297 11.179C15.8979 11.4351 15.7455 11.6981 15.4893 11.7663L12.5949 12.5368C12.3393 12.6049 12.0769 12.4533 12.008 12.198L11.2281 9.3061C11.1591 9.05015 11.3106 8.7867 11.5666 8.71768C11.8225 8.64865 12.086 8.80019 12.155 9.05614L12.6526 10.9045C14.2127 8.48125 13.617 5.23683 11.2407 3.52036C8.77292 1.73791 5.3208 2.279 3.53131 4.72763C1.74305 7.17457 2.29144 10.6012 4.75749 12.3824C6.41828 13.582 8.27898 13.8397 10.3895 13.1543C10.6416 13.0724 10.9124 13.2104 10.9943 13.4625C11.0762 13.7147 10.9381 13.9854 10.686 14.0673C8.2901 14.8454 6.10992 14.5435 4.19538 13.1607C1.2984 11.0682 0.653488 7.03845 2.75623 4.16119C4.85773 1.28563 8.90748 0.650866 11.8028 2.74214Z" fill="rgb(25,25,25)" fill-rule="nonzero" />
</svg>
