<svg xmlns="http://www.w3.org/2000/svg" xmlns:xlink="http://www.w3.org/1999/xlink" viewBox="0 0 56 28" width="56.000000" height="28.000000" fill="none" customFrame="#000000">
	<defs>
		<clipPath id="clipPath_6">
			<rect width="56.000000" height="28.000000" x="0.000000" y="0.000000" rx="4.000000" fill="rgb(255,255,255)"/>
		</clipPath>
		<clipPath id="clipPath_7">
			<rect width="28.000000" height="28.000000" x="28.000000" y="0.000000" rx="4.000000" fill="rgb(255,255,255)"/>
		</clipPath>
		<clipPath id="clipPath_8">
			<rect width="16.000000" height="16.000000" x="34.000000" y="6.000000" fill="rgb(255,255,255)"/>
		</clipPath>
		<clipPath id="clipPath_9">
			<rect width="28.000000" height="28.000000" x="0.000000" y="0.000000" rx="4.000000" fill="rgb(255,255,255)"/>
		</clipPath>
		<clipPath id="clipPath_10">
			<rect width="16.000000" height="16.000000" x="6.000000" y="6.000000" fill="rgb(255,255,255)"/>
		</clipPath>
		<clipPath id="clipPath_11">
			<rect width="28.000000" height="28.000000" x="0.000000" y="0.000000" rx="4.000000" fill="rgb(255,255,255)"/>
		</clipPath>
	</defs>
	<rect id="markdown" width="56.000000" height="28.000000" x="0.000000" y="0.000000" fill="rgb(255,255,255)" fill-opacity="0"/>
	<g id="图标筛选切换" clip-path="url(#clipPath_6)" customFrame="url(#clipPath_6)">
		<rect id="图标筛选切换" width="56.000000" height="28.000000" x="0.000000" y="0.000000" rx="4.000000" fill="rgb(245,245,245)"/>
		<g id=".原子组件/筛选切换-状态" customFrame="url(#clipPath_7)">
			<rect id=".原子组件/筛选切换-状态" width="28.000000" height="28.000000" x="28.000000" y="0.000000" rx="4.000000"/>
			<g id="svg 21" clip-path="url(#clipPath_8)" customFrame="url(#clipPath_8)">
				<rect id="svg 21" width="16.000000" height="16.000000" x="34.000000" y="6.000000"/>
				<g id="组合 1111158">
					<path id="矢量 8307" d="M42.7278 9.71911C42.8609 9.38632 43.1937 9.2532 43.5265 9.38632C43.8593 9.51944 44.059 9.85223 43.9924 10.185L43.9924 10.2516L41.3301 18.2386L41.3301 18.3051C41.197 18.6379 40.8642 18.771 40.5314 18.6379C40.1986 18.5048 39.9989 18.172 40.0655 17.8392L40.0655 17.7727L42.7278 9.78567L42.7278 9.71911L42.7278 9.71911ZM44.8577 9.51944C45.1239 9.2532 45.4567 9.2532 45.7229 9.45288L45.7895 9.51944L49.783 13.5129L49.8496 13.5795C50.0492 13.8457 50.0492 14.1785 49.8496 14.3782L49.783 14.4448L45.7895 18.4383L45.7229 18.5048C45.4567 18.7045 45.1239 18.7045 44.9242 18.5048L44.8577 18.4383L44.7911 18.3717C44.5915 18.1055 44.5915 17.7727 44.7911 17.573L44.8577 17.5064L48.3853 13.9788L44.8577 10.4513L44.7911 10.3847C44.5915 10.1185 44.5915 9.78567 44.8577 9.51943L44.8577 9.51944Z" fill="rgb(128,128,128)" fill-rule="nonzero"/>
					<path id="矢量 8308" d="M38.2024 9.51999C38.4686 9.25375 38.868 9.25375 39.1342 9.51999C39.4004 9.78622 39.4004 10.119 39.2008 10.3852L39.1342 10.4518L35.6066 13.9794L39.1342 17.507C39.4004 17.7732 39.4004 18.106 39.2008 18.3722L39.1342 18.4388C38.868 18.705 38.5352 18.705 38.2689 18.5054L38.2024 18.4388L34.2089 14.4453C33.9427 14.1791 33.9427 13.8463 34.1423 13.58L34.2089 13.5135L38.2024 9.51999L38.2024 9.51999Z" fill="rgb(128,128,128)" fill-rule="nonzero"/>
				</g>
			</g>
		</g>
		<g id=".原子组件/筛选切换-状态" customFrame="url(#clipPath_9)">
			<rect id=".原子组件/筛选切换-状态" width="28.000000" height="28.000000" x="0.000000" y="0.000000" rx="4.000000" fill="rgb(255,255,255)"/>
			<rect id=".原子组件/筛选切换-状态" width="27.000000" height="27.000000" x="0.500000" y="0.500000" rx="3.500000" stroke="rgb(25,25,25)" stroke-width="1"/>
			<g id="svg 23" clip-path="url(#clipPath_10)" customFrame="url(#clipPath_10)">
				<rect id="svg 23" width="16.000000" height="16.000000" x="6.000000" y="6.000000"/>
				<path id="减去顶层" d="M15.3756 19.6998L14.5989 18.2386L18.2351 11.4211L18.7998 11.5623L18.7998 19.6998L19.6998 19.6998L19.6998 8.2998L18.6801 8.2998L13.9998 17.1097L9.31947 8.2998L8.2998 8.2998L8.2998 19.6998L9.1998 19.6998L9.1998 11.5623L9.76451 11.4211L13.4007 18.2386L12.624 19.6998L15.3756 19.6998Z" fill="rgb(25,25,25)" fill-rule="evenodd"/>
			</g>
		</g>
	</g>
	<g id="画板 13996" opacity="0" customFrame="url(#clipPath_11)">
		<rect id="画板 13996" width="28.000000" height="28.000000" x="0.000000" y="0.000000" rx="4.000000" opacity="0" fill="rgb(255,255,255)" fill-opacity="0"/>
		<rect id="画板 13996" width="27.000000" height="27.000000" x="0.500000" y="0.500000" rx="3.500000" opacity="0" stroke="rgb(194,194,194)" stroke-width="1"/>
		<g id="组合 ">
			<path id="path" d="M19.0237 19.1386L20.557 18.1523C20.6286 18.1063 20.6928 18.0512 20.7488 17.9871C20.8048 17.923 20.8503 17.8523 20.8863 17.7752C20.9223 17.698 20.9467 17.6174 20.9598 17.5333C20.9729 17.4492 20.9741 17.365 20.9633 17.2805C20.9525 17.1961 20.9306 17.1148 20.8968 17.0367C20.8629 16.9585 20.8188 16.8866 20.7645 16.821C20.7103 16.7554 20.6484 16.6986 20.578 16.6507C20.5077 16.6027 20.4321 16.5655 20.3512 16.539L16.4089 15.246C16.3322 15.2207 16.254 15.206 16.1733 15.2019C16.0926 15.1977 16.0123 15.2044 15.9334 15.2218C15.8545 15.2391 15.7798 15.2666 15.7083 15.3042C15.6368 15.3418 15.5712 15.3882 15.5122 15.4433C15.4531 15.4985 15.4021 15.5604 15.3598 15.6292C15.3175 15.698 15.2852 15.7712 15.2626 15.8488C15.24 15.9263 15.228 16.0054 15.2267 16.0862C15.2254 16.167 15.2346 16.2465 15.2547 16.3247L16.2801 20.3222C16.2922 20.3706 16.3075 20.4176 16.3274 20.4632C16.3473 20.5089 16.3712 20.5526 16.3984 20.5944C16.4256 20.6361 16.4557 20.6753 16.4894 20.7119C16.5232 20.7486 16.5604 20.7821 16.5998 20.8126C16.6391 20.8432 16.6802 20.8703 16.7241 20.8938C16.768 20.9174 16.8135 20.9371 16.8607 20.9531C16.9079 20.969 16.956 20.981 17.0052 20.9889C17.0544 20.9968 17.1043 21.0005 17.1541 21.0001C17.223 21.0002 17.291 20.9923 17.3581 20.9766C17.4252 20.9609 17.4899 20.9377 17.5516 20.9071C17.6134 20.8764 17.671 20.8392 17.7242 20.7952C17.7773 20.7513 17.8243 20.7018 17.866 20.6469L19.0237 19.1386ZM17.1978 19.8751L16.2685 16.2524L19.8407 17.424L18.3363 18.3917L17.1978 19.8751Z" fill="rgb(25,25,25)" fill-rule="evenodd"/>
			<path id="椭圆 81" d="M13.5893 20.12C9.96632 20.12 7.0293 17.183 7.0293 13.56C7.0293 9.93702 9.96632 7 13.5893 7C17.2123 7 20.1493 9.93702 20.1493 13.56" stroke="rgb(25,25,25)" stroke-linecap="round" stroke-width="1"/>
			<path id="椭圆 81" d="M13.5894 17.2501C11.5515 17.2501 9.89941 15.5981 9.89941 13.5601C9.89941 11.5222 11.5515 9.87012 13.5894 9.87012C15.6274 9.87012 17.2794 11.5222 17.2794 13.5601" stroke="rgb(25,25,25)" stroke-linecap="round" stroke-width="1"/>
		</g>
	</g>
</svg>