<svg viewBox="0 0 16 16" xmlns="http://www.w3.org/2000/svg" xmlns:xlink="http://www.w3.org/1999/xlink" width="16.000000" height="16.000000" fill="none">
	<rect id="锁定-lock" width="16.000000" height="16.000000" x="0.000000" y="0.000000" />
	<path id="形状结合" d="M8.00023 1.26367C10.1031 1.26367 11.8077 2.96835 11.8077 5.07117L11.8082 5.7894C12.8928 6.0543 13.6977 7.03249 13.6977 8.19867L13.6977 12.2577C13.6977 13.6273 12.5874 14.7377 11.2177 14.7377L4.78273 14.7377C3.41307 14.7377 2.30273 13.6273 2.30273 12.2577L2.30273 8.19867C2.30273 7.03225 3.108 6.0539 4.19292 5.78924L4.19273 5.07117C4.19273 2.96835 5.89741 1.26367 8.00023 1.26367ZM11.2177 6.71867L4.78273 6.71867C3.96535 6.71867 3.30273 7.38129 3.30273 8.19867L3.30273 12.2577C3.30273 13.0751 3.96535 13.7377 4.78273 13.7377L11.2177 13.7377C12.0351 13.7377 12.6977 13.0751 12.6977 12.2577L12.6977 8.19867C12.6977 7.38129 12.0351 6.71867 11.2177 6.71867ZM8.00023 8.83717C8.27638 8.83717 8.50023 9.06103 8.50023 9.33717L8.50023 11.1192C8.50023 11.3953 8.27638 11.6192 8.00023 11.6192C7.72409 11.6192 7.50023 11.3953 7.50023 11.1192L7.50023 9.33717C7.50023 9.06103 7.72409 8.83717 8.00023 8.83717ZM8.00023 2.26367C6.4497 2.26367 5.19273 3.52063 5.19273 5.07117L5.19273 5.71834L10.8074 5.71834L10.8077 5.07117C10.8077 3.52063 9.55077 2.26367 8.00023 2.26367Z" fill="rgb(25,25,25)" fill-rule="nonzero" />
</svg>
