<svg viewBox="0 0 16 16" xmlns="http://www.w3.org/2000/svg" xmlns:xlink="http://www.w3.org/1999/xlink" width="16.000000" height="16.000000" fill="none" customFrame="#000000">
	<rect id="消息状态" width="16.000000" height="16.000000" x="0.000000" y="0.000000" />
	<path id="路径" d="M8 1C4.13438 1 1 4.13438 1 8C1 11.8656 4.13438 15 8 15C11.8656 15 15 11.8656 15 8C15 4.13438 11.8656 1 8 1Z" fill="rgb(92,179,0)" fill-rule="evenodd" />
	<path id="Fill 1备份 2" d="M6.56964 9.79408L5.08797 8.31212C4.97068 8.19512 4.97068 8.00523 5.08797 7.88793C5.20527 7.77063 5.39487 7.77063 5.51216 7.88793L6.99382 9.36989C7.03222 9.40799 7.07692 9.41369 7.10002 9.41369C7.12312 9.41369 7.16782 9.40799 7.20592 9.36989L10.4878 6.08797C10.6051 5.97068 10.7947 5.97068 10.912 6.08797C11.0293 6.20527 11.0293 6.39487 10.912 6.51216L7.63041 9.79408C7.48881 9.93568 7.30042 10.0137 7.10002 10.0137C6.89963 10.0137 6.71123 9.93568 6.56964 9.79408Z" fill="rgb(255,255,255)" fill-rule="evenodd" />
	<path id="Fill 1备份 2" d="M5.08797 8.31212C4.97068 8.19512 4.97068 8.00523 5.08797 7.88793C5.20527 7.77063 5.39487 7.77063 5.51216 7.88793L6.99382 9.36989C7.03222 9.40799 7.07692 9.41369 7.10002 9.41369C7.12312 9.41369 7.16782 9.40799 7.20592 9.36989L10.4878 6.08797C10.6051 5.97068 10.7947 5.97068 10.912 6.08797C11.0293 6.20527 11.0293 6.39487 10.912 6.51216L7.63041 9.79408C7.48881 9.93568 7.30042 10.0137 7.10002 10.0137C6.89963 10.0137 6.71123 9.93568 6.56964 9.79408L5.08797 8.31212Z" fill-rule="evenodd" stroke="rgb(255,255,255)" stroke-width="0.300000012" />
</svg>
