<svg viewBox="0 0 16 16" xmlns="http://www.w3.org/2000/svg" xmlns:xlink="http://www.w3.org/1999/xlink" width="16.000000" height="16.000000" fill="none" customFrame="#000000">
	<rect id="消息状态" width="16.000000" height="16.000000" x="0.000000" y="0.000000" />
	<path id="路径" d="M8 1C4.13438 1 1 4.13438 1 8C1 11.8656 4.13438 15 8 15C11.8656 15 15 11.8656 15 8C15 4.13438 11.8656 1 8 1Z" fill="rgb(242,48,48)" fill-rule="evenodd" />
	<path id="形状结合备份" d="M10.3598 10.89C10.4329 10.9632 10.5289 10.9999 10.6249 10.9999C10.7209 10.9999 10.8169 10.9632 10.89 10.89C11.0367 10.7434 11.0367 10.5064 10.89 10.3598L8.53023 8L10.89 5.6402C11.0367 5.49358 11.0367 5.25659 10.89 5.10997C10.7434 4.96335 10.5064 4.96335 10.3598 5.10997L8 7.46977L5.6402 5.10997C5.49358 4.96335 5.25659 4.96335 5.10997 5.10997C4.96335 5.25659 4.96335 5.49358 5.10997 5.6402L7.46977 8L5.10997 10.3598C4.96335 10.5064 4.96335 10.7434 5.10997 10.89C5.18309 10.9632 5.27909 10.9999 5.37508 10.9999C5.47108 10.9999 5.56708 10.9632 5.6402 10.89L8 8.53023L10.3598 10.89Z" fill="rgb(255,255,255)" fill-rule="evenodd" />
	<path id="形状结合备份" d="M10.3598 10.89C10.4329 10.9632 10.5289 10.9999 10.6249 10.9999C10.7209 10.9999 10.8169 10.9632 10.89 10.89C11.0367 10.7434 11.0367 10.5064 10.89 10.3598L8.53023 8L10.89 5.6402C11.0367 5.49358 11.0367 5.25659 10.89 5.10997C10.7434 4.96335 10.5064 4.96335 10.3598 5.10997L8 7.46977L5.6402 5.10997C5.49358 4.96335 5.25659 4.96335 5.10997 5.10997C4.96335 5.25659 4.96335 5.49358 5.10997 5.6402L7.46977 8L5.10997 10.3598C4.96335 10.5064 4.96335 10.7434 5.10997 10.89C5.18309 10.9632 5.27909 10.9999 5.37508 10.9999C5.47108 10.9999 5.56708 10.9632 5.6402 10.89L8 8.53023L10.3598 10.89Z" fill-rule="evenodd" stroke="rgb(255,255,255)" stroke-width="0.200000003" />
</svg>
