<svg
  viewBox="0 0 18 18"
  width="18"
  height="18"
  fill="none"
  xmlns="http://www.w3.org/2000/svg"
>
  <rect
    id="query_the_optical_power_border"
    width="18.000000"
    height="18.000000"
    x="0.000000"
    y="0.000000"
  />
  <g id="ic_digital_power_query_the_optical_power" transform="translate(1, 1) scale(0.88)">
    <path
      id="path1"
      d="M1.61898 8.99398C1.61898 7.8406 1.61494 6.68721 1.61898 5.53382C1.61666 4.9757 1.68526 4.41955 1.82313 3.87872C2.12532 2.73398 2.87098 2.05464 4.01456 1.79109C4.58797 1.6672 5.17364 1.60915 5.76021 1.61808C7.97202 1.61808 10.184 1.61808 12.3962 1.61808C12.9549 1.61461 13.512 1.67851 14.0554 1.80839C15.2335 2.09674 15.9406 2.84298 16.2099 4.01712C16.331 4.57204 16.3888 5.13889 16.3823 5.70683C16.3823 7.94248 16.3823 10.1783 16.3823 12.4143C16.3853 12.9676 16.3216 13.5193 16.1926 14.0573C15.9042 15.2361 15.1545 15.9397 13.9804 16.209C13.4069 16.3324 12.8213 16.3904 12.2347 16.382C10.0322 16.382 7.82977 16.382 5.62757 16.382C5.06462 16.3866 4.50314 16.3237 3.95516 16.1946C2.77179 15.9062 2.06131 15.1565 1.79257 13.9766C1.65531 13.3768 1.61898 12.7754 1.61898 12.1687C1.61898 11.1106 1.61898 10.0524 1.61898 8.99398C1.61898 7.8406 1.61494 6.68721 1.61898 5.53382Z"
      fill="rgb(255,255,255)"
      fill-opacity="0"
      fill-rule="nonzero"
    />
    <path
      id="path1_stroke"
      d="M1.61898 5.53382C1.61666 4.9757 1.68526 4.41955 1.82313 3.87872C2.12532 2.73398 2.87098 2.05464 4.01456 1.79109C4.58797 1.6672 5.17364 1.60915 5.76021 1.61808C7.97202 1.61808 10.184 1.61808 12.3962 1.61808C12.9549 1.61461 13.512 1.67851 14.0554 1.80839C15.2335 2.09674 15.9406 2.84298 16.2099 4.01712C16.331 4.57204 16.3888 5.13889 16.3823 5.70683C16.3823 7.94248 16.3823 10.1783 16.3823 12.4143C16.3853 12.9676 16.3216 13.5193 16.1926 14.0573C15.9042 15.2361 15.1545 15.9397 13.9804 16.209C13.4069 16.3324 12.8213 16.3904 12.2347 16.382C10.0322 16.382 7.82977 16.382 5.62757 16.382C5.06462 16.3866 4.50314 16.3237 3.95516 16.1946C2.77179 15.9062 2.06131 15.1565 1.79257 13.9766C1.65531 13.3768 1.61898 12.7754 1.61898 12.1687C1.61898 11.1106 1.61898 10.0524 1.61898 8.99398C1.61898 7.8406 1.61494 6.68721 1.61898 5.53382Z"
      fill-rule="nonzero"
      stroke="rgb(255,255,255)"
      stroke-opacity="0"
      stroke-width="1.125"
    />
    <path
      id="path2"
      d="M1.61898 5.53382C1.61666 4.9757 1.68526 4.41955 1.82313 3.87872C2.12532 2.73398 2.87098 2.05464 4.01456 1.79109C4.58797 1.6672 5.17364 1.60915 5.76021 1.61808C7.97202 1.61808 10.184 1.61808 12.3962 1.61808C12.9549 1.61461 13.512 1.67851 14.0554 1.80839C15.2335 2.09674 15.9406 2.84298 16.2099 4.01712C16.331 4.57204 16.3888 5.13889 16.3823 5.70683C16.3823 7.94248 16.3823 10.1783 16.3823 12.4143C16.3853 12.9676 16.3216 13.5193 16.1926 14.0573C15.9042 15.2361 15.1545 15.9397 13.9804 16.209C13.4069 16.3324 12.8213 16.3904 12.2347 16.382C10.0322 16.382 7.82977 16.382 5.62757 16.382C5.06462 16.3866 4.50314 16.3237 3.95516 16.1946C2.77179 15.9062 2.06131 15.1565 1.79257 13.9766C1.65531 13.3768 1.61898 12.7754 1.61898 12.1687C1.61898 11.1106 1.61898 10.0524 1.61898 8.99398C1.61898 7.8406 1.61494 6.68721 1.61898 5.53382Z"
      opacity="0.2"
      fill-rule="nonzero"
      stroke="rgb(255,255,255)"
      stroke-opacity="0"
      stroke-width="1.125"
    />
    <circle
      id="path3"
      cx="9"
      cy="9"
      r="7.875"
      fill="rgb(255,255,255)"
      fill-opacity="0"
    />
    <path
      id="path4"
      d="M2.10815 7.69879L5.0766 7.69879L6.14274 9.99567L7.61878 5.40192L8.68492 7.69879L11.6245 7.69879"
      fill-rule="evenodd"
      stroke="rgb(25,25,25)"
      stroke-linecap="round"
      stroke-linejoin="round"
      stroke-width="1.125"
    />
    <path
      id="path5"
      d="M7.30638 5.3015C7.39775 5.01713 7.79065 4.99281 7.9164 5.26373L8.89444 7.37063L11.6245 7.37063C11.7928 7.37063 11.9315 7.4973 11.9505 7.66049L11.9527 7.69875C11.9527 7.87997 11.8058 8.02688 11.6245 8.02688L8.68492 8.02688C8.55719 8.02688 8.44107 7.95276 8.38729 7.8369L7.67414 6.30094L6.45513 10.096C6.36792 10.3674 6.00596 10.402 5.86386 10.1689L5.84511 10.1338L4.86703 8.02688L2.10815 8.02688C1.93988 8.02688 1.80119 7.90021 1.78224 7.73702L1.78003 7.69875C1.78003 7.51753 1.92694 7.37063 2.10815 7.37063L5.0766 7.37063C5.20432 7.37063 5.32044 7.44475 5.37422 7.5606L6.087 9.09624L7.30638 5.3015Z"
      fill="rgb(255,255,255)"
      fill-opacity="0"
      fill-rule="evenodd"
    />
    <path
      id="path5_stroke"
      d="M7.9164 5.26373L8.89444 7.37063L11.6245 7.37063C11.7928 7.37063 11.9315 7.4973 11.9505 7.66049L11.9527 7.69875C11.9527 7.87997 11.8058 8.02688 11.6245 8.02688L8.68492 8.02688C8.55719 8.02688 8.44107 7.95276 8.38729 7.8369L7.67414 6.30094L6.45513 10.096C6.36792 10.3674 6.00596 10.402 5.86386 10.1689L5.84511 10.1338L4.86703 8.02688L2.10815 8.02688C1.93988 8.02688 1.80119 7.90021 1.78224 7.73702L1.78003 7.69875C1.78003 7.51753 1.92694 7.37063 2.10815 7.37063L5.0766 7.37063C5.20432 7.37063 5.32044 7.44475 5.37422 7.5606L6.087 9.09624L7.30638 5.3015C7.39775 5.01713 7.79065 4.99281 7.9164 5.26373Z"
      fill-rule="evenodd"
      stroke="rgb(255,255,255)"
      stroke-opacity="0"
      stroke-linejoin="round"
      stroke-width="1.125"
    />
    <path
      id="path6"
      d="M12.8301 11.0296C13.5258 9.94141 13.871 8.61856 13.7254 7.23418C13.3845 3.99012 10.4782 1.63669 7.23418 1.97766C3.99012 2.31862 1.63669 5.22486 1.97766 8.46892C2.31862 11.713 5.22486 14.0664 8.46892 13.7254C9.85465 13.5798 11.0779 12.9661 11.998 12.0579L16.0581 16.0581"
      fill-rule="evenodd"
      stroke="rgb(25,25,25)"
      stroke-linecap="round"
      stroke-linejoin="round"
      stroke-width="1.125"
    />
    <path
      id="path7"
      d="M7.19991 1.65136C10.6242 1.29145 13.6919 3.77562 14.0518 7.19991C14.1753 8.37471 13.9662 9.53645 13.4601 10.5759C13.3807 10.7389 13.1844 10.8067 13.0214 10.7273C12.8585 10.648 12.7907 10.4516 12.87 10.2887C13.3228 9.35882 13.5097 8.32027 13.3991 7.26851C13.0771 4.20467 10.3323 1.98199 7.26851 2.30401C4.20467 2.62603 1.98199 5.37081 2.30401 8.43465C2.62603 11.4985 5.37081 13.7212 8.43465 13.3991C9.71029 13.2651 10.8738 12.7066 11.7675 11.8244L11.7832 11.8104L11.795 11.8001L11.796 11.799L11.8154 11.7855L11.8281 11.7771L11.8301 11.7757L11.8485 11.7661L11.8633 11.7587L11.883 11.751L11.8999 11.7447L11.9026 11.7438L11.9266 11.7379L11.9377 11.7354L11.9384 11.7353L11.9422 11.7345L11.9656 11.7317L11.9762 11.7305L11.9778 11.7304L11.9978 11.73L12.015 11.7302L12.0178 11.7304L12.0303 11.7317L12.0535 11.7345L12.0572 11.7353L12.0657 11.7373L12.0915 11.7433L12.0936 11.7438L12.1235 11.755L12.1264 11.756L12.1325 11.7585L12.1533 11.7694L12.1637 11.7746L12.1677 11.777L12.1848 11.7888L12.1972 11.7971L12.2008 11.7999L12.2167 11.814L12.2283 11.8242L16.2884 15.8244C16.4175 15.9516 16.419 16.1593 16.2919 16.2884C16.1647 16.4175 15.9569 16.419 15.8278 16.2919L11.9919 12.5126L11.909 12.5857C10.9957 13.3701 9.87118 13.8774 8.65022 14.0346L8.50325 14.0518C5.07896 14.4117 2.01126 11.9275 1.65136 8.50325C1.29145 5.07896 3.77562 2.01126 7.19991 1.65136Z"
      fill="rgb(255,255,255)"
      fill-opacity="0"
      fill-rule="nonzero"
    />
    <path
      id="path7_stroke"
      d="M14.0518 7.19991C14.1753 8.37471 13.9662 9.53645 13.4601 10.5759C13.3807 10.7389 13.1844 10.8067 13.0214 10.7273C12.8585 10.648 12.7907 10.4516 12.87 10.2887C13.3228 9.35882 13.5097 8.32027 13.3991 7.26851C13.0771 4.20467 10.3323 1.98199 7.26851 2.30401C4.20467 2.62603 1.98199 5.37081 2.30401 8.43465C2.62603 11.4985 5.37081 13.7212 8.43465 13.3991C9.71029 13.2651 10.8738 12.7066 11.7675 11.8244L11.7832 11.8104L11.795 11.8001L11.796 11.799L11.8154 11.7855L11.8281 11.7771L11.8301 11.7757L11.8485 11.7661L11.8633 11.7587L11.883 11.751L11.8999 11.7447L11.9026 11.7438L11.9266 11.7379L11.9377 11.7354L11.9384 11.7353L11.9422 11.7345L11.9656 11.7317L11.9762 11.7305L11.9778 11.7304L11.9978 11.73L12.015 11.7302L12.0178 11.7304L12.0303 11.7317L12.0535 11.7345L12.0572 11.7353L12.0657 11.7373L12.0915 11.7433L12.0936 11.7438L12.1235 11.755L12.1264 11.756L12.1325 11.7585L12.1533 11.7694L12.1637 11.7746L12.1677 11.777L12.1848 11.7888L12.1972 11.7971L12.2008 11.7999L12.2167 11.814L12.2283 11.8242L16.2884 15.8244C16.4175 15.9516 16.419 16.1593 16.2919 16.2884C16.1647 16.4175 15.9569 16.419 15.8278 16.2919L11.9919 12.5126L11.909 12.5857C10.9957 13.3701 9.87118 13.8774 8.65022 14.0346L8.50325 14.0518C5.07896 14.4117 2.01126 11.9275 1.65136 8.50325C1.29145 5.07896 3.77562 2.01126 7.19991 1.65136Z"
      fill-rule="nonzero"
      stroke="rgb(255,255,255)"
      stroke-opacity="0"
      stroke-linejoin="round"
      stroke-width="1.125"
    />
  </g>
</svg>
