<svg viewBox="0 0 16 16" xmlns="http://www.w3.org/2000/svg" xmlns:xlink="http://www.w3.org/1999/xlink" width="16.000000" height="16.000000" fill="none">
	<rect id="幻灯片" width="16.000000" height="16.000000" x="0.000000" y="0.000000" />
	<path id="矢量 8588" d="M8 11.646L5.6242 14.0218L4.9312 13.3288L7.02 11.24L3.03 11.24C2.88812 11.2403 2.75185 11.2127 2.6212 11.1574C2.49527 11.1042 2.38397 11.0293 2.2873 10.9327C2.19058 10.8361 2.11568 10.7248 2.0626 10.5988C2.00722 10.4682 1.97969 10.3319 1.98 10.19L1.98 2.98L1 2.98L1 2L15 2L15 2.98L14.02 2.98L14.02 10.19C14.0203 10.3319 13.9928 10.4682 13.9374 10.5988C13.8842 10.7249 13.809 10.8362 13.712 10.9327C13.6153 11.0293 13.504 11.1042 13.3781 11.1574C13.2474 11.2127 13.1112 11.2402 12.9693 11.24L8.9793 11.24L11.0681 13.3288L10.3751 14.0218L8 11.646ZM2.96 10.26L13.04 10.26L13.04 2.98L2.96 2.98L2.96 10.26ZM3.9785 8.307L6.7008 5.5847L7.3938 6.2777L8.3094 7.1933L11.3285 4.1742L12.0215 4.8672L8.3115 8.5772L6.7015 6.9672L4.6715 8.9972L3.9785 8.307Z" fill="rgb(0,0,0)" fill-rule="nonzero" />
</svg>
