<svg viewBox="0 0 16 16" xmlns="http://www.w3.org/2000/svg" xmlns:xlink="http://www.w3.org/1999/xlink" width="16.000000" height="16.000000" fill="none">
	<rect id="ic_模板" width="16.000000" height="16.000000" x="0.000000" y="0.000000" />
	<g id="ic_ict_template_sketch-模板草图/base/ic_ict_template_sketch">
		<path id="path5" d="M10 7.99988L13 7.99988C13.5523 7.99988 14 8.44759 14 8.99988L14 12.9999C14 13.5522 13.5523 13.9999 13 13.9999L10 13.9999C9.44771 13.9999 9 13.5522 9 12.9999L9 8.99988C9 8.44759 9.44771 7.99988 10 7.99988Z" fill="rgb(255,255,255)" fill-opacity="0" fill-rule="evenodd" />
		<path id="path5" d="M13 7.99988C13.5523 7.99988 14 8.44759 14 8.99988L14 12.9999C14 13.5522 13.5523 13.9999 13 13.9999L10 13.9999C9.44771 13.9999 9 13.5522 9 12.9999L9 8.99988C9 8.44759 9.44771 7.99988 10 7.99988L13 7.99988Z" fill-rule="evenodd" stroke="rgb(25,25,25)" stroke-linecap="round" stroke-linejoin="round" stroke-width="0.997500002" />
		<path id="path7" d="M10 1.99988L13 1.99988C13.5523 1.99988 14 2.44759 14 2.99988L14 4.99988C14 5.55216 13.5523 5.99988 13 5.99988L10 5.99988C9.44771 5.99988 9 5.55216 9 4.99988L9 2.99988C9 2.44759 9.44771 1.99988 10 1.99988Z" fill="rgb(255,255,255)" fill-opacity="0" fill-rule="evenodd" />
		<path id="path7" d="M13 1.99988C13.5523 1.99988 14 2.44759 14 2.99988L14 4.99988C14 5.55216 13.5523 5.99988 13 5.99988L10 5.99988C9.44771 5.99988 9 5.55216 9 4.99988L9 2.99988C9 2.44759 9.44771 1.99988 10 1.99988L13 1.99988Z" fill-rule="evenodd" stroke="rgb(25,25,25)" stroke-linecap="round" stroke-linejoin="round" stroke-width="0.997500002" />
		<path id="path6" d="M3 1.99988L6 1.99988C6.55228 1.99988 7 2.44759 7 2.99988L7 12.9999C7 13.5522 6.55228 13.9999 6 13.9999L3 13.9999C2.44772 13.9999 2 13.5522 2 12.9999L2 2.99988C2 2.44759 2.44772 1.99988 3 1.99988Z" fill="rgb(255,255,255)" fill-opacity="0" fill-rule="evenodd" />
		<path id="path6" d="M6 1.99988C6.55228 1.99988 7 2.44759 7 2.99988L7 12.9999C7 13.5522 6.55228 13.9999 6 13.9999L3 13.9999C2.44772 13.9999 2 13.5522 2 12.9999L2 2.99988C2 2.44759 2.44772 1.99988 3 1.99988L6 1.99988Z" fill-rule="evenodd" stroke="rgb(25,25,25)" stroke-linecap="round" stroke-linejoin="round" stroke-width="0.997500002" />
	</g>
</svg>
