<svg viewBox="0 0 16 16" xmlns="http://www.w3.org/2000/svg" xmlns:xlink="http://www.w3.org/1999/xlink" width="16.000000" height="16.000000" fill="none">
	<rect id="视频生成" width="16.000000" height="16.000000" x="0.000000" y="0.000000" />
	<path id="video" d="M9.65 0.54C9.5 0.5 9.33 0.5 9.17 0.5L4 0.5C3.81 0.5 3.63 0.51 3.46 0.55C3.31 0.59 3.16 0.63 3.02 0.69C2.88 0.75 2.75 0.82 2.62 0.91C2.48 1 2.35 1.11 2.23 1.23C2.11 1.35 2 1.48 1.91 1.62C1.82 1.75 1.75 1.88 1.69 2.02C1.63 2.16 1.59 2.31 1.55 2.46C1.5 2.63 1.5 2.81 1.5 3L1.5 13C1.5 13.18 1.5 13.36 1.55 13.53C1.59 13.68 1.63 13.83 1.69 13.97C1.75 14.11 1.82 14.24 1.91 14.37C2 14.51 2.11 14.64 2.23 14.76C2.46 14.99 2.72 15.17 3.02 15.3C3.33 15.43 3.66 15.5 4 15.5L12 15.5C12.18 15.5 12.36 15.48 12.53 15.44C12.68 15.4 12.83 15.36 12.97 15.3C13.27 15.17 13.53 14.99 13.76 14.76C13.99 14.53 14.17 14.27 14.3 13.97C14.43 13.66 14.5 13.33 14.5 13L14.5 5.82C14.5 5.66 14.48 5.5 14.45 5.34C14.42 5.18 14.37 5.02 14.3 4.87C14.24 4.71 14.16 4.57 14.07 4.43C13.98 4.3 13.88 4.17 13.76 4.06L10.93 1.23C10.7 0.989999 10.43 0.809999 10.12 0.689999C9.97 0.619999 9.81 0.569999 9.65 0.539999L9.65 0.54ZM4 1.5L9.27 1.5C9.33 1.5 9.44 1.51 9.51 1.53L9.51 4C9.51 4.1 9.52 4.21 9.54 4.31C9.56 4.4 9.59 4.49 9.62 4.58C9.66 4.67 9.7 4.75 9.75 4.82C9.81 4.91 9.87 4.98 9.94 5.06C10.02 5.13 10.09 5.19 10.18 5.25C10.25 5.3 10.34 5.34 10.42 5.38C10.61 5.46 10.8 5.5 11.01 5.5L13.47 5.53C13.49 5.63 13.5 5.72 13.5 5.82L13.5 13C13.5 13.11 13.48 13.22 13.46 13.34C13.44 13.42 13.41 13.5 13.38 13.58C13.3 13.76 13.19 13.92 13.06 14.06C12.92 14.19 12.76 14.3 12.58 14.38C12.39 14.46 12.2 14.5 12 14.5L4 14.5C3.88 14.5 3.77 14.48 3.65 14.46C3.57 14.44 3.49 14.41 3.41 14.38C3.33 14.34 3.25 14.3 3.18 14.25C3.09 14.2 3.01 14.13 2.93 14.06C2.8 13.92 2.69 13.76 2.61 13.58C2.53 13.39 2.5 13.2 2.5 13L2.5 3C2.5 2.88 2.5 2.77 2.53 2.65C2.55 2.57 2.58 2.49 2.61 2.41C2.65 2.33 2.69 2.25 2.74 2.18C2.79 2.09 2.86 2.01 2.93 1.93C3.01 1.86 3.09 1.79 3.18 1.74C3.25 1.69 3.33 1.65 3.41 1.61C3.49 1.58 3.57 1.55 3.65 1.53C3.77 1.5 3.88 1.5 4 1.5L4 1.5ZM10.5 4L10.5 2.2L12.76 4.46L11 4.5C10.93 4.5 10.86 4.48 10.8 4.46C10.74 4.43 10.69 4.4 10.64 4.35C10.59 4.3 10.56 4.25 10.53 4.19C10.51 4.13 10.5 4.06 10.5 4L10.5 4ZM6.85 12.38C6.77 12.42 6.69 12.46 6.61 12.48C6.54 12.5 6.46 12.5 6.39 12.5C6.32 12.5 6.24 12.49 6.18 12.47C6.1 12.45 6.03 12.42 5.96 12.38C5.89 12.34 5.82 12.29 5.77 12.23C5.72 12.18 5.68 12.12 5.64 12.06C5.6 11.99 5.57 11.93 5.55 11.86C5.53 11.78 5.51 11.69 5.51 11.6L5.51 6.79C5.51 6.7 5.52 6.61 5.55 6.53C5.57 6.46 5.6 6.39 5.64 6.32C5.68 6.26 5.72 6.2 5.77 6.15C5.83 6.09 5.89 6.04 5.96 6C6.03 5.96 6.1 5.93 6.18 5.91C6.25 5.89 6.32 5.88 6.39 5.88C6.47 5.88 6.54 5.88 6.61 5.9C6.69 5.92 6.77 5.95 6.85 6L11.05 8.4C11.13 8.45 11.2 8.5 11.26 8.56C11.31 8.61 11.35 8.67 11.39 8.74C11.43 8.8 11.45 8.87 11.47 8.94C11.49 9.02 11.5 9.09 11.5 9.18C11.5 9.27 11.49 9.34 11.47 9.42C11.45 9.49 11.42 9.56 11.39 9.62C11.35 9.69 11.31 9.74 11.26 9.8C11.2 9.86 11.13 9.92 11.05 9.96L6.85 12.37L6.85 12.38ZM10.39 9.2L6.5 11.43L6.5 6.98L10.39 9.21L10.39 9.2Z" fill="rgb(25,25,25)" fill-rule="evenodd" />
</svg>
