<svg viewBox="0 0 20 20" xmlns="http://www.w3.org/2000/svg" xmlns:xlink="http://www.w3.org/1999/xlink" width="20.000000" height="20.000000" fill="none">
	<rect id="ic_ict_activate" width="20.000000" height="20.000000" x="0.000000" y="0.000000" />
	<g id="ic_ict_activate-去激活/base/ic_ict_activate">
		<path id="path1" d="M1.40834 9.993C1.40834 8.65043 1.40364 7.30787 1.40834 5.9653C1.40564 5.31563 1.48549 4.66826 1.64597 4.03872C1.99772 2.70622 2.86569 1.91545 4.19685 1.60867C4.8643 1.46446 5.54604 1.3969 6.22882 1.40729C8.80341 1.40729 11.3782 1.40729 13.9533 1.40729C14.6036 1.40325 15.252 1.47763 15.8845 1.62881C17.256 1.96445 18.079 2.83309 18.3925 4.19983C18.5334 4.84577 18.6007 5.50559 18.5932 6.16669C18.5932 8.76903 18.5932 11.3716 18.5932 13.9744C18.5967 14.6184 18.5225 15.2606 18.3723 15.8869C18.0367 17.259 17.164 18.0779 15.7973 18.3914C15.1297 18.5351 14.4481 18.6026 13.7653 18.5928C11.2015 18.5928 8.63783 18.5928 6.07442 18.5928C5.41913 18.5982 4.76556 18.5249 4.1277 18.3746C2.75023 18.039 1.92321 17.1663 1.61039 15.7929C1.45063 15.0948 1.40834 14.3946 1.40834 13.6884C1.40834 12.4568 1.40834 11.225 1.40834 9.993Z" fill="rgb(255,255,255)" fill-opacity="0" fill-rule="nonzero" />
		<path id="path1" d="M1.40834 5.9653C1.40564 5.31563 1.48549 4.66826 1.64597 4.03872C1.99772 2.70622 2.86569 1.91545 4.19685 1.60867C4.8643 1.46446 5.54604 1.3969 6.22882 1.40729C8.80341 1.40729 11.3782 1.40729 13.9533 1.40729C14.6036 1.40325 15.252 1.47763 15.8845 1.62881C17.256 1.96445 18.079 2.83309 18.3925 4.19983C18.5334 4.84577 18.6007 5.50559 18.5932 6.16669C18.5932 8.76903 18.5932 11.3716 18.5932 13.9744C18.5967 14.6184 18.5225 15.2606 18.3723 15.8869C18.0367 17.259 17.164 18.0779 15.7973 18.3914C15.1297 18.5351 14.4481 18.6026 13.7653 18.5928C11.2015 18.5928 8.63783 18.5928 6.07442 18.5928C5.41913 18.5982 4.76556 18.5249 4.1277 18.3746C2.75023 18.039 1.92321 17.1663 1.61039 15.7929C1.45063 15.0948 1.40834 14.3946 1.40834 13.6884C1.40834 12.4568 1.40834 11.225 1.40834 9.993C1.40834 8.65043 1.40364 7.30787 1.40834 5.9653Z" fill-rule="nonzero" stroke="rgb(255,255,255)" stroke-opacity="0" stroke-width="1.14583325" />
		<path id="path2" d="M1.40834 5.9653C1.40564 5.31563 1.48549 4.66826 1.64597 4.03872C1.99772 2.70622 2.86569 1.91545 4.19685 1.60867C4.8643 1.46446 5.54604 1.3969 6.22882 1.40729C8.80341 1.40729 11.3782 1.40729 13.9533 1.40729C14.6036 1.40325 15.252 1.47763 15.8845 1.62881C17.256 1.96445 18.079 2.83309 18.3925 4.19983C18.5334 4.84577 18.6007 5.50559 18.5932 6.16669C18.5932 8.76903 18.5932 11.3716 18.5932 13.9744C18.5967 14.6184 18.5225 15.2606 18.3723 15.8869C18.0367 17.259 17.164 18.0779 15.7973 18.3914C15.1297 18.5351 14.4481 18.6026 13.7653 18.5928C11.2015 18.5928 8.63783 18.5928 6.07442 18.5928C5.41913 18.5982 4.76556 18.5249 4.1277 18.3746C2.75023 18.039 1.92321 17.1663 1.61039 15.7929C1.45063 15.0948 1.40834 14.3946 1.40834 13.6884C1.40834 12.4568 1.40834 11.225 1.40834 9.993C1.40834 8.65043 1.40364 7.30787 1.40834 5.9653Z" fill-rule="nonzero" stroke="rgb(255,255,255)" stroke-opacity="0" stroke-width="1.14583325" />
		<circle id="path3" cx="10.0000401" cy="9.99999428" r="9.16666603" fill="rgb(255,255,255)" fill-opacity="0" />
		<path id="path4" d="M10 1.40625C13.586 1.40625 16.4931 4.31329 16.4931 7.8993C16.4931 10.2228 15.2726 12.2613 13.4378 13.4087L13.4375 15.7292C13.4375 16.151 13.0955 16.4931 12.6736 16.4931L7.3264 16.4931C6.90452 16.4931 6.56251 16.151 6.56251 15.7292L6.56264 13.4089C4.72759 12.2616 3.50696 10.223 3.50696 7.8993C3.50696 4.31329 6.414 1.40625 10 1.40625Z" fill="rgb(255,255,255)" fill-opacity="0" fill-rule="evenodd" />
		<path id="path4" d="M16.4931 7.8993C16.4931 10.2228 15.2726 12.2613 13.4378 13.4087L13.4375 15.7292C13.4375 16.151 13.0955 16.4931 12.6736 16.4931L7.3264 16.4931C6.90452 16.4931 6.56251 16.151 6.56251 15.7292L6.56264 13.4089C4.72759 12.2616 3.50696 10.223 3.50696 7.8993C3.50696 4.31329 6.414 1.40625 10 1.40625C13.586 1.40625 16.4931 4.31329 16.4931 7.8993Z" fill-rule="evenodd" stroke="rgb(0,0,0)" stroke-linecap="round" stroke-linejoin="round" stroke-width="1.14583325" />
		<line id="path5" x1="6.5625" x2="13.4375" y1="18.59375" y2="18.59375" stroke="rgb(0,0,0)" stroke-linecap="round" stroke-linejoin="round" stroke-width="1.14583325" />
		<path id="path6" d="M13.2465 18.2118C13.352 18.2118 13.4375 18.2973 13.4375 18.4028C13.4375 18.5082 13.352 18.5937 13.2465 18.5937L6.75347 18.5937C6.648 18.5937 6.5625 18.5082 6.5625 18.4028C6.5625 18.2973 6.648 18.2118 6.75347 18.2118L13.2465 18.2118Z" fill="rgb(255,255,255)" fill-opacity="0" fill-rule="evenodd" />
		<path id="path6" d="M13.4375 18.4028C13.4375 18.5082 13.352 18.5937 13.2465 18.5937L6.75347 18.5937C6.648 18.5937 6.5625 18.5082 6.5625 18.4028C6.5625 18.2973 6.648 18.2118 6.75347 18.2118L13.2465 18.2118C13.352 18.2118 13.4375 18.2973 13.4375 18.4028Z" fill-rule="evenodd" stroke="rgb(255,255,255)" stroke-opacity="0" stroke-linejoin="round" stroke-width="1.14583325" />
	</g>
</svg>
