<svg viewBox="0 0 20 20" xmlns="http://www.w3.org/2000/svg" xmlns:xlink="http://www.w3.org/1999/xlink" width="20.000000" height="20.000000" fill="none">
	<rect id="ic_ict_debugger" width="20.000000" height="20.000000" x="0.000000" y="0.000000" />
	<g id="组合 91334122">
		<rect id="ic_ict_debugger-调试器/base/ic_ict_debugger" width="18.332216" height="18.332214" x="0.834839" y="0.834457" fill="rgb(255,255,255)" fill-opacity="0" />
		<path id="path1" d="M0.83501 9.99297C0.83501 8.56077 0.831191 7.12856 0.83501 5.69636C0.831191 5.00126 0.919033 4.30998 1.08708 3.64162C1.46518 2.22088 2.38943 1.37683 3.81018 1.04838C4.52055 0.895609 5.25002 0.823044 5.97567 0.834501C8.72168 0.834501 11.4677 0.834501 14.2175 0.834501C14.9088 0.830682 15.6001 0.907066 16.2761 1.07129C17.7388 1.42648 18.6173 2.35455 18.9495 3.81349C19.1023 4.50094 19.171 5.20368 19.1634 5.91023C19.1634 8.6868 19.1634 11.4634 19.1634 14.2361C19.1672 14.9236 19.0908 15.611 18.9304 16.2794C18.5714 17.7421 17.6395 18.6129 16.1844 18.949C15.4702 19.1018 14.7446 19.1744 14.0151 19.1629C11.2806 19.1629 8.546 19.1629 5.81144 19.1629C5.11253 19.1705 4.41743 19.0903 3.73761 18.9299C2.26721 18.5747 1.38498 17.6428 1.05271 16.1763C0.880841 15.4315 0.83501 14.6868 0.83501 13.9344C0.83501 12.6206 0.83501 11.3068 0.83501 9.99297Z" fill="rgb(255,255,255)" fill-opacity="0" fill-rule="evenodd" />
		<ellipse id="path2" rx="9.166108" ry="9.166107" cx="10.000947" cy="10.0005646" fill="rgb(255,255,255)" fill-opacity="0" />
		<path id="path3" d="M2.36249 6.75423L4.65401 8.28191" stroke="rgb(0,0,0)" stroke-linecap="round" stroke-linejoin="round" stroke-width="1.1457634" />
		<path id="path4" d="M15.3478 8.28191L17.6394 6.75423" stroke="rgb(0,0,0)" stroke-linecap="round" stroke-linejoin="round" stroke-width="1.1457634" />
		<path id="path5" d="M1.98059 11.7192L4.27212 11.7192" stroke="rgb(0,0,0)" stroke-linecap="round" stroke-linejoin="round" stroke-width="1.1457634" />
		<path id="path6" d="M15.7297 11.7192L18.0213 11.7192" stroke="rgb(0,0,0)" stroke-linecap="round" stroke-linejoin="round" stroke-width="1.1457634" />
		<path id="path7" d="M3.5083 16.6842L4.84503 15.9203L5.51339 15.5384" fill-rule="nonzero" stroke="rgb(0,0,0)" stroke-linecap="round" stroke-linejoin="round" stroke-width="1.1457634" />
		<path id="path8" d="M14.4885 15.5384L15.1569 15.9203L16.4898 16.6842" fill-rule="nonzero" stroke="rgb(0,0,0)" stroke-linecap="round" stroke-linejoin="round" stroke-width="1.1457634" />
		<path id="path9" d="M2.57259 6.43335L4.86412 7.96104C5.04362 8.07943 5.08945 8.3124 4.97106 8.49191C4.85266 8.67141 4.61969 8.71724 4.44019 8.59885L2.14866 7.07116C1.96916 6.95277 1.92333 6.71979 2.04172 6.54029C2.16012 6.36079 2.39309 6.31496 2.57259 6.43335ZM17.4255 6.43335L15.134 7.96104C14.9545 8.07943 14.9086 8.3124 15.027 8.49191C15.1454 8.67141 15.3784 8.71724 15.5579 8.59885L17.8494 7.07116C18.0289 6.95277 18.0748 6.71979 17.9564 6.54029C17.838 6.36461 17.605 6.31496 17.4255 6.43335ZM1.98062 11.3372L4.27214 11.3372C4.48602 11.3372 4.65406 11.5014 4.65406 11.7191C4.65406 11.933 4.48602 12.1011 4.27214 12.1011L1.98062 12.1011C1.76292 12.1011 1.59869 11.933 1.59869 11.7191C1.59869 11.5014 1.76292 11.3372 1.98062 11.3372ZM18.0213 11.3372L15.7298 11.3372C15.5121 11.3372 15.3479 11.5014 15.3479 11.7191C15.3479 11.933 15.5121 12.1011 15.7298 12.1011L18.0213 12.1011C18.2352 12.1011 18.4032 11.933 18.4032 11.7191C18.4032 11.5014 18.2352 11.3372 18.0213 11.3372ZM3.31734 16.3518L5.32243 15.2061C5.50957 15.0991 5.73872 15.1603 5.84184 15.3474C5.94878 15.5345 5.88767 15.7637 5.70053 15.8668L3.69544 17.0126C3.5083 17.1195 3.27915 17.0584 3.17603 16.8713C3.06909 16.6841 3.1302 16.455 3.31734 16.3518ZM16.6808 16.3518L14.6757 15.2061C14.4924 15.0991 14.2594 15.1603 14.1563 15.3474C14.0493 15.5345 14.1104 15.7637 14.2976 15.8668L16.3027 17.0126C16.4898 17.1195 16.719 17.0584 16.8221 16.8713C16.929 16.6841 16.8679 16.455 16.6808 16.3518Z" fill="rgb(255,255,255)" fill-opacity="0" fill-rule="evenodd" />
		<path id="path9" d="M4.97106 8.49191C4.85266 8.67141 4.61969 8.71724 4.44019 8.59885L2.14866 7.07116C1.96916 6.95277 1.92333 6.71979 2.04172 6.54029C2.16012 6.36079 2.39309 6.31496 2.57259 6.43335L4.86412 7.96104C5.04362 8.07943 5.08945 8.3124 4.97106 8.49191ZM17.9564 6.54029C18.0748 6.71979 18.0289 6.95277 17.8494 7.07116L15.5579 8.59885C15.3784 8.71724 15.1454 8.67141 15.027 8.49191C14.9086 8.3124 14.9545 8.07943 15.134 7.96104L17.4255 6.43335C17.605 6.31496 17.838 6.36461 17.9564 6.54029ZM4.65406 11.7191C4.65406 11.933 4.48602 12.1011 4.27214 12.1011L1.98062 12.1011C1.76292 12.1011 1.59869 11.933 1.59869 11.7191C1.59869 11.5014 1.76292 11.3372 1.98062 11.3372L4.27214 11.3372C4.48602 11.3372 4.65406 11.5014 4.65406 11.7191ZM18.4032 11.7191C18.4032 11.933 18.2352 12.1011 18.0213 12.1011L15.7298 12.1011C15.5121 12.1011 15.3479 11.933 15.3479 11.7191C15.3479 11.5014 15.5121 11.3372 15.7298 11.3372L18.0213 11.3372C18.2352 11.3372 18.4032 11.5014 18.4032 11.7191ZM5.84184 15.3474C5.94878 15.5345 5.88767 15.7637 5.70053 15.8668L3.69544 17.0126C3.5083 17.1195 3.27915 17.0584 3.17603 16.8713C3.06909 16.6841 3.1302 16.455 3.31734 16.3518L5.32243 15.2061C5.50957 15.0991 5.73872 15.1603 5.84184 15.3474ZM16.8221 16.8713C16.719 17.0584 16.4898 17.1195 16.3027 17.0126L14.2976 15.8668C14.1104 15.7637 14.0493 15.5345 14.1563 15.3474C14.2594 15.1603 14.4924 15.0991 14.6757 15.2061L16.6808 16.3518C16.8679 16.455 16.929 16.6841 16.8221 16.8713Z" fill-rule="nonzero" stroke="rgb(255,255,255)" stroke-opacity="0" stroke-width="1.1457634" />
		<path id="path10" d="M10.0013 1.98022C12.0942 1.98022 13.958 3.17182 14.7256 4.96303C14.8784 5.32585 14.6454 5.72687 14.2711 5.78798L14.1757 5.79562L5.82305 5.79944C5.39529 5.79944 5.10503 5.36023 5.27308 4.96685C6.04074 3.17182 7.90452 1.98022 10.0013 1.98022Z" fill="rgb(255,255,255)" fill-opacity="0" fill-rule="evenodd" />
		<path id="path10" d="M14.2711 5.78798L14.1757 5.79562L5.82305 5.79944C5.39529 5.79944 5.10503 5.36023 5.27308 4.96685C6.04074 3.17182 7.90452 1.98022 10.0013 1.98022C12.0942 1.98022 13.958 3.17182 14.7256 4.96303C14.8784 5.32585 14.6454 5.72687 14.2711 5.78798Z" fill-rule="nonzero" stroke="rgb(0,0,0)" stroke-linejoin="round" stroke-width="1.1457634" />
		<path id="path11" d="M13.4382 7.70903L6.56366 7.70903C5.50574 7.70903 4.65405 8.56071 4.65405 9.61864L4.65405 11.8949C4.65405 13.8083 5.36061 15.653 6.64386 17.0737L6.89975 17.3564C7.17091 17.6581 7.55665 17.8299 7.96149 17.8299C8.45417 17.8299 8.85519 17.4289 8.85519 16.9362L8.85519 12.483C9.06906 11.1883 10.929 11.1883 11.1467 12.483L11.1467 16.9362C11.1467 17.4289 11.5439 17.8299 12.0366 17.8299C12.4414 17.8299 12.8272 17.6581 13.0983 17.3564L13.3542 17.0737C14.6375 15.653 15.3478 13.8083 15.3478 11.8949L15.3478 9.61864C15.3478 8.56071 14.4923 7.70903 13.4382 7.70903Z" fill="rgb(255,255,255)" fill-opacity="0" fill-rule="evenodd" />
		<path id="path11" d="M4.65405 9.61864L4.65405 11.8949C4.65405 13.8083 5.36061 15.653 6.64386 17.0737L6.89975 17.3564C7.17091 17.6581 7.55665 17.8299 7.96149 17.8299C8.45417 17.8299 8.85519 17.4289 8.85519 16.9362L8.85519 12.483C9.06906 11.1883 10.929 11.1883 11.1467 12.483L11.1467 16.9362C11.1467 17.4289 11.5439 17.8299 12.0366 17.8299C12.4414 17.8299 12.8272 17.6581 13.0983 17.3564L13.3542 17.0737C14.6375 15.653 15.3478 13.8083 15.3478 11.8949L15.3478 9.61864C15.3478 8.56071 14.4923 7.70903 13.4382 7.70903L6.56366 7.70903C5.50574 7.70903 4.65405 8.56071 4.65405 9.61864Z" fill-rule="nonzero" stroke="rgb(0,0,0)" stroke-linejoin="round" stroke-width="1.1457634" />
	</g>
</svg>
