<svg viewBox="0 0 16 16" xmlns="http://www.w3.org/2000/svg" xmlns:xlink="http://www.w3.org/1999/xlink" width="16.000000" height="16.000000" fill="none" customFrame="#000000">
	<rect id="上传/文件类型" width="16.000000" height="16.000000" x="0.000000" y="0.000000" />
	<path id="矢量 18" d="M13.4 5.60001L9.4 1.60001C9.3 1.60001 9.1 1.5 9 1.5L5 1.5C3.60001 1.5 2.5 2.60001 2.5 4L2.5 12C2.5 13.4 3.60001 14.5 5 14.5L11 14.5C12.4 14.5 13.5 13.4 13.5 12L13.5 6C13.5 5.89999 13.4 5.70001 13.4 5.60001ZM11 13.5C11.8 13.5 12.5 12.8 12.5 12L12.5 6.20001L8.8 2.5L5 2.5C4.2 2.5 3.5 3.20001 3.5 4L3.5 12C3.5 12.8 4.2 13.5 5 13.5L11 13.5ZM5.5 7.5L10.5 7.5C10.8 7.5 11 7.70001 11 8C11 8.29999 10.8 8.5 10.5 8.5L5.5 8.5C5.2 8.5 5 8.29999 5 8C5 7.70001 5.2 7.5 5.5 7.5ZM10.5 11.5C10.8 11.5 11 11.3 11 11C11 10.7 10.8 10.5 10.5 10.5L5.5 10.5C5.2 10.5 5 10.7 5 11C5 11.3 5.2 11.5 5.5 11.5L10.5 11.5Z" fill="rgb(25,25,25)" fill-rule="evenodd" />
</svg>
