<svg viewBox="0 0 16 16" xmlns="http://www.w3.org/2000/svg" xmlns:xlink="http://www.w3.org/1999/xlink" width="16.000000" height="16.000000" fill="none" customFrame="#000000">
	<rect id="操作/链接" width="16.000000" height="16.000000" x="0.000000" y="0.000000" />
	<path id="形状结合" d="M7.00024 2C7.27639 2 7.50024 2.22386 7.50024 2.5C7.50024 2.77614 7.27639 3 7.00024 3L4.50024 3C3.67182 3 3.00024 3.67157 3.00024 4.5L3.00024 11.5C3.00024 12.3284 3.67182 13 4.50024 13L11.5002 13C12.3287 13 13.0002 12.3284 13.0002 11.5L13.0002 9C13.0002 8.72386 13.2241 8.5 13.5002 8.5C13.7764 8.5 14.0002 8.72386 14.0002 9L14.0002 11.5C14.0002 12.8807 12.881 14 11.5002 14L4.50024 14C3.11953 14 2.00024 12.8807 2.00024 11.5L2.00024 4.5C2.00024 3.11929 3.11953 2 4.50024 2L7.00024 2ZM13.5002 2C13.5315 2 13.562 2.00286 13.5917 2.00834C13.6073 2.01197 13.6451 2.02105 13.6598 2.02599C13.6694 2.0306 13.7367 2.05913 13.7463 2.06457C13.7835 2.09271 13.8715 2.16184 13.8995 2.19892C13.9049 2.20845 13.9462 2.27334 13.951 2.28322C13.9556 2.29705 13.9832 2.36925 13.9867 2.38404C13.9878 2.39477 13.9995 2.47083 13.9999 2.48106L14.0002 6C14.0002 6.27614 13.7764 6.5 13.5002 6.5C13.2241 6.5 13.0002 6.27614 13.0002 6L13.0002 3.70667L8.19694 8.51041C8.00168 8.70567 7.6851 8.70567 7.48984 8.51041C7.29457 8.31515 7.29457 7.99856 7.48984 7.8033L12.2922 3L10.0002 3C9.74711 3 9.53792 2.8119 9.50481 2.56785L9.50024 2.5C9.50024 2.22386 9.7241 2 10.0002 2L13.5002 2Z" fill="rgb(128,128,128)" fill-rule="nonzero" />
</svg>
