<svg viewBox="0 0 20 20" xmlns="http://www.w3.org/2000/svg" xmlns:xlink="http://www.w3.org/1999/xlink" width="20.000000" height="20.000000" fill="none">
	<mask id="mask_1" width="20.000000" height="20.000000" x="0.000000" y="0.000000" maskUnits="userSpaceOnUse">
		<g filter="url(#pixso_custom_mask_type_alpha)">
			<g id="clip760_45284">
				<rect id="矩形 77924" width="20.000000" height="20.000000" x="0.000000" y="0.000000" fill="rgb(0,0,0)" />
			</g>
		</g>
	</mask>
	<defs>
		<filter id="pixso_custom_mask_type_alpha">
			<feColorMatrix type="matrix" values="0 0 0 0 1 0 0 0 0 1 0 0 0 0 1 0 0 0 1 0 " />
		</filter>
	</defs>
	<mask id="mask_0" width="20.000000" height="20.000000" x="0.000000" y="0.000000" maskUnits="userSpaceOnUse">
		<g filter="url(#pixso_custom_mask_type_alpha)">
			<g id="clip760_45283">
				<rect id="矩形 77925" width="20.000000" height="20.000000" x="0.000000" y="0.000000" fill="rgb(0,0,0)" />
			</g>
		</g>
	</mask>
	<rect id="ic_digital_power_dp_security" width="20.000000" height="20.000000" x="0.000000" y="0.000000" />
	<rect id="矩形 77923" width="20.000000" height="20.000000" x="0.000000" y="0.000000" fill="rgb(255,255,255)" fill-opacity="0" />
	<g id="clip path group" mask="url(#mask_0)">
		<g id="组合 91334313">
			<g id="clip path group" mask="url(#mask_1)">
				<g id="组合 91334315">
					<path id="矢量 8615" d="M-1.94402e-05 9.99167C-1.94402e-05 8.42917 -0.00835277 6.86667 -1.94402e-05 5.30417C-0.00835277 4.54583 0.0874806 3.79167 0.270814 3.0625C0.683314 1.5125 1.69165 0.591666 3.24581 0.229166C4.01665 0.066666 4.81248 -0.0125007 5.60831 -6.60541e-07C8.59998 -6.60541e-07 11.5958 -6.60541e-07 14.6 -6.60541e-07C15.35 -0.00833399 16.1041 0.079166 16.8416 0.254166C18.4375 0.645833 19.3958 1.65833 19.7583 3.25C19.925 4 20 4.76667 19.9916 5.5375C19.9916 8.56667 19.9916 11.5958 19.9916 14.6208C20 15.3708 19.9125 16.1167 19.7375 16.8458C19.3458 18.4458 18.3333 19.3958 16.7416 19.7625C15.9625 19.9292 15.1708 20.0083 14.375 19.9958C11.3916 19.9958 8.40831 19.9958 5.42498 19.9958C4.66248 20.0042 3.90415 19.9167 3.16248 19.7417C1.56248 19.3542 0.595814 18.3375 0.233314 16.7333C0.0458139 15.925 -1.94402e-05 15.1125 -1.94402e-05 14.2917C-1.94402e-05 12.8583 -1.94402e-05 11.425 -1.94402e-05 9.99167Z" fill="rgb(255,255,255)" fill-opacity="0" fill-rule="evenodd" />
					<circle id="椭圆 3731" cx="10.000001" cy="10.000001" r="10.000001" fill="rgb(255,255,255)" fill-opacity="0" />
				</g>
			</g>
			<path id="矢量 8616" d="M9.60003 1.73333C9.81252 1.65833 10.0459 1.64167 10.2667 1.69583L10.3959 1.73333L16.1417 3.76667C16.7417 3.97917 17.1584 4.50417 17.2125 5.1L17.2209 5.22917L17.2209 10.7958C17.2209 13.3083 15.7834 15.5792 13.4542 16.7708L13.225 16.8833L10.3 18.2625C10.2042 18.3083 10.1 18.3333 10 18.3333C9.92919 18.3333 9.85836 18.3208 9.79169 18.3L9.69586 18.2625L6.77086 16.8833C4.38336 15.7625 2.87502 13.5375 2.78336 11.0375L2.77502 10.7958L2.77502 5.22917C2.77502 4.625 3.15419 4.07084 3.72919 3.81667L3.85419 3.76667L9.60003 1.73333ZM10 2.92917L4.24586 4.93333C4.14169 4.97083 4.05836 5.0625 4.03336 5.16667L4.02502 5.22917L4.02502 10.7958C4.02502 12.8458 5.20419 14.6875 7.12086 15.6667L7.32919 15.7667L9.99586 17.0083L12.6667 15.7667C14.6375 14.85 15.8792 13.0458 15.9625 11.0167L15.9709 10.7958L15.9709 5.22917C15.9709 5.125 15.9042 5.02083 15.8125 4.9625L15.75 4.93333L10 2.92917ZM13.4209 8.2625C13.5417 8.14583 13.6125 7.98333 13.6125 7.81667C13.6125 7.47083 13.3334 7.19167 12.9875 7.19167C12.825 7.19167 12.6667 7.25417 12.55 7.36667L9.08752 10.7208L7.45002 9.0875C7.33336 8.97083 7.17502 8.90417 7.00836 8.90417C6.66252 8.90417 6.38336 9.18333 6.38336 9.52917C6.38336 9.69584 6.45002 9.85417 6.56669 9.97083L8.63752 12.0417C8.87919 12.2833 9.26669 12.2833 9.51252 12.05L13.4209 8.2625Z" fill="rgb(0,0,0)" fill-rule="evenodd" />
			<path id="矢量 8617" d="M13.4209 8.26248C13.5417 8.14582 13.6125 7.98332 13.6125 7.81665C13.6125 7.47082 13.3334 7.19165 12.9875 7.19165C12.825 7.19165 12.6667 7.25415 12.55 7.36665L9.08753 10.7208L7.45003 9.08748C7.33336 8.97082 7.17503 8.90415 7.00836 8.90415C6.66253 8.90415 6.38336 9.18332 6.38336 9.52915C6.38336 9.69582 6.45003 9.85415 6.5667 9.97082L8.63753 12.0417C8.8792 12.2833 9.2667 12.2875 9.51253 12.05L13.4209 8.26248Z" fill="rgb(0,0,0)" fill-rule="evenodd" />
			<path id="矢量 8618" d="M9.60003 1.73333C9.81252 1.65833 10.0459 1.64167 10.2667 1.69583L10.3959 1.73333L16.1417 3.76667C16.7417 3.97917 17.1584 4.50417 17.2125 5.1L17.2209 5.22917L17.2209 10.7958C17.2209 13.3083 15.7834 15.5792 13.4542 16.7708L13.225 16.8833L10.3 18.2625C10.2042 18.3083 10.1 18.3333 10 18.3333C9.92919 18.3333 9.85836 18.3208 9.79169 18.3L9.69586 18.2625L6.77086 16.8833C4.38336 15.7625 2.87502 13.5375 2.78336 11.0375L2.77502 10.7958L2.77502 5.22917C2.77502 4.625 3.15419 4.07084 3.72919 3.81667L3.85419 3.76667L9.60003 1.73333ZM13.4209 8.2625C13.5417 8.14583 13.6125 7.98333 13.6125 7.81667C13.6125 7.47083 13.3334 7.19167 12.9875 7.19167C12.825 7.19167 12.6667 7.25417 12.55 7.36667L9.08752 10.7208L7.45002 9.0875C7.33336 8.97083 7.17502 8.90417 7.00836 8.90417C6.66252 8.90417 6.38336 9.18333 6.38336 9.52917C6.38336 9.69584 6.45002 9.85417 6.56669 9.97083L8.63752 12.0417C8.87919 12.2833 9.26669 12.2833 9.51252 12.05L13.4209 8.2625Z" fill="rgb(255,255,255)" fill-opacity="0" fill-rule="evenodd" />
			<path id="矢量 8619" d="M13.4209 8.26248C13.5417 8.14582 13.6125 7.98332 13.6125 7.81665C13.6125 7.47082 13.3334 7.19165 12.9875 7.19165C12.825 7.19165 12.6667 7.25415 12.55 7.36665L9.08753 10.7208L7.45003 9.08748C7.33336 8.97082 7.17503 8.90415 7.00836 8.90415C6.66253 8.90415 6.38336 9.18332 6.38336 9.52915C6.38336 9.69582 6.45003 9.85415 6.5667 9.97082L8.63753 12.0417C8.8792 12.2833 9.2667 12.2875 9.51253 12.05L13.4209 8.26248Z" fill="rgb(255,255,255)" fill-opacity="0" fill-rule="evenodd" />
		</g>
	</g>
</svg>
