<svg viewBox="0 0 17.5 17.5" xmlns="http://www.w3.org/2000/svg" xmlns:xlink="http://www.w3.org/1999/xlink" width="17.500000" height="17.500000" fill="none">
	<rect id="记忆管理4" width="17.500000" height="17.500000" x="0.000000" y="0.000000" fill="rgb(255,255,255)" fill-opacity="0" />
	<g id="M(边框)">
		<path id="边框" d="M7.40917 4.13325C7.30001 3.8816 7.05188 3.71875 6.77757 3.71875C6.39734 3.71875 6.08911 4.02698 6.08911 4.40721L6.08911 8.24823C6.08911 8.53877 6.32464 8.7743 6.61518 8.7743C6.90573 8.7743 7.14126 8.53877 7.14126 8.24823L7.14126 5.9366L8.18463 8.38125C8.28637 8.61964 8.52055 8.7743 8.77974 8.7743C9.03893 8.7743 9.27311 8.61964 9.37485 8.38125L10.4199 5.93277L10.4199 8.24823C10.4199 8.53877 10.6554 8.7743 10.9459 8.7743C11.2365 8.7743 11.472 8.53877 11.472 8.24823L11.472 4.40685C11.472 4.02682 11.1639 3.71875 10.7839 3.71875C10.5094 3.71875 10.2611 3.88194 10.1522 4.13397L8.78361 7.30207L7.40917 4.13325Z" fill="rgb(25,25,25)" fill-rule="evenodd" />
		<path id="形状结合" d="M8.78005 0C5.31167 0 2.5 2.81167 2.5 6.28005L2.50683 6.57455C2.59769 8.52917 3.5889 10.3005 5.153 11.4076L5.31833 11.5194L5.31961 12.9768C5.31961 14.1092 6.23771 15.0273 7.37024 15.0273L10.1899 15.0273L10.3765 15.0189C11.4216 14.9246 12.2405 14.0462 12.2405 12.9766L12.2418 11.5181L12.4083 11.4067C14.0499 10.2442 15.0601 8.34983 15.0601 6.28005C15.0601 2.81167 12.2484 0 8.78005 0ZM8.78005 1.28164C11.5406 1.28164 13.7785 3.5195 13.7785 6.28005C13.7785 8.08492 12.8143 9.72115 11.2803 10.6093L10.9609 10.7942L10.9588 12.976C10.9588 13.4013 10.6146 13.7456 10.1899 13.7456L7.37024 13.7456C6.94554 13.7456 6.60126 13.4013 6.60126 12.9766L6.60074 10.795L6.28093 10.6099C4.74626 9.72199 3.78164 8.08539 3.78164 6.28005C3.78164 3.5195 6.0195 1.28164 8.78005 1.28164ZM11.3177 16.2184C11.6716 16.2184 11.9585 16.5053 11.9585 16.8592C11.9585 17.2131 11.6716 17.5 11.3177 17.5L6.2424 17.5C5.88848 17.5 5.60157 17.2131 5.60157 16.8592C5.60157 16.5053 5.88848 16.2184 6.2424 16.2184L11.3177 16.2184Z" fill="rgb(25,25,25)" fill-rule="nonzero" />
	</g>
</svg>
