<svg viewBox="0 0 20 20" xmlns="http://www.w3.org/2000/svg" xmlns:xlink="http://www.w3.org/1999/xlink" width="20.000000" height="20.000000" fill="none" customFrame="#000000">
	<rect id="操作/设置" width="20.000000" height="20.000000" x="0.000000" y="0.000000" />
	<path id="矢量 23" d="M11.1689 1.25L8.77777 1.25099L8.53651 1.27144L8.32338 1.31546C7.69792 1.47591 7.20209 1.88553 6.95516 2.44064L6.39711 3.69385L6.11426 3.85078L4.69937 3.68744L4.49707 3.67455C3.73069 3.67249 3.05555 4.04449 2.68947 4.65279L1.52172 6.59294L1.39221 6.85173L1.3253 7.05185C1.15702 7.65465 1.2792 8.27347 1.6572 8.75671L2.50926 9.84589L2.50926 10.1533L1.65715 11.2434L1.53243 11.4243C1.15617 12.0641 1.15913 12.8046 1.52172 13.4071L2.72344 15.4015L2.85642 15.5819L3.00288 15.7372C3.46055 16.1774 4.07701 16.3847 4.69941 16.3126L6.11426 16.1484L6.39711 16.3053L6.95518 17.5594L7.04489 17.7345C7.42723 18.3744 8.10056 18.75 8.83109 18.75L11.2348 18.7489L11.4635 18.7286L11.6766 18.6845C12.3021 18.5241 12.7979 18.1145 13.0448 17.5595L13.6018 16.3053L13.8846 16.1484L15.3006 16.3125L15.5029 16.3255C16.2693 16.3275 16.9444 15.9555 17.3105 15.3472L18.5114 13.3497L18.6078 13.1483L18.6747 12.9482C18.843 12.3454 18.7208 11.7265 18.3428 11.2434L17.4896 10.1533L17.4896 9.84589L18.3428 8.75671L18.4676 8.57574C18.8438 7.93587 18.8409 7.19543 18.4783 6.59294L17.2766 4.59846L17.1436 4.41811L16.9971 4.26285C16.5394 3.82263 15.923 3.61534 15.3006 3.68744L13.8846 3.85078L13.6018 3.69385L13.0448 2.44057L12.9551 2.2654C12.5727 1.62552 11.8994 1.25 11.1689 1.25ZM11.1689 2.53624L8.84578 2.53387L8.71394 2.54555C8.47726 2.58362 8.27597 2.73491 8.1813 2.94769L7.53551 4.39873C7.4786 4.52652 7.38024 4.63318 7.25517 4.70253L6.58771 5.07278C6.46295 5.14206 6.31831 5.17052 6.1754 5.15396L4.57943 4.96796C4.32748 4.96765 3.96989 5.0882 3.84347 5.29823L2.68229 7.22733C2.5989 7.44202 2.57791 7.79747 2.72243 7.98218L3.70965 9.24416C3.79693 9.35577 3.84414 9.49165 3.84414 9.63142L3.84414 10.3684C3.84414 10.5081 3.79694 10.644 3.70968 10.7556L2.74776 11.983C2.62646 12.1902 2.55108 12.5544 2.67572 12.7615L3.83693 14.6911C3.98937 14.8685 4.30002 15.0633 4.54013 15.0355L6.17533 14.8459C6.31826 14.8293 6.46293 14.8578 6.58771 14.927L7.25517 15.2972C7.38025 15.3667 7.47862 15.4733 7.53551 15.6011L8.16464 17.0177C8.29001 17.2269 8.57758 17.4638 8.83109 17.4638L11.1562 17.4639L11.2861 17.4545C11.5228 17.4164 11.7241 17.2651 11.8187 17.0525L12.4643 15.6012C12.5212 15.4733 12.6195 15.3667 12.7446 15.2972L13.4121 14.927C13.5369 14.8578 13.6815 14.8293 13.8245 14.8459L15.4206 15.032C15.6725 15.0323 16.0301 14.9118 16.1565 14.7018L17.3177 12.7727C17.4011 12.558 17.4221 12.2025 17.2776 12.0178L16.2902 10.7556C16.2029 10.6441 16.1557 10.5081 16.1557 10.3684L16.1557 9.63142C16.1557 9.49165 16.2029 9.3557 16.2902 9.24416L17.2522 8.01697C17.3735 7.80975 17.4489 7.4456 17.3243 7.23846L16.1631 5.30891C16.0106 5.13145 15.7 4.93668 15.4598 4.96452L13.8244 5.15396C13.6815 5.17052 13.5369 5.14206 13.4121 5.07278L12.7446 4.70253C12.6195 4.63318 12.5212 4.52652 12.4643 4.39865L11.8354 2.98218C11.71 2.77313 11.4225 2.53624 11.1689 2.53624ZM10.0513 6.63605C8.12415 6.63605 6.56188 8.14209 6.56188 10C6.56188 11.8579 8.12415 13.364 10.0513 13.364C11.9785 13.364 13.5408 11.8579 13.5408 10C13.5408 8.14209 11.9785 6.63605 10.0513 6.63605ZM10.0513 7.92221C11.2416 7.92221 12.2066 8.85246 12.2066 10C12.2066 11.1475 11.2416 12.0778 10.0513 12.0778C8.86101 12.0778 7.89607 11.1475 7.89607 10C7.89607 8.85246 8.86101 7.92221 10.0513 7.92221Z" fill="rgb(25,25,25)" fill-rule="evenodd" />
</svg>
