<svg viewBox="0 0 20 20" xmlns="http://www.w3.org/2000/svg" xmlns:xlink="http://www.w3.org/1999/xlink" width="20.000000" height="20.000000" fill="none" customFrame="#000000">
	<rect id="ic_灵感" width="20.000000" height="20.000000" x="0.000000" y="0.000000" />
	<path id="path1" d="M0.00243018 9.99186C0.00243018 8.4296 -0.00303772 6.86734 0.00243018 5.30508C-0.000712897 4.5491 0.0922043 3.79579 0.27895 3.06324C0.688261 1.51269 1.69826 0.592524 3.24724 0.235548C4.02392 0.0677398 4.81721 -0.0108819 5.61172 0.00120916C8.60761 0.00120916 11.6038 0.00120916 14.6002 0.00120916C15.3569 -0.00348837 16.1115 0.0830603 16.8475 0.258982C18.4433 0.649547 19.401 1.66033 19.7658 3.25071C19.9298 4.00235 20.0081 4.77014 19.9993 5.53942C19.9993 8.5676 19.9993 11.596 19.9993 14.6247C20.0034 15.3742 19.9171 16.1214 19.7423 16.8502C19.3518 18.4468 18.3363 19.3998 16.7459 19.7646C15.9692 19.9317 15.1759 20.0104 14.3815 19.9989C11.3981 19.9989 8.41493 19.9989 5.43206 19.9989C4.66953 20.0051 3.90901 19.9199 3.16678 19.745C1.56391 19.3545 0.601556 18.339 0.23755 16.7408C0.0516413 15.9284 0.00243018 15.1137 0.00243018 14.292C0.00243018 12.8589 0.00243018 11.4255 0.00243018 9.99186Z" opacity="0" fill-rule="evenodd" />
	<path id="合并" d="M9.96343 0.0143084C9.97153 0.00476944 9.98368 0 9.99989 0C10.0161 0 10.0303 0.00238479 10.0424 0.00715438C10.0566 0.0119239 10.0637 0.0238476 10.0637 0.0429256C10.1305 0.395868 10.2692 0.697538 10.4799 0.947936C10.6905 1.19595 10.9457 1.35811 11.2454 1.43442C11.2616 1.44396 11.2738 1.4547 11.2819 1.46662C11.29 1.47616 11.294 1.49047 11.294 1.50954C11.294 1.52862 11.29 1.54532 11.2819 1.55962C11.2738 1.57393 11.2616 1.58109 11.2454 1.58109C10.9558 1.65978 10.7006 1.82672 10.4799 2.08188C10.2591 2.33467 10.1204 2.63634 10.0637 2.9869C10.0637 3.00836 10.0566 3.02386 10.0424 3.0334C10.0377 3.03711 10.0327 3.0401 10.0273 3.04236C10.0189 3.04593 10.0098 3.04771 9.99989 3.04771C9.98368 3.04771 9.96951 3.04294 9.95736 3.0334C9.94521 3.02386 9.93913 3.00836 9.93913 2.9869C9.8723 2.63634 9.73256 2.33228 9.51991 2.07473C9.30929 1.81479 9.05512 1.65024 8.75741 1.58109C8.73918 1.58109 8.72602 1.57393 8.71792 1.55962C8.70982 1.54532 8.70577 1.52862 8.70577 1.50954C8.70577 1.469 8.72298 1.44396 8.75741 1.43442C9.04702 1.35811 9.30118 1.19595 9.51991 0.947936C9.74066 0.697538 9.8804 0.395868 9.93913 0.0429256L9.96343 0.0143084ZM2.52285 3.05674C2.52181 3.04429 2.52701 3.03235 2.53847 3.02094C2.54993 3.00952 2.56164 3.00122 2.57362 2.99603C2.58703 2.98942 2.6005 2.99285 2.61404 3.00634C2.91178 3.20883 3.22397 3.3244 3.5506 3.35307C3.87555 3.38005 4.17107 3.31493 4.43717 3.15772C4.4554 3.15305 4.47161 3.15208 4.4858 3.1548C4.49829 3.15584 4.51131 3.1631 4.52485 3.17659C4.53839 3.19008 4.54738 3.20474 4.5518 3.22057C4.55623 3.23639 4.55271 3.25001 4.54126 3.26143C4.51608 3.30532 4.49339 3.35031 4.47318 3.39639C4.37386 3.62289 4.33458 3.87572 4.35535 4.15489C4.37865 4.48916 4.49465 4.80021 4.70334 5.08805C4.71857 5.10322 4.72456 5.11918 4.7213 5.13591C4.71948 5.15122 4.71284 5.16458 4.70139 5.17599C4.68993 5.18741 4.67652 5.19402 4.66116 5.19584C4.6458 5.19765 4.6305 5.19097 4.61527 5.1758C4.31922 4.975 4.00463 4.85845 3.67148 4.82615C3.33807 4.79074 3.04158 4.85346 2.78198 5.0143C2.7691 5.02715 2.75471 5.03136 2.73883 5.02695C2.72295 5.02254 2.70823 5.01359 2.69469 5.0001C2.66592 4.97143 2.66033 4.9416 2.6779 4.9106C2.82853 4.6526 2.89316 4.35886 2.87181 4.02939C2.86606 3.9409 2.85368 3.85389 2.83467 3.76835L2.83467 3.76833C2.78222 3.53237 2.67932 3.30763 2.52597 3.0941L2.52285 3.05674ZM17.4204 3.00591C17.4329 3.00487 17.4449 3.01006 17.4563 3.02148C17.4678 3.03289 17.4761 3.04456 17.4813 3.0565C17.488 3.06986 17.4845 3.08328 17.471 3.09677C17.2678 3.39343 17.1518 3.70448 17.123 4.02993C17.1057 4.23638 17.126 4.43091 17.1839 4.61352L17.184 4.61363C17.2169 4.71736 17.2619 4.81724 17.319 4.91328C17.3237 4.93144 17.3247 4.94759 17.322 4.96172C17.3209 4.97418 17.3136 4.98715 17.3001 5.00064C17.2866 5.01413 17.2719 5.02308 17.256 5.02749C17.2401 5.0319 17.2264 5.0284 17.215 5.01698C16.9543 4.86859 16.6554 4.80685 16.3182 4.83175C15.9827 4.85497 15.6706 4.97054 15.3817 5.17847C15.3664 5.19365 15.3504 5.19962 15.3336 5.19637C15.3183 5.19456 15.3049 5.18794 15.2934 5.17653C15.282 5.16511 15.2753 5.15175 15.2735 5.13645L15.2732 5.13123C15.2733 5.11767 15.2801 5.10417 15.2936 5.09072C15.4951 4.79576 15.6121 4.4823 15.6445 4.15037C15.6801 3.81817 15.6171 3.52275 15.4557 3.2641C15.4428 3.25126 15.4386 3.23693 15.443 3.2211C15.4474 3.20528 15.4564 3.19062 15.4699 3.17713C15.4987 3.14846 15.5287 3.14289 15.5598 3.1604C15.8187 3.31048 16.1135 3.37488 16.4442 3.35361C16.5348 3.34776 16.6238 3.33504 16.7114 3.31545C16.9463 3.26285 17.1701 3.16071 17.3829 3.00902L17.4204 3.00591ZM6.58808 14.962L6.58802 16.0927L4.11765 16.0927C3.7059 16.0927 3.38235 16.415 3.38235 16.8253C3.38235 17.2356 3.7059 17.5579 4.11765 17.5579L15.8824 17.5579C16.2941 17.5579 16.6176 17.2356 16.6176 16.8253C16.6176 16.415 16.2941 16.0927 15.8824 16.0927L13.412 16.0927L13.4119 14.962C13.7974 14.7065 14.1496 14.411 14.4684 14.0755C14.6666 13.8669 14.8483 13.6466 15.0136 13.4147C15.1366 13.2422 15.2504 13.0632 15.3551 12.8777C15.6051 12.4349 15.7953 11.9688 15.9258 11.4794C15.9774 11.2858 16.0191 11.0906 16.0509 10.8939C16.1019 10.5782 16.1275 10.2582 16.1275 9.93433C16.1275 9.49239 16.0808 9.06068 15.9877 8.63919C15.9077 8.27725 15.7933 7.92284 15.6446 7.57598C15.5041 7.2483 15.3375 6.93764 15.1448 6.64399C14.9115 6.28851 14.64 5.95796 14.3301 5.65234C14.0439 5.36996 13.7362 5.11986 13.4069 4.90204C13.086 4.68979 12.7446 4.50815 12.3829 4.35721C12.0465 4.21683 11.703 4.10757 11.3526 4.02943C10.9127 3.93136 10.4619 3.88232 10 3.88232C9.53811 3.88232 9.08729 3.93136 8.64741 4.02943C8.297 4.10757 7.95353 4.21683 7.61712 4.35721C7.25537 4.50815 6.91405 4.68974 6.59316 4.902C6.26389 5.11982 5.95612 5.36994 5.66986 5.65234C5.36005 5.95796 5.0885 6.2885 4.85522 6.64397C4.66248 6.93762 4.49589 7.2483 4.35539 7.57598C4.20669 7.92287 4.09234 8.2773 4.01227 8.63927C3.91912 9.06073 3.87255 9.49242 3.87255 9.93433C3.87255 10.2582 3.89806 10.578 3.94908 10.8937C3.98084 11.0897 4.02278 11.2865 4.0742 11.4794C4.13261 11.6983 4.20296 11.9126 4.28525 12.1223C4.38692 12.3812 4.50678 12.633 4.64494 12.8777C4.89034 13.3125 5.18588 13.7117 5.53163 14.0755C5.85045 14.411 6.2026 14.7065 6.58808 14.962ZM11.9413 14.8376L11.9414 16.0927L8.0586 16.0927L8.05866 14.8376C8.05866 14.6207 8.00409 14.4173 7.89495 14.2274C7.79166 14.0477 7.65164 13.9016 7.47494 13.789C7.12925 13.5689 6.82216 13.3133 6.55361 13.0225C6.31396 12.7629 6.10494 12.4753 5.92668 12.1594C5.73891 11.8268 5.59643 11.4819 5.49932 11.1247C5.39524 10.742 5.34314 10.3452 5.34314 9.93433C5.34314 9.59234 5.37994 9.25862 5.45354 8.93315C5.51368 8.66711 5.59841 8.40659 5.70779 8.15159C5.8106 7.9118 5.93195 7.68394 6.07191 7.46802C6.25202 7.19008 6.46289 6.93193 6.70452 6.69357C6.92309 6.47794 7.15814 6.28708 7.40966 6.12098C7.65278 5.96043 7.91128 5.82301 8.18516 5.70873C8.4308 5.60622 8.68152 5.52553 8.93733 5.46667C9.28236 5.38727 9.6366 5.34757 10 5.34757C10.3634 5.34757 10.7176 5.38727 11.0627 5.46667C11.3185 5.52553 11.5692 5.60622 11.8148 5.70873C12.0887 5.82301 12.3472 5.96042 12.5903 6.12096C12.8418 6.28707 13.0769 6.47794 13.2955 6.69357C13.5371 6.93193 13.748 7.19008 13.9281 7.46801C14.0681 7.68393 14.1894 7.91179 14.2922 8.15159C14.4016 8.40659 14.4863 8.66711 14.5465 8.93315C14.6201 9.25861 14.6569 9.59234 14.6569 9.93433C14.6569 10.3423 14.6055 10.7365 14.5028 11.1168L14.5028 11.1168C14.5021 11.1195 14.5014 11.1221 14.5007 11.1247C14.4036 11.4819 14.2611 11.8268 14.0733 12.1594C13.8951 12.4753 13.686 12.7629 13.4464 13.0225C13.1778 13.3133 12.8707 13.5689 12.5251 13.789C12.3484 13.9016 12.2083 14.0477 12.1051 14.2274C12.0468 14.3288 12.0041 14.434 11.9769 14.5431C11.9532 14.6383 11.9413 14.7365 11.9413 14.8376ZM9.95029 7.89668C9.96134 7.88368 9.97791 7.87717 10 7.87717C10.0221 7.87717 10.0414 7.88042 10.058 7.88693C10.0643 7.88905 10.0696 7.89223 10.0739 7.89644C10.0826 7.90511 10.087 7.9182 10.087 7.93571C10.1781 8.41699 10.3673 8.82836 10.6545 9.16981C10.9417 9.50801 11.2897 9.72914 11.6984 9.83321C11.7205 9.84621 11.7371 9.86085 11.7481 9.87711C11.7592 9.89011 11.7647 9.90963 11.7647 9.93564C11.7647 9.96166 11.7592 9.98442 11.7481 10.0039C11.7371 10.0234 11.7205 10.0332 11.6984 10.0332C11.3035 10.1405 10.9555 10.3681 10.6545 10.7161C10.3535 11.0608 10.1643 11.4722 10.087 11.9502C10.087 11.972 10.0816 11.9893 10.0709 12.0021C10.0672 12.0065 10.0629 12.0103 10.058 12.0136C10.0516 12.0187 10.0447 12.0227 10.0374 12.0258L10.0374 12.0258L10.0373 12.0259C10.0259 12.0307 10.0135 12.0331 10 12.0331C9.97791 12.0331 9.95858 12.0266 9.94201 12.0136C9.9401 12.0121 9.93831 12.0105 9.93662 12.0088L9.93653 12.0087C9.92361 11.9956 9.91715 11.9761 9.91715 11.9502C9.82602 11.4722 9.63546 11.0576 9.34549 10.7063C9.05827 10.3519 8.71168 10.1275 8.30572 10.0332C8.28086 10.0332 8.26291 10.0234 8.25187 10.0039C8.24082 9.98442 8.2353 9.96166 8.2353 9.93564C8.23529 9.90327 8.24334 9.87815 8.25944 9.86027C8.27083 9.84762 8.28626 9.8386 8.30572 9.83321C8.70064 9.72914 9.04723 9.50801 9.34549 9.16981C9.64651 8.82836 9.83706 8.41699 9.91715 7.93571L9.95029 7.89668ZM0.0143606 10.3281C0.00478684 10.32 0 10.3079 0 10.2917C0 10.2756 0.00239349 10.2615 0.00718048 10.2494C0.0119674 10.2352 0.0239346 10.2282 0.0430822 10.2282C0.349476 10.1706 0.617371 10.0594 0.846768 9.8946L0.846783 9.89459L0.846952 9.89447L0.846972 9.89445C0.882714 9.86877 0.917522 9.84178 0.951394 9.8135C1.20031 9.60364 1.36307 9.34939 1.43966 9.05075C1.44923 9.03461 1.46 9.0225 1.47197 9.01443C1.48154 9.00635 1.4959 9.00232 1.51505 9.00232C1.5342 9.00232 1.55095 9.00635 1.56531 9.01443C1.57967 9.0225 1.58685 9.03461 1.58685 9.05075C1.66584 9.3393 1.83338 9.59355 2.08948 9.8135C2.16663 9.88039 2.24833 9.93972 2.33456 9.99149C2.53188 10.11 2.75295 10.1889 2.99779 10.2282C3.01933 10.2282 3.03489 10.2352 3.04446 10.2494C3.04825 10.2542 3.05129 10.2593 3.05358 10.2647L3.05359 10.2647C3.05708 10.273 3.05882 10.282 3.05882 10.2917C3.05882 10.3079 3.05404 10.322 3.04446 10.3341C3.03489 10.3462 3.01933 10.3523 2.99779 10.3523C2.64595 10.4189 2.34079 10.5581 2.0823 10.77C1.82141 10.9798 1.65626 11.2331 1.58685 11.5297C1.58685 11.5479 1.57967 11.561 1.56531 11.569C1.55095 11.5771 1.5342 11.5811 1.51505 11.5811C1.47436 11.5811 1.44923 11.564 1.43966 11.5297C1.36307 11.2411 1.20031 10.9879 0.951394 10.77C0.700082 10.55 0.397312 10.4108 0.0430822 10.3523L0.0143606 10.3281ZM16.9555 10.3281C16.946 10.32 16.9412 10.3079 16.9412 10.2917C16.9412 10.2756 16.9436 10.2615 16.9484 10.2494C16.9531 10.2352 16.9651 10.2282 16.9843 10.2282C17.3385 10.1616 17.6413 10.0234 17.8926 9.8135C18.1415 9.60364 18.3042 9.34939 18.3808 9.05075C18.3904 9.03461 18.4012 9.0225 18.4131 9.01443C18.4227 9.00635 18.4371 9.00232 18.4562 9.00232C18.4754 9.00232 18.4921 9.00635 18.5065 9.01443C18.5209 9.0225 18.528 9.03461 18.528 9.05075C18.607 9.3393 18.7746 9.59355 19.0307 9.8135C19.2844 10.0334 19.5871 10.1717 19.939 10.2282C19.9605 10.2282 19.9761 10.2352 19.9856 10.2494C19.9894 10.2542 19.9925 10.2593 19.9948 10.2647C19.9983 10.273 20 10.282 20 10.2917C20 10.3079 19.9952 10.322 19.9856 10.3341C19.9761 10.3462 19.9605 10.3523 19.939 10.3523C19.5871 10.4189 19.282 10.5581 19.0235 10.77C18.7626 10.9798 18.5974 11.2331 18.528 11.5297C18.528 11.5479 18.5209 11.561 18.5065 11.569C18.4921 11.5771 18.4754 11.5811 18.4562 11.5811C18.4322 11.5811 18.4136 11.5752 18.4004 11.5632C18.3913 11.5549 18.3848 11.5437 18.3808 11.5297C18.3042 11.2411 18.1415 10.9879 17.8926 10.77C17.6413 10.55 17.3385 10.4108 16.9843 10.3523L16.9555 10.3281ZM13.9216 18.5348L6.07843 18.5348C5.66668 18.5348 5.34314 18.8571 5.34314 19.2674C5.34314 19.6776 5.66668 20 6.07843 20L13.9216 20C14.3333 20 14.6569 19.6776 14.6569 19.2674C14.6569 18.8571 14.3333 18.5348 13.9216 18.5348Z" fill="rgb(0,0,0)" fill-rule="evenodd" />
</svg>
